<svg width="59" height="52" viewBox="0 0 59 52" fill="none" xmlns="http://www.w3.org/2000/svg">
<g opacity="0.7" clip-path="url(#clip0)">
<path d="M54.1664 36.0776C53.9378 36.0776 53.7092 35.9803 53.542 35.7916C53.2353 35.4369 53.2632 34.8934 53.6089 34.5788C55.9896 32.3878 57.35 29.167 57.3277 25.746C57.3054 22.0562 55.6607 18.5837 52.9231 16.4613C52.5551 16.1753 52.4826 15.6376 52.7614 15.26C53.0402 14.8824 53.5643 14.8081 53.9323 15.0941C57.0824 17.5368 58.9837 21.5127 59.006 25.7346C59.0283 29.6475 57.4671 33.3374 54.7295 35.8545C54.5623 36.009 54.3616 36.0776 54.1664 36.0776Z" fill="#18313A"/>
<path d="M53.2125 31.6441C53.0676 31.6441 52.917 31.604 52.7832 31.5239C52.3874 31.2779 52.2591 30.7516 52.4933 30.3455C53.2795 29.0011 53.6865 27.4165 53.6809 25.7689C53.6697 23.8639 53.0843 22.0219 52.0305 20.586C51.7518 20.2084 51.8243 19.6707 52.1978 19.3846C52.5658 19.0986 53.0899 19.173 53.3687 19.5562C54.6343 21.2839 55.3424 23.4864 55.3535 25.7575C55.3647 27.7197 54.874 29.6075 53.9318 31.2265C53.7757 31.4953 53.4969 31.6441 53.2125 31.6441Z" fill="#18313A"/>
<path d="M44.3248 46.7238C44.23 46.7238 44.1352 46.7067 44.046 46.6723L14.0554 35.6886C12.9849 35.2939 12.2656 34.247 12.2656 33.08V17.4625C12.2656 16.2954 12.9849 15.2486 14.0554 14.8538L44.046 3.8701C44.4809 3.71564 44.9604 3.94447 45.1165 4.39068C45.2726 4.8369 45.044 5.32888 44.6091 5.48906L14.6185 16.4728C14.2115 16.6215 13.9383 17.022 13.9383 17.4625V33.0742C13.9383 33.5205 14.2115 33.9152 14.6185 34.0639L44.6036 45.0591C45.0384 45.2193 45.267 45.7113 45.1109 46.1575C44.9883 46.5064 44.6705 46.7238 44.3248 46.7238Z" fill="#18313A"/>
<path d="M13.1024 34.1383H4.28756C1.92355 34.1383 0 32.1647 0 29.7391V20.8034C0 18.3778 1.92355 16.4041 4.28756 16.4041H13.1024C13.5652 16.4041 13.9388 16.7874 13.9388 17.2622C13.9388 17.7371 13.5652 18.1204 13.1024 18.1204H4.28756C2.84908 18.1204 1.67265 19.3274 1.67265 20.8034V29.7334C1.67265 31.215 2.84908 32.4221 4.28756 32.4221H13.1024C13.5652 32.4221 13.9388 32.8054 13.9388 33.2802C13.9388 33.755 13.5652 34.1383 13.1024 34.1383Z" fill="#18313A"/>
<path d="M46.5558 49.5842C44.8664 49.5842 43.4893 48.1712 43.4893 46.4378V4.10463C43.4893 2.37126 44.8664 0.958252 46.5558 0.958252C48.2452 0.958252 49.6223 2.37126 49.6223 4.10463V46.4378C49.6223 48.1712 48.2452 49.5842 46.5558 49.5842ZM46.5558 2.67446C45.7864 2.67446 45.1619 3.31518 45.1619 4.10463V46.4378C45.1619 47.2272 45.7864 47.868 46.5558 47.868C47.3252 47.868 47.9497 47.2272 47.9497 46.4378V4.10463C47.9497 3.31518 47.3252 2.67446 46.5558 2.67446Z" fill="#18313A"/>
<path d="M15.0314 51.9582C13.749 51.9582 12.5726 51.6837 11.9537 51.0487C10.3034 49.3553 6.69043 35.7458 6.69043 33.8522C6.69043 33.3774 7.06399 32.9941 7.52676 32.9941C7.98952 32.9941 8.36308 33.3774 8.36308 33.8522C8.36308 35.803 12.0206 48.6917 13.1357 49.8359C13.8327 50.551 17.6351 50.2992 18.6443 49.2638C19.1573 48.7375 19.029 47.9766 16.9103 45.2593C14.7136 42.4447 13.8382 38.8521 14.5129 35.4026C14.6021 34.9392 15.0481 34.636 15.4942 34.7275C15.9458 34.819 16.2413 35.271 16.1521 35.7344C15.5778 38.6862 16.3305 41.764 18.215 44.1838C19.7483 46.1517 21.6551 48.5945 19.8263 50.4766C18.9454 51.3805 16.8825 51.9582 15.0314 51.9582Z" fill="#18313A"/>
<path d="M4.18171 17.5482C3.91409 17.5482 3.64647 17.4167 3.48478 17.165C2.20799 15.197 0.574363 10.5347 3.54611 6.9764C3.84718 6.61599 4.37686 6.57595 4.72811 6.88487C5.07937 7.19378 5.1184 7.73725 4.81732 8.09765C1.93479 11.553 4.75599 16.0265 4.87865 16.2153C5.13513 16.6101 5.02919 17.1421 4.64448 17.4052C4.49952 17.5025 4.3434 17.5482 4.18171 17.5482Z" fill="#18313A"/>
<path d="M6.41223 8.39515C4.72285 8.39515 3.3457 6.98214 3.3457 5.24877C3.3457 3.5154 4.72285 2.10239 6.41223 2.10239C8.10161 2.10239 9.47876 3.5154 9.47876 5.24877C9.47876 6.98214 8.10161 8.39515 6.41223 8.39515ZM6.41223 3.8186C5.64281 3.8186 5.01835 4.45931 5.01835 5.24877C5.01835 6.03822 5.64281 6.67894 6.41223 6.67894C7.18165 6.67894 7.80611 6.03822 7.80611 5.24877C7.80611 4.45931 7.18165 3.8186 6.41223 3.8186Z" fill="#18313A"/>
<path d="M17.2563 41.1347C17.2117 41.1347 17.1727 41.1347 17.1281 41.129L15.8123 41.0031C15.3551 40.9574 15.015 40.5398 15.0596 40.0649C15.1042 39.5901 15.5112 39.2412 15.974 39.2926L17.2675 39.4185C17.3456 39.4128 17.418 39.367 17.4459 39.3327C17.4794 39.2984 17.524 39.224 17.5128 39.121L17.2954 37.3991C17.234 36.93 17.5574 36.5009 18.0146 36.438C18.4662 36.3751 18.89 36.7069 18.9513 37.176L19.1687 38.8979C19.2412 39.4871 19.0572 40.0764 18.6614 40.5054C18.2934 40.9059 17.786 41.1347 17.2563 41.1347Z" fill="#18313A"/>
<path d="M9.19907 22.6969H4.73867C4.2759 22.6969 3.90234 22.3136 3.90234 21.8388C3.90234 21.364 4.2759 20.9807 4.73867 20.9807H9.19907C9.66184 20.9807 10.0354 21.364 10.0354 21.8388C10.0354 22.3136 9.66184 22.6969 9.19907 22.6969Z" fill="#18313A"/>
<path d="M9.19907 26.1293H4.73867C4.2759 26.1293 3.90234 25.746 3.90234 25.2712C3.90234 24.7964 4.2759 24.4131 4.73867 24.4131H9.19907C9.66184 24.4131 10.0354 24.7964 10.0354 25.2712C10.0354 25.746 9.66184 26.1293 9.19907 26.1293Z" fill="#18313A"/>
<path d="M9.19907 29.5617H4.73867C4.2759 29.5617 3.90234 29.1784 3.90234 28.7036C3.90234 28.2288 4.2759 27.8455 4.73867 27.8455H9.19907C9.66184 27.8455 10.0354 28.2288 10.0354 28.7036C10.0354 29.1784 9.66184 29.5617 9.19907 29.5617Z" fill="#18313A"/>
</g>
<defs>
<clipPath id="clip0">
<rect width="59" height="51" fill="white" transform="translate(0 0.958252)"/>
</clipPath>
</defs>
</svg>
