<svg width="85" height="73" viewBox="0 0 85 73" fill="none" xmlns="http://www.w3.org/2000/svg">
<path d="M76.7627 71.8818C76.7627 70.3857 74.501 70.3907 74.501 71.8818C74.501 73.3728 76.7627 73.3728 76.7627 71.8818Z" fill="#18313A"/>
<path d="M71.2572 72.7683H10.261C8.93115 72.7683 8.92611 70.7534 10.261 70.7534H71.2623C72.5921 70.7534 72.5921 72.7683 71.2572 72.7683Z" fill="#18313A"/>
<path d="M29.2305 28.5713H1.10742V59.0467H29.2305V28.5713Z" fill="#FD7973"/>
<path d="M25.0654 68.6226H4.83577C2.17106 68.6226 0 66.4515 0 63.7868V28.0474C0 25.3827 2.17106 23.2117 4.83577 23.2117H25.0654C27.7301 23.2117 29.9012 25.3777 29.9012 28.0474V63.7868C29.9012 66.4566 27.7301 68.6226 25.0654 68.6226ZM4.83577 25.2518C3.29437 25.2518 2.04009 26.506 2.04009 28.0474V63.7868C2.04009 65.3282 3.29437 66.5825 4.83577 66.5825H25.0654C26.6068 66.5825 27.8611 65.3282 27.8611 63.7868V28.0474C27.8611 26.506 26.6068 25.2518 25.0654 25.2518H4.83577Z" fill="#18313A"/>
<path d="M18.5523 64.613C17.0412 64.613 17.0412 62.326 18.5523 62.326C20.0635 62.326 20.0635 64.613 18.5523 64.613Z" fill="#18313A"/>
<path d="M15.3033 64.613C13.7921 64.613 13.7921 62.326 15.3033 62.326C16.8145 62.326 16.8145 64.613 15.3033 64.613Z" fill="#18313A"/>
<path d="M12.0494 64.613C10.5382 64.613 10.5382 62.326 12.0494 62.326C13.5606 62.326 13.5656 64.613 12.0494 64.613Z" fill="#18313A"/>
<path d="M23.3928 36.8678H6.59858C6.03441 36.8678 5.58105 36.4094 5.58105 35.8502V31.8708C5.58105 31.3066 6.03945 30.8533 6.59858 30.8533H23.3928C23.957 30.8533 24.4103 31.3117 24.4103 31.8708V35.8502C24.4103 36.4144 23.957 36.8678 23.3928 36.8678ZM7.61611 34.8327H22.3753V32.8934H7.61611V34.8327Z" fill="white"/>
<path d="M12.5325 44.8266H6.59858C6.03441 44.8266 5.58105 44.3682 5.58105 43.8091V39.8297C5.58105 39.2655 6.03945 38.8121 6.59858 38.8121H12.5325C13.0967 38.8121 13.55 39.2705 13.55 39.8297V43.8091C13.55 44.3682 13.0916 44.8266 12.5325 44.8266ZM7.61611 42.7865H11.5099V40.8472H7.61611V42.7865Z" fill="white"/>
<path d="M23.2568 44.8266H17.0458C16.4817 44.8266 16.0283 44.3682 16.0283 43.8091V39.8297C16.0283 39.2655 16.4867 38.8121 17.0458 38.8121H23.2568C23.821 38.8121 24.2743 39.2705 24.2743 39.8297V43.8091C24.2743 44.3682 23.8159 44.8266 23.2568 44.8266ZM18.0634 42.7865H22.2342V40.8472H18.0634V42.7865Z" fill="white"/>
<path d="M21.2069 48.796H19.6958C18.3659 48.796 18.3609 46.7811 19.6958 46.7811H21.2069C21.761 46.7811 22.2144 47.2345 22.2144 47.7886C22.2144 48.3427 21.761 48.796 21.2069 48.796ZM14.6585 48.796H13.1473C11.8175 48.796 11.8124 46.7811 13.1473 46.7811H14.6585C15.2126 46.7811 15.666 47.2345 15.666 47.7886C15.666 48.3427 15.2126 48.796 14.6585 48.796ZM8.11006 48.796H6.59888C5.26904 48.796 5.264 46.7811 6.59888 46.7811H8.11006C8.66416 46.7811 9.11751 47.2345 9.11751 47.7886C9.11751 48.3427 8.66416 48.796 8.11006 48.796Z" fill="white"/>
<path d="M23.4139 52.7855H6.59947C5.25452 52.7855 5.24948 50.7505 6.59947 50.7505H23.4139C23.978 50.7505 24.4314 51.2089 24.4314 51.768C24.4314 52.3272 23.978 52.7855 23.4139 52.7855Z" fill="white"/>
<path d="M23.3937 56.7599H6.59947C5.25452 56.7599 5.24948 54.7249 6.59947 54.7249H23.3937C23.9579 54.7249 24.4112 55.1832 24.4112 55.7424C24.4112 56.3066 23.9579 56.7599 23.3937 56.7599Z" fill="white"/>
<path d="M71.4337 4.2112C71.4337 2.59423 70.1089 1.28455 68.4769 1.28455H25.5291C23.8971 1.28455 22.5723 2.59423 22.5723 4.2112V8.42739H71.4337V4.2112Z" fill="#FD7973"/>
<path d="M21.8516 21.5948V8.33167C21.8516 7.00687 23.8614 7.00183 23.8614 8.33167V21.5948C23.8614 22.9246 21.8516 22.9246 21.8516 21.5948Z" fill="#18313A"/>
<path d="M71.4395 62.4319V8.33167C71.4395 7.00687 73.4493 7.00183 73.4493 8.33167V62.4369C73.4443 63.7617 71.4395 63.7617 71.4395 62.4319Z" fill="#18313A"/>
<path d="M72.3804 9.33405C72.3401 9.33909 22.8943 9.33405 22.854 9.33405C22.2999 9.33405 21.8516 8.88573 21.8516 8.33163V4.29679C21.8516 1.92927 23.7808 0 26.1483 0H69.1515C71.519 0 73.4482 1.92927 73.4482 4.29679V8.33163C73.4432 8.92099 72.9345 9.37435 72.3804 9.33405ZM23.8614 7.32418H71.4384V4.29679C71.4384 3.03747 70.4108 2.00987 69.1515 2.00987H26.1483C24.889 2.00987 23.8614 3.03747 23.8614 4.29679V7.32418Z" fill="#18313A"/>
<path d="M79.9672 63.2176V26.5917C79.9672 25.6849 79.2268 24.9445 78.32 24.9445H73.177C71.8472 24.9445 71.8421 22.9296 73.177 22.9296H78.32C80.34 22.9296 81.9821 24.5717 81.9821 26.5917V63.2176C81.9821 64.5474 79.9672 64.5525 79.9672 63.2176Z" fill="#18313A"/>
<path d="M75.7208 61.9785V29.1959H73.177C71.8472 29.1959 71.8421 27.181 73.177 27.181H76.4663C77.1665 27.181 77.7408 27.7502 77.7408 28.4555V61.9835C77.7357 63.3083 75.7208 63.3133 75.7208 61.9785Z" fill="#18313A"/>
<path d="M79.3772 68.4714H7.23853C5.90869 68.4714 5.90365 66.4565 7.23853 66.4565H79.3822C80.7121 66.4565 81.8203 65.4894 82.0469 64.225H51.7478C51.1584 64.89 50.3071 65.2879 49.4105 65.2879C46.0255 65.2879 44.8518 65.5599 43.6731 64.225H33.8353C32.5054 64.225 32.5004 62.2101 33.8353 62.2101H44.1818C45.1641 62.2101 44.9727 63.273 46.0103 63.273C49.5667 63.273 49.9444 63.4392 50.3676 62.7139C50.7907 61.9885 48.8715 62.2152 83.0947 62.2152C83.6488 62.2152 84.1021 62.6685 84.1021 63.2226V63.7515C84.1021 66.3558 81.9814 68.4714 79.3772 68.4714Z" fill="#18313A"/>
<path d="M26.6924 4.84089C26.6924 6.2614 28.8685 6.2614 28.8685 4.84089C28.8685 3.41534 26.6924 3.41534 26.6924 4.84089Z" fill="#18313A"/>
<path d="M30.5615 4.84089C30.5615 6.2614 32.7376 6.2614 32.7376 4.84089C32.7326 3.41534 30.5615 3.41534 30.5615 4.84089Z" fill="#18313A"/>
<path d="M34.4248 4.84089C34.4248 6.2614 36.6009 6.2614 36.6009 4.84089C36.6009 3.41534 34.4248 3.41534 34.4248 4.84089Z" fill="#18313A"/>
<path d="M63.4044 30.1832H61.8932C60.5634 30.1832 60.5584 28.1683 61.8932 28.1683H63.4044C63.9585 28.1683 64.4119 28.6217 64.4119 29.1758C64.4119 29.7299 63.9585 30.1832 63.4044 30.1832ZM56.856 30.1832H55.3448C54.015 30.1832 54.0099 28.1683 55.3448 28.1683H56.856C57.4101 28.1683 57.8634 28.6217 57.8634 29.1758C57.8634 29.7299 57.4101 30.1832 56.856 30.1832ZM50.3075 30.1832H48.7964C47.4665 30.1832 47.4615 28.1683 48.7964 28.1683H50.3075C50.8616 28.1683 51.315 28.6217 51.315 29.1758C51.315 29.7299 50.8616 30.1832 50.3075 30.1832ZM43.7591 30.1832H42.2479C40.9181 30.1832 40.913 28.1683 42.2479 28.1683H43.7591C44.3132 28.1683 44.7665 28.6217 44.7665 29.1758C44.7665 29.7299 44.3132 30.1832 43.7591 30.1832ZM37.2106 30.1832H35.6995C34.3696 30.1832 34.3646 28.1683 35.6995 28.1683H37.2106C37.7647 28.1683 38.2181 28.6217 38.2181 29.1758C38.2181 29.7299 37.7647 30.1832 37.2106 30.1832Z" fill="#18313A"/>
<path d="M64.1295 55.1631H34.0873C32.7625 55.1631 32.7574 53.1532 34.0873 53.1532H64.1295C65.4543 53.1532 65.4594 55.1631 64.1295 55.1631Z" fill="#18313A"/>
<path d="M64.245 49.5566H33.684C32.3592 49.5566 32.3541 47.5468 33.684 47.5468H64.245C65.5698 47.5468 65.5749 49.5566 64.245 49.5566Z" fill="#18313A"/>
<path d="M63.9576 24.7833H32.1725C30.8477 24.7833 30.8427 22.7734 32.1725 22.7734H62.9552V17.0611H29.7345V20.5872C29.7345 21.912 27.7246 21.9171 27.7246 20.5872V16.0537C27.7246 15.4996 28.1729 15.0513 28.727 15.0513H63.9526C64.5067 15.0513 64.955 15.4996 64.955 16.0537V23.7758C64.9601 24.3349 64.5117 24.7833 63.9576 24.7833Z" fill="#18313A"/>
<path d="M63.958 43.255H33.9359C32.6111 43.255 32.6061 41.2451 33.9359 41.2451H62.9556V35.5278H33.9359C32.6111 35.5278 32.6061 33.5179 33.9359 33.5179H63.958C64.5121 33.5179 64.9604 33.9663 64.9604 34.5204V42.2425C64.9604 42.8016 64.5121 43.255 63.958 43.255Z" fill="#18313A"/>
<path d="M38.6553 41.7437V34.8578C38.6553 33.533 40.6651 33.528 40.6651 34.8578V41.7437C40.6651 43.0736 38.6553 43.0736 38.6553 41.7437Z" fill="#18313A"/>
<path d="M51.7383 41.7437V34.8578C51.7383 33.533 53.7481 33.528 53.7481 34.8578V41.7437C53.7431 43.0736 51.7383 43.0736 51.7383 41.7437Z" fill="#18313A"/>
</svg>
