<svg width="85" height="73" viewBox="0 0 85 73" fill="none" xmlns="http://www.w3.org/2000/svg">
<g opacity="0.7">
<path d="M51.2335 63.2175C50.4477 64.5675 49.3647 64.2804 46.0099 64.2804C45.2241 64.2804 44.5491 63.8522 44.1813 63.2175H33.0087C33.0087 64.2754 33.1346 65.7865 31.9609 67.4639H79.3767C81.4269 67.4639 83.0942 65.8016 83.0942 63.7464V63.2175H51.2335Z" fill="white"/>
<path d="M76.7637 71.8819C76.7637 70.3858 74.502 70.3909 74.502 71.8819C74.502 73.3729 76.7637 73.3729 76.7637 71.8819Z" fill="#18313A"/>
<path d="M71.2564 72.7732H10.2551C8.92529 72.7732 8.92025 70.7583 10.2551 70.7583H71.2564C72.5862 70.7583 72.5912 72.7732 71.2564 72.7732Z" fill="#18313A"/>
<path d="M29.2304 28.5713H1.10742V59.0467H29.2304V28.5713Z" fill="white"/>
<path d="M25.0654 68.6226H4.83577C2.17106 68.6226 0 66.4515 0 63.7868V28.0475C0 25.3827 2.17106 23.2117 4.83577 23.2117H25.0654C27.7301 23.2117 29.9012 25.3777 29.9012 28.0475V63.7868C29.8962 66.4566 27.7301 68.6226 25.0654 68.6226ZM4.83075 25.2518C3.28935 25.2518 2.03506 26.5061 2.03506 28.0475V63.7868C2.03506 65.3282 3.28935 66.5825 4.83075 66.5825H25.0604C26.6018 66.5825 27.8561 65.3282 27.8561 63.7868V28.0475C27.8561 26.5061 26.6018 25.2518 25.0604 25.2518H4.83075Z" fill="#18313A"/>
<path d="M18.5533 64.6128C17.0421 64.6128 17.0421 62.3259 18.5533 62.3259C20.0645 62.3259 20.0645 64.6128 18.5533 64.6128Z" fill="#18313A"/>
<path d="M15.3033 64.6128C13.7921 64.6128 13.7921 62.3259 15.3033 62.3259C16.8094 62.3259 16.8145 64.6128 15.3033 64.6128Z" fill="#18313A"/>
<path d="M12.0494 64.6128C10.5382 64.6128 10.5382 62.3259 12.0494 62.3259C13.5606 62.3259 13.5606 64.6128 12.0494 64.6128Z" fill="#18313A"/>
<path d="M23.3938 36.8678H6.59955C6.03538 36.8678 5.58203 36.4094 5.58203 35.8502V31.8708C5.58203 31.3066 6.04042 30.8533 6.59955 30.8533H23.3938C23.958 30.8533 24.4113 31.3116 24.4113 31.8708V35.8502C24.4113 36.4144 23.958 36.8678 23.3938 36.8678ZM7.61709 34.8327H22.3763V32.8934H7.61709V34.8327Z" fill="#18313A"/>
<path d="M12.5276 44.8265H6.59371C6.02954 44.8265 5.57617 44.3681 5.57617 43.809V39.8295C5.57617 39.2654 6.03457 38.812 6.59371 38.812H12.5276C13.0918 38.812 13.5451 39.2704 13.5451 39.8295V43.809C13.5502 44.3731 13.0918 44.8265 12.5276 44.8265ZM7.61627 42.7915H11.5101V40.8521H7.61627V42.7915Z" fill="#18313A"/>
<path d="M23.2519 44.8265H17.041C16.4768 44.8265 16.0234 44.3681 16.0234 43.809V39.8295C16.0234 39.2654 16.4818 38.812 17.041 38.812H23.2519C23.8161 38.812 24.2694 39.2704 24.2694 39.8295V43.809C24.2745 44.3731 23.8161 44.8265 23.2519 44.8265ZM18.0635 42.7915H22.2344V40.8521H18.0635V42.7915Z" fill="#18313A"/>
<path d="M21.2069 48.7959H19.6958C18.3659 48.7959 18.3609 46.781 19.6958 46.781H21.2069C21.761 46.781 22.2144 47.2344 22.2144 47.7885C22.2144 48.3426 21.761 48.7959 21.2069 48.7959ZM14.6585 48.7959H13.1473C11.8175 48.7959 11.8124 46.781 13.1473 46.781H14.6585C15.2126 46.781 15.6659 47.2344 15.6659 47.7885C15.6659 48.3426 15.2126 48.7959 14.6585 48.7959ZM8.11006 48.7959H6.59888C5.26904 48.7959 5.264 46.781 6.59888 46.781H8.11006C8.66415 46.781 9.11751 47.2344 9.11751 47.7885C9.11751 48.3426 8.66415 48.7959 8.11006 48.7959Z" fill="#18313A"/>
<path d="M23.4129 52.7855H6.59849C5.25354 52.7855 5.24851 50.7505 6.59849 50.7505H23.4129C23.977 50.7505 24.4304 51.2089 24.4304 51.768C24.4304 52.3271 23.977 52.7855 23.4129 52.7855Z" fill="#18313A"/>
<path d="M23.3927 56.7599H6.59849C5.25354 56.7599 5.24851 54.7249 6.59849 54.7249H23.3927C23.9569 54.7249 24.4103 55.1833 24.4103 55.7424C24.4103 56.3066 23.9569 56.7599 23.3927 56.7599Z" fill="#18313A"/>
<path d="M80.677 63.3184V26.7176C80.677 25.1964 79.4429 23.9673 77.9267 23.9673H72.3958L72.1641 28.0525H76.5012V63.3184H80.677Z" fill="white"/>
<path d="M71.4329 4.21107C71.4329 2.59411 70.1081 1.28442 68.476 1.28442H25.5233C23.8912 1.28442 22.5664 2.59411 22.5664 4.21107V8.42726H71.4278V4.21107H71.4329Z" fill="white"/>
<path d="M21.8516 21.5948V8.33167C21.8516 7.00687 23.8614 7.00183 23.8614 8.33167V21.5948C23.8564 22.9246 21.8516 22.9246 21.8516 21.5948Z" fill="#18313A"/>
<path d="M71.4336 62.4369V8.33167C71.4336 7.00687 73.4435 7.00183 73.4435 8.33167V62.4369C73.4435 63.7617 71.4336 63.7617 71.4336 62.4369Z" fill="#18313A"/>
<path d="M72.3803 9.33403C72.34 9.33907 22.8943 9.33403 22.854 9.33403C22.2999 9.33403 21.8516 8.88572 21.8516 8.33162V4.29677C21.8516 1.92926 23.7808 0 26.1483 0H69.1514C71.519 0 73.4482 1.92926 73.4482 4.29677V8.33162C73.4432 8.92602 72.9344 9.37433 72.3803 9.33403ZM23.8564 7.32417H71.4333V4.29677C71.4333 3.03745 70.4057 2.00986 69.1464 2.00986H26.1433C24.884 2.00986 23.8564 3.03745 23.8564 4.29677V7.32417Z" fill="#18313A"/>
<path d="M79.9614 63.2177V26.5918C79.9614 25.6851 79.2209 24.9446 78.3142 24.9446H73.1711C71.8413 24.9446 71.8363 22.9297 73.1711 22.9297H78.3142C80.3341 22.9297 81.9763 24.5718 81.9763 26.5918V63.2177C81.9763 64.5526 79.9614 64.5526 79.9614 63.2177Z" fill="#18313A"/>
<path d="M75.715 61.9784V29.1909H73.1711C71.8413 29.1909 71.8363 27.176 73.1711 27.176H76.4605C77.1607 27.176 77.7349 27.7452 77.7349 28.4504V61.9784C77.7299 63.3083 75.715 63.3133 75.715 61.9784Z" fill="#18313A"/>
<path d="M79.3781 68.4714H7.2395C5.90967 68.4714 5.90463 66.4565 7.2395 66.4565H79.3832C80.713 66.4565 81.8212 65.4894 82.0479 64.225H51.7487C51.1594 64.89 50.3081 65.2879 49.4115 65.2879C46.0264 65.2879 44.8527 65.5599 43.674 64.225H33.8362C32.5064 64.225 32.5014 62.2101 33.8362 62.2101H44.1828C45.165 62.2101 44.9736 63.273 46.0113 63.273C49.5676 63.273 49.9454 63.4392 50.3635 62.7139C50.7866 61.9885 48.8674 62.2152 83.0906 62.2152C83.6447 62.2152 84.098 62.6685 84.098 63.2226V63.7515C84.1031 66.3558 81.9824 68.4714 79.3781 68.4714Z" fill="#18313A"/>
<path d="M26.6934 4.84077C26.6934 6.26128 28.8694 6.26128 28.8694 4.84077C28.8694 3.42026 26.6934 3.42026 26.6934 4.84077Z" fill="#18313A"/>
<path d="M30.5605 4.84077C30.5605 6.26128 32.7366 6.26128 32.7366 4.84077C32.7316 3.42026 30.5605 3.42026 30.5605 4.84077Z" fill="#18313A"/>
<path d="M34.4238 4.84077C34.4238 6.26128 36.5999 6.26128 36.5999 4.84077C36.5999 3.42026 34.4238 3.42026 34.4238 4.84077Z" fill="#18313A"/>
<path d="M63.4034 30.1882H61.8922C60.5624 30.1882 60.5574 28.1733 61.8922 28.1733H63.4034C63.9575 28.1733 64.4109 28.6267 64.4109 29.1808C64.4109 29.7349 63.9575 30.1882 63.4034 30.1882ZM56.855 30.1882H55.3438C54.014 30.1882 54.0089 28.1733 55.3438 28.1733H56.855C57.4091 28.1733 57.8624 28.6267 57.8624 29.1808C57.8624 29.7349 57.4091 30.1882 56.855 30.1882ZM50.3065 30.1882H48.7954C47.4655 30.1882 47.4605 28.1733 48.7954 28.1733H50.3065C50.8606 28.1733 51.314 28.6267 51.314 29.1808C51.314 29.7349 50.8606 30.1882 50.3065 30.1882ZM43.7581 30.1882H42.2469C40.9171 30.1882 40.9121 28.1733 42.2469 28.1733H43.7581C44.3122 28.1733 44.7656 28.6267 44.7656 29.1808C44.7656 29.7349 44.3122 30.1882 43.7581 30.1882ZM37.2097 30.1882H35.6985C34.3686 30.1882 34.3636 28.1733 35.6985 28.1733H37.2097C37.7638 28.1733 38.2171 28.6267 38.2171 29.1808C38.2171 29.7349 37.7638 30.1882 37.2097 30.1882Z" fill="#18313A"/>
<path d="M64.1295 55.163H34.0873C32.7625 55.163 32.7574 53.1531 34.0873 53.1531H64.1295C65.4543 53.1531 65.4593 55.163 64.1295 55.163Z" fill="#18313A"/>
<path d="M64.246 49.5565H33.6849C32.3601 49.5565 32.3551 47.5466 33.6849 47.5466H64.246C65.5708 47.5466 65.5758 49.5565 64.246 49.5565Z" fill="#18313A"/>
<path d="M63.9526 24.7833H32.1675C30.8427 24.7833 30.8376 22.7734 32.1675 22.7734H62.9502V17.0611H29.7345V20.5872C29.7345 21.912 27.7246 21.9171 27.7246 20.5872V16.0537C27.7246 15.4996 28.1729 15.0513 28.727 15.0513H63.9526C64.5067 15.0513 64.955 15.4996 64.955 16.0537V23.7758C64.96 24.3349 64.5117 24.7833 63.9526 24.7833Z" fill="#18313A"/>
<path d="M63.9531 43.2551H33.931C32.6062 43.2551 32.6012 41.2452 33.931 41.2452H62.9507V35.5279H33.931C32.6062 35.5279 32.6012 33.5181 33.931 33.5181H63.9531C64.5072 33.5181 64.9555 33.9664 64.9555 34.5205V42.2426C64.9606 42.8017 64.5123 43.2551 63.9531 43.2551Z" fill="#18313A"/>
<path d="M38.6562 41.7437V34.8578C38.6562 33.533 40.6661 33.528 40.6661 34.8578V41.7437C40.6661 43.0736 38.6562 43.0736 38.6562 41.7437Z" fill="#18313A"/>
<path d="M51.7324 41.7437V34.8578C51.7324 33.533 53.7423 33.528 53.7423 34.8578V41.7437C53.7423 43.0736 51.7324 43.0736 51.7324 41.7437Z" fill="#18313A"/>
</g>
</svg>
