<svg width="57" height="60" viewBox="0 0 57 60" fill="none" xmlns="http://www.w3.org/2000/svg">
<g opacity="0.7">
<path d="M23.8221 12.9361C23.3151 12.6459 23.4547 12.914 23.4327 4.78129C23.4327 4.19724 23.2674 4.45437 30.2981 0.369637C30.8014 0.0757709 30.5149 0.068424 37.5529 4.10908C37.7807 4.24132 37.9203 4.48008 37.9203 4.74456C37.9423 12.892 38.0782 12.6055 37.575 12.8993L31.0769 16.6792C30.5736 16.973 30.8712 16.9841 23.8221 12.9361ZM24.9204 11.8745L30.7059 15.1952L36.473 11.8451L36.4546 5.17434L30.6728 1.85733L24.9057 5.2074L24.9204 11.8745Z" fill="#18313A"/>
<path d="M29.9306 11.5696C27.172 10.8386 26.6504 7.10287 29.1372 5.65925C30.6726 4.76663 32.6489 5.2809 33.5489 6.82737C34.9851 9.30686 32.7003 12.3006 29.9306 11.5696ZM29.8755 6.92655C28.5238 7.71264 28.8029 9.74766 30.309 10.148C31.8187 10.5448 33.064 8.91749 32.2816 7.5657C31.7893 6.72451 30.7094 6.44167 29.8755 6.92655Z" fill="#18313A"/>
<path d="M53.994 52.6998V19.2542C53.994 18.5526 53.4246 17.9832 52.723 17.9832H51.217C50.2472 17.9832 50.2435 16.5139 51.217 16.5139H52.723C54.2364 16.5139 55.4633 17.7445 55.4633 19.2542V52.6961C55.4633 53.6696 53.994 53.6696 53.994 52.6998Z" fill="#18313A"/>
<path d="M1.51758 52.6998V19.2542C1.51758 17.7408 2.74814 16.5139 4.25787 16.5139H6.11657C7.08633 16.5139 7.09 17.9832 6.11657 17.9832H4.25787C3.55627 17.9832 2.98691 18.5526 2.98691 19.2542V52.6961C2.98691 53.6696 1.51758 53.6696 1.51758 52.6998Z" fill="#18313A"/>
<path d="M50.9604 52.8761V21.0137H48.5617C47.5919 21.0137 47.5883 19.5444 48.5617 19.5444H51.4893C52.0073 19.5444 52.426 19.9668 52.426 20.4811V52.8761C52.4297 53.8495 50.9604 53.8495 50.9604 52.8761Z" fill="#18313A"/>
<path d="M4.54785 52.8761V20.4847C4.54785 19.9668 4.97028 19.548 5.48455 19.548H6.45063C7.42039 19.548 7.42406 21.0174 6.45063 21.0174H6.01718V52.8797C6.01718 53.8495 4.54785 53.8495 4.54785 52.8761Z" fill="#18313A"/>
<path d="M53.5901 56.6449H3.3868C1.51708 56.6449 0 55.1242 0 53.2581V52.8798C0 52.4757 0.330599 52.1451 0.734664 52.1451H24.7472C25.4598 52.1451 25.3202 52.9018 26.0512 52.9018C31.2489 52.9018 31.2857 53.0377 31.5906 52.5087C31.8991 51.9798 30.4261 52.1451 56.2385 52.1451C56.6426 52.1451 56.9732 52.4757 56.9732 52.8798V53.2581C56.9769 55.1242 55.4598 56.6449 53.5901 56.6449ZM53.5901 55.1756C54.5268 55.1756 55.3092 54.4997 55.4745 53.6144H32.6007C31.7265 54.5952 31.1314 54.3711 26.0549 54.3711C25.412 54.3711 24.8023 54.0883 24.3798 53.6144H1.50239C1.67136 54.5034 2.4501 55.1756 3.3868 55.1756C4.22432 55.1756 52.9656 55.1756 53.5901 55.1756Z" fill="#18313A"/>
<path d="M49.9494 59.7011C48.9466 59.7011 48.9466 58.1841 49.9494 58.1841C50.9522 58.1841 50.9522 59.7011 49.9494 59.7011Z" fill="#18313A"/>
<path d="M47.1472 59.6754H8.48553C7.51577 59.6754 7.5121 58.2061 8.48553 58.2061H47.1472C47.5513 58.2061 47.8819 58.5367 47.8819 58.9408C47.8819 59.3485 47.5513 59.6754 47.1472 59.6754Z" fill="#18313A"/>
<path d="M11.0319 45.5368L19.1169 37.4518C19.8038 36.7649 20.8434 37.8045 20.1564 38.4914L12.0715 46.5763C11.3846 47.2632 10.345 46.2237 11.0319 45.5368Z" fill="#18313A"/>
<path d="M12.9265 47.4322L21.1069 39.2517C21.7938 38.5648 22.8334 39.6044 22.1465 40.2913L13.966 48.4718C13.2791 49.1587 12.2395 48.1191 12.9265 47.4322Z" fill="#18313A"/>
<path d="M38.9268 22.2516L36.8293 20.1542C35.4996 18.8244 35.4996 16.6608 36.8293 15.3311L43.2981 8.86238C43.5846 8.57586 44.0511 8.57586 44.3376 8.86238C50.7145 15.2393 50.4353 14.8425 50.4353 15.2613C50.4353 15.6837 50.7733 15.2282 43.7499 22.2516C42.4165 23.585 40.2602 23.585 38.9268 22.2516ZM43.8197 10.4199L37.8689 16.3706C37.1122 17.1274 37.1122 18.3579 37.8689 19.1146L39.9664 21.2121C40.7231 21.9688 41.9499 21.9725 42.7103 21.2121L48.6611 15.2613L43.8197 10.4199Z" fill="#18313A"/>
<path d="M21.8012 34.5204L24.7251 31.725C25.4267 31.0528 26.4443 32.1144 25.7427 32.7866L22.8187 35.582C22.1134 36.2543 21.0996 35.1927 21.8012 34.5204Z" fill="#18313A"/>
<path d="M30.2097 26.2408L37.0567 19.3938C37.7436 18.7069 38.7832 19.7464 38.0963 20.4333L31.2492 27.2804C30.5623 27.9636 29.5227 26.9277 30.2097 26.2408Z" fill="#18313A"/>
<path d="M23.6927 36.6106L26.8223 33.5764C27.5203 32.9005 28.5451 33.9548 27.8472 34.6307L24.7175 37.6648C24.0159 38.3407 22.9947 37.2865 23.6927 36.6106Z" fill="#18313A"/>
<path d="M32.1198 28.2759L39.0293 21.3664C39.7162 20.6795 40.7558 21.719 40.0689 22.4059L33.1594 29.3154C32.4724 30.0023 31.4329 28.9628 32.1198 28.2759Z" fill="#18313A"/>
<path d="M24.4856 43.1932C15.5999 34.3111 16.0737 34.9098 16.0737 34.4764C16.0737 34.0723 16.1178 34.1274 18.421 31.8243C18.5606 31.6847 18.7442 31.6075 18.9389 31.6075C19.3724 31.6075 18.781 31.1447 27.6557 40.0194C27.9422 40.3059 27.9422 40.7725 27.6557 41.059L25.5252 43.1895C25.235 43.4834 24.7722 43.4834 24.4856 43.1932ZM17.8443 34.4801L25.0036 41.6394L26.0982 40.5447L18.9389 33.3854L17.8443 34.4801Z" fill="#18313A"/>
<path d="M15.3878 50.628C14.9617 50.628 15.3327 50.8778 9.13579 44.6809C8.84927 44.3944 8.84927 43.9279 9.13579 43.6414L15.9829 36.7833C16.6698 36.0964 17.7093 37.1323 17.0224 37.8228L10.6933 44.1593L15.3841 48.8501L21.7132 42.5137C22.3965 41.8268 23.4397 42.8626 22.7528 43.5532C15.3253 50.9917 15.8176 50.628 15.3878 50.628Z" fill="#18313A"/>
<path d="M10.2376 23.1919C7.8977 20.852 6.46143 16.8187 8.79031 14.4862C9.17234 14.1041 9.61314 14.1409 9.89598 14.42L13.1726 17.6967L15.6631 17.333L16.0268 14.8425L12.7502 11.5659C11.369 10.1847 16.7761 7.21667 21.4927 11.9369C24.4974 14.9417 24.4203 19.9117 21.32 23.0156C18.2124 26.1196 13.2424 26.1967 10.2376 23.1919ZM9.42947 16.0363C8.4487 17.6636 9.60946 20.4884 11.2735 22.1524C13.7052 24.5841 17.7459 24.507 20.2731 21.9797C22.8004 19.4488 22.8812 15.4118 20.4458 12.9801C18.3593 10.8937 15.5492 10.4749 14.3738 11.1251C17.5291 14.2805 17.5989 14.2107 17.5255 14.6955C17.0259 18.1154 17.1324 18.6076 16.4088 18.7142C12.9008 19.2248 12.7538 19.368 12.3865 19.0007L9.42947 16.0363Z" fill="#18313A"/>
<path d="M33.853 38.8807L19.2442 24.2719C18.9577 23.9854 18.9577 23.5189 19.2442 23.2324C19.5307 22.9458 19.9972 22.9458 20.2837 23.2324L35.2929 38.2416C35.528 38.4766 35.5758 38.8403 35.4105 39.1305C31.5865 45.7168 39.4511 50.1872 42.2502 48.6407L39.3042 45.6947C38.9369 45.3274 39.0801 45.1841 39.5907 41.6724C39.6936 40.9635 40.0976 41.0663 43.6093 40.5557C44.1052 40.486 44.0391 40.5668 47.1982 43.7258C48.8181 41.0296 44.7554 33.9658 38.621 36.2837C37.4271 36.8641 37.001 37.213 36.5345 36.7465L21.6465 21.8696C20.9596 21.1827 21.9992 20.1431 22.6861 20.83L37.1994 35.3396C43.8775 32.0961 49.1964 37.8375 49.0054 42.6642C48.9577 43.8948 48.0283 45.5551 47.2496 45.5551C46.8345 45.5551 47.0035 45.6139 43.455 42.0655L40.9645 42.4291L40.6009 44.9197L43.8775 48.1963C44.164 48.4828 44.164 48.9493 43.8775 49.2358C43.1502 49.9631 42.2098 50.3782 41.229 50.4076C35.5978 50.5692 30.716 44.2842 33.853 38.8807Z" fill="#18313A"/>
</g>
</svg>
