<svg width="70" height="73" viewBox="0 0 70 73" fill="none" xmlns="http://www.w3.org/2000/svg">
<path d="M29.2538 15.5703C28.6313 15.2139 28.8027 15.5432 28.7757 5.55581C28.7757 4.83855 28.5727 5.15433 37.2068 0.138075C37.8248 -0.222806 37.4729 -0.231829 46.116 4.73029C46.3957 4.89269 46.5671 5.1859 46.5671 5.5107C46.5942 15.5161 46.7611 15.1643 46.1431 15.5252L38.1631 20.167C37.5451 20.5279 37.9105 20.5414 29.2538 15.5703ZM30.6026 14.2666L37.7075 18.3445L44.7898 14.2305L44.7672 6.03849L37.6669 1.96504L30.5846 6.07908L30.6026 14.2666Z" fill="#18313A"/>
<path d="M36.7558 13.8922C33.368 12.9945 32.7274 8.40683 35.7814 6.634C37.667 5.53782 40.0939 6.16937 41.1991 8.0685C42.9629 11.1134 40.1571 14.7899 36.7558 13.8922ZM36.6881 8.1903C35.028 9.15566 35.3709 11.6548 37.2204 12.1465C39.0744 12.6337 40.6036 10.6353 39.6428 8.97522C39.0383 7.9422 37.7121 7.59485 36.6881 8.1903Z" fill="#18313A"/>
<path d="M49.3325 26.911L47.3521 24.9307C46.3687 23.9473 46.5717 22.1429 47.8122 20.9024L55.4945 13.2201L61.0431 18.7686L53.3608 26.4509C52.1203 27.6914 50.3159 27.8989 49.3325 26.911Z" fill="#FD7973"/>
<path d="M22.9883 27.538L44.0908 48.3293L47.5011 45.3791L25.6272 24.4344L22.9883 27.538Z" fill="#FD7973"/>
<path d="M16.2893 13.2561L20.6334 17.6002L20.0244 21.7684L15.8563 22.3774L11.5121 18.0333C8.96342 20.582 10.6821 24.9983 13.2083 27.5289C16.5555 30.8761 22.0724 30.7769 25.5369 27.3169C29.0014 23.8525 29.0961 18.3355 25.7489 14.9883C23.331 12.5659 18.7478 10.7976 16.2893 13.2561Z" fill="#FD7973"/>
<path d="M52.5714 59.1602L48.2273 54.8161L48.8362 50.6479L53.0044 50.0389L57.3485 54.383C59.8973 51.8343 58.1786 47.418 55.6524 44.8873C52.3052 41.5402 46.7882 41.6394 43.3238 45.0993C39.8593 48.5593 39.7646 54.0808 43.1118 57.428C45.5297 59.8504 50.1129 61.6187 52.5714 59.1602Z" fill="#FD7973"/>
<path d="M66.3074 64.402V23.3292C66.3074 22.4676 65.6082 21.7684 64.7466 21.7684H62.8971C61.7062 21.7684 61.7017 19.964 62.8971 19.964H64.7466C66.6051 19.964 68.1118 21.4752 68.1118 23.3292V64.3975C68.1118 65.5929 66.3074 65.5929 66.3074 64.402Z" fill="#18313A"/>
<path d="M1.86304 64.402V23.3292C1.86304 21.4707 3.37423 19.964 5.22826 19.964H7.51083C8.70174 19.964 8.70625 21.7684 7.51083 21.7684H5.22826C4.36665 21.7684 3.66744 22.4676 3.66744 23.3292V64.3975C3.66744 65.5929 1.86304 65.5929 1.86304 64.402Z" fill="#18313A"/>
<path d="M62.5813 64.6185V25.49H59.6356C58.4447 25.49 58.4402 23.6855 59.6356 23.6855H63.2309C63.8669 23.6855 64.3812 24.2043 64.3812 24.8359V64.6185C64.3857 65.8139 62.5813 65.8139 62.5813 64.6185Z" fill="#18313A"/>
<path d="M5.58472 64.6185V24.8404C5.58472 24.2043 6.10348 23.6901 6.73503 23.6901H7.92142C9.11233 23.6901 9.11684 25.4945 7.92142 25.4945H7.38912V64.623C7.38912 65.8139 5.58472 65.8139 5.58472 64.6185Z" fill="#18313A"/>
<path d="M65.8112 69.2468H4.15916C1.86305 69.2468 0 67.3793 0 65.0877V64.623C0 64.1268 0.405991 63.7208 0.902203 63.7208H30.3907C31.2659 63.7208 31.0944 64.6501 31.9921 64.6501C38.3752 64.6501 38.4203 64.817 38.7947 64.1674C39.1737 63.5178 37.3648 63.7208 69.0637 63.7208C69.5599 63.7208 69.9659 64.1268 69.9659 64.623V65.0877C69.9704 67.3793 68.1073 69.2468 65.8112 69.2468ZM65.8112 67.4424C66.9615 67.4424 67.9224 66.6124 68.1254 65.5252H40.0353C38.9616 66.7297 38.2309 66.4545 31.9966 66.4545C31.2072 66.4545 30.4584 66.1072 29.9396 65.5252H1.84501C2.05251 66.6169 3.00885 67.4424 4.15916 67.4424C5.18767 67.4424 65.0443 67.4424 65.8112 67.4424Z" fill="#18313A"/>
<path d="M61.3409 73C60.1094 73 60.1094 71.137 61.3409 71.137C62.5724 71.137 62.5724 73 61.3409 73Z" fill="#18313A"/>
<path d="M57.899 72.9685H10.4205C9.2296 72.9685 9.22509 71.1641 10.4205 71.1641H57.899C58.3952 71.1641 58.8012 71.5701 58.8012 72.0663C58.8012 72.567 58.3952 72.9685 57.899 72.9685Z" fill="#18313A"/>
<path d="M13.5467 55.6055L23.4754 45.6768C24.319 44.8332 25.5956 46.1099 24.752 46.9534L14.8233 56.8822C13.9797 57.7257 12.7031 56.4491 13.5467 55.6055Z" fill="#FD7973"/>
<path d="M15.8741 57.9333L25.9201 47.8873C26.7637 47.0437 28.0403 48.3203 27.1967 49.1639L17.1507 59.2099C16.3071 60.0535 15.0305 58.7768 15.8741 57.9333Z" fill="#FD7973"/>
<path d="M47.8032 27.0103L45.2274 24.4345C43.5944 22.8015 43.5944 20.1445 45.2274 18.5115L53.1713 10.5676C53.5232 10.2157 54.0961 10.2157 54.4479 10.5676C62.2791 18.3987 61.9362 17.9115 61.9362 18.4258C61.9362 18.9446 62.3512 18.3852 53.7262 27.0103C52.0887 28.6478 49.4407 28.6478 47.8032 27.0103ZM53.8119 12.4803L46.504 19.7881C45.5748 20.7174 45.5748 22.2286 46.504 23.1579L49.0798 25.7336C50.0091 26.6629 51.5158 26.6674 52.4496 25.7336L59.7574 18.4258L53.8119 12.4803Z" fill="#18313A"/>
<path d="M26.7729 42.0769L30.3637 38.644C31.2253 37.8185 32.4748 39.1222 31.6132 39.9477L28.0224 43.3806C27.1563 44.2061 25.9113 42.9024 26.7729 42.0769Z" fill="#18313A"/>
<path d="M37.0987 31.9092L45.5072 23.5007C46.3508 22.6571 47.6274 23.9337 46.7838 24.7773L38.3753 33.1858C37.5317 34.0249 36.2551 32.7527 37.0987 31.9092Z" fill="#18313A"/>
<path d="M29.0961 44.6437L32.9394 40.9176C33.7965 40.0876 35.0551 41.3822 34.198 42.2123L30.3546 45.9384C29.493 46.7684 28.239 45.4737 29.0961 44.6437Z" fill="#18313A"/>
<path d="M39.4444 34.4084L47.9296 25.9231C48.7732 25.0796 50.0498 26.3562 49.2062 27.1998L40.721 35.685C39.8774 36.5285 38.6008 35.2519 39.4444 34.4084Z" fill="#18313A"/>
<path d="M30.0705 52.7274C19.1583 41.8198 19.7403 42.5551 19.7403 42.0228C19.7403 41.5266 19.7944 41.5943 22.6228 38.7659C22.7942 38.5944 23.0198 38.4997 23.2589 38.4997C23.7912 38.4997 23.0649 37.9313 33.9635 48.8299C34.3154 49.1818 34.3154 49.7547 33.9635 50.1065L31.3471 52.7229C30.9907 53.0838 30.4224 53.0838 30.0705 52.7274ZM21.9146 42.0273L30.7066 50.8193L32.0508 49.475L23.2589 40.683L21.9146 42.0273Z" fill="#18313A"/>
<path d="M18.8965 61.8578C18.3732 61.8578 18.8288 62.1646 11.2187 54.5545C10.8669 54.2027 10.8669 53.6298 11.2187 53.2779L19.6273 44.8558C20.4708 44.0123 21.7474 45.2844 20.9039 46.1324L13.1314 53.9139L18.892 59.6745L26.6644 51.893C27.5035 51.0494 28.7846 52.3216 27.9411 53.1696C18.8198 62.3044 19.4243 61.8578 18.8965 61.8578Z" fill="#18313A"/>
<path d="M12.5722 28.165C9.69871 25.2915 7.93491 20.3384 10.7949 17.4739C11.264 17.0048 11.8054 17.0499 12.1527 17.3927L16.1765 21.4165L19.235 20.9699L19.6816 17.9115L15.6578 13.8877C13.9616 12.1915 20.6018 8.54661 26.394 14.3433C30.084 18.0333 29.9893 24.1367 26.182 27.9485C22.3657 31.7603 16.2622 31.855 12.5722 28.165ZM11.5798 19.3776C10.3754 21.3759 11.8008 24.8449 13.8443 26.8884C16.8306 29.8747 21.7927 29.78 24.8963 26.6764C27.9999 23.5683 28.0992 18.6107 25.1083 15.6244C22.5461 13.0621 19.0952 12.5479 17.6516 13.3463C21.5266 17.2213 21.6123 17.1356 21.5221 17.731C20.9086 21.9308 21.0394 22.5353 20.1507 22.6661C15.8427 23.2931 15.6623 23.4691 15.2112 23.0179L11.5798 19.3776Z" fill="#18313A"/>
<path d="M41.5736 47.4316L23.6333 29.4913C23.2814 29.1394 23.2814 28.5665 23.6333 28.2147C23.9851 27.8628 24.558 27.8628 24.9099 28.2147L43.3419 46.6467C43.6306 46.9354 43.6893 47.382 43.4863 47.7383C38.7903 55.8266 48.4484 61.3165 51.8858 59.4174L48.2679 55.7995C47.8168 55.3484 47.9928 55.1725 48.6198 50.86C48.7461 49.9893 49.2423 50.1156 53.5549 49.4886C54.1638 49.4029 54.0826 49.5021 57.9621 53.3816C59.9515 50.0705 54.9623 41.3958 47.4289 44.2423C45.9628 44.955 45.4395 45.3836 44.8666 44.8107L26.5835 26.5411C25.7399 25.6975 27.0165 24.4209 27.8601 25.2644L45.6831 43.083C53.8842 39.0997 60.4161 46.1505 60.1815 52.0779C60.1229 53.5891 58.9816 55.6281 58.0253 55.6281C57.5155 55.6281 57.723 55.7003 53.3654 51.3426L50.3069 51.7892L49.8603 54.8477L53.8842 58.8715C54.236 59.2234 54.236 59.7963 53.8842 60.1481C52.991 61.0413 51.8362 61.5511 50.6317 61.5872C43.7163 61.7856 37.7212 54.0673 41.5736 47.4316Z" fill="#18313A"/>
</svg>
