<svg width="81" height="73" viewBox="0 0 81 73" fill="none" xmlns="http://www.w3.org/2000/svg">
<path d="M1.90973 64.1516C1.26084 64.1516 0.737305 64.6751 0.737305 65.324C0.737305 65.9729 1.26084 66.4965 1.90973 66.4965C2.55862 66.4965 3.08215 65.9729 3.08215 65.324C3.07478 64.6751 2.55124 64.1516 1.90973 64.1516Z" fill="#18313A"/>
<path d="M76.4215 71.5253H50.8567C48.8289 71.5253 47.1846 69.881 47.1846 67.8532V67.1011H79.629V68.3104C79.6364 70.0874 78.1986 71.5253 76.4215 71.5253Z" fill="#FD7973"/>
<path d="M75.5071 20.6464H50.4658C48.6593 20.6464 47.1919 22.3571 47.1919 24.466V25.808H79.6364V25.4614C79.6364 22.7995 77.7856 20.6464 75.5071 20.6464Z" fill="#FD7973"/>
<path d="M75.1164 73H50.9748C48.0769 73 45.7173 70.6404 45.7173 67.7425V25.1665C45.7173 22.2687 48.0769 19.9091 50.9748 19.9091H75.1164C78.0143 19.9091 80.3739 22.2687 80.3739 25.1665V67.7425C80.3739 70.6404 78.0143 73 75.1164 73ZM50.9674 22.1212C49.2862 22.1212 47.922 23.4853 47.922 25.1665V67.7425C47.922 69.4237 49.2862 70.7879 50.9674 70.7879H75.109C76.7902 70.7879 78.1544 69.4237 78.1544 67.7425V25.1665C78.1544 23.4853 76.7902 22.1212 75.109 22.1212H50.9674Z" fill="#18313A"/>
<path d="M36.8686 49.4041V54.315C36.2344 56.7704 32.4443 56.1584 32.4443 54.315V49.4041H36.8686Z" fill="#FD7973"/>
<path d="M18.8028 64.9258C18.1687 64.9258 17.6599 64.4096 17.6599 63.7829V60.8334C17.6599 60.1992 18.1761 59.6904 18.8028 59.6904H37.9746C38.6087 59.6904 39.1175 60.2066 39.1175 60.8334C39.1175 61.4601 38.6013 61.9763 37.9746 61.9763H19.9458V63.7829C19.9458 64.417 19.4296 64.9258 18.8028 64.9258Z" fill="#18313A"/>
<path d="M34.6492 57.8914C34.0077 57.8914 33.3736 57.7291 32.8058 57.3973C31.6702 56.7337 30.9697 55.517 30.9697 54.2119V49.0355C30.9697 48.4235 31.4638 47.9294 32.0758 47.9294C32.6878 47.9294 33.1818 48.4235 33.1818 49.0355V54.2119C33.1818 54.7354 33.4621 55.2221 33.9192 55.4875C34.1994 55.6498 34.782 55.8636 35.5341 55.4359C35.8954 55.2294 36.124 54.787 36.124 54.3077V49.0355C36.124 48.4235 36.618 47.9294 37.23 47.9294C37.842 47.9294 38.3361 48.4235 38.3361 49.0355V54.3004C38.3361 55.5834 37.6798 56.7558 36.618 57.3531C35.9986 57.7144 35.3129 57.8914 34.6492 57.8914Z" fill="#18313A"/>
<path d="M23.7579 61.4086C23.544 61.4086 23.3302 61.3497 23.1458 61.2243C22.637 60.8851 22.4969 60.1993 22.8361 59.6906C23.8095 58.2306 24.3256 56.5272 24.3256 54.7649V49.0355C24.3256 48.4235 24.8197 47.9294 25.4317 47.9294C26.0437 47.9294 26.5378 48.4235 26.5378 49.0355V54.7575C26.5378 56.9549 25.8962 59.0859 24.6722 60.9146C24.4657 61.2317 24.1118 61.4086 23.7579 61.4086Z" fill="#18313A"/>
<path d="M42.399 50.1415H4.54223C2.03516 50.1415 0 48.1063 0 45.5992V4.54223C0 2.03515 2.03516 0 4.54223 0H64.0336C66.5407 0 68.5758 2.03515 68.5758 4.54223V17.3283C68.5758 17.9403 68.0818 18.4344 67.4698 18.4344C66.8577 18.4344 66.3637 17.9403 66.3637 17.3283V4.54223C66.3637 3.25919 65.3166 2.21212 64.0336 2.21212H4.54223C3.2592 2.21212 2.21212 3.25919 2.21212 4.54223V45.5992C2.21212 46.8823 3.2592 47.9293 4.54223 47.9293H42.399C43.011 47.9293 43.5051 48.4234 43.5051 49.0354C43.5051 49.6474 43.0037 50.1415 42.399 50.1415Z" fill="#18313A"/>
<path d="M45.3483 66.3637H6.26744C5.65542 66.3637 5.16138 65.8697 5.16138 65.2577C5.16138 64.6457 5.65542 64.1516 6.26744 64.1516H45.3483C45.9603 64.1516 46.4543 64.6457 46.4543 65.2577C46.4543 65.8697 45.9529 66.3637 45.3483 66.3637Z" fill="#18313A"/>
<path d="M29.3046 18.9922C28.9949 18.9922 28.7 18.8594 28.4862 18.6308L20.552 9.96669L13.5543 15.3127C13.0677 15.6813 12.3745 15.5929 12.0058 15.1062C11.6371 14.6195 11.7256 13.9264 12.2123 13.5577L20.0137 7.59972C20.4709 7.25315 21.1124 7.31214 21.5032 7.73245L29.2751 16.2122L33.5593 11.1022C33.9501 10.6377 34.6506 10.5713 35.1151 10.9621C35.5797 11.353 35.646 12.0535 35.2552 12.518L30.16 18.594C29.9535 18.8373 29.6586 18.9848 29.3341 18.9922C29.3194 18.9922 29.312 18.9922 29.3046 18.9922Z" fill="#FD7973"/>
<path d="M43.271 18.4318C42.7622 18.4318 42.305 18.0779 42.1944 17.5691L41.8995 16.2566L40.7934 17.0677C40.2994 17.429 39.6062 17.3258 39.2449 16.8317C38.8836 16.3377 38.9942 15.6446 39.4809 15.2833L41.9511 13.4693C42.2534 13.2481 42.6442 13.1965 42.9982 13.3292C43.3447 13.4619 43.6102 13.7569 43.6913 14.1256L44.3476 17.0898C44.4803 17.6871 44.1042 18.277 43.507 18.4097C43.4332 18.4245 43.3521 18.4318 43.271 18.4318Z" fill="#18313A"/>
<path d="M8.29724 33.1278C7.86956 33.1278 7.45663 32.8771 7.27966 32.4568C7.03633 31.8964 7.30178 31.2475 7.86219 31.0041L14.587 28.1136L18.6352 18.3803C18.7975 17.9821 19.1809 17.7167 19.6159 17.7019C20.0436 17.6872 20.4492 17.9231 20.6409 18.3066L25.4264 27.6786L28.9953 23.2248C29.2977 22.8488 29.8064 22.7087 30.2562 22.8857L36.1774 25.1863L41.715 15.1285C42.01 14.5902 42.6884 14.3985 43.2193 14.6934C43.7576 14.9884 43.9493 15.6594 43.6543 16.1977L37.6521 27.1034C37.3867 27.5901 36.7968 27.7966 36.2806 27.5975L30.212 25.2379L26.0827 30.3995C25.8467 30.6944 25.4854 30.8419 25.1094 30.8124C24.7333 30.7756 24.4089 30.547 24.2393 30.2152L19.756 21.4404L16.46 29.3819C16.3494 29.6474 16.1429 29.8612 15.8774 29.9718L8.73966 33.0393C8.58481 33.0983 8.43734 33.1278 8.29724 33.1278Z" fill="#18313A"/>
<path d="M36.8483 31.026H32.4241V39.8745H36.8483V31.026Z" fill="#FD7973"/>
<path d="M28.7372 33.2382H24.313V39.8745H28.7372V33.2382Z" fill="#FD7973"/>
<path d="M20.6262 36.1877H16.2019V39.8746H20.6262V36.1877Z" fill="#FD7973"/>
<path d="M65.8499 39.8584C65.6326 39.8584 65.4257 39.7652 65.2757 39.6049L59.709 33.5261L54.7994 37.2768C54.458 37.5355 53.9717 37.4734 53.713 37.132C53.4543 36.7905 53.5164 36.3042 53.8578 36.0455L59.3314 31.8654C59.6521 31.6222 60.1022 31.6636 60.3764 31.9585L65.8292 37.908L68.835 34.3228C69.1092 33.9968 69.6007 33.9503 69.9266 34.2245C70.2525 34.4987 70.2991 34.9901 70.0249 35.3161L66.45 39.579C66.3052 39.7497 66.0982 39.8532 65.8706 39.8584C65.8603 39.8584 65.8551 39.8584 65.8499 39.8584Z" fill="#FD7973"/>
<path d="M75.6486 39.4652C75.2916 39.4652 74.9709 39.2168 74.8933 38.8599L74.6863 37.939L73.9103 38.5081C73.5637 38.7616 73.0774 38.6891 72.8239 38.3425C72.5704 37.9959 72.648 37.5096 72.9894 37.2561L74.7225 35.9834C74.9347 35.8282 75.2089 35.792 75.4572 35.8851C75.7003 35.9783 75.8866 36.1852 75.9435 36.4439L76.4039 38.5236C76.497 38.9426 76.2332 39.3565 75.8141 39.4496C75.7624 39.46 75.7055 39.4652 75.6486 39.4652Z" fill="#18313A"/>
<path d="M51.1111 49.7757C50.8111 49.7757 50.5214 49.5998 50.3972 49.305C50.2265 48.9118 50.4127 48.4565 50.8059 48.2858L55.5241 46.2578L58.3643 39.4288C58.4781 39.1495 58.7471 38.9632 59.0524 38.9529C59.3524 38.9425 59.637 39.1081 59.7715 39.3771L63.1291 45.9526L65.633 42.8278C65.8451 42.5639 66.2021 42.4657 66.5177 42.5898L70.672 44.2039L74.5572 37.1473C74.7642 36.7697 75.2401 36.6352 75.6126 36.8421C75.9903 37.049 76.1248 37.5198 75.9178 37.8975L71.7066 45.549C71.5204 45.8905 71.1065 46.0353 70.7444 45.8956L66.4866 44.2401L63.5895 47.8616C63.424 48.0685 63.1705 48.172 62.9066 48.1513C62.6428 48.1254 62.4151 47.965 62.2961 47.7322L59.1507 41.5758L56.8381 47.1476C56.7605 47.3339 56.6157 47.4839 56.4294 47.5615L51.4215 49.7137C51.3129 49.755 51.2094 49.7757 51.1111 49.7757Z" fill="#18313A"/>
<path d="M71.3409 48.6665H68.3914V61.2019H71.3409V48.6665Z" fill="#FD7973"/>
<path d="M65.4419 51.6161H62.4924V61.202H65.4419V51.6161Z" fill="#FD7973"/>
<path d="M59.543 56.0402H56.5935V61.2018H59.543V56.0402Z" fill="#FD7973"/>
</svg>
