<svg width="54" height="66" viewBox="0 0 54 66" fill="none" xmlns="http://www.w3.org/2000/svg">
<g opacity="0.7">
<path d="M3.22168 58.379C3.22168 59.5742 5.0285 59.5701 5.0285 58.379C5.02447 57.1838 3.22168 57.1838 3.22168 58.379Z" fill="#18313A"/>
<path d="M25.325 63.4857C24.7857 63.5098 24.2465 63.4937 23.7113 63.4414C21.6952 65.55 21.494 65.9927 20.822 65.6909C17.5585 64.2301 17.1239 64.2221 17.1842 63.4776L17.4096 60.6245C17.0112 60.2624 16.641 59.868 16.2989 59.4495C13.3814 59.5179 12.9308 59.6869 12.6652 58.9988C11.3895 55.6588 11.0877 55.3449 11.6551 54.862L13.8321 53.0029C13.808 52.4637 13.8241 51.9244 13.8804 51.3892C11.7758 49.3772 11.3292 49.172 11.631 48.4999C13.0957 45.2203 13.1118 44.7978 13.8442 44.8622L16.6973 45.0875C17.0635 44.6851 17.4538 44.3149 17.8723 43.9769C17.8039 41.0674 17.6349 40.6087 18.323 40.3431L21.5624 39.1077C22.2505 38.8461 22.4276 39.3009 24.323 41.5141C24.8622 41.49 25.4014 41.5061 25.9366 41.5584L27.9165 39.486C28.4275 38.9467 28.7213 39.2606 31.9929 40.7214C32.6649 41.0232 32.4717 41.4699 32.2383 44.3752C32.6367 44.7374 33.0069 45.1318 33.349 45.5503L36.2101 45.4819C36.9667 45.4698 36.9626 45.9527 38.2181 49.2364C38.4797 49.9245 38.025 50.1056 35.8117 51.9929C35.8359 52.5321 35.8198 53.0713 35.7635 53.6065L37.8359 55.5823C38.3751 56.0974 38.0612 56.3872 36.6005 59.6587C36.2987 60.3308 35.86 60.1376 32.9466 59.9082C32.5844 60.3066 32.1901 60.6768 31.7715 61.0189L31.8359 63.884C31.852 64.6245 31.4295 64.6124 28.0815 65.8921C27.3974 66.1536 27.2163 65.6989 25.325 63.4857ZM28.0412 64.1859L30.2182 63.3529C30.1539 60.4797 30.0492 60.3147 30.4798 59.9928C33.1035 58.0169 30.8862 58.1296 35.3651 58.4837L36.3147 56.355C34.2504 54.3832 34.0452 54.3349 34.1216 53.7956C34.5884 50.5482 33.0955 52.1981 36.5119 49.2766L35.6789 47.0996C32.7655 47.168 32.6448 47.2726 32.3188 46.842C30.343 44.2223 30.4557 46.4275 30.8098 41.9527L28.6851 41.0031C26.7092 43.0714 26.661 43.2726 26.1257 43.1962C22.8703 42.7374 24.5201 44.2183 21.6067 40.8059L19.4297 41.6389C19.4981 44.4598 19.6067 44.673 19.1721 44.999C16.5243 46.9869 18.7818 46.8581 14.2869 46.504L13.3372 48.6327C15.4096 50.6126 15.6068 50.6569 15.5303 51.1921C15.0756 54.4395 16.5444 52.8057 13.14 55.7111L13.973 57.8882C16.8502 57.8197 17.0072 57.7151 17.3291 58.1457C19.313 60.7694 19.1922 58.5682 18.8381 63.0309L20.9669 63.9846C24.0896 60.7171 22.3471 62.1295 25.6147 61.8519C26.1499 61.8076 26.1901 62.0209 28.0412 64.1859ZM22.5685 57.5421C18.1098 55.5461 18.2546 49.0915 22.8542 47.337C25.7072 46.2464 28.8943 47.675 29.9849 50.5241C31.7474 55.1437 27.0191 59.534 22.5685 57.5421ZM23.4256 48.842C20.1661 50.0854 20.0614 54.6608 23.2244 56.0733C24.1781 56.4998 25.2404 56.528 26.2183 56.1578C29.4859 54.9103 29.5744 50.3349 26.4195 48.9265C25.4658 48.4999 24.4034 48.4678 23.4256 48.842Z" fill="#18313A"/>
<path d="M44.9422 44.2907C44.6806 44.2987 44.419 44.2907 44.1615 44.2665C43.0307 45.4536 42.745 45.9526 42.0931 45.6589C39.1837 44.3591 39.5338 44.9385 39.743 42.2907C39.5539 42.1136 39.3768 41.9245 39.2078 41.7233C37.5821 41.7595 37.0187 41.9124 36.7612 41.2444C35.6063 38.2223 35.4936 38.8944 37.4815 37.2002C37.4734 36.9386 37.4815 36.6811 37.5056 36.4195C36.3668 35.329 35.8195 35.0111 36.1133 34.3512C36.9905 32.3874 37.0791 31.8039 37.8115 31.8683L39.4815 32.0011C39.6625 31.812 39.8517 31.6309 40.0489 31.4659C39.9885 28.818 39.5982 29.3734 42.584 28.2345C43.2601 27.977 43.5498 28.5444 44.5719 29.7395C44.8335 29.7315 45.091 29.7395 45.3526 29.7597C46.4834 28.5726 46.7691 28.0736 47.421 28.3673C50.3747 29.6872 49.9763 29.1359 49.7711 31.7355C49.9602 31.9126 50.1373 32.1057 50.3063 32.3029C51.8998 32.2667 52.4954 32.1057 52.7529 32.7818C53.9078 35.8039 54.0205 35.1318 52.0366 36.826C52.0447 37.0875 52.0366 37.3451 52.0125 37.6066C53.1996 38.7414 53.6946 39.0231 53.4048 39.675C52.1171 42.5603 52.7167 42.2384 50.0367 42.0291C49.8556 42.2183 49.6664 42.3993 49.4693 42.5643C49.5256 45.1558 49.9602 44.6408 46.9341 45.7957C46.25 46.0532 45.9603 45.4818 44.9422 44.2907ZM46.8858 44.0854L47.8797 43.7072C47.8476 42.1981 47.7389 41.8601 48.1655 41.5382C49.8556 40.2666 48.5196 40.2907 51.264 40.508L51.6986 39.5342C50.5799 38.4678 50.2942 38.3149 50.3666 37.7958C50.6644 35.7153 49.7348 36.665 51.8274 34.8783L51.4451 33.8803C49.92 33.9166 49.598 34.0212 49.2761 33.5946C48.0005 31.9045 48.0286 33.2405 48.2459 30.4961L47.2721 30.0615C46.2299 31.152 46.0649 31.4699 45.5377 31.3934C43.4412 31.0997 44.4029 32.0212 42.6203 29.9327L41.6263 30.311C41.6625 31.8763 41.7591 32.1661 41.3406 32.48C39.6947 33.7153 41.0187 33.7314 38.2461 33.5101L37.8115 34.484C38.91 35.5342 39.2159 35.6952 39.1434 36.2183C38.8497 38.3149 39.7672 37.3572 37.6827 39.1358L38.065 40.1338C39.6464 40.0976 39.9161 40.005 40.2299 40.4195C41.5016 42.1016 41.4774 40.7897 41.2641 43.518L42.238 43.9526C44.1454 41.9527 43.2319 42.8259 45.2319 42.6569C45.755 42.6166 45.8999 42.9305 46.8858 44.0854ZM43.2037 40.4839C40.1092 39.0996 40.2581 34.661 43.4009 33.4578C45.3647 32.7093 47.5578 33.6912 48.3103 35.6509C49.0588 37.6147 48.0809 39.8118 46.1172 40.5603C45.1916 40.9144 44.1575 40.9104 43.2037 40.4839ZM42.7048 37.7958C43.1353 38.9265 44.4029 39.4939 45.5337 39.0634C47.3647 38.3632 47.4129 35.8039 45.6464 35.0111C43.8798 34.2184 42.0086 35.9648 42.7048 37.7958Z" fill="#18313A"/>
<path d="M4.01755 19.0073H0.79828C-0.26408 19.0073 -0.268104 17.3976 0.79828 17.3976H4.01755C5.08394 17.3976 5.08394 19.0073 4.01755 19.0073Z" fill="#18313A"/>
<path d="M10.1304 22.1582C2.38004 18.7135 2.40821 18.9228 2.40821 18.2025C2.40821 17.4822 2.37601 17.6955 10.1304 14.2468C11.1043 13.8162 11.7562 15.285 10.7823 15.7196L5.19288 18.2025L10.7823 20.6854C11.7562 21.12 11.1043 22.5887 10.1304 22.1582Z" fill="#18313A"/>
<path d="M16.0255 22.2265H10.4562C10.0135 22.2265 9.65137 21.8644 9.65137 21.4217V14.9832C9.65137 14.5405 10.0135 14.1783 10.4562 14.1783H16.4762C17.5386 14.1783 17.5426 15.788 16.4762 15.788H11.261V20.6169H16.0255C16.4682 20.6169 16.8303 20.9791 16.8303 21.4217C16.8303 21.8644 16.4682 22.2265 16.0255 22.2265Z" fill="#18313A"/>
<path d="M44.2581 22.2265H24.1537C23.0914 22.2265 23.0874 20.6169 24.1537 20.6169H43.4533V15.788H37.4172C36.3548 15.788 36.3508 14.1783 37.4172 14.1783H44.2581C44.7008 14.1783 45.0629 14.5405 45.0629 14.9832V21.4217C45.0629 21.8684 44.7048 22.2265 44.2581 22.2265Z" fill="#18313A"/>
<path d="M20.8668 17.4983C20.8668 17.0556 21.229 16.6934 21.6716 16.6934C22.4523 16.6934 23.0921 16.0576 23.0921 15.2729V12.3072C23.0921 10.432 20.2551 10.432 20.2551 12.3072V13.8685C20.2551 14.9309 18.6455 14.9349 18.6455 13.8685V12.3072C18.6455 10.6372 20.0057 9.27704 21.6756 9.27704C23.3456 9.27704 24.7058 10.6372 24.7058 12.3072V15.2729C24.7018 18.1864 20.8668 19.1562 20.8668 17.4983Z" fill="#18313A"/>
<path d="M26.1219 19.788C24.4519 19.788 23.0918 18.4278 23.0918 16.7578V12.1583C23.0918 10.4883 24.4519 9.12814 26.1219 9.12814C27.7919 9.12814 29.1521 10.4883 29.1521 12.1583V16.7578C29.1481 18.4278 27.7919 19.788 26.1219 19.788ZM24.7014 12.1583V16.7578C24.7014 18.633 27.5384 18.633 27.5384 16.7578V12.1583C27.5384 10.2831 24.7014 10.2831 24.7014 12.1583Z" fill="#18313A"/>
<path d="M30.5682 19.9408C28.8982 19.9408 27.5381 18.5807 27.5381 16.9107V12.3111C27.5381 10.6411 28.8982 9.28101 30.5682 9.28101C32.2382 9.28101 33.5984 10.6411 33.5984 12.3111V16.9107C33.5984 18.5807 32.2382 19.9408 30.5682 19.9408ZM29.1477 12.3111V16.9107C29.1477 18.7859 31.9847 18.7859 31.9847 16.9107V12.3111C31.9887 10.4359 29.1477 10.4359 29.1477 12.3111Z" fill="#18313A"/>
<path d="M35.0155 19.3091C33.3455 19.3091 31.9854 17.949 31.9854 16.279V14.118C31.9854 12.448 33.3455 11.0879 35.0155 11.0879C36.6855 11.0879 38.0456 12.448 38.0456 14.118V16.279C38.0456 17.949 36.6895 19.3091 35.0155 19.3091ZM33.599 14.118V16.279C33.599 18.1542 36.436 18.1542 36.436 16.279V14.118C36.436 12.2428 33.599 12.2428 33.599 14.118Z" fill="#18313A"/>
<path d="M22.1255 35.0353C21.2844 35.0353 16.7372 30.818 15.699 24.637C15.2483 21.9449 15.9203 21.5344 15.8318 17.9812C15.7674 15.3414 15.3127 14.1824 16.3428 13.4219C17.9806 12.2106 23.1999 14.271 22.3951 20.1703C25.4373 20.794 28.0006 22.7336 29.4252 25.466C29.6304 25.8603 29.4775 26.3473 29.0831 26.5525C27.8075 27.2205 28.1093 24.975 25.0832 22.9912C23.6788 22.0696 22.2784 21.7437 21.3528 21.635C20.8699 21.5787 20.548 21.1079 20.6647 20.6411C21.8961 15.7478 17.7513 14.3756 17.2885 14.7217C17.2362 14.8424 17.4253 17.8081 17.4293 17.9449C17.5219 21.6431 16.874 21.969 17.2764 24.3754C17.8318 27.6792 19.6225 31.1842 22.6204 33.6067C22.9665 33.8844 23.0188 34.3914 22.7411 34.7375C22.5923 34.9306 22.3629 35.0353 22.1255 35.0353Z" fill="#18313A"/>
<path d="M17.7002 38.5V34.2304C17.7002 33.7878 18.0624 33.4256 18.505 33.4256H33.5954C34.6577 33.4256 34.6617 35.0352 33.5954 35.0352H19.3098V38.5C19.3098 39.5623 17.7002 39.5623 17.7002 38.5Z" fill="#18313A"/>
<path d="M47.4782 22.2265H44.2589C43.8163 22.2265 43.4541 21.8644 43.4541 21.4217V14.9832C43.4541 14.5405 43.8163 14.1783 44.2589 14.1783H47.4782C48.8102 14.1783 49.8926 15.2608 49.8926 16.5928V19.8121C49.8926 21.144 48.8102 22.2265 47.4782 22.2265ZM45.0637 20.6169C48.8906 20.6169 48.283 21.1642 48.283 16.5928C48.283 16.1501 47.9208 15.788 47.4782 15.788H45.0637V20.6169Z" fill="#18313A"/>
<path d="M26.5518 2.60912V0.79828C26.5518 -0.26408 28.1614 -0.268104 28.1614 0.79828V2.60912C28.1614 3.67551 26.5518 3.67551 26.5518 2.60912Z" fill="#18313A"/>
<path d="M18.3113 5.2489L17.4058 3.67951C16.8747 2.75799 18.267 1.95317 18.7982 2.87469L19.7036 4.44409C19.9249 4.8304 19.7921 5.32134 19.4098 5.54266C19.0276 5.76801 18.5366 5.63522 18.3113 5.2489Z" fill="#18313A"/>
<path d="M12.4923 11.6593L10.9229 10.7538C10.0014 10.2227 10.8062 8.82629 11.7277 9.3615L13.2971 10.2669C13.6834 10.4882 13.8122 10.9832 13.5909 11.3655C13.3696 11.7478 12.8786 11.8806 12.4923 11.6593Z" fill="#18313A"/>
<path d="M41.4172 10.2629L42.9866 9.3575C43.9081 8.82632 44.7129 10.2187 43.7914 10.7498L42.222 11.6553C41.3045 12.1905 40.4957 10.7941 41.4172 10.2629Z" fill="#18313A"/>
<path d="M35.0113 4.44409L35.9167 2.87469C36.4479 1.95317 37.8443 2.75799 37.3091 3.67951L36.4036 5.2489C35.8725 6.17444 34.4801 5.3656 35.0113 4.44409Z" fill="#18313A"/>
<path d="M37.6182 27.3934V21.3573C37.6182 20.2949 39.2278 20.2909 39.2278 21.3573V27.3934C39.2278 28.4558 37.6182 28.4558 37.6182 27.3934Z" fill="#18313A"/>
<path d="M46.7412 52.4072V47.5783C46.7412 46.516 48.3508 46.512 48.3508 47.5783V52.4072C48.3508 53.4696 46.7412 53.4736 46.7412 52.4072Z" fill="#18313A"/>
<path d="M42.5167 58.4434H38.6938C37.6314 58.4434 37.6274 56.8338 38.6938 56.8338H42.5167C42.9593 56.8338 43.3215 57.196 43.3215 57.6386C43.3215 58.0853 42.9593 58.4434 42.5167 58.4434Z" fill="#18313A"/>
<path d="M47.3453 60.8579C45.3494 60.8579 43.7236 59.2321 43.7236 57.2362C43.7236 55.2402 45.3494 53.6145 47.3453 53.6145C49.3413 53.6145 50.967 55.2402 50.967 57.2362C50.967 59.2362 49.3413 60.8579 47.3453 60.8579ZM47.3453 55.2241C46.2347 55.2241 45.3333 56.1255 45.3333 57.2362C45.3333 58.3468 46.2347 59.2482 47.3453 59.2482C48.456 59.2482 49.3574 58.3468 49.3574 57.2362C49.3574 56.1296 48.456 55.2241 47.3453 55.2241Z" fill="#18313A"/>
<path d="M7.51427 58.1375C5.46198 50.6769 7.90863 42.3349 14.6409 37.2807C15.49 36.6408 16.4598 37.9285 15.6067 38.5684C9.46998 43.18 7.1682 50.8177 9.06757 57.711C9.18427 58.1375 8.93477 58.5842 8.50419 58.7009C8.06959 58.8176 7.63097 58.5641 7.51427 58.1375Z" fill="#18313A"/>
<path d="M2.73434 54.701C1.97379 47.5663 4.73029 40.7092 9.76041 36.1057C10.5451 35.3894 11.6316 36.5765 10.8469 37.2928C6.17897 41.5704 3.63172 47.9285 4.33593 54.532C4.38422 54.9746 4.06229 55.369 3.61964 55.4173C3.18102 55.4656 2.78263 55.1477 2.73434 54.701Z" fill="#18313A"/>
</g>
</svg>
