<svg width="60" height="73" viewBox="0 0 60 73" fill="none" xmlns="http://www.w3.org/2000/svg">
<path d="M52.3988 66.4643C54.1206 66.4643 55.5164 65.0685 55.5164 63.3467C55.5164 61.6249 54.1206 60.2291 52.3988 60.2291C50.677 60.2291 49.2812 61.6249 49.2812 63.3467C49.2812 65.0685 50.677 66.4643 52.3988 66.4643Z" fill="#FD7973"/>
<path d="M41.4255 55.1341L40.5704 51.8562L37.2568 51.9363C36.7892 51.3173 35.943 51.3796 35.3595 50.8853L35.6223 47.5806L32.7229 46.1465L30.4337 48.5471C29.6766 48.4402 28.9061 48.4179 28.1312 48.4803L25.9756 45.9595L22.6932 47.211L22.7689 50.5245C22.1454 50.9922 21.5887 51.5266 21.0943 52.11L17.7897 51.8517L16.3556 55.0628L18.7517 57.352C18.6448 58.1092 18.6225 58.8797 18.6849 59.6546L16.1641 61.8058L17.42 65.0926L20.7336 65.0169C21.2012 65.6359 21.7356 66.1971 22.3191 66.6915L22.0563 69.9961L24.9557 71.4347L27.2449 69.0341C27.9976 69.141 28.4607 69.4795 29.2357 69.4127L31.3868 71.9335L34.3396 70.731L34.2639 67.4174C34.883 66.9498 36.3972 66.0546 36.8916 65.4711L40.1962 65.7339L41.6303 62.5228L39.2298 60.2336C39.3367 59.4809 38.9626 58.0735 38.8958 57.2986L41.4255 55.1341ZM29.4584 62.6386C26.9866 63.5828 24.2164 62.3446 23.2722 59.8728C22.328 57.401 23.5661 54.6308 26.0379 53.6866C28.5097 52.7425 31.2799 53.9806 32.2197 56.4524C33.1683 58.9242 31.9302 61.6944 29.4584 62.6386Z" fill="#FD7973"/>
<path d="M3.56445 64.6116C3.56445 65.9343 5.56417 65.9299 5.56417 64.6116C5.55971 63.2888 3.56445 63.2888 3.56445 64.6116Z" fill="#18313A"/>
<path d="M28.0285 70.2634C27.4317 70.2901 26.8349 70.2723 26.2425 70.2144C24.0112 72.5481 23.7885 73.038 23.0448 72.704C19.4328 71.0873 18.9518 71.0784 19.0186 70.2545L19.268 67.0968C18.8271 66.696 18.4174 66.2595 18.0388 65.7963C14.8099 65.872 14.3111 66.0591 14.0171 65.2975C12.6053 61.6009 12.2713 61.2535 12.8992 60.7191L15.3087 58.6615C15.282 58.0647 15.2998 57.4679 15.3621 56.8756C13.0328 54.6487 12.5385 54.4216 12.8725 53.6778C14.4937 50.048 14.5115 49.5804 15.3221 49.6516L18.4797 49.9011C18.885 49.4557 19.317 49.0459 19.7802 48.6718C19.7045 45.4518 19.5174 44.9441 20.279 44.6501L23.8643 43.2828C24.6258 42.9934 24.8218 43.4966 26.9195 45.9462C27.5163 45.9194 28.1131 45.9373 28.7054 45.9952L30.8967 43.7015C31.4623 43.1047 31.7874 43.4521 35.4083 45.0688C36.152 45.4028 35.9382 45.8972 35.6799 49.1127C36.1209 49.5136 36.5306 49.95 36.9092 50.4132L40.0757 50.3375C40.913 50.3242 40.9086 50.8586 42.2981 54.4928C42.5876 55.2544 42.0844 55.4548 39.6348 57.5436C39.6615 58.1404 39.6437 58.7372 39.5814 59.3295L41.875 61.5163C42.4718 62.0864 42.1244 62.4071 40.5077 66.0279C40.1737 66.7717 39.6883 66.5579 36.4638 66.304C36.063 66.745 35.6265 67.1547 35.1633 67.5333L35.2346 70.7043C35.2524 71.5238 34.7847 71.5104 31.0793 72.9267C30.3221 73.2162 30.1217 72.7129 28.0285 70.2634ZM31.0347 71.0383L33.4442 70.1164C33.3729 66.9365 33.2571 66.7539 33.7337 66.3976C36.6375 64.2108 34.1835 64.3355 39.1405 64.7274L40.1915 62.3714C37.9068 60.1891 37.6796 60.1357 37.7643 59.5389C38.2809 55.9447 36.6286 57.7707 40.4098 54.5374L39.4879 52.1279C36.2634 52.2036 36.1298 52.3194 35.769 51.8429C33.5822 48.9435 33.7069 51.3841 34.0989 46.4316L31.7473 45.3805C29.5605 47.6697 29.5071 47.8924 28.9148 47.8078C25.3117 47.3001 27.1377 48.9391 23.9132 45.1623L21.5038 46.0842C21.5795 49.2063 21.6998 49.4423 21.2188 49.8031C18.2882 52.0032 20.7867 51.8607 15.812 51.4688L14.7609 53.8248C17.0545 56.016 17.2728 56.065 17.1882 56.6573C16.6849 60.2515 18.3105 58.4433 14.5427 61.6588L15.4646 64.0683C18.649 63.9926 18.8227 63.8768 19.179 64.3533C21.3746 67.2571 21.241 64.821 20.8491 69.7601L23.2051 70.8156C26.6612 67.1992 24.7327 68.7625 28.3491 68.4552C28.9415 68.4062 28.986 68.6422 31.0347 71.0383ZM24.9777 63.6853C20.043 61.4762 20.2033 54.3325 25.2939 52.3907C28.4516 51.1837 31.9789 52.7648 33.1859 55.918C35.1366 61.0309 29.9035 65.8899 24.9777 63.6853ZM25.9263 54.0564C22.3188 55.4326 22.203 60.4964 25.7036 62.0597C26.7592 62.5318 27.9349 62.5629 29.0172 62.1532C32.6336 60.7725 32.7316 55.7087 29.2399 54.1499C28.1844 53.6778 27.0086 53.6422 25.9263 54.0564Z" fill="#18313A"/>
<path d="M49.7401 49.0191C49.4506 49.0281 49.1611 49.0191 48.876 48.9924C47.6245 50.3063 47.3083 50.8585 46.5868 50.5334C43.3668 49.0949 43.7543 49.7362 43.9859 46.8057C43.7765 46.6097 43.5806 46.4004 43.3935 46.1777C41.5942 46.2178 40.9707 46.387 40.6857 45.6477C39.4075 42.303 39.2828 43.0467 41.4829 41.1717C41.474 40.8822 41.4829 40.5972 41.5096 40.3077C40.2492 39.1007 39.6435 38.7489 39.9686 38.0185C40.9395 35.8451 41.0375 35.1993 41.8481 35.2706L43.6964 35.4175C43.8968 35.2082 44.1061 35.0078 44.3244 34.8252C44.2575 31.8947 43.8255 32.5093 47.1302 31.2489C47.8784 30.9638 48.1991 31.5918 49.3303 32.9146C49.6198 32.9056 49.9048 32.9146 50.1943 32.9368C51.4458 31.623 51.762 31.0707 52.4835 31.3958C55.7526 32.8567 55.3116 32.2465 55.0845 35.1236C55.2938 35.3196 55.4898 35.5333 55.6768 35.7516C57.4405 35.7115 58.0997 35.5333 58.3847 36.2816C59.6629 39.6263 59.7876 38.8825 57.5919 40.7575C57.6008 41.047 57.5919 41.3321 57.5652 41.6215C58.8791 42.8775 59.4269 43.1892 59.1062 43.9107C57.681 47.1041 58.3446 46.7478 55.3784 46.5162C55.178 46.7255 54.9687 46.9259 54.7505 47.1085C54.8128 49.9767 55.2938 49.4066 51.9446 50.6848C51.1875 50.9699 50.8668 50.3374 49.7401 49.0191ZM51.8912 48.792L52.9913 48.3734C52.9556 46.7032 52.8354 46.3291 53.3075 45.9728C55.178 44.5654 53.6994 44.5922 56.7368 44.8327L57.2178 43.7549C55.9797 42.5746 55.6635 42.4054 55.7437 41.8309C56.0732 39.5283 55.0444 40.5794 57.3603 38.6019L56.9372 37.4974C55.2493 37.5375 54.893 37.6533 54.5367 37.1812C53.1249 35.3106 53.156 36.7893 53.3965 33.7518L52.3188 33.2708C51.1652 34.4778 50.9826 34.8296 50.3992 34.745C48.0788 34.4199 49.1433 35.4398 47.1703 33.1283L46.0702 33.547C46.1103 35.2795 46.2172 35.6001 45.754 35.9475C43.9324 37.3148 45.3977 37.3326 42.3291 37.0877L41.8481 38.1655C43.064 39.3279 43.4024 39.506 43.3223 40.085C42.9971 42.4054 44.0126 41.3454 41.7056 43.314L42.1287 44.4185C43.879 44.3784 44.1774 44.276 44.5248 44.7347C45.9321 46.5963 45.9054 45.1444 45.6694 48.164L46.7472 48.645C48.8582 46.4315 47.8472 47.398 50.0607 47.2109C50.6397 47.1664 50.8 47.5138 51.8912 48.792ZM47.8161 44.8059C44.3912 43.2739 44.5559 38.3614 48.0343 37.0298C50.2077 36.2014 52.635 37.2881 53.4678 39.457C54.2962 41.6305 53.2139 44.0622 51.0405 44.8906C50.0162 45.2825 48.8716 45.278 47.8161 44.8059ZM47.2638 41.8309C47.7403 43.0824 49.1433 43.7103 50.3948 43.2338C52.4212 42.4588 52.4746 39.6263 50.5195 38.7489C48.5643 37.8715 46.4933 39.8044 47.2638 41.8309Z" fill="#18313A"/>
<path d="M18.2578 23.7087H11.5684V16.6986H18.2578C18.2756 17.8432 18.6275 20.266 18.2578 23.7087Z" fill="#FD7973"/>
<path d="M41.4298 16.5828C41.5188 16.9836 41.4431 17.4334 41.1135 17.8922C40.4054 18.8764 40.2807 19.7004 39.2563 20.4397C38.6284 20.8939 37.3858 20.7782 36.7356 19.8963C35.8136 20.9073 32.5223 21.4195 31.4178 20.217C30.3801 20.9296 29.0752 21.228 27.8816 20.6445C26.639 20.0344 27.0666 18.7294 25.6681 18.8185C25.1292 18.8497 24.5858 19.1169 24.0247 19.2015C24.0514 20.9608 23.5526 21.6912 24.7328 23.7131H48.8942V16.5872H41.4298V16.5828Z" fill="#FD7973"/>
<path d="M4.44647 21.0365H0.883504C-0.292274 21.0365 -0.296727 19.255 0.883504 19.255H4.44647C5.6267 19.255 5.6267 21.0365 4.44647 21.0365Z" fill="#18313A"/>
<path d="M11.2117 24.5238C2.63387 20.7114 2.66504 20.943 2.66504 20.1458C2.66504 19.3486 2.62941 19.5846 11.2117 15.7678C12.2895 15.2912 13.011 16.9168 11.9332 17.3978L5.747 20.1458L11.9332 22.8937C13.011 23.3747 12.2895 25.0003 11.2117 24.5238Z" fill="#18313A"/>
<path d="M17.7363 24.5994H11.5724C11.0825 24.5994 10.6816 24.1986 10.6816 23.7087V16.5828C10.6816 16.0928 11.0825 15.692 11.5724 15.692H18.2351C19.4109 15.692 19.4154 17.4735 18.2351 17.4735H12.4631V22.8179H17.7363C18.2262 22.8179 18.627 23.2188 18.627 23.7087C18.627 24.1986 18.2262 24.5994 17.7363 24.5994Z" fill="#18313A"/>
<path d="M48.9838 24.5994H26.7331C25.5573 24.5994 25.5529 22.8179 26.7331 22.8179H48.0931V17.4735H41.4125C40.2367 17.4735 40.2323 15.692 41.4125 15.692H48.9838C49.4737 15.692 49.8746 16.0928 49.8746 16.5828V23.7087C49.8746 24.203 49.4782 24.5994 48.9838 24.5994Z" fill="#18313A"/>
<path d="M23.0942 19.3664C23.0942 18.8765 23.495 18.4756 23.9849 18.4756C24.8489 18.4756 25.5571 17.7719 25.5571 16.9035V13.6211C25.5571 11.5457 22.4172 11.5457 22.4172 13.6211V15.3491C22.4172 16.5249 20.6357 16.5294 20.6357 15.3491V13.6211C20.6357 11.7728 22.1411 10.2675 23.9894 10.2675C25.8377 10.2675 27.343 11.7728 27.343 13.6211V16.9035C27.3386 20.128 23.0942 21.2013 23.0942 19.3664Z" fill="#18313A"/>
<path d="M28.9103 21.9005C27.062 21.9005 25.5566 20.3952 25.5566 18.5469V13.4563C25.5566 11.608 27.062 10.1027 28.9103 10.1027C30.7586 10.1027 32.2639 11.608 32.2639 13.4563V18.5469C32.2595 20.3952 30.7586 21.9005 28.9103 21.9005ZM27.3381 13.4563V18.5469C27.3381 20.6223 30.478 20.6223 30.478 18.5469V13.4563C30.478 11.3809 27.3381 11.3809 27.3381 13.4563Z" fill="#18313A"/>
<path d="M33.8322 22.0697C31.9839 22.0697 30.4785 20.5644 30.4785 18.7161V13.6255C30.4785 11.7772 31.9839 10.2719 33.8322 10.2719C35.6804 10.2719 37.1858 11.7772 37.1858 13.6255V18.7161C37.1858 20.5644 35.6804 22.0697 33.8322 22.0697ZM32.26 13.6255V18.7161C32.26 20.7915 35.3999 20.7915 35.3999 18.7161V13.6255C35.4043 11.5501 32.26 11.5501 32.26 13.6255Z" fill="#18313A"/>
<path d="M38.7531 21.3705C36.9048 21.3705 35.3994 19.8652 35.3994 18.0169V15.6252C35.3994 13.777 36.9048 12.2716 38.7531 12.2716C40.6013 12.2716 42.1067 13.777 42.1067 15.6252V18.0169C42.1067 19.8652 40.6058 21.3705 38.7531 21.3705ZM37.1853 15.6252V18.0169C37.1853 20.0923 40.3252 20.0923 40.3252 18.0169V15.6252C40.3252 13.5498 37.1853 13.5498 37.1853 15.6252Z" fill="#18313A"/>
<path d="M24.4885 38.7756C23.5576 38.7756 18.525 34.1082 17.3759 27.2673C16.8771 24.2877 17.6209 23.8335 17.5229 19.9008C17.4516 16.9792 16.9484 15.6966 18.0885 14.8548C19.9012 13.5142 25.6776 15.7945 24.7869 22.3237C28.1539 23.014 30.9909 25.1607 32.5675 28.1847C32.7946 28.6212 32.6254 29.1601 32.1889 29.3872C30.7771 30.1266 31.1111 27.6414 27.7619 25.4457C26.2076 24.4258 24.6577 24.0651 23.6334 23.9448C23.0989 23.8825 22.7426 23.3614 22.8718 22.8447C24.2346 17.429 19.6473 15.9103 19.1351 16.2933C19.0772 16.427 19.2865 19.7093 19.291 19.8608C19.3934 23.9537 18.6764 24.3145 19.1218 26.9778C19.7364 30.6343 21.7183 34.5135 25.0363 37.1946C25.4193 37.5019 25.4772 38.0631 25.1699 38.4461C25.0051 38.6599 24.7512 38.7756 24.4885 38.7756Z" fill="#18313A"/>
<path d="M19.5889 42.6103V37.8849C19.5889 37.395 19.9897 36.9941 20.4796 36.9941H37.181C38.3568 36.9941 38.3612 38.7756 37.181 38.7756H21.3703V42.6103C21.3703 43.786 19.5889 43.786 19.5889 42.6103Z" fill="#18313A"/>
<path d="M52.5465 24.5994H48.9835C48.4936 24.5994 48.0928 24.1986 48.0928 23.7087V16.5828C48.0928 16.0928 48.4936 15.692 48.9835 15.692H52.5465C54.0207 15.692 55.2187 16.8901 55.2187 18.3642V21.9272C55.2187 23.4014 54.0207 24.5994 52.5465 24.5994ZM49.8743 22.8179C54.1097 22.8179 53.4372 23.4236 53.4372 18.3642C53.4372 17.8743 53.0364 17.4735 52.5465 17.4735H49.8743V22.8179Z" fill="#18313A"/>
<path d="M29.3867 2.88767V0.883504C29.3867 -0.292274 31.1682 -0.296727 31.1682 0.883504V2.88767C31.1682 4.0679 29.3867 4.0679 29.3867 2.88767Z" fill="#18313A"/>
<path d="M20.2663 5.80928L19.2642 4.07234C18.6763 3.05244 20.2173 2.1617 20.8052 3.1816L21.8073 4.91854C22.0522 5.3461 21.9053 5.88945 21.4822 6.1344C21.0591 6.38381 20.5157 6.23684 20.2663 5.80928Z" fill="#18313A"/>
<path d="M13.8264 12.904L12.0894 11.9019C11.0695 11.314 11.9603 9.76858 12.9802 10.3609L14.7171 11.363C15.1447 11.608 15.2872 12.1558 15.0422 12.5789C14.7973 13.002 14.2539 13.1489 13.8264 12.904Z" fill="#18313A"/>
<path d="M45.8395 11.3586L47.5765 10.3565C48.5964 9.76862 49.4871 11.3096 48.4672 11.8975L46.7303 12.8996C45.7148 13.4919 44.8196 11.9465 45.8395 11.3586Z" fill="#18313A"/>
<path d="M38.7486 4.91854L39.7507 3.1816C40.3386 2.1617 41.884 3.05244 41.2917 4.07234L40.2896 5.80928C39.7017 6.83364 38.1607 5.93844 38.7486 4.91854Z" fill="#18313A"/>
<path d="M41.6348 30.318V23.6374C41.6348 22.4616 43.4162 22.4572 43.4162 23.6374V30.318C43.4162 31.4937 41.6348 31.4937 41.6348 30.318Z" fill="#18313A"/>
<path d="M51.7314 58.0022V52.6578C51.7314 51.482 53.5129 51.4776 53.5129 52.6578V58.0022C53.5129 59.178 51.7314 59.1825 51.7314 58.0022Z" fill="#18313A"/>
<path d="M47.055 64.6828H42.8239C41.6482 64.6828 41.6437 62.9014 42.8239 62.9014H47.055C47.5449 62.9014 47.9457 63.3022 47.9457 63.7921C47.9457 64.2865 47.5449 64.6828 47.055 64.6828Z" fill="#18313A"/>
<path d="M52.399 67.355C50.1899 67.355 48.3906 65.5557 48.3906 63.3467C48.3906 61.1377 50.1899 59.3384 52.399 59.3384C54.608 59.3384 56.4073 61.1377 56.4073 63.3467C56.4073 65.5602 54.608 67.355 52.399 67.355ZM52.399 61.1199C51.1697 61.1199 50.1721 62.1175 50.1721 63.3467C50.1721 64.5759 51.1697 65.5736 52.399 65.5736C53.6282 65.5736 54.6258 64.5759 54.6258 63.3467C54.6258 62.1219 53.6282 61.1199 52.399 61.1199Z" fill="#18313A"/>
<path d="M8.31704 64.3443C6.04565 56.0871 8.7535 46.8546 16.2046 41.2608C17.1443 40.5526 18.2176 41.9778 17.2734 42.6859C10.4815 47.7899 7.93402 56.243 10.0362 63.8722C10.1653 64.3443 9.8892 64.8387 9.41265 64.9678C8.93165 65.097 8.4462 64.8164 8.31704 64.3443Z" fill="#18313A"/>
<path d="M3.02601 60.5409C2.18426 52.6445 5.23504 45.0553 10.8022 39.9603C11.6706 39.1676 12.8731 40.4814 12.0047 41.2742C6.83838 46.0084 4.01918 53.0453 4.79858 60.3538C4.85203 60.8437 4.49573 61.2802 4.00582 61.3336C3.52037 61.3871 3.07945 61.0352 3.02601 60.5409Z" fill="#18313A"/>
</svg>
