<svg width="73" height="73" viewBox="0 0 73 73" fill="none" xmlns="http://www.w3.org/2000/svg">
<path d="M48.7617 63.2476H24.2383V72.1673H48.7617V63.2476Z" fill="#FD7973"/>
<path d="M62.1422 0.832764H10.8711V9.75245H62.1422V0.832764Z" fill="#FD7973"/>
<path d="M36.5016 20.3374C30.0343 20.3374 24.7988 25.5729 24.7988 32.0402C24.7988 38.5076 30.0343 43.743 36.5016 43.743C42.969 43.743 48.2045 38.5076 48.2045 32.0402C48.2045 25.5729 42.969 20.3374 36.5016 20.3374Z" fill="#FD7973"/>
<path d="M54.3277 38.4505C54.7839 38.4505 55.1603 38.0741 55.1603 37.6178C55.1603 37.1616 54.7839 36.7852 54.3277 36.7852H49.8678C49.4116 36.7852 49.0352 37.1616 49.0352 37.6178C49.0352 38.0855 49.4116 38.4505 49.8678 38.4505H54.3277Z" fill="#18313A"/>
<path d="M56.5645 42.3513H45.4205C44.9643 42.3513 44.5879 42.7277 44.5879 43.184C44.5879 43.6402 44.9643 44.0166 45.4205 44.0166H56.5645C57.0207 44.0166 57.3971 43.6402 57.3971 43.184C57.3971 42.7277 57.0207 42.3513 56.5645 42.3513Z" fill="#18313A"/>
<path d="M23.9529 37.6178C23.9529 37.1616 23.5765 36.7852 23.1202 36.7852H16.4362C15.9799 36.7852 15.6035 37.1616 15.6035 37.6178C15.6035 38.0855 15.9799 38.4505 16.4362 38.4505H23.1202C23.5879 38.4505 23.9529 38.0741 23.9529 37.6178Z" fill="#18313A"/>
<path d="M19.7782 42.3513H16.4362C15.9799 42.3513 15.6035 42.7277 15.6035 43.184C15.6035 43.6402 15.9685 44.028 16.4362 44.028H19.7782C20.2345 44.028 20.6109 43.6516 20.6109 43.1954C20.6109 42.7391 20.2345 42.3513 19.7782 42.3513Z" fill="#18313A"/>
<path d="M19.7782 47.929H16.4362C15.9799 47.929 15.6035 48.3054 15.6035 48.7616C15.6035 49.2179 15.9799 49.5943 16.4362 49.5943H19.7782C20.2345 49.5943 20.6109 49.2179 20.6109 48.7616C20.6109 48.294 20.2345 47.929 19.7782 47.929Z" fill="#18313A"/>
<path d="M24.2389 42.3513C23.7712 42.3513 23.4062 42.7277 23.4062 43.184C23.4062 43.6402 23.7827 44.0166 24.2389 44.0166H27.5809C28.0486 44.0166 28.4136 43.6402 28.4136 43.184C28.4136 42.7277 28.0372 42.3513 27.5809 42.3513H24.2389Z" fill="#18313A"/>
<path d="M56.5627 31.2075H50.985C50.5287 31.2075 50.1523 31.5839 50.1523 32.0402C50.1523 32.4964 50.5287 32.8728 50.985 32.8728H56.5627C57.0189 32.8728 57.3953 32.4964 57.3953 32.0402C57.3953 31.5839 57.0189 31.2075 56.5627 31.2075Z" fill="#18313A"/>
<path d="M56.5636 25.6299H49.8795C49.4233 25.6299 49.0469 26.0063 49.0469 26.4625C49.0469 26.9188 49.4233 27.2952 49.8795 27.2952H56.5636C57.0198 27.2952 57.3962 26.9188 57.3962 26.4625C57.3962 26.0063 57.0198 25.6299 56.5636 25.6299Z" fill="#18313A"/>
<path d="M16.4362 32.8728H19.7782C20.2345 32.8728 20.6109 32.4964 20.6109 32.0402C20.6109 31.5725 20.2345 31.2075 19.7782 31.2075H16.4362C15.9799 31.2075 15.6035 31.5839 15.6035 32.0402C15.6035 32.5078 15.9685 32.8728 16.4362 32.8728Z" fill="#18313A"/>
<path d="M16.4362 27.3067H23.1202C23.5765 27.3067 23.9529 26.9303 23.9529 26.474C23.9529 26.0178 23.5765 25.6414 23.1202 25.6414H16.4362C15.9799 25.6414 15.6035 26.0178 15.6035 26.474C15.6035 26.9303 15.9685 27.3067 16.4362 27.3067Z" fill="#18313A"/>
<path d="M54.3285 21.7288C54.7848 21.7288 55.1612 21.3524 55.1612 20.8961C55.1612 20.4399 54.7848 20.0635 54.3285 20.0635H45.4088C44.9526 20.0635 44.5762 20.4399 44.5762 20.8961C44.5762 21.3524 44.9526 21.7288 45.4088 21.7288H54.3285Z" fill="#18313A"/>
<path d="M57.1686 4.50537C56.7123 4.50537 56.3359 4.88178 56.3359 5.34943C56.3359 5.80568 56.7123 6.17068 57.1686 6.17068C57.6362 6.17068 58.0012 5.80568 58.0012 5.34943C58.0012 4.88178 57.6362 4.50537 57.1686 4.50537Z" fill="#18313A"/>
<path d="M52.2057 4.50537C51.738 4.50537 51.373 4.88178 51.373 5.34943C51.373 5.80568 51.738 6.17068 52.2057 6.17068C52.662 6.17068 53.0384 5.80568 53.0384 5.34943C53.0498 4.88178 52.662 4.50537 52.2057 4.50537Z" fill="#18313A"/>
<path d="M46.6516 4.74489C46.492 4.91599 46.4121 5.1213 46.4121 5.34942C46.4121 5.56614 46.5034 5.77146 46.6516 5.93114C46.8113 6.10224 47.028 6.18208 47.2448 6.18208C47.4729 6.18208 47.6782 6.07942 47.8379 5.93114C47.9976 5.77146 48.0774 5.56614 48.0774 5.34942C48.0774 5.1213 47.9862 4.90458 47.8379 4.74489C47.5185 4.43692 46.9596 4.43692 46.6516 4.74489Z" fill="#18313A"/>
<path d="M68.8253 14.4859H62.9739V0.832656C62.9739 0.376406 62.5975 0 62.1413 0H10.8702C10.4139 0 10.0375 0.376406 10.0375 0.832656V14.4859H4.17469C1.87063 14.4859 0 16.368 0 18.672V59.9056C0 62.2097 1.87063 64.0803 4.17469 64.0803H68.8139C71.118 64.0803 72.9886 62.2097 72.9886 59.9056V18.672C73 16.368 71.1294 14.4859 68.8253 14.4859ZM11.7028 1.67672H61.2972V8.91969H11.7028V1.67672ZM11.7028 10.585H61.2972V53.4953H11.7028V10.585ZM1.67672 18.672C1.67672 17.2919 2.80594 16.1627 4.18609 16.1627H10.0375V53.4953H1.67672V18.672ZM71.3233 59.9056C71.3233 61.2858 70.1941 62.415 68.8139 62.415H4.17469C2.79453 62.415 1.66531 61.2858 1.66531 59.9056V55.172H71.3233V59.9056ZM71.3233 53.4953H62.9625V16.1627H68.8139C70.1941 16.1627 71.3233 17.2919 71.3233 18.672V53.4953Z" fill="#18313A"/>
<path d="M61.0241 71.3232H11.9772C11.5095 71.3232 11.1445 71.6996 11.1445 72.1559C11.1445 72.6236 11.5209 72.9886 11.9772 72.9886H61.0241C61.4803 72.9886 61.8567 72.6121 61.8567 72.1559C61.8567 71.6996 61.4803 71.3232 61.0241 71.3232Z" fill="#18313A"/>
<path d="M37.9374 25.0937L33.4776 38.4619C33.3293 38.8953 33.5688 39.3744 34.0023 39.5226C34.0935 39.5569 34.1848 39.5683 34.2646 39.5683C34.6182 39.5683 34.9376 39.3515 35.063 38.9979L39.5229 25.6298C39.6712 25.1964 39.4316 24.7173 38.9982 24.569C38.5534 24.4208 38.0857 24.6489 37.9374 25.0937Z" fill="#18313A"/>
<path d="M26.9534 31.4928C26.6796 31.8007 26.6796 32.2684 26.9534 32.5763L30.2954 36.4773C30.4665 36.6712 30.6946 36.7739 30.9341 36.7739C31.128 36.7739 31.322 36.7054 31.4816 36.5685C31.8352 36.272 31.8695 35.7359 31.5729 35.3937L28.6985 32.0403L31.5729 28.6868C31.8695 28.3332 31.8352 27.8085 31.4816 27.512C31.128 27.2154 30.6034 27.2496 30.3068 27.6032L26.9534 31.4928Z" fill="#18313A"/>
<path d="M41.4387 28.6867L44.3131 32.0402L41.4387 35.3936C41.1422 35.7472 41.1764 36.2719 41.53 36.5685C41.6897 36.7053 41.8836 36.7738 42.0775 36.7738C42.317 36.7738 42.5451 36.6711 42.7162 36.4772L46.0583 32.5763C46.332 32.2683 46.332 31.8007 46.0583 31.4927L42.7162 27.5918C42.4197 27.2382 41.8836 27.2039 41.5414 27.5005C41.1764 27.8085 41.1422 28.3332 41.4387 28.6867Z" fill="#18313A"/>
<path d="M56.5645 14.4858H45.4205C44.9643 14.4858 44.5879 14.8622 44.5879 15.3185C44.5879 15.7862 44.9643 16.1512 45.4205 16.1512H56.5645C57.0207 16.1512 57.3971 15.7747 57.3971 15.3185C57.3971 14.8622 57.0207 14.4858 56.5645 14.4858Z" fill="#18313A"/>
<path d="M16.4362 21.7288H19.7782C20.2345 21.7288 20.6109 21.3524 20.6109 20.8961C20.6109 20.4399 20.2345 20.0635 19.7782 20.0635H16.4362C15.9799 20.0635 15.6035 20.4399 15.6035 20.8961C15.6035 21.3524 15.9685 21.7288 16.4362 21.7288Z" fill="#18313A"/>
<path d="M16.4362 16.1626H19.7782C20.2345 16.1626 20.6109 15.7862 20.6109 15.33C20.6109 14.8737 20.2345 14.4973 19.7782 14.4973H16.4362C15.9799 14.4973 15.6035 14.8737 15.6035 15.33C15.6035 15.7862 15.9685 16.1626 16.4362 16.1626Z" fill="#18313A"/>
<path d="M24.2389 16.1626H29.8052C30.2728 16.1626 30.6378 15.7862 30.6378 15.33C30.6378 14.8737 30.2614 14.4973 29.8052 14.4973H24.2389C23.7712 14.4973 23.4062 14.8737 23.4062 15.33C23.4062 15.7862 23.7712 16.1626 24.2389 16.1626Z" fill="#18313A"/>
<path d="M24.2389 21.7288H27.5809C28.0486 21.7288 28.4136 21.3524 28.4136 20.8961C28.4136 20.4399 28.0372 20.0635 27.5809 20.0635H24.2389C23.7712 20.0635 23.4062 20.4399 23.4062 20.8961C23.4062 21.3524 23.7712 21.7288 24.2389 21.7288Z" fill="#18313A"/>
<path d="M34.2643 16.1626H40.9484C41.4046 16.1626 41.781 15.7862 41.781 15.33C41.781 14.8737 41.4046 14.4973 40.9484 14.4973H34.2643C33.7966 14.4973 33.4316 14.8737 33.4316 15.33C33.4316 15.7862 33.808 16.1626 34.2643 16.1626Z" fill="#18313A"/>
<path d="M34.265 47.929H24.2389C23.7712 47.929 23.4062 48.3054 23.4062 48.7616C23.4062 49.2179 23.7827 49.5943 24.2389 49.5943H34.265C34.7213 49.5943 35.0977 49.2179 35.0977 48.7616C35.1091 48.294 34.7327 47.929 34.265 47.929Z" fill="#18313A"/>
<path d="M47.643 47.929H38.7233C38.267 47.929 37.8906 48.3054 37.8906 48.7616C37.8906 49.2179 38.267 49.5943 38.7233 49.5943H47.643C48.1106 49.5943 48.4756 49.2179 48.4756 48.7616C48.4756 48.294 48.0992 47.929 47.643 47.929Z" fill="#18313A"/>
</svg>
