<svg width="54" height="54" viewBox="0 0 54 54" fill="none" xmlns="http://www.w3.org/2000/svg">
<rect width="54" height="54" rx="4" fill="#FC3F37"/>
<path d="M39.8573 14.2166C39.7962 14.1629 39.721 14.1282 39.6407 14.1166C39.5603 14.105 39.4784 14.1171 39.4048 14.1514L12.2424 26.8127C12.1707 26.8461 12.1099 26.8991 12.067 26.9657C12.0241 27.0323 12.0009 27.1098 12 27.189C11.9992 27.2683 12.0207 27.3462 12.0622 27.4138C12.1036 27.4813 12.1633 27.5356 12.2342 27.5705L19.9213 31.3553C19.9904 31.3893 20.0676 31.4035 20.1444 31.3963C20.2211 31.3891 20.2943 31.3608 20.356 31.3145L27.8303 25.7102L21.9629 31.7652C21.9215 31.8079 21.8896 31.859 21.8695 31.915C21.8493 31.9711 21.8412 32.0308 21.8458 32.0902L22.4298 39.7242C22.436 39.8069 22.4666 39.886 22.5176 39.9513C22.5686 40.0166 22.6377 40.0653 22.7163 40.0913C22.7949 40.1172 22.8794 40.1192 22.9591 40.097C23.0388 40.0748 23.1101 40.0294 23.1641 39.9665L27.2441 35.2231L32.2877 37.6408C32.3418 37.6667 32.4008 37.6806 32.4607 37.6817C32.5206 37.6827 32.5801 37.6708 32.635 37.6468C32.69 37.6228 32.7392 37.5873 32.7792 37.5426C32.8193 37.4978 32.8493 37.445 32.8673 37.3877L39.9803 14.6598C40.005 14.5819 40.0065 14.4985 39.9847 14.4198C39.9628 14.341 39.9185 14.2704 39.8573 14.2166Z" fill="white"/>
</svg>
