<svg width="73" height="74" viewBox="0 0 73 74" fill="none" xmlns="http://www.w3.org/2000/svg">
<g clip-path="url(#clip0)">
<path d="M48.7617 63.9375H24.2383V72.8572H48.7617V63.9375Z" fill="#FD7973"/>
<path d="M62.1422 1.52271H10.8711V10.4424H62.1422V1.52271Z" fill="#FD7973"/>
<path d="M36.5016 21.0273C30.0343 21.0273 24.7988 26.2628 24.7988 32.7302C24.7988 39.1975 30.0343 44.433 36.5016 44.433C42.969 44.433 48.2045 39.1975 48.2045 32.7302C48.2045 26.2628 42.969 21.0273 36.5016 21.0273Z" fill="#FD7973"/>
<path d="M54.3277 39.1404C54.7839 39.1404 55.1603 38.764 55.1603 38.3078C55.1603 37.8515 54.7839 37.4751 54.3277 37.4751H49.8678C49.4116 37.4751 49.0352 37.8515 49.0352 38.3078C49.0352 38.7754 49.4116 39.1404 49.8678 39.1404H54.3277Z" fill="#18313A"/>
<path d="M56.5645 43.0413H45.4205C44.9643 43.0413 44.5879 43.4177 44.5879 43.8739C44.5879 44.3302 44.9643 44.7066 45.4205 44.7066H56.5645C57.0207 44.7066 57.3971 44.3302 57.3971 43.8739C57.3971 43.4177 57.0207 43.0413 56.5645 43.0413Z" fill="#18313A"/>
<path d="M23.9529 38.3078C23.9529 37.8515 23.5765 37.4751 23.1202 37.4751H16.4362C15.9799 37.4751 15.6035 37.8515 15.6035 38.3078C15.6035 38.7754 15.9799 39.1404 16.4362 39.1404H23.1202C23.5879 39.1404 23.9529 38.764 23.9529 38.3078Z" fill="#18313A"/>
<path d="M19.7782 43.0413H16.4362C15.9799 43.0413 15.6035 43.4177 15.6035 43.8739C15.6035 44.3302 15.9685 44.718 16.4362 44.718H19.7782C20.2345 44.718 20.6109 44.3416 20.6109 43.8853C20.6109 43.4291 20.2345 43.0413 19.7782 43.0413Z" fill="#18313A"/>
<path d="M19.7782 48.6189H16.4362C15.9799 48.6189 15.6035 48.9953 15.6035 49.4516C15.6035 49.9078 15.9799 50.2842 16.4362 50.2842H19.7782C20.2345 50.2842 20.6109 49.9078 20.6109 49.4516C20.6109 48.9839 20.2345 48.6189 19.7782 48.6189Z" fill="#18313A"/>
<path d="M24.2389 43.0413C23.7712 43.0413 23.4062 43.4177 23.4062 43.8739C23.4062 44.3302 23.7827 44.7066 24.2389 44.7066H27.5809C28.0486 44.7066 28.4136 44.3302 28.4136 43.8739C28.4136 43.4177 28.0372 43.0413 27.5809 43.0413H24.2389Z" fill="#18313A"/>
<path d="M56.5627 31.8975H50.985C50.5287 31.8975 50.1523 32.2739 50.1523 32.7301C50.1523 33.1864 50.5287 33.5628 50.985 33.5628H56.5627C57.0189 33.5628 57.3953 33.1864 57.3953 32.7301C57.3953 32.2739 57.0189 31.8975 56.5627 31.8975Z" fill="#18313A"/>
<path d="M56.5636 26.3198H49.8795C49.4233 26.3198 49.0469 26.6962 49.0469 27.1525C49.0469 27.6087 49.4233 27.9851 49.8795 27.9851H56.5636C57.0198 27.9851 57.3962 27.6087 57.3962 27.1525C57.3962 26.6962 57.0198 26.3198 56.5636 26.3198Z" fill="#18313A"/>
<path d="M16.4362 33.5628H19.7782C20.2345 33.5628 20.6109 33.1864 20.6109 32.7301C20.6109 32.2625 20.2345 31.8975 19.7782 31.8975H16.4362C15.9799 31.8975 15.6035 32.2739 15.6035 32.7301C15.6035 33.1978 15.9685 33.5628 16.4362 33.5628Z" fill="#18313A"/>
<path d="M16.4362 27.9966H23.1202C23.5765 27.9966 23.9529 27.6202 23.9529 27.164C23.9529 26.7077 23.5765 26.3313 23.1202 26.3313H16.4362C15.9799 26.3313 15.6035 26.7077 15.6035 27.164C15.6035 27.6202 15.9685 27.9966 16.4362 27.9966Z" fill="#18313A"/>
<path d="M54.3285 22.4187C54.7848 22.4187 55.1612 22.0423 55.1612 21.5861C55.1612 21.1298 54.7848 20.7534 54.3285 20.7534H45.4088C44.9526 20.7534 44.5762 21.1298 44.5762 21.5861C44.5762 22.0423 44.9526 22.4187 45.4088 22.4187H54.3285Z" fill="#18313A"/>
<path d="M57.1686 5.19531C56.7123 5.19531 56.3359 5.57172 56.3359 6.03938C56.3359 6.49563 56.7123 6.86063 57.1686 6.86063C57.6362 6.86063 58.0012 6.49563 58.0012 6.03938C58.0012 5.57172 57.6362 5.19531 57.1686 5.19531Z" fill="#18313A"/>
<path d="M52.2057 5.19531C51.738 5.19531 51.373 5.57172 51.373 6.03938C51.373 6.49563 51.738 6.86063 52.2057 6.86063C52.662 6.86063 53.0384 6.49563 53.0384 6.03938C53.0498 5.57172 52.662 5.19531 52.2057 5.19531Z" fill="#18313A"/>
<path d="M46.6516 5.43483C46.492 5.60593 46.4121 5.81124 46.4121 6.03937C46.4121 6.25608 46.5034 6.4614 46.6516 6.62108C46.8113 6.79218 47.028 6.87202 47.2448 6.87202C47.4729 6.87202 47.6782 6.76937 47.8379 6.62108C47.9976 6.4614 48.0774 6.25608 48.0774 6.03937C48.0774 5.81124 47.9862 5.59452 47.8379 5.43483C47.5185 5.12687 46.9596 5.12687 46.6516 5.43483Z" fill="#18313A"/>
<path d="M68.8253 15.1759H62.9739V1.5226C62.9739 1.06635 62.5975 0.689941 62.1413 0.689941H10.8702C10.4139 0.689941 10.0375 1.06635 10.0375 1.5226V15.1759H4.17469C1.87063 15.1759 0 17.0579 0 19.362V60.5956C0 62.8996 1.87063 64.7703 4.17469 64.7703H68.8139C71.118 64.7703 72.9886 62.8996 72.9886 60.5956V19.362C73 17.0579 71.1294 15.1759 68.8253 15.1759ZM11.7028 2.36666H61.2972V9.60963H11.7028V2.36666ZM11.7028 11.2749H61.2972V54.1853H11.7028V11.2749ZM1.67672 19.362C1.67672 17.9818 2.80594 16.8526 4.18609 16.8526H10.0375V54.1853H1.67672V19.362ZM71.3233 60.5956C71.3233 61.9757 70.1941 63.1049 68.8139 63.1049H4.17469C2.79453 63.1049 1.66531 61.9757 1.66531 60.5956V55.862H71.3233V60.5956ZM71.3233 54.1853H62.9625V16.8526H68.8139C70.1941 16.8526 71.3233 17.9818 71.3233 19.362V54.1853Z" fill="#18313A"/>
<path d="M61.0241 72.0132H11.9772C11.5095 72.0132 11.1445 72.3896 11.1445 72.8458C11.1445 73.3135 11.5209 73.6785 11.9772 73.6785H61.0241C61.4803 73.6785 61.8567 73.3021 61.8567 72.8458C61.8567 72.3896 61.4803 72.0132 61.0241 72.0132Z" fill="#18313A"/>
<path d="M37.9374 25.7837L33.4776 39.1518C33.3293 39.5852 33.5688 40.0643 34.0023 40.2126C34.0935 40.2468 34.1848 40.2582 34.2646 40.2582C34.6182 40.2582 34.9376 40.0415 35.063 39.6879L39.5229 26.3198C39.6712 25.8863 39.4316 25.4073 38.9982 25.259C38.5534 25.1107 38.0857 25.3388 37.9374 25.7837Z" fill="#18313A"/>
<path d="M26.9534 32.1827C26.6796 32.4907 26.6796 32.9583 26.9534 33.2663L30.2954 37.1672C30.4665 37.3611 30.6946 37.4638 30.9341 37.4638C31.128 37.4638 31.322 37.3954 31.4816 37.2585C31.8352 36.9619 31.8695 36.4258 31.5729 36.0836L28.6985 32.7302L31.5729 29.3768C31.8695 29.0232 31.8352 28.4985 31.4816 28.2019C31.128 27.9054 30.6034 27.9396 30.3068 28.2932L26.9534 32.1827Z" fill="#18313A"/>
<path d="M41.4387 29.3767L44.3131 32.7301L41.4387 36.0836C41.1422 36.4372 41.1764 36.9618 41.53 37.2584C41.6897 37.3953 41.8836 37.4637 42.0775 37.4637C42.317 37.4637 42.5451 37.3611 42.7162 37.1672L46.0583 33.2662C46.332 32.9583 46.332 32.4906 46.0583 32.1826L42.7162 28.2817C42.4197 27.9281 41.8836 27.8939 41.5414 28.1904C41.1764 28.4984 41.1422 29.0231 41.4387 29.3767Z" fill="#18313A"/>
<path d="M56.5645 15.1758H45.4205C44.9643 15.1758 44.5879 15.5522 44.5879 16.0084C44.5879 16.4761 44.9643 16.8411 45.4205 16.8411H56.5645C57.0207 16.8411 57.3971 16.4647 57.3971 16.0084C57.3971 15.5522 57.0207 15.1758 56.5645 15.1758Z" fill="#18313A"/>
<path d="M16.4362 22.4187H19.7782C20.2345 22.4187 20.6109 22.0423 20.6109 21.5861C20.6109 21.1298 20.2345 20.7534 19.7782 20.7534H16.4362C15.9799 20.7534 15.6035 21.1298 15.6035 21.5861C15.6035 22.0423 15.9685 22.4187 16.4362 22.4187Z" fill="#18313A"/>
<path d="M16.4362 16.8526H19.7782C20.2345 16.8526 20.6109 16.4762 20.6109 16.0199C20.6109 15.5637 20.2345 15.1873 19.7782 15.1873H16.4362C15.9799 15.1873 15.6035 15.5637 15.6035 16.0199C15.6035 16.4762 15.9685 16.8526 16.4362 16.8526Z" fill="#18313A"/>
<path d="M24.2389 16.8526H29.8052C30.2728 16.8526 30.6378 16.4762 30.6378 16.0199C30.6378 15.5637 30.2614 15.1873 29.8052 15.1873H24.2389C23.7712 15.1873 23.4062 15.5637 23.4062 16.0199C23.4062 16.4762 23.7712 16.8526 24.2389 16.8526Z" fill="#18313A"/>
<path d="M24.2389 22.4187H27.5809C28.0486 22.4187 28.4136 22.0423 28.4136 21.5861C28.4136 21.1298 28.0372 20.7534 27.5809 20.7534H24.2389C23.7712 20.7534 23.4062 21.1298 23.4062 21.5861C23.4062 22.0423 23.7712 22.4187 24.2389 22.4187Z" fill="#18313A"/>
<path d="M34.2643 16.8526H40.9484C41.4046 16.8526 41.781 16.4762 41.781 16.0199C41.781 15.5637 41.4046 15.1873 40.9484 15.1873H34.2643C33.7966 15.1873 33.4316 15.5637 33.4316 16.0199C33.4316 16.4762 33.808 16.8526 34.2643 16.8526Z" fill="#18313A"/>
<path d="M34.265 48.6189H24.2389C23.7712 48.6189 23.4062 48.9953 23.4062 49.4516C23.4062 49.9078 23.7827 50.2842 24.2389 50.2842H34.265C34.7213 50.2842 35.0977 49.9078 35.0977 49.4516C35.1091 48.9839 34.7327 48.6189 34.265 48.6189Z" fill="#18313A"/>
<path d="M47.643 48.6189H38.7233C38.267 48.6189 37.8906 48.9953 37.8906 49.4516C37.8906 49.9078 38.267 50.2842 38.7233 50.2842H47.643C48.1106 50.2842 48.4756 49.9078 48.4756 49.4516C48.4756 48.9839 48.0992 48.6189 47.643 48.6189Z" fill="#18313A"/>
</g>
<defs>
<clipPath id="clip0">
<rect width="73" height="73" fill="white" transform="translate(0 0.689941)"/>
</clipPath>
</defs>
</svg>
