<svg width="73" height="73" viewBox="0 0 73 73" fill="none" xmlns="http://www.w3.org/2000/svg">
<g opacity="0.7">
<path d="M24.7383 71.6674V63.7477H48.2617V71.6674H24.7383Z" stroke="black"/>
<path d="M54.3277 38.4505C54.7839 38.4505 55.1603 38.0741 55.1603 37.6178C55.1603 37.1616 54.7839 36.7852 54.3277 36.7852H49.8678C49.4116 36.7852 49.0352 37.1616 49.0352 37.6178C49.0352 38.0855 49.4116 38.4505 49.8678 38.4505H54.3277Z" fill="#18313A"/>
<path d="M56.5635 42.3514H45.4196C44.9633 42.3514 44.5869 42.7278 44.5869 43.1841C44.5869 43.6403 44.9633 44.0168 45.4196 44.0168H56.5635C57.0197 44.0168 57.3961 43.6403 57.3961 43.1841C57.3961 42.7278 57.0197 42.3514 56.5635 42.3514Z" fill="#18313A"/>
<path d="M23.9529 37.6178C23.9529 37.1616 23.5765 36.7852 23.1202 36.7852H16.4362C15.9799 36.7852 15.6035 37.1616 15.6035 37.6178C15.6035 38.0855 15.9799 38.4505 16.4362 38.4505H23.1202C23.5879 38.4505 23.9529 38.0741 23.9529 37.6178Z" fill="#18313A"/>
<path d="M19.7782 42.3514H16.4362C15.9799 42.3514 15.6035 42.7278 15.6035 43.1841C15.6035 43.6403 15.9685 44.0282 16.4362 44.0282H19.7782C20.2345 44.0282 20.6109 43.6518 20.6109 43.1955C20.6109 42.7393 20.2345 42.3514 19.7782 42.3514Z" fill="#18313A"/>
<path d="M19.7782 47.9291H16.4362C15.9799 47.9291 15.6035 48.3055 15.6035 48.7617C15.6035 49.218 15.9799 49.5944 16.4362 49.5944H19.7782C20.2345 49.5944 20.6109 49.218 20.6109 48.7617C20.6109 48.2941 20.2345 47.9291 19.7782 47.9291Z" fill="#18313A"/>
<path d="M24.2379 42.3514C23.7703 42.3514 23.4053 42.7278 23.4053 43.1841C23.4053 43.6403 23.7817 44.0168 24.2379 44.0168H27.58C28.0476 44.0168 28.4126 43.6403 28.4126 43.1841C28.4126 42.7278 28.0362 42.3514 27.58 42.3514H24.2379Z" fill="#18313A"/>
<path d="M56.5636 31.2075H50.986C50.5297 31.2075 50.1533 31.5839 50.1533 32.0402C50.1533 32.4964 50.5297 32.8728 50.986 32.8728H56.5636C57.0199 32.8728 57.3963 32.4964 57.3963 32.0402C57.3963 31.5839 57.0199 31.2075 56.5636 31.2075Z" fill="#18313A"/>
<path d="M56.5636 25.6299H49.8795C49.4233 25.6299 49.0469 26.0063 49.0469 26.4625C49.0469 26.9188 49.4233 27.2952 49.8795 27.2952H56.5636C57.0198 27.2952 57.3962 26.9188 57.3962 26.4625C57.3962 26.0063 57.0198 25.6299 56.5636 25.6299Z" fill="#18313A"/>
<path d="M16.4362 32.8728H19.7782C20.2345 32.8728 20.6109 32.4964 20.6109 32.0402C20.6109 31.5725 20.2345 31.2075 19.7782 31.2075H16.4362C15.9799 31.2075 15.6035 31.5839 15.6035 32.0402C15.6035 32.5078 15.9685 32.8728 16.4362 32.8728Z" fill="#18313A"/>
<path d="M16.4362 27.3065H23.1202C23.5765 27.3065 23.9529 26.9301 23.9529 26.4739C23.9529 26.0176 23.5765 25.6412 23.1202 25.6412H16.4362C15.9799 25.6412 15.6035 26.0176 15.6035 26.4739C15.6035 26.9301 15.9685 27.3065 16.4362 27.3065Z" fill="#18313A"/>
<path d="M54.3275 21.7289C54.7838 21.7289 55.1602 21.3525 55.1602 20.8963C55.1602 20.44 54.7838 20.0636 54.3275 20.0636H45.4079C44.9516 20.0636 44.5752 20.44 44.5752 20.8963C44.5752 21.3525 44.9516 21.7289 45.4079 21.7289H54.3275Z" fill="#18313A"/>
<path d="M57.1686 4.50549C56.7123 4.50549 56.3359 4.8819 56.3359 5.34956C56.3359 5.80581 56.7123 6.17081 57.1686 6.17081C57.6362 6.17081 58.0012 5.80581 58.0012 5.34956C58.0012 4.8819 57.6362 4.50549 57.1686 4.50549Z" fill="#18313A"/>
<path d="M52.2067 4.50549C51.739 4.50549 51.374 4.8819 51.374 5.34956C51.374 5.80581 51.739 6.17081 52.2067 6.17081C52.6629 6.17081 53.0393 5.80581 53.0393 5.34956C53.0507 4.8819 52.6629 4.50549 52.2067 4.50549Z" fill="#18313A"/>
<path d="M46.6516 4.74501C46.492 4.91611 46.4121 5.12142 46.4121 5.34955C46.4121 5.56627 46.5034 5.77158 46.6516 5.93126C46.8113 6.10236 47.028 6.1822 47.2448 6.1822C47.4729 6.1822 47.6782 6.07955 47.8379 5.93126C47.9976 5.77158 48.0774 5.56627 48.0774 5.34955C48.0774 5.12142 47.9862 4.9047 47.8379 4.74501C47.5185 4.43705 46.9596 4.43705 46.6516 4.74501Z" fill="#18313A"/>
<path d="M68.8253 14.4859H62.9739V0.832656C62.9739 0.376406 62.5975 0 62.1413 0H10.8702C10.4139 0 10.0375 0.376406 10.0375 0.832656V14.4859H4.17469C1.87063 14.4859 0 16.368 0 18.672V59.9056C0 62.2097 1.87063 64.0803 4.17469 64.0803H68.8139C71.118 64.0803 72.9886 62.2097 72.9886 59.9056V18.672C73 16.368 71.1294 14.4859 68.8253 14.4859ZM11.7028 1.67672H61.2972V8.91969H11.7028V1.67672ZM11.7028 10.585H61.2972V53.4953H11.7028V10.585ZM1.67672 18.672C1.67672 17.2919 2.80594 16.1627 4.18609 16.1627H10.0375V53.4953H1.67672V18.672ZM71.3233 59.9056C71.3233 61.2858 70.1941 62.415 68.8139 62.415H4.17469C2.79453 62.415 1.66531 61.2858 1.66531 59.9056V55.172H71.3233V59.9056ZM71.3233 53.4953H62.9625V16.1627H68.8139C70.1941 16.1627 71.3233 17.2919 71.3233 18.672V53.4953Z" fill="#18313A"/>
<path d="M61.0231 71.3232H11.9762C11.5086 71.3232 11.1436 71.6996 11.1436 72.1559C11.1436 72.6236 11.52 72.9886 11.9762 72.9886H61.0231C61.4793 72.9886 61.8557 72.6121 61.8557 72.1559C61.8557 71.6996 61.4793 71.3232 61.0231 71.3232Z" fill="#18313A"/>
<path d="M37.9374 25.0937L33.4776 38.4619C33.3293 38.8953 33.5688 39.3744 34.0023 39.5226C34.0935 39.5569 34.1848 39.5683 34.2646 39.5683C34.6182 39.5683 34.9376 39.3515 35.063 38.9979L39.5229 25.6298C39.6712 25.1964 39.4316 24.7173 38.9982 24.569C38.5534 24.4208 38.0857 24.6489 37.9374 25.0937Z" fill="#18313A"/>
<path d="M26.9534 31.4926C26.6796 31.8006 26.6796 32.2683 26.9534 32.5762L30.2954 36.4772C30.4665 36.6711 30.6946 36.7737 30.9341 36.7737C31.128 36.7737 31.322 36.7053 31.4816 36.5684C31.8352 36.2719 31.8695 35.7358 31.5729 35.3936L28.6985 32.0401L31.5729 28.6867C31.8695 28.3331 31.8352 27.8084 31.4816 27.5119C31.128 27.2153 30.6034 27.2495 30.3068 27.6031L26.9534 31.4926Z" fill="#18313A"/>
<path d="M41.4387 28.6867L44.3131 32.0402L41.4387 35.3936C41.1422 35.7472 41.1764 36.2719 41.53 36.5685C41.6897 36.7053 41.8836 36.7738 42.0775 36.7738C42.317 36.7738 42.5451 36.6711 42.7162 36.4772L46.0583 32.5763C46.332 32.2683 46.332 31.8007 46.0583 31.4927L42.7162 27.5918C42.4197 27.2382 41.8836 27.2039 41.5414 27.5005C41.1764 27.8085 41.1422 28.3332 41.4387 28.6867Z" fill="#18313A"/>
<path d="M56.5635 14.486H45.4196C44.9633 14.486 44.5869 14.8624 44.5869 15.3186C44.5869 15.7863 44.9633 16.1513 45.4196 16.1513H56.5635C57.0197 16.1513 57.3961 15.7749 57.3961 15.3186C57.3961 14.8624 57.0197 14.486 56.5635 14.486Z" fill="#18313A"/>
<path d="M16.4362 21.7289H19.7782C20.2345 21.7289 20.6109 21.3525 20.6109 20.8963C20.6109 20.44 20.2345 20.0636 19.7782 20.0636H16.4362C15.9799 20.0636 15.6035 20.44 15.6035 20.8963C15.6035 21.3525 15.9685 21.7289 16.4362 21.7289Z" fill="#18313A"/>
<path d="M16.4362 16.1626H19.7782C20.2345 16.1626 20.6109 15.7862 20.6109 15.33C20.6109 14.8737 20.2345 14.4973 19.7782 14.4973H16.4362C15.9799 14.4973 15.6035 14.8737 15.6035 15.33C15.6035 15.7862 15.9685 16.1626 16.4362 16.1626Z" fill="#18313A"/>
<path d="M24.2379 16.1626H29.8042C30.2718 16.1626 30.6368 15.7862 30.6368 15.33C30.6368 14.8737 30.2604 14.4973 29.8042 14.4973H24.2379C23.7703 14.4973 23.4053 14.8737 23.4053 15.33C23.4053 15.7862 23.7703 16.1626 24.2379 16.1626Z" fill="#18313A"/>
<path d="M24.2379 21.7289H27.58C28.0476 21.7289 28.4126 21.3525 28.4126 20.8963C28.4126 20.44 28.0362 20.0636 27.58 20.0636H24.2379C23.7703 20.0636 23.4053 20.44 23.4053 20.8963C23.4053 21.3525 23.7703 21.7289 24.2379 21.7289Z" fill="#18313A"/>
<path d="M34.2643 16.1626H40.9484C41.4046 16.1626 41.781 15.7862 41.781 15.33C41.781 14.8737 41.4046 14.4973 40.9484 14.4973H34.2643C33.7966 14.4973 33.4316 14.8737 33.4316 15.33C33.4316 15.7862 33.808 16.1626 34.2643 16.1626Z" fill="#18313A"/>
<path d="M34.264 47.9291H24.2379C23.7703 47.9291 23.4053 48.3055 23.4053 48.7617C23.4053 49.218 23.7817 49.5944 24.2379 49.5944H34.264C34.7203 49.5944 35.0967 49.218 35.0967 48.7617C35.1081 48.2941 34.7317 47.9291 34.264 47.9291Z" fill="#18313A"/>
<path d="M47.6439 47.9291H38.7243C38.268 47.9291 37.8916 48.3055 37.8916 48.7617C37.8916 49.218 38.268 49.5944 38.7243 49.5944H47.6439C48.1116 49.5944 48.4766 49.218 48.4766 48.7617C48.4766 48.2941 48.1002 47.9291 47.6439 47.9291Z" fill="#18313A"/>
</g>
</svg>
