<svg width="85" height="74" viewBox="0 0 85 74" fill="none" xmlns="http://www.w3.org/2000/svg">
<path d="M51.2374 63.9075C50.4516 65.2575 49.3686 64.9703 46.0138 64.9703C45.228 64.9703 44.553 64.5422 44.1852 63.9075H33.0126C33.0126 64.9653 33.1385 66.4765 31.9648 68.1539H79.3806C81.4308 68.1539 83.0981 66.4916 83.0981 64.4364V63.9075H51.2374Z" fill="#FD7973"/>
<path d="M76.7676 72.5718C76.7676 71.0758 74.5059 71.0808 74.5059 72.5718C74.5059 74.0629 76.7676 74.0629 76.7676 72.5718Z" fill="#18313A"/>
<path d="M71.2603 73.4631H10.259C8.9292 73.4631 8.92416 71.4482 10.259 71.4482H71.2603C72.5901 71.4482 72.5951 73.4631 71.2603 73.4631Z" fill="#18313A"/>
<path d="M29.2344 29.2612H1.11133V59.7367H29.2344V29.2612Z" fill="#FD7973"/>
<path d="M25.0693 69.3125H4.83968C2.17497 69.3125 0.00390625 67.1415 0.00390625 64.4768V28.7374C0.00390625 26.0727 2.17497 23.9016 4.83968 23.9016H25.0693C27.734 23.9016 29.9051 26.0677 29.9051 28.7374V64.4768C29.9001 67.1465 27.734 69.3125 25.0693 69.3125ZM4.83465 25.9417C3.29325 25.9417 2.03896 27.196 2.03896 28.7374V64.4768C2.03896 66.0182 3.29325 67.2724 4.83465 67.2724H25.0643C26.6057 67.2724 27.86 66.0182 27.86 64.4768V28.7374C27.86 27.196 26.6057 25.9417 25.0643 25.9417H4.83465Z" fill="#18313A"/>
<path d="M18.5572 65.3028C17.046 65.3028 17.046 63.0159 18.5572 63.0159C20.0684 63.0159 20.0684 65.3028 18.5572 65.3028Z" fill="#18313A"/>
<path d="M15.3072 65.3028C13.796 65.3028 13.796 63.0159 15.3072 63.0159C16.8134 63.0159 16.8184 65.3028 15.3072 65.3028Z" fill="#18313A"/>
<path d="M12.0533 65.3028C10.5421 65.3028 10.5421 63.0159 12.0533 63.0159C13.5645 63.0159 13.5645 65.3028 12.0533 65.3028Z" fill="#18313A"/>
<path d="M23.3977 37.5577H6.60346C6.03929 37.5577 5.58594 37.0993 5.58594 36.5402V32.5607C5.58594 31.9965 6.04432 31.5432 6.60346 31.5432H23.3977C23.9619 31.5432 24.4152 32.0016 24.4152 32.5607V36.5402C24.4152 37.1043 23.9619 37.5577 23.3977 37.5577ZM7.621 35.5226H22.3802V33.5833H7.621V35.5226Z" fill="white"/>
<path d="M12.5315 45.5164H6.59761C6.03344 45.5164 5.58008 45.058 5.58008 44.4989V40.5195C5.58008 39.9553 6.03848 39.502 6.59761 39.502H12.5315C13.0957 39.502 13.549 39.9604 13.549 40.5195V44.4989C13.5541 45.0631 13.0957 45.5164 12.5315 45.5164ZM7.62018 43.4814H11.514V41.542H7.62018V43.4814Z" fill="white"/>
<path d="M23.2558 45.5164H17.0449C16.4807 45.5164 16.0273 45.058 16.0273 44.4989V40.5195C16.0273 39.9553 16.4857 39.502 17.0449 39.502H23.2558C23.82 39.502 24.2734 39.9604 24.2734 40.5195V44.4989C24.2784 45.0631 23.82 45.5164 23.2558 45.5164ZM18.0674 43.4814H22.2383V41.542H18.0674V43.4814Z" fill="white"/>
<path d="M21.2108 49.4859H19.6997C18.3698 49.4859 18.3648 47.4709 19.6997 47.4709H21.2108C21.7649 47.4709 22.2183 47.9243 22.2183 48.4784C22.2183 49.0325 21.7649 49.4859 21.2108 49.4859ZM14.6624 49.4859H13.1512C11.8214 49.4859 11.8163 47.4709 13.1512 47.4709H14.6624C15.2165 47.4709 15.6699 47.9243 15.6699 48.4784C15.6699 49.0325 15.2165 49.4859 14.6624 49.4859ZM8.11396 49.4859H6.60278C5.27295 49.4859 5.26791 47.4709 6.60278 47.4709H8.11396C8.66806 47.4709 9.12141 47.9243 9.12141 48.4784C9.12141 49.0325 8.66806 49.4859 8.11396 49.4859Z" fill="white"/>
<path d="M23.4168 53.4755H6.6024C5.25745 53.4755 5.25241 51.4404 6.6024 51.4404H23.4168C23.981 51.4404 24.4343 51.8988 24.4343 52.4579C24.4343 53.0171 23.981 53.4755 23.4168 53.4755Z" fill="white"/>
<path d="M23.3966 57.4499H6.6024C5.25745 57.4499 5.25241 55.4148 6.6024 55.4148H23.3966C23.9608 55.4148 24.4142 55.8732 24.4142 56.4323C24.4142 56.9965 23.9608 57.4499 23.3966 57.4499Z" fill="white"/>
<path d="M80.6809 64.0083V27.4076C80.6809 25.8863 79.4468 24.6572 77.9306 24.6572H72.3997L72.168 28.7425H76.5051V64.0083H80.6809Z" fill="#FD7973"/>
<path d="M71.4368 4.90101C71.4368 3.28405 70.112 1.97437 68.4799 1.97437H25.5272C23.8951 1.97437 22.5703 3.28405 22.5703 4.90101V9.1172H71.4317V4.90101H71.4368Z" fill="#FD7973"/>
<path d="M21.8555 22.2847V9.02161C21.8555 7.69681 23.8653 7.69178 23.8653 9.02161V22.2847C23.8603 23.6146 21.8555 23.6146 21.8555 22.2847Z" fill="#18313A"/>
<path d="M71.4375 63.1269V9.02161C71.4375 7.69681 73.4474 7.69178 73.4474 9.02161V63.1269C73.4474 64.4517 71.4375 64.4517 71.4375 63.1269Z" fill="#18313A"/>
<path d="M72.3842 10.024C72.3439 10.029 22.8982 10.024 22.8579 10.024C22.3038 10.024 21.8555 9.57566 21.8555 9.02156V4.98671C21.8555 2.6192 23.7847 0.689941 26.1523 0.689941H69.1553C71.5229 0.689941 73.4521 2.6192 73.4521 4.98671V9.02156C73.4471 9.61596 72.9383 10.0643 72.3842 10.024ZM23.8603 8.01411H71.4372V4.98671C71.4372 3.72739 70.4096 2.6998 69.1503 2.6998H26.1472C24.8879 2.6998 23.8603 3.72739 23.8603 4.98671V8.01411Z" fill="#18313A"/>
<path d="M79.9653 63.9077V27.2817C79.9653 26.375 79.2248 25.6345 78.3181 25.6345H73.175C71.8452 25.6345 71.8402 23.6196 73.175 23.6196H78.3181C80.338 23.6196 81.9802 25.2618 81.9802 27.2817V63.9077C81.9802 65.2425 79.9653 65.2425 79.9653 63.9077Z" fill="#18313A"/>
<path d="M75.7189 62.6684V29.8809H73.175C71.8452 29.8809 71.8402 27.866 73.175 27.866H76.4644C77.1646 27.866 77.7388 28.4352 77.7388 29.1404V62.6684C77.7338 63.9982 75.7189 64.0033 75.7189 62.6684Z" fill="#18313A"/>
<path d="M79.382 69.1614H7.24341C5.91357 69.1614 5.90853 67.1465 7.24341 67.1465H79.3871C80.7169 67.1465 81.8251 66.1793 82.0518 64.915H51.7526C51.1633 65.5799 50.312 65.9778 49.4154 65.9778C46.0303 65.9778 44.8566 66.2499 43.6779 64.915H33.8401C32.5103 64.915 32.5053 62.9001 33.8401 62.9001H44.1867C45.1689 62.9001 44.9775 63.9629 46.0152 63.9629C49.5715 63.9629 49.9493 64.1292 50.3674 63.4038C50.7905 62.6784 48.8713 62.9051 83.0945 62.9051C83.6486 62.9051 84.1019 63.3585 84.1019 63.9126V64.4415C84.107 67.0457 81.9863 69.1614 79.382 69.1614Z" fill="#18313A"/>
<path d="M26.6973 5.53071C26.6973 6.95122 28.8734 6.95122 28.8734 5.53071C28.8734 4.11021 26.6973 4.11021 26.6973 5.53071Z" fill="#18313A"/>
<path d="M30.5645 5.53071C30.5645 6.95122 32.7406 6.95122 32.7406 5.53071C32.7355 4.11021 30.5645 4.11021 30.5645 5.53071Z" fill="#18313A"/>
<path d="M34.4277 5.53071C34.4277 6.95122 36.6038 6.95122 36.6038 5.53071C36.6038 4.11021 34.4277 4.11021 34.4277 5.53071Z" fill="#18313A"/>
<path d="M63.4073 30.8782H61.8962C60.5663 30.8782 60.5613 28.8633 61.8962 28.8633H63.4073C63.9614 28.8633 64.4148 29.3166 64.4148 29.8707C64.4148 30.4248 63.9614 30.8782 63.4073 30.8782ZM56.8589 30.8782H55.3477C54.0179 30.8782 54.0128 28.8633 55.3477 28.8633H56.8589C57.413 28.8633 57.8663 29.3166 57.8663 29.8707C57.8663 30.4248 57.413 30.8782 56.8589 30.8782ZM50.3104 30.8782H48.7993C47.4694 30.8782 47.4644 28.8633 48.7993 28.8633H50.3104C50.8645 28.8633 51.3179 29.3166 51.3179 29.8707C51.3179 30.4248 50.8645 30.8782 50.3104 30.8782ZM43.762 30.8782H42.2508C40.921 30.8782 40.916 28.8633 42.2508 28.8633H43.762C44.3161 28.8633 44.7695 29.3166 44.7695 29.8707C44.7695 30.4248 44.3161 30.8782 43.762 30.8782ZM37.2136 30.8782H35.7024C34.3726 30.8782 34.3675 28.8633 35.7024 28.8633H37.2136C37.7677 28.8633 38.221 29.3166 38.221 29.8707C38.221 30.4248 37.7677 30.8782 37.2136 30.8782Z" fill="#18313A"/>
<path d="M64.1334 55.8529H34.0912C32.7664 55.8529 32.7614 53.843 34.0912 53.843H64.1334C65.4582 53.843 65.4633 55.8529 64.1334 55.8529Z" fill="#18313A"/>
<path d="M64.2499 50.2465H33.6888C32.364 50.2465 32.359 48.2366 33.6888 48.2366H64.2499C65.5747 48.2366 65.5797 50.2465 64.2499 50.2465Z" fill="#18313A"/>
<path d="M63.9565 25.4732H32.1714C30.8466 25.4732 30.8415 23.4633 32.1714 23.4633H62.9541V17.7511H29.7384V21.2772C29.7384 22.602 27.7285 22.607 27.7285 21.2772V16.7436C27.7285 16.1895 28.1768 15.7412 28.7309 15.7412H63.9565C64.5106 15.7412 64.9589 16.1895 64.9589 16.7436V24.4658C64.964 25.0249 64.5156 25.4732 63.9565 25.4732Z" fill="#18313A"/>
<path d="M63.957 43.945H33.9349C32.6101 43.945 32.6051 41.9352 33.9349 41.9352H62.9546V36.2179H33.9349C32.6101 36.2179 32.6051 34.208 33.9349 34.208H63.957C64.5111 34.208 64.9594 34.6563 64.9594 35.2104V42.9325C64.9645 43.4917 64.5162 43.945 63.957 43.945Z" fill="#18313A"/>
<path d="M38.6602 42.4337V35.5477C38.6602 34.2229 40.67 34.2179 40.67 35.5477V42.4337C40.67 43.7635 38.6602 43.7635 38.6602 42.4337Z" fill="#18313A"/>
<path d="M51.7363 42.4337V35.5477C51.7363 34.2229 53.7462 34.2179 53.7462 35.5477V42.4337C53.7462 43.7635 51.7363 43.7635 51.7363 42.4337Z" fill="#18313A"/>
</svg>
