<svg width="66" height="82" viewBox="0 0 66 82" fill="none" xmlns="http://www.w3.org/2000/svg">
<path d="M58.1507 74.438C60.0611 74.438 61.6099 72.8893 61.6099 70.9788C61.6099 69.0683 60.0611 67.5195 58.1507 67.5195C56.2402 67.5195 54.6914 69.0683 54.6914 70.9788C54.6914 72.8893 56.2402 74.438 58.1507 74.438Z" fill="#FD7973"/>
<path d="M45.9751 61.8661L45.0263 58.229L41.3496 58.3179C40.8307 57.631 39.8918 57.7002 39.2444 57.1516L39.536 53.4848L36.3189 51.8936L33.7788 54.5572C32.9387 54.4386 32.0837 54.4139 31.2239 54.4831L28.8321 51.686L25.19 53.0747L25.274 56.7514C24.5821 57.2702 23.9644 57.8633 23.4159 58.5106L19.7491 58.224L18.1578 61.787L20.8165 64.3271C20.6979 65.1672 20.6732 66.0221 20.7424 66.882L17.9453 69.2689L19.3389 72.9159L23.0156 72.8319C23.5345 73.5188 24.1275 74.1415 24.7749 74.69L24.4833 78.3568L27.7004 79.953L30.2405 77.2894C31.0756 77.408 31.5896 77.7836 32.4494 77.7095L34.8363 80.5065L38.1127 79.1722L38.0287 75.4955C38.7156 74.9766 40.3958 73.9834 40.9444 73.336L44.6112 73.6275L46.2024 70.0645L43.5388 67.5244C43.6574 66.6893 43.2423 65.1277 43.1682 64.2678L45.9751 61.8661ZM32.6965 70.193C29.9538 71.2407 26.8801 69.8668 25.8324 67.1242C24.7847 64.3815 26.1586 61.3077 28.9012 60.26C31.6439 59.2124 34.7177 60.5862 35.7604 63.3289C36.813 66.0716 35.4392 69.1453 32.6965 70.193Z" fill="#FD7973"/>
<path d="M3.96484 72.3823C3.96484 73.85 6.1837 73.845 6.1837 72.3823C6.17876 70.9146 3.96484 70.9146 3.96484 72.3823Z" fill="#18313A"/>
<path d="M31.1104 78.6535C30.4482 78.6831 29.786 78.6634 29.1287 78.5991C26.6529 81.1886 26.4058 81.7322 25.5805 81.3616C21.5727 79.5677 21.039 79.5578 21.1131 78.6436L21.3899 75.1399C20.9006 74.6951 20.446 74.2108 20.0259 73.6969C16.4431 73.7809 15.8897 73.9885 15.5635 73.1434C13.997 69.0417 13.6263 68.6563 14.3231 68.0633L16.9966 65.7802C16.967 65.118 16.9867 64.4558 17.0559 63.7985C14.4714 61.3276 13.9228 61.0756 14.2935 60.2503C16.0923 56.2227 16.1121 55.7039 17.0115 55.7829L20.5152 56.0597C20.9649 55.5655 21.4442 55.1108 21.9582 54.6957C21.8742 51.1228 21.6666 50.5595 22.5117 50.2333L26.4898 48.7162C27.3348 48.395 27.5523 48.9534 29.8799 51.6714C30.5421 51.6417 31.2042 51.6615 31.8615 51.7257L34.2929 49.1807C34.9205 48.5185 35.2812 48.904 39.2989 50.6978C40.1242 51.0685 39.887 51.617 39.6003 55.185C40.0896 55.6297 40.5442 56.114 40.9643 56.628L44.4779 56.544C45.4069 56.5291 45.402 57.1222 46.9438 61.1546C47.265 61.9997 46.7066 62.2221 43.9886 64.5398C44.0183 65.202 43.9985 65.8642 43.9293 66.5214L46.4743 68.9478C47.1366 69.5804 46.7511 69.9362 44.9572 73.9539C44.5866 74.7791 44.0479 74.5419 40.4701 74.2602C40.0253 74.7495 39.541 75.2041 39.0271 75.6242L39.1062 79.1427C39.1259 80.052 38.607 80.0372 34.4955 81.6087C33.6554 81.9299 33.433 81.3715 31.1104 78.6535ZM34.4461 79.5134L37.1196 78.4904C37.0405 74.962 36.912 74.7594 37.4408 74.364C40.6628 71.9376 37.9399 72.076 43.4401 72.5109L44.6064 69.8967C42.0712 67.4752 41.8192 67.4159 41.9131 66.7537C42.4863 62.7657 40.6529 64.7918 44.8485 61.2041L43.8256 58.5306C40.2477 58.6146 40.0995 58.7431 39.6992 58.2143C37.2728 54.9972 37.4111 57.7053 37.846 52.21L35.2367 51.0438C32.8103 53.5838 32.751 53.8309 32.0938 53.737C28.0959 53.1737 30.122 54.9922 26.5441 50.8016L23.8706 51.8246C23.9547 55.2888 24.0881 55.5507 23.5544 55.951C20.3027 58.3922 23.075 58.2341 17.555 57.7992L16.3888 60.4134C18.9338 62.8447 19.176 62.8991 19.0821 63.5564C18.5236 67.5444 20.3274 65.538 16.1466 69.106L17.1696 71.7795C20.703 71.6955 20.8957 71.567 21.291 72.0958C23.7273 75.3178 23.5791 72.6146 23.1442 78.0951L25.7584 79.2663C29.5932 75.2535 27.4534 76.9881 31.4662 76.6471C32.1234 76.5928 32.1728 76.8547 34.4461 79.5134ZM27.7252 71.3545C22.2497 68.9034 22.4276 60.9767 28.0761 58.8221C31.5798 57.4829 35.4937 59.2372 36.8329 62.736C38.9974 68.4092 33.1908 73.8007 27.7252 71.3545ZM28.7778 60.6704C24.775 62.1974 24.6465 67.8162 28.5307 69.5507C29.7019 70.0746 31.0066 70.1092 32.2074 69.6545C36.2202 68.1226 36.3289 62.5038 32.4545 60.7741C31.2833 60.2503 29.9787 60.2108 28.7778 60.6704Z" fill="#18313A"/>
<path d="M55.2021 55.081C54.8809 55.0909 54.5596 55.081 54.2434 55.0514C52.8547 56.5092 52.5039 57.122 51.7033 56.7612C48.1304 55.165 48.5603 55.8767 48.8173 52.625C48.585 52.4075 48.3676 52.1753 48.16 51.9282C46.1636 51.9727 45.4717 52.1604 45.1554 51.3401C43.7371 47.6288 43.5988 48.4541 46.04 46.3736C46.0301 46.0524 46.04 45.7361 46.0697 45.4149C44.6711 44.0757 43.9991 43.6853 44.3598 42.8748C45.4371 40.4632 45.5458 39.7467 46.4452 39.8258L48.4961 39.9888C48.7185 39.7566 48.9507 39.5342 49.1929 39.3316C49.1187 36.0799 48.6394 36.7619 52.3062 35.3633C53.1364 35.0471 53.4922 35.7438 54.7474 37.2116C55.0686 37.2017 55.3849 37.2116 55.7061 37.2363C57.0948 35.7784 57.4456 35.1657 58.2462 35.5264C61.8735 37.1473 61.3842 36.4703 61.1322 39.6627C61.3645 39.8801 61.5819 40.1173 61.7895 40.3595C63.7464 40.315 64.4778 40.1173 64.7941 40.9475C66.2124 44.6588 66.3507 43.8335 63.9144 45.914C63.9243 46.2353 63.9144 46.5515 63.8848 46.8727C65.3426 48.2663 65.9504 48.6122 65.5946 49.4128C64.0133 52.9561 64.7496 52.5607 61.4584 52.3038C61.236 52.536 61.0037 52.7584 60.7616 52.961C60.8308 56.1435 61.3645 55.511 57.6483 56.9293C56.8081 57.2455 56.4523 56.5438 55.2021 55.081ZM57.589 54.829L58.8096 54.3645C58.77 52.5113 58.6366 52.0962 59.1604 51.7009C61.236 50.1393 59.5953 50.1689 62.9656 50.4358L63.4993 49.2399C62.1255 47.9303 61.7746 47.7425 61.8636 47.105C62.2293 44.5501 61.0877 45.7164 63.6575 43.5222L63.188 42.2967C61.3151 42.3411 60.9197 42.4696 60.5244 41.9458C58.9578 39.8702 58.9924 41.5109 59.2593 38.1406L58.0634 37.6069C56.7834 38.9461 56.5808 39.3365 55.9335 39.2426C53.3588 38.8819 54.5399 40.0135 52.3507 37.4488L51.13 37.9133C51.1745 39.8356 51.2931 40.1915 50.7792 40.5769C48.758 42.094 50.3838 42.1138 46.9789 41.842L46.4452 43.0379C47.7943 44.3277 48.1699 44.5254 48.081 45.1678C47.7202 47.7425 48.8469 46.5663 46.2871 48.7506L46.7566 49.9762C48.6987 49.9317 49.0298 49.818 49.4152 50.327C50.9768 52.3927 50.9472 50.7817 50.6853 54.1322L51.8812 54.6659C54.2236 52.2099 53.1018 53.2822 55.5579 53.0747C56.2003 53.0253 56.3782 53.4107 57.589 54.829ZM53.0672 50.4061C49.267 48.7061 49.4498 43.2554 53.3094 41.7778C55.721 40.8586 58.4142 42.0644 59.3383 44.471C60.2575 46.8826 59.0567 49.5808 56.6451 50.5C55.5085 50.9349 54.2384 50.9299 53.0672 50.4061ZM52.4544 47.105C52.9832 48.4936 54.5399 49.1904 55.9285 48.6617C58.177 47.8018 58.2363 44.6588 56.0669 43.6853C53.8974 42.7118 51.5995 44.8565 52.4544 47.105Z" fill="#18313A"/>
<path d="M20.2683 26.9969H12.8457V19.2185H20.2683C20.288 20.4885 20.6784 23.1769 20.2683 26.9969Z" fill="#FD7973"/>
<path d="M45.98 19.0901C46.0788 19.5348 45.9948 20.034 45.6291 20.543C44.8434 21.6351 44.705 22.5493 43.5684 23.3697C42.8716 23.8737 41.4928 23.7452 40.7713 22.7668C39.7484 23.8886 36.0964 24.4569 34.8708 23.1226C33.7194 23.9133 32.2715 24.2444 30.9471 23.597C29.5683 22.92 30.0427 21.472 28.491 21.5709C27.893 21.6055 27.2902 21.902 26.6675 21.9959C26.6971 23.9479 26.1437 24.7583 27.4532 27.0019H54.2624V19.095H45.98V19.0901Z" fill="#FD7973"/>
<path d="M4.94352 24.0319H0.990092C-0.314538 24.0319 -0.31948 22.0552 0.990092 22.0552H4.94352C6.25309 22.0552 6.25309 24.0319 4.94352 24.0319Z" fill="#18313A"/>
<path d="M12.4501 27.9011C2.93221 23.671 2.9668 23.9279 2.9668 23.0434C2.9668 22.1588 2.92727 22.4207 12.4501 18.1856C13.646 17.6568 14.4466 19.4606 13.2506 19.9943L6.38651 23.0434L13.2506 26.0924C14.4466 26.6262 13.646 28.4299 12.4501 27.9011Z" fill="#18313A"/>
<path d="M19.6891 27.9851H12.8497C12.3061 27.9851 11.8613 27.5404 11.8613 26.9968V19.0899C11.8613 18.5463 12.3061 18.1016 12.8497 18.1016H20.2426C21.5472 18.1016 21.5522 20.0783 20.2426 20.0783H13.838V26.0084H19.6891C20.2327 26.0084 20.6775 26.4532 20.6775 26.9968C20.6775 27.5404 20.2327 27.9851 19.6891 27.9851Z" fill="#18313A"/>
<path d="M54.3609 27.9851H29.6717C28.3671 27.9851 28.3622 26.0084 29.6717 26.0084H53.3725V20.0783H45.9598C44.6552 20.0783 44.6503 18.1016 45.9598 18.1016H54.3609C54.9045 18.1016 55.3492 18.5463 55.3492 19.0899V26.9968C55.3492 27.5453 54.9094 27.9851 54.3609 27.9851Z" fill="#18313A"/>
<path d="M25.6341 22.1786C25.6341 21.635 26.0789 21.1902 26.6225 21.1902C27.5812 21.1902 28.3669 20.4094 28.3669 19.4458V15.8037C28.3669 13.5008 24.883 13.5008 24.883 15.8037V17.7211C24.883 19.0257 22.9062 19.0307 22.9062 17.7211V15.8037C22.9062 13.7528 24.5766 12.0825 26.6274 12.0825C28.6782 12.0825 30.3486 13.7528 30.3486 15.8037V19.4458C30.3436 23.0236 25.6341 24.2146 25.6341 22.1786Z" fill="#18313A"/>
<path d="M32.0884 24.9904C30.0375 24.9904 28.3672 23.3201 28.3672 21.2693V15.6208C28.3672 13.57 30.0375 11.8997 32.0884 11.8997C34.1392 11.8997 35.8095 13.57 35.8095 15.6208V21.2693C35.8046 23.3201 34.1392 24.9904 32.0884 24.9904ZM30.3439 15.6208V21.2693C30.3439 23.5721 33.8279 23.5721 33.8279 21.2693V15.6208C33.8279 13.3179 30.3439 13.3179 30.3439 15.6208Z" fill="#18313A"/>
<path d="M37.5493 25.1782C35.4984 25.1782 33.8281 23.5079 33.8281 21.457V15.8086C33.8281 13.7577 35.4984 12.0874 37.5493 12.0874C39.6001 12.0874 41.2704 13.7577 41.2704 15.8086V21.457C41.2704 23.5079 39.6001 25.1782 37.5493 25.1782ZM35.8048 15.8086V21.457C35.8048 23.7599 39.2888 23.7599 39.2888 21.457V15.8086C39.2937 13.5057 35.8048 13.5057 35.8048 15.8086Z" fill="#18313A"/>
<path d="M43.0102 24.4025C40.9594 24.4025 39.2891 22.7321 39.2891 20.6813V18.0276C39.2891 15.9767 40.9594 14.3064 43.0102 14.3064C45.0611 14.3064 46.7314 15.9767 46.7314 18.0276V20.6813C46.7314 22.7321 45.066 24.4025 43.0102 24.4025ZM41.2707 18.0276V20.6813C41.2707 22.9842 44.7547 22.9842 44.7547 20.6813V18.0276C44.7547 15.7247 41.2707 15.7247 41.2707 18.0276Z" fill="#18313A"/>
<path d="M27.1805 43.7149C26.1477 43.7149 20.5635 38.536 19.2885 30.9454C18.735 27.6393 19.5603 27.1353 19.4516 22.7717C19.3725 19.5299 18.8141 18.1066 20.0792 17.1726C22.0905 15.6852 28.5 18.2154 27.5116 25.46C31.2476 26.226 34.3955 28.6079 36.1449 31.9634C36.3969 32.4477 36.2092 33.0456 35.7249 33.2977C34.1583 34.118 34.529 31.3605 30.8127 28.9242C29.0881 27.7925 27.3683 27.3922 26.2317 27.2588C25.6387 27.1896 25.2433 26.6114 25.3867 26.0382C26.8988 20.029 21.8088 18.3438 21.2405 18.7688C21.1763 18.9171 21.4085 22.5592 21.4135 22.7272C21.5271 27.2687 20.7315 27.669 21.2257 30.6242C21.9076 34.6814 24.1067 38.9857 27.7884 41.9606C28.2134 42.3016 28.2776 42.9243 27.9366 43.3493C27.7538 43.5865 27.4721 43.7149 27.1805 43.7149Z" fill="#18313A"/>
<path d="M21.7461 47.9699V42.7266C21.7461 42.183 22.1909 41.7383 22.7344 41.7383H41.2661C42.5708 41.7383 42.5757 43.715 41.2661 43.715H23.7228V47.9699C23.7228 49.2745 21.7461 49.2745 21.7461 47.9699Z" fill="#18313A"/>
<path d="M58.3148 27.9851H54.3614C53.8178 27.9851 53.373 27.5404 53.373 26.9968V19.0899C53.373 18.5463 53.8178 18.1016 54.3614 18.1016H58.3148C59.9506 18.1016 61.2799 19.4309 61.2799 21.0666V25.0201C61.2799 26.6558 59.9506 27.9851 58.3148 27.9851ZM55.3498 26.0084C60.0494 26.0084 59.3032 26.6805 59.3032 21.0666C59.3032 20.523 58.8584 20.0783 58.3148 20.0783H55.3498V26.0084Z" fill="#18313A"/>
<path d="M32.6172 3.89407V1.67027C32.6172 0.365638 34.5939 0.360696 34.5939 1.67027V3.89407C34.5939 5.20364 32.6172 5.20364 32.6172 3.89407Z" fill="#18313A"/>
<path d="M22.496 7.13578L21.3841 5.20849C20.7318 4.07682 22.4416 3.08847 23.0939 4.22013L24.2058 6.14743C24.4776 6.62184 24.3146 7.22474 23.8451 7.49653C23.3756 7.77327 22.7727 7.6102 22.496 7.13578Z" fill="#18313A"/>
<path d="M15.3513 15.008L13.424 13.8961C12.2923 13.2438 13.2807 11.529 14.4123 12.1863L16.3396 13.2982C16.8141 13.57 16.9722 14.1778 16.7004 14.6473C16.4286 15.1168 15.8257 15.2798 15.3513 15.008Z" fill="#18313A"/>
<path d="M50.8722 13.2934L52.7995 12.1815C53.9312 11.5291 54.9195 13.239 53.7879 13.8913L51.8606 15.0032C50.7338 15.6605 49.7405 13.9457 50.8722 13.2934Z" fill="#18313A"/>
<path d="M43.0052 6.14743L44.1171 4.22013C44.7694 3.08847 46.4842 4.07682 45.8269 5.20849L44.715 7.13578C44.0627 8.27239 42.3529 7.2791 43.0052 6.14743Z" fill="#18313A"/>
<path d="M46.207 34.3305V26.9178C46.207 25.6132 48.1837 25.6083 48.1837 26.9178V34.3305C48.1837 35.6351 46.207 35.6351 46.207 34.3305Z" fill="#18313A"/>
<path d="M57.4102 65.0486V59.1185C57.4102 57.8139 59.3869 57.8089 59.3869 59.1185V65.0486C59.3869 66.3533 57.4102 66.3582 57.4102 65.0486Z" fill="#18313A"/>
<path d="M52.2219 72.4613H47.5272C46.2226 72.4613 46.2176 70.4846 47.5272 70.4846H52.2219C52.7655 70.4846 53.2103 70.9294 53.2103 71.473C53.2103 72.0215 52.7655 72.4613 52.2219 72.4613Z" fill="#18313A"/>
<path d="M58.1507 75.4265C55.6996 75.4265 53.7031 73.43 53.7031 70.9789C53.7031 68.5277 55.6996 66.5312 58.1507 66.5312C60.6019 66.5312 62.5983 68.5277 62.5983 70.9789C62.5983 73.4349 60.6019 75.4265 58.1507 75.4265ZM58.1507 68.508C56.7868 68.508 55.6798 69.6149 55.6798 70.9789C55.6798 72.3428 56.7868 73.4497 58.1507 73.4497C59.5147 73.4497 60.6216 72.3428 60.6216 70.9789C60.6216 69.6199 59.5147 68.508 58.1507 68.508Z" fill="#18313A"/>
<path d="M9.23845 72.0857C6.71814 62.9237 9.72275 52.6794 17.9903 46.4725C19.0331 45.6867 20.224 47.2681 19.1764 48.0539C11.6402 53.7171 8.81346 63.0966 11.146 71.5619C11.2893 72.0857 10.9829 72.6343 10.4541 72.7776C9.92042 72.9209 9.38176 72.6096 9.23845 72.0857Z" fill="#18313A"/>
<path d="M3.36831 67.8655C2.43432 59.1037 5.81944 50.683 11.9967 45.0296C12.9603 44.1499 14.2946 45.6077 13.3309 46.4874C7.59848 51.7405 4.47033 59.5485 5.33514 67.658C5.39444 68.2016 4.9991 68.6859 4.4555 68.7452C3.91685 68.8045 3.42761 68.4141 3.36831 67.8655Z" fill="#18313A"/>
</svg>
