<svg width="73" height="62" viewBox="0 0 73 62" fill="none" xmlns="http://www.w3.org/2000/svg">
<g clip-path="url(#clip0)">
<path d="M67.0191 42.6941C66.7362 42.6941 66.4534 42.5758 66.2464 42.3463C65.867 41.9151 65.9015 41.2545 66.3292 40.872C69.2749 38.2084 70.9581 34.2929 70.9305 30.1341C70.9029 25.6484 68.8679 21.427 65.4807 18.8468C65.0254 18.4991 64.9357 17.8454 65.2806 17.3864C65.6256 16.9274 66.274 16.837 66.7293 17.1847C70.627 20.1543 72.9794 24.9877 73.007 30.1202C73.0346 34.8771 71.103 39.3628 67.7158 42.4228C67.5089 42.6106 67.2605 42.6941 67.0191 42.6941Z" fill="#18313A"/>
<path d="M65.8393 37.3043C65.66 37.3043 65.4737 37.2556 65.3081 37.1582C64.8183 36.8592 64.6597 36.2194 64.9494 35.7256C65.9221 34.0913 66.4257 32.1649 66.4188 30.1619C66.405 27.8461 65.6807 25.6067 64.3768 23.8611C64.0319 23.4021 64.1216 22.7484 64.5838 22.4006C65.0391 22.0529 65.6876 22.1433 66.0325 22.6093C67.5984 24.7096 68.4746 27.3871 68.4883 30.148C68.5021 32.5335 67.8951 34.8285 66.7292 36.7966C66.5361 37.1235 66.1912 37.3043 65.8393 37.3043Z" fill="#18313A"/>
<path d="M1.37964 23.6456H16.5564L55.188 13.9092V54.9411L17.2462 41.032L16.5564 39.6411H5.7326C3.32502 39.6411 1.37964 37.6799 1.37964 35.2528V23.6456Z" fill="#FD7973"/>
<path d="M54.8432 55.6365C54.7259 55.6365 54.6086 55.6157 54.4982 55.5739L17.3912 42.2212C16.0667 41.7413 15.1768 40.4686 15.1768 39.0499V20.0639C15.1768 18.6452 16.0667 17.3725 17.3912 16.8926L54.4982 3.53984C55.0363 3.35207 55.6296 3.63025 55.8228 4.17271C56.0159 4.71517 55.7331 5.31326 55.195 5.50799L18.0879 18.8608C17.5843 19.0416 17.2463 19.5284 17.2463 20.0639V39.0429C17.2463 39.5854 17.5843 40.0653 18.0879 40.2461L55.1881 53.6128C55.7262 53.8075 56.009 54.4056 55.8159 54.948C55.6641 55.3723 55.2709 55.6365 54.8432 55.6365Z" fill="#18313A"/>
<path d="M16.2115 40.3365H5.30495C2.37999 40.3365 0 37.9372 0 34.9885V24.1254C0 21.1767 2.37999 18.7773 5.30495 18.7773H16.2115C16.7841 18.7773 17.2463 19.2433 17.2463 19.8205C17.2463 20.3978 16.7841 20.8637 16.2115 20.8637H5.30495C3.52514 20.8637 2.06955 22.3311 2.06955 24.1254V34.9815C2.06955 36.7827 3.52514 38.2501 5.30495 38.2501H16.2115C16.7841 38.2501 17.2463 38.7161 17.2463 39.2933C17.2463 39.8706 16.7841 40.3365 16.2115 40.3365Z" fill="#18313A"/>
<path d="M57.6025 59.1138C55.5123 59.1138 53.8083 57.3961 53.8083 55.2888V3.82501C53.8083 1.71778 55.5123 0 57.6025 0C59.6928 0 61.3967 1.71778 61.3967 3.82501V55.2888C61.3967 57.3961 59.6928 59.1138 57.6025 59.1138ZM57.6025 2.08637C56.6505 2.08637 55.8779 2.86528 55.8779 3.82501V55.2888C55.8779 56.2486 56.6505 57.0275 57.6025 57.0275C58.5545 57.0275 59.3272 56.2486 59.3272 55.2888V3.82501C59.3272 2.86528 58.5545 2.08637 57.6025 2.08637Z" fill="#18313A"/>
<path d="M18.5985 62C17.0118 62 15.5562 61.6661 14.7905 60.8942C12.7486 58.8356 8.27832 42.2907 8.27832 39.9887C8.27832 39.4115 8.74052 38.9456 9.3131 38.9456C9.88567 38.9456 10.3479 39.4115 10.3479 39.9887C10.3479 42.3603 14.8733 58.0289 16.253 59.4198C17.1153 60.2891 21.8201 59.9831 23.0687 58.7244C23.7034 58.0845 23.5447 57.1596 20.9233 53.8562C18.2053 50.4345 17.1222 46.067 17.9569 41.8734C18.0673 41.3101 18.6192 40.9415 19.1711 41.0528C19.7298 41.1641 20.0955 41.7135 19.9851 42.2768C19.2745 45.8654 20.2058 49.6069 22.5375 52.5487C24.4346 54.9411 26.7939 57.9107 24.5312 60.1987C23.4412 61.2975 20.8888 62 18.5985 62Z" fill="#18313A"/>
<path d="M5.17384 20.1683C4.84272 20.1683 4.51159 20.0083 4.31153 19.7023C2.73177 17.3099 0.710511 11.642 4.38741 7.31623C4.75993 6.87809 5.41529 6.82941 5.8499 7.20495C6.2845 7.5805 6.33279 8.24118 5.96027 8.67932C2.39375 12.8799 5.88439 18.3184 6.03616 18.5479C6.35349 19.0277 6.22242 19.6745 5.74642 19.9944C5.56706 20.1126 5.3739 20.1683 5.17384 20.1683Z" fill="#18313A"/>
<path d="M7.93334 9.0409C5.84309 9.0409 4.13916 7.32312 4.13916 5.21588C4.13916 3.10865 5.84309 1.39087 7.93334 1.39087C10.0236 1.39087 11.7275 3.10865 11.7275 5.21588C11.7275 7.32312 10.0236 9.0409 7.93334 9.0409ZM7.93334 3.47724C6.98134 3.47724 6.20871 4.25615 6.20871 5.21588C6.20871 6.17561 6.98134 6.95453 7.93334 6.95453C8.88533 6.95453 9.65797 6.17561 9.65797 5.21588C9.65797 4.25615 8.88533 3.47724 7.93334 3.47724Z" fill="#18313A"/>
<path d="M21.3508 48.8419C21.2956 48.8419 21.2473 48.8419 21.1921 48.835L19.5641 48.682C18.9984 48.6263 18.5776 48.1187 18.6328 47.5414C18.688 46.9642 19.1916 46.54 19.7642 46.6026L21.3646 46.7556C21.4612 46.7486 21.5509 46.693 21.5854 46.6512C21.6267 46.6095 21.6819 46.5191 21.6681 46.3939L21.3991 44.3006C21.3232 43.7303 21.7233 43.2087 22.289 43.1322C22.8478 43.0557 23.3721 43.4591 23.448 44.0294L23.717 46.1227C23.8067 46.839 23.579 47.5553 23.0892 48.0769C22.6339 48.5638 22.0062 48.8419 21.3508 48.8419Z" fill="#18313A"/>
<path d="M11.3824 26.4273H5.86363C5.29106 26.4273 4.82886 25.9614 4.82886 25.3841C4.82886 24.8069 5.29106 24.3409 5.86363 24.3409H11.3824C11.955 24.3409 12.4172 24.8069 12.4172 25.3841C12.4172 25.9614 11.955 26.4273 11.3824 26.4273Z" fill="#18313A"/>
<path d="M11.3824 30.6002H5.86363C5.29106 30.6002 4.82886 30.1342 4.82886 29.557C4.82886 28.9798 5.29106 28.5138 5.86363 28.5138H11.3824C11.955 28.5138 12.4172 28.9798 12.4172 29.557C12.4172 30.1342 11.955 30.6002 11.3824 30.6002Z" fill="#18313A"/>
<path d="M11.3824 34.7729H5.86363C5.29106 34.7729 4.82886 34.3069 4.82886 33.7297C4.82886 33.1525 5.29106 32.6865 5.86363 32.6865H11.3824C11.955 32.6865 12.4172 33.1525 12.4172 33.7297C12.4172 34.3069 11.955 34.7729 11.3824 34.7729Z" fill="#18313A"/>
</g>
<defs>
<clipPath id="clip0">
<rect width="73" height="62" fill="white"/>
</clipPath>
</defs>
</svg>
