<svg width="66" height="60" viewBox="0 0 66 60" fill="none" xmlns="http://www.w3.org/2000/svg">
<g opacity="0.7">
<path d="M1.55529 52.7531C1.0269 52.7531 0.600586 53.1794 0.600586 53.7078C0.600586 54.2361 1.0269 54.6625 1.55529 54.6625C2.08368 54.6625 2.50999 54.2361 2.50999 53.7078C2.50399 53.1794 2.07768 52.7531 1.55529 52.7531Z" fill="#18313A"/>
<path d="M61.1672 59.9582H41.5087C39.149 59.9582 37.2275 58.0368 37.2275 55.6771V21.0075C37.2275 18.6477 39.149 16.7263 41.5087 16.7263H61.1672C63.527 16.7263 65.4484 18.6477 65.4484 21.0075V55.6771C65.4484 58.0368 63.527 59.9582 61.1672 59.9582ZM41.5027 18.5276C40.1337 18.5276 39.0229 19.6384 39.0229 21.0075V55.6771C39.0229 57.0461 40.1337 58.1569 41.5027 58.1569H61.1612C62.5302 58.1569 63.6411 57.0461 63.6411 55.6771V21.0075C63.6411 19.6384 62.5302 18.5276 61.1612 18.5276H41.5027Z" fill="#18313A"/>
<path d="M15.3115 53.3835C14.7952 53.3835 14.3809 52.9632 14.3809 52.4528V50.051C14.3809 49.5346 14.8012 49.1203 15.3115 49.1203H30.9231C31.4395 49.1203 31.8538 49.5406 31.8538 50.051C31.8538 50.5614 31.4335 50.9817 30.9231 50.9817H16.2422V52.4528C16.2422 52.9692 15.8219 53.3835 15.3115 53.3835Z" fill="#18313A"/>
<path d="M28.215 47.6553C27.6926 47.6553 27.1762 47.5232 26.7138 47.253C25.7892 46.7126 25.2188 45.7219 25.2188 44.6591V40.444C25.2188 39.9456 25.621 39.5433 26.1194 39.5433C26.6178 39.5433 27.0201 39.9456 27.0201 40.444V44.6591C27.0201 45.0854 27.2483 45.4817 27.6205 45.6979C27.8487 45.83 28.323 46.0041 28.9355 45.6559C29.2297 45.4877 29.4158 45.1275 29.4158 44.7372V40.444C29.4158 39.9456 29.8181 39.5433 30.3165 39.5433C30.8149 39.5433 31.2172 39.9456 31.2172 40.444V44.7312C31.2172 45.7759 30.6828 46.7306 29.8182 47.217C29.3138 47.5112 28.7554 47.6553 28.215 47.6553Z" fill="#18313A"/>
<path d="M19.3467 50.5194C19.1726 50.5194 18.9985 50.4714 18.8484 50.3693C18.434 50.0931 18.32 49.5347 18.5962 49.1204C19.3888 47.9315 19.8091 46.5445 19.8091 45.1094V40.444C19.8091 39.9456 20.2114 39.5433 20.7097 39.5433C21.2081 39.5433 21.6104 39.9456 21.6104 40.444V45.1034C21.6104 46.8928 21.088 48.6281 20.0913 50.1172C19.9232 50.3753 19.6349 50.5194 19.3467 50.5194Z" fill="#18313A"/>
<path d="M34.5255 41.3446H3.69874C1.65723 41.3446 0 39.6874 0 37.6458V4.21314C0 2.17163 1.65723 0.514404 3.69874 0.514404H52.1425C54.1841 0.514404 55.8413 2.17163 55.8413 4.21314V14.6248C55.8413 15.1232 55.439 15.5255 54.9406 15.5255C54.4422 15.5255 54.0399 15.1232 54.0399 14.6248V4.21314C54.0399 3.16837 53.1873 2.31574 52.1425 2.31574H3.69874C2.65396 2.31574 1.80133 3.16837 1.80133 4.21314V37.6458C1.80133 38.6906 2.65396 39.5433 3.69874 39.5433H34.5255C35.0239 39.5433 35.4262 39.9455 35.4262 40.4439C35.4262 40.9423 35.0179 41.3446 34.5255 41.3446Z" fill="#18313A"/>
<path d="M36.9273 54.5544H5.10379C4.60542 54.5544 4.20312 54.1521 4.20312 53.6537C4.20312 53.1553 4.60542 52.7531 5.10379 52.7531H36.9273C37.4257 52.7531 37.828 53.1553 37.828 53.6537C37.828 54.1521 37.4197 54.5544 36.9273 54.5544Z" fill="#18313A"/>
<path d="M23.8631 15.9797C23.6109 15.9797 23.3707 15.8716 23.1966 15.6855L16.7358 8.63028L11.0376 12.9835C10.6413 13.2837 10.0769 13.2117 9.77666 12.8154C9.47644 12.4191 9.54849 11.8547 9.94479 11.5544L16.2975 6.70286C16.6698 6.42065 17.1921 6.46868 17.5104 6.81094L23.8391 13.716L27.3276 9.55496C27.6459 9.17669 28.2163 9.12265 28.5946 9.44088C28.9729 9.75912 29.0269 10.3295 28.7087 10.7078L24.5596 15.6555C24.3915 15.8536 24.1513 15.9737 23.8871 15.9797C23.8751 15.9797 23.8691 15.9797 23.8631 15.9797Z" fill="#18313A"/>
<path d="M35.2362 15.5235C34.8219 15.5235 34.4496 15.2353 34.3596 14.821L34.1194 13.7522L33.2187 14.4127C32.8164 14.7069 32.252 14.6228 31.9578 14.2205C31.6636 13.8182 31.7536 13.2538 32.1499 12.9596L34.1614 11.4825C34.4076 11.3024 34.7258 11.2603 35.014 11.3684C35.2962 11.4765 35.5124 11.7167 35.5785 12.0169L36.1129 14.4307C36.2209 14.917 35.9147 15.3974 35.4283 15.5055C35.3683 15.5175 35.3023 15.5235 35.2362 15.5235Z" fill="#18313A"/>
<path d="M6.75676 27.4903C6.4085 27.4903 6.07225 27.2862 5.92815 26.9439C5.73 26.4876 5.94616 25.9592 6.4025 25.761L11.8785 23.4073L15.175 15.4814C15.3071 15.1572 15.6193 14.941 15.9736 14.929C16.3218 14.917 16.6521 15.1092 16.8082 15.4214L20.7051 23.053L23.6112 19.4263C23.8574 19.1201 24.2717 19.006 24.638 19.1501L29.4595 21.0235L33.9689 12.8335C34.2091 12.3952 34.7615 12.239 35.1938 12.4792C35.6321 12.7194 35.7882 13.2658 35.548 13.7041L30.6604 22.5847C30.4443 22.981 29.9639 23.1491 29.5436 22.987L24.602 21.0656L21.2395 25.2687C21.0473 25.5088 20.7531 25.6289 20.4469 25.6049C20.1407 25.5749 19.8765 25.3888 19.7384 25.1186L16.0877 17.9733L13.4037 24.4401C13.3136 24.6562 13.1455 24.8303 12.9293 24.9204L7.11703 27.4183C6.99093 27.4663 6.87084 27.4903 6.75676 27.4903Z" fill="#18313A"/>
<path d="M30.006 25.7789H26.4033V32.9842H30.006V25.7789Z" fill="#18313A"/>
<path d="M23.4015 27.5803H19.7988V32.9843H23.4015V27.5803Z" fill="#18313A"/>
<path d="M16.796 29.9821H13.1934V32.9843H16.796V29.9821Z" fill="#18313A"/>
<path d="M53.6222 32.9711C53.4452 32.9711 53.2767 32.8952 53.1546 32.7646L48.6216 27.8147L44.6238 30.8689C44.3457 31.0795 43.9497 31.029 43.7391 30.7509C43.5284 30.4729 43.579 30.0769 43.857 29.8663L48.3141 26.4624C48.5753 26.2644 48.9418 26.2981 49.1651 26.5382L53.6053 31.3829L56.0529 28.4634C56.2762 28.198 56.6764 28.1601 56.9418 28.3834C57.2072 28.6067 57.2451 29.0069 57.0218 29.2723L54.1108 32.7436C53.9929 32.8826 53.8244 32.9668 53.639 32.9711C53.6306 32.9711 53.6264 32.9711 53.6222 32.9711Z" fill="#18313A"/>
<path d="M61.6016 32.6509C61.311 32.6509 61.0498 32.4487 60.9866 32.158L60.8181 31.4081L60.1862 31.8715C59.9039 32.078 59.5079 32.019 59.3015 31.7367C59.0951 31.4545 59.1583 31.0585 59.4363 30.8521L60.8476 29.8157C61.0203 29.6893 61.2436 29.6599 61.4458 29.7357C61.6438 29.8115 61.7954 29.98 61.8418 30.1907L62.2167 31.8842C62.2925 32.2254 62.0777 32.5624 61.7365 32.6383C61.6943 32.6467 61.648 32.6509 61.6016 32.6509Z" fill="#18313A"/>
<path d="M41.6203 41.0468C41.376 41.0468 41.1401 40.9035 41.039 40.6634C40.9 40.3432 41.0516 39.9725 41.3718 39.8335L45.2138 38.1821L47.5266 32.6213C47.6193 32.3938 47.8383 32.2422 48.0869 32.2337C48.3312 32.2253 48.5629 32.3601 48.6725 32.5792L51.4065 37.9336L53.4455 35.3891C53.6182 35.1742 53.9089 35.0942 54.1659 35.1953L57.5487 36.5097L60.7125 30.7635C60.881 30.4559 61.2686 30.3464 61.5719 30.5149C61.8794 30.6834 61.9889 31.0668 61.8204 31.3743L58.3913 37.605C58.2396 37.883 57.9026 38.001 57.6077 37.8872L54.1406 36.5391L51.7815 39.4881C51.6467 39.6566 51.4402 39.7408 51.2254 39.724C51.0105 39.7029 50.8252 39.5723 50.7283 39.3827L48.1669 34.3696L46.2838 38.9067C46.2207 39.0584 46.1027 39.1805 45.951 39.2437L41.8731 40.9962C41.7846 41.0299 41.7004 41.0468 41.6203 41.0468Z" fill="#18313A"/>
<path d="M58.0932 40.1436H55.6914V50.3511H58.0932V40.1436Z" fill="#18313A"/>
<path d="M53.2904 42.5453H50.8887V50.3511H53.2904V42.5453Z" fill="#18313A"/>
<path d="M48.4867 46.1479H46.085V50.351H48.4867V46.1479Z" fill="#18313A"/>
</g>
</svg>
