<svg width="149" height="40" viewBox="0 0 149 40" fill="none" xmlns="http://www.w3.org/2000/svg">
<path d="M10.0883 24.0551H9.20087C9.01404 24.0551 8.8272 24.0084 8.73379 23.9617C8.59366 23.9149 8.54695 23.7748 8.50024 23.588L8.2667 22.5137C7.93974 22.7939 7.65949 23.0275 7.37923 23.261C7.09898 23.4946 6.77202 23.6814 6.44506 23.8215C6.1181 23.9617 5.79114 24.1018 5.41747 24.1485C5.0438 24.2419 4.67013 24.2419 4.20304 24.2419C3.73595 24.2419 3.31557 24.1952 2.9419 24.0551C2.56823 23.9149 2.19456 23.7281 1.91431 23.4946C1.54064 23.2143 1.3071 22.8874 1.16697 22.5137C0.980136 22.14 0.886719 21.6729 0.886719 21.1124C0.886719 20.6453 1.02685 20.225 1.26039 19.7579C1.49393 19.3375 1.91431 18.9638 2.47482 18.6369C3.03532 18.3099 3.78266 18.0296 4.71684 17.8428C5.65101 17.6093 6.77202 17.5159 8.07986 17.5159V16.5817C8.07986 15.6475 7.89303 14.9936 7.51936 14.5265C7.14569 14.0594 6.53848 13.8259 5.79114 13.8259C5.27734 13.8259 4.85696 13.8726 4.53 14.0127C4.20304 14.1528 3.87608 14.293 3.64253 14.4331C3.40899 14.5732 3.17545 14.7133 2.98861 14.8535C2.80178 14.9936 2.61494 15.0403 2.47482 15.0403C2.33469 15.0403 2.19456 14.9936 2.10115 14.9469C2.00773 14.8535 1.91431 14.8067 1.8676 14.6666L1.49393 14.0127C2.14785 13.4055 2.84849 12.9384 3.59583 12.6114C4.34317 12.2845 5.18392 12.1443 6.07139 12.1443C6.72531 12.1443 7.28582 12.2378 7.79961 12.4713C8.31341 12.7049 8.73379 12.9851 9.06075 13.3588C9.38771 13.7324 9.66796 14.1995 9.8548 14.76C10.0416 15.3205 10.135 15.9278 10.135 16.535V24.0551H10.0883ZM4.76354 22.7939C5.13721 22.7939 5.46417 22.7472 5.74443 22.7005C6.02468 22.6538 6.30493 22.5137 6.58518 22.3736C6.86544 22.2334 7.09898 22.0933 7.33252 21.9065C7.56607 21.7196 7.79961 21.4861 8.03315 21.2526V18.8237C7.09898 18.8237 6.30493 18.8704 5.6043 19.0105C4.95038 19.1507 4.38987 19.2908 3.9695 19.4776C3.54912 19.6645 3.26886 19.898 3.08203 20.1783C2.89519 20.4585 2.80178 20.7388 2.80178 21.0657C2.80178 21.3927 2.84849 21.6262 2.9419 21.8598C3.03532 22.0933 3.17545 22.2801 3.36228 22.4203C3.54912 22.5604 3.73595 22.6538 3.9695 22.7472C4.24975 22.7472 4.48329 22.7939 4.76354 22.7939Z" fill="black"/>
<path d="M21.1577 14.4798C21.111 14.5733 21.0176 14.62 20.9709 14.6667C20.9242 14.7134 20.8307 14.7134 20.6906 14.7134C20.5505 14.7134 20.4571 14.6667 20.3169 14.5733C20.1768 14.4798 19.99 14.3864 19.8031 14.2463C19.6163 14.1062 19.3361 14.0127 19.0558 13.9193C18.7756 13.8259 18.4019 13.7792 17.9815 13.7792C17.421 13.7792 16.9072 13.8726 16.4868 14.1062C16.0664 14.293 15.6928 14.62 15.3658 14.9936C15.0389 15.3673 14.852 15.8344 14.7119 16.3949C14.5718 16.9554 14.4783 17.5626 14.4783 18.2165C14.4783 18.9172 14.5718 19.5711 14.7119 20.0849C14.852 20.6454 15.0856 21.1125 15.4125 21.4861C15.6928 21.8598 16.0664 22.1401 16.4868 22.3269C16.9072 22.5137 17.3743 22.6072 17.8881 22.6072C18.4019 22.6072 18.7756 22.5604 19.1025 22.4203C19.4295 22.2802 19.7097 22.1868 19.8966 21.9999C20.0834 21.8131 20.2702 21.7197 20.4104 21.5796C20.5505 21.4394 20.6906 21.3927 20.8307 21.3927C21.0176 21.3927 21.1577 21.4394 21.2044 21.5796L21.7649 22.3269C21.2511 22.9341 20.6439 23.4012 19.8499 23.6815C19.1025 23.9617 18.3085 24.1018 17.421 24.1018C16.6737 24.1018 16.0197 23.9617 15.3658 23.6815C14.7119 23.4012 14.1981 23.0275 13.731 22.5137C13.2639 21.9999 12.8903 21.3927 12.6567 20.6454C12.4232 19.898 12.2363 19.0573 12.2363 18.0764C12.2363 17.1889 12.3765 16.3949 12.61 15.6476C12.8435 14.9002 13.2172 14.293 13.6843 13.7325C14.1514 13.2187 14.7119 12.7983 15.4125 12.4714C16.1132 12.1911 16.8605 12.0043 17.748 12.0043C18.542 12.0043 19.2893 12.1444 19.8966 12.4247C20.5038 12.7049 21.0643 13.0786 21.5781 13.5457L21.1577 14.4798Z" fill="black"/>
<path d="M31.9477 14.4798C31.901 14.5733 31.8076 14.62 31.7609 14.6667C31.7142 14.7134 31.6208 14.7134 31.4806 14.7134C31.3405 14.7134 31.2471 14.6667 31.107 14.5733C30.9669 14.4798 30.78 14.3864 30.5932 14.2463C30.4063 14.1062 30.1261 14.0127 29.8458 13.9193C29.5656 13.8259 29.1919 13.7792 28.7715 13.7792C28.211 13.7792 27.6972 13.8726 27.2769 14.1062C26.8565 14.293 26.4828 14.62 26.1559 14.9936C25.8289 15.3673 25.6421 15.8344 25.5019 16.3949C25.3618 16.9554 25.2684 17.5626 25.2684 18.2165C25.2684 18.9172 25.3618 19.5711 25.5019 20.0849C25.6421 20.6454 25.8756 21.1125 26.2026 21.4861C26.4828 21.8598 26.8565 22.1401 27.2769 22.3269C27.6972 22.5137 28.1643 22.6072 28.6781 22.6072C29.1919 22.6072 29.5656 22.5604 29.8926 22.4203C30.2195 22.2802 30.4998 22.1868 30.6866 21.9999C30.8734 21.8131 31.0603 21.7197 31.2004 21.5796C31.3405 21.4394 31.4806 21.3927 31.6208 21.3927C31.8076 21.3927 31.9477 21.4394 31.9944 21.5796L32.555 22.3269C32.0412 22.9341 31.4339 23.4012 30.6399 23.6815C29.8926 23.9617 29.0985 24.1018 28.211 24.1018C27.4637 24.1018 26.8098 23.9617 26.1559 23.6815C25.5019 23.4012 24.9881 23.0275 24.521 22.5137C24.054 21.9999 23.6803 21.3927 23.4467 20.6454C23.2132 19.898 23.0264 19.0573 23.0264 18.0764C23.0264 17.1889 23.1665 16.3949 23.4 15.6476C23.6336 14.9002 24.0073 14.293 24.4743 13.7325C24.9414 13.2187 25.5019 12.7983 26.2026 12.4714C26.9032 12.1911 27.6505 12.0043 28.538 12.0043C29.332 12.0043 30.0794 12.1444 30.6866 12.4247C31.2938 12.7049 31.8543 13.0786 32.3681 13.5457L31.9477 14.4798Z" fill="black"/>
<path d="M39.4675 12.1911C40.3083 12.1911 41.1023 12.3312 41.7562 12.6115C42.4569 12.8917 43.0174 13.3121 43.5312 13.8259C43.9983 14.3397 44.3719 14.9936 44.6522 15.741C44.9324 16.4883 45.0259 17.3291 45.0259 18.2165C45.0259 19.1507 44.8857 19.9915 44.6522 20.6921C44.3719 21.4394 44.045 22.0466 43.5312 22.5604C43.0641 23.0742 42.4569 23.4946 41.7562 23.7749C41.0556 24.0551 40.3083 24.1952 39.4675 24.1952C38.6268 24.1952 37.8327 24.0551 37.1788 23.7749C36.5249 23.4946 35.8709 23.1209 35.4039 22.6071C34.9368 22.0934 34.5631 21.4394 34.2828 20.7388C34.0026 19.9915 33.9092 19.1507 33.9092 18.2632C33.9092 17.3291 34.0493 16.535 34.2828 15.7877C34.5631 15.0403 34.9368 14.4331 35.4039 13.8726C35.8709 13.3588 36.4782 12.9384 37.1788 12.6582C37.8327 12.3312 38.5801 12.1911 39.4675 12.1911ZM39.4675 22.6071C40.6352 22.6071 41.476 22.2335 42.0365 21.4394C42.597 20.6454 42.8773 19.5711 42.8773 18.2165C42.8773 16.8153 42.597 15.741 42.0365 14.9469C41.476 14.1529 40.5885 13.7792 39.4675 13.7792C38.8603 13.7792 38.3932 13.8726 37.9261 14.0595C37.5058 14.2463 37.1321 14.5265 36.8518 14.9469C36.5716 15.3206 36.338 15.7877 36.1979 16.3482C36.0578 16.9087 35.9644 17.5159 35.9644 18.2165C35.9644 18.9172 36.0578 19.5244 36.1979 20.0849C36.338 20.6454 36.5716 21.1125 36.8518 21.4394C37.1321 21.8131 37.5058 22.0934 37.9261 22.2802C38.3465 22.5137 38.8603 22.6071 39.4675 22.6071Z" fill="black"/>
<path d="M49.3237 12.3778V19.8045C49.3237 20.692 49.5106 21.3926 49.931 21.8597C50.3513 22.3268 50.9585 22.607 51.7526 22.607C52.3598 22.607 52.9203 22.4669 53.4341 22.1866C53.9479 21.9064 54.4617 21.486 54.8821 21.0189V12.3778H56.9373V24.055H55.7228C55.4426 24.055 55.2557 23.9149 55.1623 23.6346L55.0222 22.3735C54.5084 22.934 53.9479 23.4011 53.294 23.728C52.6868 24.055 51.9394 24.2418 51.1454 24.2418C50.4915 24.2418 49.931 24.1484 49.4639 23.9149C48.9968 23.6813 48.5764 23.4011 48.2494 23.0274C47.9225 22.6537 47.6889 22.1866 47.5021 21.6261C47.3153 21.0656 47.2686 20.4584 47.2686 19.8045V12.3778H49.3237Z" fill="black"/>
<path d="M60.3467 24.0551V12.3779H61.5611C61.8414 12.3779 62.0282 12.5181 62.1216 12.7983L62.2617 14.0595C62.7755 13.4989 63.336 13.0319 63.9433 12.7049C64.5505 12.3779 65.2978 12.1911 66.1386 12.1911C66.7925 12.1911 67.353 12.2845 67.8201 12.5181C68.2872 12.7516 68.7075 13.0319 69.0345 13.4055C69.3615 13.7792 69.595 14.2463 69.7819 14.8068C69.9687 15.3673 70.0154 15.9745 70.0154 16.6284V24.0551H67.9602V16.6284C67.9602 15.741 67.7734 15.0403 67.353 14.5732C66.9326 14.1062 66.3254 13.8259 65.4846 13.8259C64.8774 13.8259 64.3169 13.966 63.8031 14.2463C63.2893 14.5265 62.7755 14.9469 62.3552 15.414V24.0084H60.3467V24.0551Z" fill="black"/>
<path d="M76.694 24.242C75.7598 24.242 75.0592 23.9617 74.5454 23.4479C74.0316 22.9341 73.798 22.1868 73.798 21.2059V14.1062H72.3968C72.2566 14.1062 72.1632 14.0594 72.0698 14.0127C71.9764 13.9193 71.9297 13.8259 71.9297 13.6858V12.845L73.8447 12.6115L74.3118 9.01491C74.3118 8.92149 74.3585 8.82807 74.452 8.73465C74.5454 8.64124 74.6388 8.64124 74.7789 8.64124H75.8065V12.6582H79.1695V14.1529H75.8065V21.1592C75.8065 21.673 75.9466 21.9999 76.1802 22.2335C76.4137 22.467 76.7407 22.6071 77.1144 22.6071C77.3479 22.6071 77.5347 22.5604 77.6749 22.5137C77.815 22.467 77.9551 22.3736 78.0952 22.3269C78.1887 22.2802 78.3288 22.1868 78.3755 22.1401C78.4689 22.0934 78.5156 22.0466 78.609 22.0466C78.7025 22.0466 78.7959 22.0934 78.8893 22.2335L79.4965 23.2144C79.1228 23.5413 78.7025 23.8216 78.2354 24.0084C77.7683 24.1485 77.2545 24.242 76.694 24.242Z" fill="black"/>
<path d="M149 0H81.0859V30.5008H149V0Z" fill="#011640"/>
<path d="M81.2265 29.2396H0V30.6409H81.2265V29.2396Z" fill="#011640"/>
<path d="M91.2703 13.2185C91.1769 13.3586 91.0367 13.452 90.8499 13.452C90.7565 13.452 90.6164 13.4053 90.4762 13.3119C90.3361 13.2185 90.1493 13.1251 89.9625 13.0316C89.7756 12.9382 89.5421 12.8448 89.2618 12.7514C88.9816 12.658 88.6546 12.6113 88.2809 12.6113C87.954 12.6113 87.6737 12.658 87.3935 12.7514C87.1132 12.8448 86.9264 12.9382 86.7395 13.0783C86.5527 13.2185 86.4126 13.4053 86.3192 13.5921C86.2258 13.779 86.179 14.0125 86.179 14.2461C86.179 14.5263 86.2725 14.7599 86.4126 14.9467C86.5994 15.1335 86.7863 15.3204 87.0665 15.4605C87.3468 15.6006 87.627 15.7407 88.0007 15.8342C88.3276 15.9276 88.7013 16.0677 89.075 16.1611C89.4487 16.2545 89.7756 16.3947 90.1493 16.5815C90.4762 16.7216 90.8032 16.9085 91.0835 17.142C91.3637 17.3755 91.5505 17.6091 91.7374 17.9361C91.9242 18.263 91.9709 18.6367 91.9709 19.1038C91.9709 19.6176 91.8775 20.0847 91.6907 20.505C91.5038 20.9254 91.2236 21.2991 90.8966 21.626C90.523 21.953 90.1026 22.1865 89.5888 22.3734C89.075 22.5602 88.4678 22.6536 87.7671 22.6536C86.9731 22.6536 86.2725 22.5135 85.6652 22.28C85.058 22.0464 84.4975 21.7195 84.0771 21.2991L84.5442 20.5517C84.5909 20.4583 84.6844 20.3649 84.7311 20.3182C84.8245 20.2715 84.9179 20.2248 85.058 20.2248C85.1982 20.2248 85.3383 20.2715 85.4784 20.3649C85.6185 20.4583 85.8054 20.5985 85.9922 20.6919C86.179 20.832 86.4593 20.9254 86.7395 21.0188C87.0198 21.1122 87.3935 21.159 87.8606 21.159C88.2342 21.159 88.5612 21.1122 88.8414 21.0188C89.1217 20.9254 89.3552 20.7853 89.5421 20.5985C89.7289 20.4116 89.869 20.2248 89.9625 20.0379C90.0559 19.8044 90.1026 19.5709 90.1026 19.3373C90.1026 19.0104 90.0092 18.7768 89.869 18.59C89.6822 18.4031 89.4954 18.2163 89.2151 18.0762C88.9349 17.9361 88.6546 17.7959 88.2809 17.7025C87.954 17.6091 87.5803 17.469 87.2066 17.3755C86.833 17.2821 86.506 17.142 86.1323 16.9552C85.8054 16.815 85.4784 16.6282 85.1982 16.3947C84.9179 16.1611 84.7311 15.8809 84.5442 15.5539C84.3574 15.2269 84.3107 14.8066 84.3107 14.3395C84.3107 13.9191 84.4041 13.4987 84.5909 13.1251C84.7778 12.7514 85.0113 12.3777 85.3383 12.0975C85.6652 11.8172 86.0856 11.5837 86.5994 11.3968C87.0665 11.21 87.627 11.1166 88.2809 11.1166C89.0283 11.1166 89.6822 11.21 90.2427 11.4435C90.8032 11.6771 91.317 12.004 91.7374 12.3777L91.2703 13.2185Z" fill="white"/>
<path d="M97.0136 7.89382C97.0136 8.08065 96.9669 8.26748 96.9202 8.40761C96.8268 8.59445 96.7334 8.73457 96.5932 8.82799C96.4531 8.96812 96.313 9.06153 96.1262 9.10824C95.9393 9.20166 95.7992 9.20166 95.5657 9.20166C95.3788 9.20166 95.192 9.15495 95.0519 9.10824C94.865 9.01482 94.7249 8.92141 94.6315 8.82799C94.4914 8.68786 94.3979 8.54774 94.3512 8.40761C94.2578 8.22078 94.2578 8.08065 94.2578 7.89382C94.2578 7.70698 94.3045 7.52015 94.3512 7.33331C94.4446 7.14648 94.5381 7.00635 94.6315 6.86622C94.7249 6.7261 94.9117 6.63268 95.0519 6.58597C95.2387 6.49255 95.3788 6.49255 95.5657 6.49255C95.7525 6.49255 95.9393 6.53926 96.1262 6.58597C96.313 6.67939 96.4531 6.77281 96.5932 6.86622C96.7334 7.00635 96.8268 7.14648 96.9202 7.33331C97.0136 7.52015 97.0136 7.70698 97.0136 7.89382ZM96.5932 11.3503V22.4669H94.6315V11.3503H96.5932Z" fill="white"/>
<path d="M100.051 22.4668V11.3502H101.218C101.499 11.3502 101.686 11.4903 101.732 11.7705L101.872 12.8916C102.293 12.3778 102.76 11.9574 103.227 11.6304C103.741 11.3035 104.348 11.1633 105.002 11.1633C105.749 11.1633 106.356 11.3502 106.824 11.7705C107.291 12.1909 107.618 12.7514 107.804 13.4521C107.945 13.0317 108.178 12.7047 108.412 12.4245C108.645 12.1442 108.925 11.9107 109.252 11.7238C109.579 11.537 109.906 11.3969 110.233 11.3035C110.607 11.21 110.934 11.1633 111.308 11.1633C111.915 11.1633 112.429 11.2567 112.849 11.4436C113.316 11.6304 113.69 11.9107 114.017 12.2376C114.344 12.6113 114.577 13.0317 114.764 13.5455C114.951 14.0593 114.998 14.6665 114.998 15.3204V22.3734H113.036V15.4138C113.036 14.5264 112.849 13.8724 112.475 13.4521C112.102 12.985 111.541 12.7981 110.841 12.7981C110.514 12.7981 110.233 12.8448 109.906 12.985C109.626 13.0784 109.346 13.2652 109.159 13.4988C108.925 13.7323 108.785 14.0126 108.645 14.3395C108.505 14.6665 108.458 15.0402 108.458 15.5072V22.5603H106.497V15.4138C106.497 14.5264 106.31 13.8724 105.936 13.4053C105.562 12.985 105.049 12.7514 104.348 12.7514C103.881 12.7514 103.414 12.8916 102.993 13.1251C102.573 13.4053 102.199 13.7323 101.872 14.1994V22.4668H100.051Z" fill="white"/>
<path d="M118.033 26.2502V11.3502H119.201C119.481 11.3502 119.668 11.4903 119.715 11.7705L119.902 13.0784C120.369 12.5179 120.929 12.0508 121.536 11.6771C122.144 11.3035 122.844 11.1633 123.638 11.1633C124.292 11.1633 124.853 11.3035 125.366 11.537C125.88 11.7705 126.347 12.1442 126.674 12.6113C127.048 13.0784 127.328 13.6856 127.515 14.3862C127.702 15.0869 127.795 15.9276 127.795 16.8151C127.795 17.6558 127.702 18.4032 127.468 19.1038C127.235 19.8044 126.955 20.4117 126.534 20.9255C126.114 21.4392 125.6 21.8596 125.04 22.1399C124.432 22.4201 123.778 22.607 123.031 22.607C122.33 22.607 121.77 22.5136 121.256 22.28C120.789 22.0465 120.322 21.7195 119.948 21.2991V26.2035H118.033V26.2502ZM122.984 12.7514C122.33 12.7514 121.77 12.8916 121.303 13.1718C120.836 13.4521 120.369 13.8724 119.995 14.4329V19.8044C120.369 20.2715 120.742 20.6452 121.163 20.832C121.583 21.0189 122.05 21.1123 122.611 21.1123C123.638 21.1123 124.432 20.7386 124.993 19.9913C125.553 19.2439 125.834 18.2163 125.834 16.8151C125.834 16.1145 125.787 15.4605 125.647 14.9467C125.507 14.4329 125.32 14.0126 125.086 13.6856C124.853 13.3586 124.526 13.1251 124.199 12.9383C123.825 12.8448 123.451 12.7514 122.984 12.7514Z" fill="white"/>
<path d="M132.326 6.30554V22.4668H130.364V6.30554H132.326Z" fill="white"/>
<path d="M140.173 11.2101C140.827 11.2101 141.434 11.3035 141.995 11.537C142.555 11.7706 143.022 12.0975 143.443 12.5179C143.863 12.9383 144.19 13.4521 144.424 14.0593C144.657 14.6665 144.751 15.3672 144.751 16.1612C144.751 16.4882 144.704 16.675 144.657 16.7684C144.61 16.8618 144.47 16.9085 144.283 16.9085H136.904C136.904 17.6092 136.997 18.2164 137.184 18.7302C137.371 19.244 137.604 19.6644 137.884 20.038C138.211 20.365 138.538 20.6453 138.959 20.8321C139.379 21.0189 139.846 21.1123 140.407 21.1123C140.874 21.1123 141.341 21.0656 141.668 20.9255C142.041 20.8321 142.322 20.692 142.602 20.5518C142.836 20.4117 143.069 20.3183 143.256 20.1782C143.443 20.0847 143.583 19.9913 143.723 19.9913C143.863 19.9913 144.003 20.038 144.097 20.1782L144.657 20.8788C144.424 21.159 144.143 21.4393 143.77 21.6261C143.443 21.8597 143.069 21.9998 142.695 22.1399C142.322 22.2801 141.901 22.3735 141.528 22.4669C141.107 22.5136 140.734 22.5603 140.313 22.5603C139.566 22.5603 138.819 22.4202 138.211 22.1866C137.557 21.9064 136.997 21.5327 136.53 21.0656C136.063 20.5518 135.689 19.9446 135.409 19.1973C135.129 18.4499 135.035 17.6092 135.035 16.675C135.035 15.881 135.175 15.1803 135.409 14.5264C135.642 13.8725 135.969 13.2653 136.436 12.7982C136.904 12.3311 137.417 11.9107 138.071 11.6305C138.632 11.3502 139.379 11.2101 140.173 11.2101ZM140.22 12.6113C139.286 12.6113 138.538 12.8916 137.978 13.4054C137.417 13.9659 137.09 14.7132 136.95 15.6474H142.976C142.976 15.1803 142.929 14.7599 142.789 14.3863C142.649 14.0126 142.462 13.6856 142.228 13.4054C141.995 13.1251 141.715 12.9383 141.341 12.7515C141.061 12.7048 140.64 12.6113 140.22 12.6113Z" fill="white"/>
<path d="M50.4922 33.2108C50.4455 33.2575 50.3988 33.3042 50.3988 33.3509C50.3521 33.3977 50.3054 33.3977 50.2587 33.3977C50.212 33.3977 50.1186 33.3977 50.0718 33.3509C49.9784 33.3042 49.9317 33.2575 49.7916 33.2108C49.6982 33.1641 49.5581 33.1174 49.4179 33.0707C49.2778 33.024 49.1377 33.024 48.9508 33.024C48.764 33.024 48.6239 33.024 48.5305 33.0707C48.3903 33.1174 48.2969 33.1641 48.2035 33.2575C48.1101 33.351 48.0634 33.3977 48.0167 33.4911C47.97 33.5845 47.97 33.6779 47.97 33.818C47.97 33.9582 48.0167 34.0983 48.1101 34.1917C48.2035 34.2851 48.2969 34.3785 48.437 34.472C48.5772 34.5654 48.7173 34.6121 48.9041 34.6588C49.091 34.7055 49.2778 34.7989 49.4646 34.8456C49.6515 34.8923 49.8383 34.9858 50.0251 35.0792C50.212 35.1726 50.3521 35.266 50.4922 35.4061C50.6324 35.5463 50.7258 35.6864 50.8192 35.8732C50.9126 36.0601 50.9593 36.2936 50.9593 36.5739C50.9593 36.8541 50.9126 37.1344 50.8192 37.4146C50.7258 37.6949 50.5856 37.8817 50.3988 38.0685C50.212 38.2554 49.9784 38.3955 49.6982 38.5356C49.4179 38.6757 49.091 38.6757 48.764 38.6757C48.5772 38.6757 48.3436 38.6757 48.1568 38.629C47.97 38.5823 47.7831 38.5356 47.5963 38.4422C47.4094 38.3488 47.2226 38.2554 47.0825 38.162C46.9424 38.0685 46.8022 37.9284 46.6621 37.835L46.9891 37.2745C47.0358 37.2278 47.0825 37.1811 47.1292 37.1811C47.1759 37.1344 47.2226 37.1344 47.2693 37.1344C47.3627 37.1344 47.4095 37.1811 47.5029 37.2278C47.5963 37.2745 47.6897 37.3679 47.8298 37.4146C47.97 37.508 48.0634 37.5547 48.2502 37.6014C48.3903 37.6482 48.6239 37.6949 48.8107 37.6949C49.1377 37.6949 49.4179 37.6014 49.6048 37.4613C49.7916 37.3212 49.885 37.0876 49.885 36.7607C49.885 36.5739 49.8383 36.4337 49.7449 36.3403C49.6515 36.2469 49.5581 36.1535 49.4179 36.0601C49.2778 35.9666 49.1377 35.9199 48.9508 35.8732C48.764 35.8265 48.5772 35.7798 48.3903 35.6864C48.2035 35.6397 48.0167 35.5463 47.8298 35.4528C47.643 35.3594 47.5029 35.266 47.3627 35.1259C47.2226 34.9858 47.1292 34.8456 47.0358 34.6121C46.9424 34.4253 46.8957 34.145 46.8957 33.8647C46.8957 33.6312 46.9424 33.3977 47.0358 33.1641C47.1292 32.9306 47.2693 32.7437 47.4562 32.5569C47.643 32.3701 47.8765 32.2299 48.1101 32.1365C48.3903 32.0431 48.6706 31.9964 48.9975 31.9964C49.3712 31.9964 49.7449 32.0431 50.0718 32.1832C50.3988 32.3234 50.6791 32.4635 50.9126 32.697L50.4922 33.2108Z" fill="black"/>
<path d="M53.1093 32.6028C53.1093 32.6962 53.1093 32.7896 53.0626 32.883C53.0159 32.9765 52.9691 33.0232 52.9224 33.1166C52.8757 33.1633 52.7823 33.21 52.6889 33.2567C52.5955 33.3034 52.5021 33.3034 52.4086 33.3034C52.3152 33.3034 52.2218 33.3034 52.1284 33.2567C52.035 33.21 51.9883 33.1633 51.8948 33.1166C51.8481 33.0699 51.8014 32.9765 51.7547 32.883C51.708 32.7896 51.708 32.6962 51.708 32.6028C51.708 32.5094 51.708 32.416 51.7547 32.3225C51.8014 32.2291 51.8481 32.1824 51.8948 32.089C51.9416 31.9956 52.035 31.9956 52.1284 31.9489C52.2218 31.9022 52.3152 31.9022 52.4086 31.9022C52.5021 31.9022 52.5955 31.9022 52.6889 31.9489C52.7823 31.9956 52.829 32.0423 52.9224 32.089C52.9691 32.1357 53.0159 32.2291 53.0626 32.3225C53.1093 32.416 53.1093 32.5094 53.1093 32.6028ZM52.9224 33.9106V38.4881H51.8014V33.9106H52.9224Z" fill="black"/>
<path d="M54.1826 38.4879V33.9104H54.8365C54.9767 33.9104 55.0701 33.9571 55.1168 34.0973L55.2102 34.4242C55.3036 34.3308 55.397 34.2374 55.4438 34.1907C55.5372 34.0973 55.6306 34.0506 55.724 34.0039C55.8174 33.9571 55.9108 33.9104 56.051 33.8637C56.1444 33.817 56.2845 33.817 56.4246 33.817C56.7049 33.817 56.9384 33.9104 57.1253 34.0506C57.3121 34.1907 57.4522 34.4242 57.5456 34.6578C57.6391 34.5176 57.6858 34.3775 57.8259 34.2841C57.9193 34.1907 58.0594 34.0973 58.1996 34.0039C58.3397 33.9571 58.4798 33.8637 58.6199 33.8637C58.7601 33.817 58.9002 33.817 59.0403 33.817C59.2739 33.817 59.5074 33.8637 59.6942 33.9104C59.8811 33.9571 60.0679 34.0973 60.208 34.2374C60.3482 34.3775 60.4416 34.5644 60.535 34.7979C60.5817 35.0314 60.6284 35.265 60.6284 35.5452V38.4412H59.5074V35.5452C59.5074 35.265 59.4607 35.0314 59.3206 34.8913C59.1805 34.7512 58.9936 34.6578 58.7601 34.6578C58.6667 34.6578 58.5265 34.6578 58.4331 34.7045C58.3397 34.7512 58.2463 34.7979 58.1996 34.8913C58.1062 34.9847 58.0594 35.0782 58.0127 35.1716C57.966 35.265 57.966 35.4051 57.966 35.5452V38.4412H56.845V35.5452C56.845 35.2183 56.7983 35.0314 56.6582 34.8913C56.5181 34.7512 56.3312 34.7045 56.0977 34.7045C55.9576 34.7045 55.7707 34.7512 55.6306 34.8446C55.4905 34.938 55.3503 35.0314 55.2569 35.1716V38.5346H54.1826V38.4879Z" fill="black"/>
<path d="M61.7021 39.9826V33.9104H62.3561C62.4495 33.9104 62.4962 33.9104 62.5429 33.9571C62.5896 34.0039 62.6363 34.0506 62.6363 34.0973L62.7297 34.5176C62.9166 34.2841 63.1034 34.144 63.3837 34.0039C63.6172 33.8637 63.8975 33.817 64.2244 33.817C64.458 33.817 64.6915 33.8637 64.925 33.9571C65.1119 34.0506 65.2987 34.1907 65.4388 34.4242C65.579 34.6111 65.7191 34.8446 65.7658 35.1716C65.8592 35.4518 65.9059 35.7788 65.9059 36.1525C65.9059 36.4794 65.8592 36.8064 65.7658 37.0866C65.6724 37.3669 65.5323 37.6471 65.3921 37.834C65.252 38.0208 65.0185 38.2076 64.7849 38.3478C64.5514 38.4879 64.2711 38.5346 63.9909 38.5346C63.7106 38.5346 63.5238 38.4879 63.337 38.3945C63.1501 38.3011 63.01 38.2076 62.8699 38.0675V39.9359H61.7021V39.9826ZM63.8507 34.7045C63.6172 34.7045 63.4304 34.7512 63.2435 34.8446C63.1034 34.938 62.9166 35.0782 62.7765 35.265V37.3202C62.9166 37.4603 63.0567 37.6004 63.1968 37.6471C63.337 37.6938 63.5238 37.7406 63.6639 37.7406C63.8507 37.7406 63.9909 37.6938 64.131 37.6471C64.2711 37.6004 64.3645 37.507 64.458 37.3669C64.5514 37.2268 64.6448 37.0866 64.6915 36.8998C64.7382 36.713 64.7849 36.4794 64.7849 36.1992C64.7849 35.9189 64.7849 35.6854 64.7382 35.4985C64.6915 35.3117 64.6448 35.1716 64.5514 35.0314C64.458 34.938 64.3645 34.8446 64.2711 34.7979C64.131 34.7512 63.9909 34.7045 63.8507 34.7045Z" fill="black"/>
<path d="M67.914 31.8554V38.488H66.793V31.8554H67.914Z" fill="black"/>
<path d="M71.0439 33.8636C71.3242 33.8636 71.6044 33.9104 71.838 34.0038C72.0715 34.0972 72.3051 34.2373 72.4452 34.4242C72.632 34.611 72.7722 34.7978 72.8656 35.0781C72.959 35.3583 73.0057 35.6386 73.0057 35.9655C73.0057 36.059 73.0057 36.1057 73.0057 36.1524C73.0057 36.1991 73.0057 36.2458 72.959 36.2925C72.9123 36.3392 72.9123 36.3392 72.8656 36.3392C72.8189 36.3392 72.7722 36.3392 72.7255 36.3392H69.9696C70.0163 36.8063 70.1098 37.1333 70.3433 37.3668C70.5769 37.6003 70.8571 37.6938 71.2308 37.6938C71.4176 37.6938 71.5577 37.6938 71.6979 37.6471C71.838 37.6003 71.9314 37.5536 72.0248 37.5069C72.1182 37.4602 72.2117 37.4135 72.2584 37.3668C72.3518 37.3201 72.3985 37.3201 72.4919 37.3201C72.5386 37.3201 72.5853 37.3201 72.5853 37.3668C72.632 37.3668 72.632 37.4135 72.6787 37.4602L73.0057 37.8806C72.8656 38.0207 72.7255 38.1608 72.5853 38.2543C72.4452 38.3477 72.2584 38.4411 72.1182 38.4878C71.9781 38.5345 71.7913 38.5812 71.6044 38.6279C71.4176 38.6746 71.2775 38.6746 71.0906 38.6746C70.7637 38.6746 70.4834 38.6279 70.2032 38.5345C69.9229 38.4411 69.6894 38.2543 69.5026 38.0674C69.3157 37.8806 69.1289 37.6003 69.0355 37.3201C68.942 36.9931 68.8486 36.6662 68.8486 36.2458C68.8486 35.9188 68.8953 35.6386 68.9888 35.3583C69.0822 35.0781 69.2223 34.8445 69.4091 34.6577C69.596 34.4709 69.8295 34.284 70.1098 34.1906C70.39 34.0972 70.717 33.8636 71.0439 33.8636ZM71.0906 34.6577C70.7637 34.6577 70.5301 34.7511 70.3433 34.9379C70.1565 35.1248 70.0631 35.3583 70.0164 35.732H72.0715C72.0715 35.5919 72.0715 35.4517 72.0248 35.3116C71.9781 35.1715 71.9314 35.0781 71.838 34.9847C71.7446 34.8912 71.6512 34.7978 71.5577 34.7511C71.4643 34.7044 71.2308 34.6577 71.0906 34.6577Z" fill="black"/>
<path d="M81.3666 38.488H80.4324C80.339 38.488 80.2455 38.4413 80.1988 38.3946C80.1521 38.3479 80.1054 38.2545 80.0587 38.2078L79.5916 36.8999H76.9292L76.4621 38.2078C76.4154 38.2545 76.3687 38.3479 76.322 38.3946C76.2753 38.4413 76.1819 38.488 76.0885 38.488H75.1543L77.6766 32.0422H78.891L81.3666 38.488ZM77.2095 36.0592H79.2647L78.4706 33.9106C78.4239 33.8172 78.3772 33.7237 78.3305 33.5836C78.2838 33.4435 78.2371 33.3034 78.1904 33.1632C78.1437 33.3034 78.0969 33.4435 78.0502 33.5836C78.0035 33.7237 77.9568 33.8172 77.9101 33.9106L77.2095 36.0592Z" fill="black"/>
<path d="M85.1964 34.8914C85.1496 34.9381 85.1496 34.9848 85.1029 34.9848C85.0562 35.0315 85.0095 35.0315 84.9628 35.0315C84.9161 35.0315 84.8694 35.0315 84.776 34.9848C84.7293 34.9381 84.6358 34.8914 84.5891 34.8914C84.5424 34.8914 84.449 34.798 84.3089 34.798C84.1688 34.798 84.0753 34.7513 83.9352 34.7513C83.7484 34.7513 83.5615 34.798 83.4214 34.8447C83.2813 34.8914 83.1412 35.0315 83.0477 35.1249C82.9543 35.2184 82.8609 35.4052 82.8142 35.592C82.7675 35.7789 82.7208 35.9657 82.7208 36.2459C82.7208 36.4795 82.7675 36.713 82.8142 36.8999C82.8609 37.0867 82.9543 37.2268 83.0477 37.367C83.1412 37.5071 83.2813 37.6005 83.4214 37.6472C83.5615 37.6939 83.7017 37.7406 83.8885 37.7406C84.0753 37.7406 84.2155 37.7406 84.3089 37.6939C84.4023 37.6472 84.4957 37.6005 84.5891 37.5538C84.6826 37.5071 84.7293 37.4604 84.776 37.4137C84.8227 37.367 84.8694 37.367 84.9628 37.367C85.0562 37.367 85.1029 37.4137 85.1496 37.4604L85.4766 37.8807C85.3365 38.0209 85.2431 38.161 85.0562 38.2544C84.8694 38.3478 84.776 38.4413 84.5891 38.488C84.4023 38.5347 84.2622 38.5814 84.122 38.6281C83.9352 38.6748 83.7951 38.6748 83.655 38.6748C83.3747 38.6748 83.0945 38.6281 82.8609 38.5347C82.6274 38.4413 82.3938 38.2544 82.207 38.0676C82.0202 37.8808 81.88 37.6005 81.7866 37.3202C81.6932 37.04 81.6465 36.713 81.6465 36.3394C81.6465 36.0124 81.6932 35.6854 81.7866 35.4052C81.88 35.1249 82.0202 34.8914 82.207 34.6578C82.3938 34.471 82.6274 34.2842 82.9076 34.1441C83.1879 34.0039 83.5148 33.9572 83.8418 33.9572C84.1688 33.9572 84.4957 34.0039 84.7293 34.1441C85.0095 34.2375 85.1964 34.4243 85.4299 34.6111L85.1964 34.8914Z" fill="black"/>
<path d="M89.4483 34.8914C89.4016 34.9381 89.4016 34.9848 89.3549 34.9848C89.3082 35.0315 89.2615 35.0315 89.2148 35.0315C89.168 35.0315 89.1213 35.0315 89.0279 34.9848C88.9812 34.9381 88.8878 34.8914 88.8411 34.8914C88.7944 34.8914 88.701 34.798 88.5608 34.798C88.4207 34.798 88.3273 34.7513 88.1872 34.7513C88.0003 34.7513 87.8135 34.798 87.6734 34.8447C87.5332 34.8914 87.3931 35.0315 87.2997 35.1249C87.2063 35.2184 87.1129 35.4052 87.0662 35.592C87.0194 35.7789 86.9727 35.9657 86.9727 36.2459C86.9727 36.4795 87.0194 36.713 87.0662 36.8999C87.1129 37.0867 87.2063 37.2268 87.2997 37.367C87.3931 37.5071 87.5332 37.6005 87.6734 37.6472C87.8135 37.6939 87.9536 37.7406 88.1405 37.7406C88.3273 37.7406 88.4674 37.7406 88.5608 37.6939C88.6543 37.6472 88.7477 37.6005 88.8411 37.5538C88.9345 37.5071 88.9812 37.4604 89.0279 37.4137C89.0746 37.367 89.1213 37.367 89.2148 37.367C89.3082 37.367 89.3549 37.4137 89.4016 37.4604L89.7286 37.8807C89.5884 38.0209 89.495 38.161 89.3082 38.2544C89.1213 38.3478 89.0279 38.4413 88.8411 38.488C88.6542 38.5347 88.5141 38.5814 88.374 38.6281C88.1872 38.6748 88.047 38.6748 87.9069 38.6748C87.6267 38.6748 87.3464 38.6281 87.1129 38.5347C86.8793 38.4413 86.6458 38.2544 86.4589 38.0676C86.2721 37.8808 86.132 37.6005 86.0386 37.3202C85.9451 37.04 85.8984 36.713 85.8984 36.3394C85.8984 36.0124 85.9451 35.6854 86.0386 35.4052C86.132 35.1249 86.2721 34.8914 86.4589 34.6578C86.6458 34.471 86.8793 34.2842 87.1596 34.1441C87.4398 34.0039 87.7668 33.9572 88.0937 33.9572C88.4207 33.9572 88.7477 34.0039 88.9812 34.1441C89.2615 34.2375 89.4483 34.4243 89.6818 34.6111L89.4483 34.8914Z" fill="black"/>
<path d="M92.4364 33.8636C92.7633 33.8636 93.0903 33.9104 93.3705 34.0505C93.6508 34.1439 93.8843 34.3307 94.0712 34.5176C94.258 34.7044 94.3981 34.9847 94.5383 35.2649C94.6317 35.5452 94.6784 35.8721 94.6784 36.2458C94.6784 36.6195 94.6317 36.9464 94.5383 37.2267C94.4448 37.5069 94.258 37.7872 94.0712 37.974C93.8843 38.1608 93.6508 38.3477 93.3705 38.4411C93.0903 38.5345 92.7633 38.6279 92.4364 38.6279C92.1094 38.6279 91.7824 38.5812 91.5022 38.4411C91.2219 38.3477 90.9884 38.1608 90.8016 37.974C90.6147 37.7872 90.4279 37.5069 90.3345 37.2267C90.241 36.9464 90.1943 36.6195 90.1943 36.2458C90.1943 35.8721 90.241 35.5452 90.3345 35.2649C90.4279 34.9847 90.6147 34.7044 90.8016 34.5176C90.9884 34.3307 91.2219 34.1439 91.5022 34.0505C91.7824 33.9104 92.1094 33.8636 92.4364 33.8636ZM92.4364 37.6938C92.81 37.6938 93.0903 37.5536 93.2771 37.3201C93.4639 37.0865 93.5574 36.7129 93.5574 36.1991C93.5574 35.6853 93.4639 35.3116 93.2771 35.0781C93.0903 34.7978 92.81 34.7044 92.4364 34.7044C92.0627 34.7044 91.7824 34.8445 91.5956 35.0781C91.4088 35.3583 91.3153 35.732 91.3153 36.1991C91.3153 36.7129 91.4088 37.0865 91.5956 37.3201C91.7824 37.5536 92.0627 37.6938 92.4364 37.6938Z" fill="black"/>
<path d="M96.5938 33.9104V36.8063C96.5938 37.0865 96.6405 37.3201 96.7807 37.4602C96.9208 37.6003 97.1076 37.6938 97.3412 37.6938C97.528 37.6938 97.7148 37.6471 97.855 37.5536C97.9951 37.4602 98.1819 37.3668 98.3221 37.18V33.8636H99.4431V38.4411H98.7891C98.649 38.4411 98.5556 38.3944 98.5089 38.2543L98.4155 37.8806C98.3221 37.974 98.2286 38.0674 98.1352 38.1609C98.0418 38.2543 97.9484 38.301 97.8083 38.3477C97.7148 38.3944 97.5747 38.4411 97.4346 38.4878C97.2945 38.5345 97.1543 38.5345 97.0142 38.5345C96.7807 38.5345 96.5471 38.4878 96.3603 38.3944C96.1735 38.301 95.9866 38.2076 95.8932 38.0207C95.7998 37.8339 95.6597 37.6938 95.6129 37.4602C95.5662 37.2267 95.5195 36.9931 95.5195 36.7596V33.8636H96.5938V33.9104Z" fill="black"/>
<path d="M100.656 38.4879V33.9104H101.31C101.45 33.9104 101.544 33.9571 101.59 34.0973L101.684 34.4709C101.777 34.3775 101.871 34.2841 101.964 34.1907C102.058 34.0973 102.198 34.0506 102.291 34.0039C102.384 33.9571 102.525 33.9104 102.665 33.8637C102.805 33.817 102.945 33.817 103.085 33.817C103.319 33.817 103.552 33.8637 103.739 33.9571C103.926 34.0506 104.113 34.144 104.206 34.3308C104.346 34.4709 104.44 34.6578 104.486 34.8913C104.533 35.1249 104.58 35.3584 104.58 35.5919V38.4879H103.459V35.5919C103.459 35.3117 103.412 35.0782 103.272 34.938C103.132 34.7979 102.945 34.7045 102.711 34.7045C102.525 34.7045 102.338 34.7512 102.198 34.8446C102.011 34.938 101.871 35.0314 101.731 35.2183V38.5346H100.656V38.4879Z" fill="black"/>
<path d="M107.245 38.5813C106.871 38.5813 106.545 38.4879 106.311 38.2543C106.077 38.0208 105.984 37.7405 105.984 37.3202V34.7512H105.517C105.47 34.7512 105.423 34.7512 105.377 34.7045C105.33 34.6578 105.33 34.611 105.33 34.5176V34.0973L106.077 33.9571L106.311 32.696C106.311 32.6493 106.358 32.6026 106.404 32.5559C106.451 32.5092 106.498 32.5092 106.545 32.5092H107.105V33.9571H108.319V34.7512H107.105V37.2267C107.105 37.3669 107.152 37.4603 107.198 37.5537C107.292 37.6471 107.385 37.6938 107.479 37.6938C107.525 37.6938 107.619 37.6938 107.666 37.6471C107.712 37.6471 107.759 37.6004 107.806 37.6004C107.852 37.6004 107.852 37.5537 107.899 37.5537C107.946 37.5537 107.946 37.507 107.992 37.507C108.039 37.507 108.039 37.507 108.086 37.5537C108.086 37.5537 108.133 37.6004 108.133 37.6471L108.46 38.1609C108.319 38.301 108.133 38.3945 107.899 38.4412C107.666 38.5346 107.432 38.5813 107.245 38.5813Z" fill="black"/>
<path d="M111.915 34.798C111.869 34.8447 111.869 34.8914 111.822 34.8914C111.775 34.8914 111.728 34.9381 111.682 34.9381C111.635 34.9381 111.588 34.9381 111.495 34.8914C111.448 34.8447 111.355 34.8447 111.261 34.798C111.168 34.7513 111.075 34.7046 110.981 34.7046C110.888 34.6579 110.748 34.6579 110.607 34.6579C110.374 34.6579 110.234 34.7046 110.094 34.798C109.954 34.8914 109.907 35.0315 109.907 35.1716C109.907 35.2651 109.954 35.3585 110 35.4052C110.047 35.4519 110.14 35.5453 110.234 35.592C110.327 35.6387 110.467 35.6854 110.607 35.7322C110.748 35.7789 110.888 35.8256 111.028 35.8723C111.168 35.919 111.308 35.9657 111.448 36.0124C111.588 36.0591 111.682 36.1525 111.822 36.246C111.915 36.3394 112.009 36.4328 112.055 36.5729C112.102 36.713 112.149 36.8532 112.149 37.04C112.149 37.2735 112.102 37.4604 112.009 37.6472C111.915 37.834 111.822 37.9742 111.635 38.1143C111.495 38.2544 111.308 38.3478 111.075 38.4413C110.841 38.5347 110.607 38.5347 110.28 38.5347C110.14 38.5347 109.954 38.5347 109.813 38.488C109.673 38.4413 109.533 38.4413 109.393 38.3478C109.253 38.2544 109.113 38.2544 109.019 38.161C108.879 38.1143 108.786 38.0209 108.692 37.9275L108.926 37.5071C108.973 37.4604 109.019 37.4137 109.019 37.4137C109.066 37.367 109.113 37.367 109.206 37.367C109.3 37.367 109.346 37.367 109.393 37.4137C109.44 37.4604 109.533 37.5071 109.627 37.5538C109.72 37.6005 109.813 37.6472 109.907 37.6939C110 37.7406 110.14 37.7406 110.327 37.7406C110.467 37.7406 110.561 37.7406 110.654 37.6939C110.748 37.6472 110.841 37.6005 110.888 37.5538C110.934 37.5071 110.981 37.4604 111.028 37.367C111.075 37.3203 111.075 37.2268 111.075 37.1801C111.075 37.0867 111.028 36.9933 110.981 36.8999C110.934 36.8532 110.841 36.7597 110.748 36.713C110.654 36.6663 110.514 36.6196 110.374 36.5729C110.234 36.5262 110.094 36.4795 109.954 36.4328C109.813 36.3861 109.673 36.3394 109.533 36.246C109.393 36.1992 109.3 36.1058 109.159 36.0124C109.019 35.919 108.973 35.7789 108.926 35.6387C108.879 35.4986 108.833 35.3118 108.833 35.1249C108.833 34.9381 108.879 34.7513 108.926 34.6111C109.019 34.4243 109.113 34.2842 109.253 34.1441C109.393 34.0039 109.58 33.9105 109.813 33.8638C110.047 33.7704 110.28 33.7704 110.561 33.7704C110.888 33.7704 111.168 33.8171 111.401 33.9105C111.682 34.0039 111.869 34.1441 112.055 34.3309L111.915 34.798Z" fill="black"/>
<path d="M112.85 37.834C112.85 37.7405 112.85 37.6938 112.896 37.6004C112.943 37.507 112.99 37.4603 113.036 37.4136C113.083 37.3669 113.177 37.3202 113.223 37.2735C113.27 37.2267 113.41 37.2267 113.504 37.2267C113.597 37.2267 113.737 37.2267 113.784 37.2735C113.877 37.3202 113.924 37.3669 113.971 37.4603C114.017 37.507 114.064 37.6004 114.111 37.6938C114.157 37.7873 114.157 37.8807 114.157 37.9741C114.157 38.1142 114.157 38.2543 114.111 38.4412C114.064 38.5813 114.017 38.7681 113.924 38.9083C113.83 39.0484 113.737 39.2352 113.597 39.3753C113.457 39.5155 113.317 39.6556 113.177 39.7957L112.99 39.6089C112.943 39.5622 112.896 39.5155 112.896 39.4221C112.896 39.3753 112.896 39.3753 112.943 39.3286C112.943 39.2819 112.99 39.2819 112.99 39.2352C113.036 39.1885 113.083 39.1418 113.13 39.0951C113.177 39.0484 113.223 39.0017 113.27 38.9083C113.317 38.8616 113.363 38.7681 113.41 38.6747C113.457 38.5813 113.457 38.5346 113.504 38.4412C113.41 38.4412 113.317 38.4412 113.27 38.3945C113.177 38.3478 113.13 38.301 113.083 38.2543C113.036 38.2076 112.99 38.1142 112.943 38.0675C112.85 38.0208 112.85 37.9274 112.85 37.834Z" fill="black"/>
<path d="M123.078 35.2651C123.078 35.7322 122.985 36.1993 122.845 36.5729C122.705 36.9933 122.471 37.3203 122.191 37.6005C121.911 37.8808 121.584 38.1143 121.163 38.3012C120.743 38.488 120.322 38.5347 119.809 38.5347C119.342 38.5347 118.874 38.4413 118.454 38.3012C118.034 38.1143 117.707 37.9275 117.427 37.6005C117.146 37.2736 116.913 36.9466 116.773 36.5729C116.632 36.1526 116.539 35.7322 116.539 35.2651C116.539 34.798 116.632 34.3309 116.773 33.9572C116.913 33.5369 117.146 33.2099 117.427 32.9297C117.707 32.6494 118.08 32.4159 118.454 32.229C118.874 32.0422 119.295 31.9955 119.809 31.9955C120.276 31.9955 120.743 32.0889 121.163 32.229C121.584 32.3692 121.911 32.6027 122.191 32.9297C122.471 33.2099 122.705 33.5836 122.845 33.9572C122.985 34.3776 123.078 34.798 123.078 35.2651ZM121.817 35.2651C121.817 34.8914 121.77 34.6112 121.677 34.3309C121.584 34.0507 121.443 33.8171 121.257 33.6303C121.07 33.4435 120.883 33.3033 120.603 33.1632C120.369 33.0698 120.089 33.0231 119.762 33.0231C119.435 33.0231 119.155 33.0698 118.921 33.1632C118.688 33.2566 118.454 33.3967 118.267 33.6303C118.08 33.8171 117.94 34.0507 117.847 34.3309C117.753 34.6112 117.707 34.9381 117.707 35.2651C117.707 35.5921 117.753 35.919 117.847 36.1993C117.94 36.4795 118.08 36.7131 118.267 36.8999C118.454 37.0867 118.641 37.2269 118.921 37.367C119.155 37.4604 119.435 37.5071 119.762 37.5071C120.089 37.5071 120.369 37.4604 120.603 37.367C120.836 37.2736 121.07 37.1334 121.257 36.8999C121.443 36.7131 121.584 36.4795 121.677 36.1993C121.77 35.9657 121.817 35.6388 121.817 35.2651Z" fill="black"/>
<path d="M123.919 38.4879V33.9104H124.573C124.713 33.9104 124.806 33.9571 124.853 34.0973L124.947 34.4709C125.04 34.3775 125.133 34.2841 125.227 34.1907C125.32 34.0973 125.46 34.0506 125.554 34.0039C125.647 33.9571 125.787 33.9104 125.927 33.8637C126.068 33.817 126.208 33.817 126.348 33.817C126.581 33.817 126.815 33.8637 127.002 33.9571C127.189 34.0506 127.375 34.144 127.469 34.3308C127.609 34.4709 127.702 34.6578 127.749 34.8913C127.796 35.1249 127.842 35.3584 127.842 35.5919V38.4879H126.721V35.5919C126.721 35.3117 126.675 35.0782 126.535 34.938C126.395 34.7979 126.208 34.7045 125.974 34.7045C125.787 34.7045 125.6 34.7512 125.46 34.8446C125.273 34.938 125.133 35.0314 124.993 35.2183V38.5346H123.919V38.4879Z" fill="black"/>
<path d="M130.179 31.8554V38.488H129.058V31.8554H130.179Z" fill="black"/>
<path d="M132.746 32.6028C132.746 32.6962 132.746 32.7896 132.699 32.883C132.653 32.9765 132.606 33.0232 132.559 33.1166C132.512 33.1633 132.419 33.21 132.326 33.2567C132.232 33.3034 132.139 33.3034 132.045 33.3034C131.952 33.3034 131.859 33.3034 131.765 33.2567C131.672 33.21 131.625 33.1633 131.532 33.1166C131.485 33.0699 131.438 32.9765 131.391 32.883C131.345 32.7896 131.345 32.6962 131.345 32.6028C131.345 32.5094 131.345 32.416 131.391 32.3225C131.438 32.2291 131.485 32.1824 131.532 32.089C131.578 32.0423 131.672 31.9956 131.765 31.9489C131.859 31.9022 131.952 31.9022 132.045 31.9022C132.139 31.9022 132.232 31.9022 132.326 31.9489C132.419 31.9956 132.466 32.0423 132.559 32.089C132.653 32.1357 132.653 32.2291 132.699 32.3225C132.746 32.416 132.746 32.5094 132.746 32.6028ZM132.606 33.9106V38.4881H131.485V33.9106H132.606Z" fill="black"/>
<path d="M133.868 38.4879V33.9104H134.522C134.662 33.9104 134.756 33.9571 134.802 34.0973L134.896 34.4709C134.989 34.3775 135.083 34.2841 135.176 34.1907C135.269 34.0973 135.41 34.0506 135.503 34.0039C135.596 33.9571 135.737 33.9104 135.877 33.8637C136.017 33.817 136.157 33.817 136.297 33.817C136.531 33.817 136.764 33.8637 136.951 33.9571C137.138 34.0506 137.325 34.144 137.418 34.3308C137.558 34.4709 137.652 34.6578 137.698 34.8913C137.745 35.1249 137.792 35.3584 137.792 35.5919V38.4879H136.671V35.5919C136.671 35.3117 136.624 35.0782 136.484 34.938C136.344 34.7979 136.157 34.7045 135.923 34.7045C135.737 34.7045 135.55 34.7512 135.41 34.8446C135.223 34.938 135.083 35.0314 134.942 35.2183V38.5346H133.868V38.4879Z" fill="black"/>
<path d="M140.827 33.8636C141.107 33.8636 141.387 33.9104 141.621 34.0038C141.854 34.0972 142.088 34.2373 142.228 34.4242C142.415 34.611 142.555 34.7978 142.648 35.0781C142.742 35.3583 142.789 35.6386 142.789 35.9655C142.789 36.059 142.789 36.1057 142.789 36.1524C142.789 36.1991 142.789 36.2458 142.742 36.2925C142.742 36.3392 142.695 36.3392 142.648 36.3392C142.602 36.3392 142.555 36.3392 142.508 36.3392H139.659C139.706 36.8063 139.799 37.1333 140.033 37.3668C140.266 37.6003 140.547 37.6938 140.92 37.6938C141.107 37.6938 141.247 37.6938 141.387 37.6471C141.527 37.6003 141.621 37.5536 141.714 37.5069C141.808 37.4602 141.901 37.4135 141.948 37.3668C142.041 37.3201 142.088 37.3201 142.181 37.3201C142.228 37.3201 142.275 37.3201 142.275 37.3668C142.275 37.4135 142.321 37.4135 142.368 37.4602L142.695 37.8806C142.555 38.0207 142.415 38.1608 142.275 38.2543C142.135 38.3477 141.948 38.4411 141.808 38.4878C141.621 38.5345 141.481 38.5812 141.294 38.6279C141.107 38.6746 140.967 38.6746 140.78 38.6746C140.453 38.6746 140.173 38.6279 139.893 38.5345C139.612 38.4411 139.379 38.2543 139.192 38.0674C139.005 37.8806 138.818 37.6003 138.725 37.3201C138.632 36.9931 138.538 36.6662 138.538 36.2458C138.538 35.9188 138.585 35.6386 138.678 35.3583C138.772 35.0781 138.912 34.8445 139.099 34.6577C139.285 34.4709 139.519 34.284 139.799 34.1906C140.173 33.9104 140.453 33.8636 140.827 33.8636ZM140.827 34.6577C140.5 34.6577 140.266 34.7511 140.079 34.9379C139.893 35.1248 139.799 35.3583 139.753 35.732H141.808C141.808 35.5919 141.808 35.4517 141.761 35.3116C141.714 35.1715 141.668 35.0781 141.574 34.9847C141.481 34.8912 141.387 34.7978 141.294 34.7511C141.2 34.7044 141.014 34.6577 140.827 34.6577Z" fill="black"/>
<path d="M143.443 37.8807C143.443 37.7873 143.443 37.6939 143.49 37.6005C143.537 37.5071 143.583 37.4604 143.63 37.367C143.677 37.3202 143.77 37.2735 143.864 37.2268C143.957 37.1801 144.051 37.1801 144.144 37.1801C144.237 37.1801 144.331 37.1801 144.424 37.2268C144.518 37.2735 144.564 37.3202 144.658 37.367C144.704 37.4137 144.751 37.5071 144.798 37.6005C144.845 37.6939 144.845 37.7873 144.845 37.8807C144.845 37.9742 144.845 38.0676 144.798 38.161C144.751 38.2544 144.704 38.3011 144.658 38.3945C144.611 38.4412 144.518 38.488 144.424 38.5347C144.331 38.5814 144.237 38.5814 144.144 38.5814C144.051 38.5814 143.957 38.5814 143.864 38.5347C143.77 38.488 143.724 38.4412 143.63 38.3945C143.583 38.3478 143.537 38.2544 143.49 38.161C143.443 38.0676 143.443 37.9742 143.443 37.8807Z" fill="black"/>
</svg>
