<svg width="173" height="34" viewBox="0 0 173 34" fill="none" xmlns="http://www.w3.org/2000/svg">
<path fill-rule="evenodd" clip-rule="evenodd" d="M2.43334 27.0166L2.64968 25.8516H4.47755L3.12978 29.2879C3.10149 29.3643 3.10454 29.3414 3.10454 29.6946L3.10837 30.9583H1.33324C1.33324 30.0486 1.33324 30.2764 1.33324 29.3659C1.22692 29.0261 1.10317 28.6921 0.96247 28.3651L0 25.8508H1.88444L2.24986 27.707C2.25271 27.7122 2.2569 27.7166 2.262 27.7196C2.26711 27.7227 2.27294 27.7245 2.2789 27.7245C2.3049 27.7238 2.28197 27.8254 2.43334 27.0166Z" fill="black"/>
<path fill-rule="evenodd" clip-rule="evenodd" d="M14.7842 22.5139L15.6091 24.0428C7.35271 24.5741 9.41679 24.4419 1.165 24.9717L0.210938 25.0343L1.29037 22.4122L2.30332 22.3151L2.74365 22.2899L4.83603 22.1683C6.71741 22.0605 6.24803 22.0842 8.13248 22.007L14.3699 21.7509C14.6061 22.1844 14.5465 22.075 14.7842 22.5139Z" fill="black"/>
<path fill-rule="evenodd" clip-rule="evenodd" d="M6.6725 28.1373L6.62968 28.1304C6.58862 28.1268 6.54736 28.1344 6.51023 28.1523C6.4731 28.1702 6.44148 28.1978 6.41869 28.2321C6.36894 28.3899 6.34696 28.5553 6.35371 28.7206C6.34127 29.0323 6.3502 29.3444 6.38046 29.6548C6.4034 29.8574 6.49361 29.9361 6.67174 29.9094C6.80093 29.8865 6.84374 29.8176 6.8682 29.5921C6.89234 29.2458 6.89643 28.8984 6.88044 28.5517C6.85521 28.2359 6.8231 28.1717 6.6725 28.1373ZM6.74207 26.9241H6.74589C7.80011 26.9547 8.34211 27.3377 8.53629 28.1893C8.66667 28.8103 8.63456 29.4543 8.44304 30.0592C8.18159 30.7182 7.67473 31.0095 6.72983 31.0401C6.31706 31.0628 5.90437 30.9941 5.52119 30.839C5.27017 30.7196 5.05629 30.5343 4.90238 30.3029C4.74848 30.0714 4.66034 29.8025 4.64739 29.5249C4.55456 28.9599 4.6096 28.3804 4.80716 27.843C5.09767 27.1894 5.70467 26.9027 6.74207 26.9264V26.9241Z" fill="black"/>
<path fill-rule="evenodd" clip-rule="evenodd" d="M11.1804 28.8246V27.0189H12.9257V30.9437C11.9846 30.9437 12.2201 30.9437 11.279 30.9399C11.2538 30.9307 11.2576 30.9529 11.2538 30.7824C11.2543 30.7732 11.2515 30.7642 11.2459 30.7569C11.2403 30.7496 11.2323 30.7445 11.2232 30.7427C11.2072 30.7427 11.2232 30.732 11.0887 30.8069C10.7167 31.0139 10.2855 31.0888 9.8655 31.0194C9.26233 30.9231 8.98481 30.5684 8.98633 29.8903L8.99016 27.0212H10.737C10.7439 28.528 10.7423 28.1519 10.7492 29.6594C10.7783 29.7527 10.8639 29.7581 11.0986 29.6847C11.1307 29.674 11.1521 29.6671 11.1827 29.6556L11.1804 28.8246Z" fill="black"/>
<path fill-rule="evenodd" clip-rule="evenodd" d="M16.0337 26.9693C16.1484 26.9617 16.1102 26.9624 16.2952 26.9586L16.2524 28.3293C15.4971 28.3293 15.6094 28.3225 15.4718 28.3561C15.2784 28.4043 15.2303 28.5006 15.2372 28.8255V30.9576H13.5117V27.0198H14.9879L15.059 27.2988C15.1259 27.2322 15.2034 27.1771 15.2884 27.136C15.5195 27.0205 15.7754 26.9633 16.0337 26.9693Z" fill="black"/>
<path fill-rule="evenodd" clip-rule="evenodd" d="M22.4114 27.4448L22.5185 25.8517H24.1002C23.7867 28.7697 23.8639 28.0411 23.552 30.9584H21.5598C21.3358 29.7826 21.3916 30.0777 21.1691 28.902C21.1635 28.8959 21.1561 28.8918 21.1481 28.8901C21.14 28.8885 21.1316 28.8894 21.124 28.8928C21.0988 28.9004 21.111 28.8423 21.0377 29.3025C20.8848 30.249 20.9245 30.0127 20.7724 30.9584H18.7847L18.1426 25.8517H19.7786L19.9895 28.1765C20.0003 28.1948 20.0056 28.1963 20.05 28.191C20.0698 28.1818 20.066 28.191 20.0737 28.1145C20.2487 26.8241 20.2044 27.1467 20.3794 25.8555H21.955C22.1569 27.1834 22.1079 26.8493 22.3075 28.1788C22.3094 28.1846 22.3132 28.1896 22.3183 28.193C22.3235 28.1963 22.3296 28.1978 22.3357 28.1971C22.3678 28.1933 22.3678 28.1971 22.3808 28.0022L22.4114 27.4448Z" fill="black"/>
<path fill-rule="evenodd" clip-rule="evenodd" d="M114.546 20.1432H114.823C114.695 20.4444 114.591 20.7556 114.512 21.0736L114.462 21.2456L105.705 21.2295C101.79 21.2219 102.768 21.2226 98.8532 21.2173L89.4157 21.2028C87.8531 21.2028 88.2437 21.1974 86.6804 21.2188L77.2773 21.3473C76.0121 21.3648 76.3286 21.3579 75.0649 21.3916L71.1286 21.4917C69.0377 21.5453 69.5606 21.5292 67.4698 21.6064L53.6954 22.1133C49.4265 22.2707 50.4937 22.2256 46.2264 22.4298L33.0063 23.065C32.6408 23.0834 32.731 23.0788 32.3656 23.0987C30.764 23.1851 31.1646 23.1629 29.5623 23.2516L27.9638 23.3395C22.659 23.6292 23.9884 23.5558 18.683 23.8548C18.6669 23.8548 18.6593 23.844 18.6631 23.8333C18.6669 23.8226 18.608 23.8479 19.4612 23.3838L22.9388 21.4902C22.9977 21.4703 22.9465 21.4726 23.2935 21.4634L30.5645 21.2418C36.0894 21.0736 34.708 21.1149 40.2336 20.9589C45.4917 20.806 44.1768 20.8427 49.4357 20.7295L83.7608 19.9903C84.8991 19.9651 84.6148 19.9674 85.7546 19.972L107.16 20.0484C108.744 20.0538 108.347 20.0484 109.931 20.0721L113.89 20.1279L114.546 20.1432Z" fill="black"/>
<path fill-rule="evenodd" clip-rule="evenodd" d="M28.4472 28.0288V30.9575H26.6789C26.6789 29.4752 26.6789 29.846 26.6751 28.3583C26.6483 28.2689 26.5222 28.2558 26.3349 28.3239L26.2485 28.3545V30.9537H24.5078V25.6865H26.1897V27.2582C26.3142 27.1688 26.4513 27.0983 26.5964 27.0488C26.8309 26.952 27.0836 26.907 27.3371 26.9166C27.5906 26.9262 27.8391 26.9903 28.0657 27.1046C28.2062 27.2104 28.3157 27.3519 28.3828 27.5145C28.4499 27.6771 28.4721 27.8547 28.4472 28.0288Z" fill="black"/>
<path fill-rule="evenodd" clip-rule="evenodd" d="M30.9498 28.1381C30.9033 28.1269 30.8545 28.1301 30.8099 28.1472C30.657 28.1916 30.631 28.33 30.6325 28.9989C30.6325 29.7358 30.6631 29.8665 30.829 29.9078C30.8614 29.9196 30.8961 29.9237 30.9303 29.9199C30.9646 29.9161 30.9975 29.9045 31.0265 29.8859C31.0555 29.8674 31.0799 29.8424 31.0978 29.8129C31.1156 29.7834 31.1265 29.7503 31.1294 29.716C31.1668 29.3539 31.1775 28.9895 31.1615 28.6258C31.1378 28.2351 31.1142 28.1778 30.9498 28.1381ZM31.0392 26.9264C31.2816 26.895 31.5279 26.9181 31.7601 26.994C31.9924 27.07 32.2048 27.1968 32.3818 27.3653C32.5588 27.5338 32.6959 27.7397 32.7832 27.968C32.8705 28.1962 32.9057 28.4411 32.8862 28.6847C32.9072 29.0247 32.8879 29.366 32.8289 29.7014C32.7881 30.0438 32.6289 30.361 32.3789 30.5983C32.1288 30.8357 31.8037 30.9781 31.4597 31.001C30.7969 31.1378 30.1069 31.0223 29.5248 30.6769C29.338 30.5222 29.1867 30.329 29.0811 30.1105C28.9756 29.8921 28.9183 29.6535 28.9132 29.4109C28.8714 29.0218 28.8877 28.6287 28.9614 28.2443C29.009 27.9152 29.1653 27.6114 29.4053 27.3812C29.6453 27.151 29.9554 27.0076 30.2862 26.9737C30.5348 26.9314 30.7873 26.9155 31.0392 26.9264Z" fill="black"/>
<path fill-rule="evenodd" clip-rule="evenodd" d="M34.241 25.6894H34.9932V29.5447C35.0024 29.6838 35.0559 29.7472 35.1798 29.7687C35.2194 29.7756 35.2595 29.7792 35.2998 29.7794C35.2317 30.5026 35.2493 30.3221 35.1813 31.0446L34.345 31.0392C34.1953 31.0506 34.045 31.028 33.9053 30.9731C33.7657 30.9181 33.6403 30.8323 33.5385 30.722C33.4368 30.6116 33.3614 30.4796 33.3179 30.336C33.2745 30.1923 33.2642 30.0407 33.2877 29.8925L33.2808 25.6917L34.241 25.6894Z" fill="black"/>
<path fill-rule="evenodd" clip-rule="evenodd" d="M37.7606 28.3048C37.7116 28.2728 37.6556 28.2531 37.5973 28.2473C37.539 28.2414 37.4802 28.2497 37.4258 28.2712C37.3848 28.2879 37.3493 28.3155 37.3231 28.3512C37.2969 28.3868 37.2811 28.429 37.2775 28.473C37.2522 28.5931 37.2591 28.5625 37.2346 28.684C37.594 28.684 37.5045 28.684 37.8631 28.684L37.8577 28.5732C37.8626 28.524 37.8564 28.4744 37.8396 28.428C37.8228 28.3815 37.7958 28.3394 37.7606 28.3048ZM39.1497 27.4723C39.3907 27.824 39.4946 28.2518 39.4417 28.6748C39.4348 28.8858 39.4417 28.8201 39.4111 29.1404L39.4004 29.2604C39.3975 29.3197 39.3891 29.3786 39.3752 29.4363H37.2882C37.2869 29.4935 37.3004 29.5501 37.3272 29.6006C37.3744 29.6961 37.4511 29.7738 37.546 29.8222C37.6409 29.8705 37.7489 29.8869 37.8539 29.869C38.273 29.832 38.6899 29.7735 39.103 29.6939C39.1856 30.333 39.1657 30.1732 39.2475 30.8108L38.6551 30.9415C38.4363 30.9829 38.2152 31.0109 37.993 31.0256C37.6059 31.1102 37.2028 31.0844 36.8297 30.9511C36.4565 30.8179 36.1283 30.5825 35.8823 30.2718C35.6012 29.8188 35.4826 29.2837 35.5459 28.7543C35.5349 28.3738 35.6484 28 35.8691 27.6898C36.0899 27.3797 36.4059 27.15 36.7691 27.0358C37.1762 26.9233 37.6013 26.8916 38.0205 26.9425C38.2357 26.9451 38.4478 26.9938 38.6425 27.0855C38.8372 27.1772 39.0099 27.3096 39.1489 27.4738L39.1497 27.4723Z" fill="black"/>
<path fill-rule="evenodd" clip-rule="evenodd" d="M41.382 26.9256C41.8357 26.9379 42.2877 26.9869 42.7335 27.0723L42.8283 27.0884L42.6494 28.3269L41.3017 28.1227C41.2313 28.1281 41.2053 28.1503 41.2122 28.2084C41.2191 28.2665 41.2405 28.2764 41.5593 28.3857C42.4843 28.7007 42.8681 29.0738 42.8872 29.6747C42.9139 29.8839 42.8843 30.0965 42.8017 30.2906C42.7191 30.4847 42.5863 30.6534 42.417 30.7793C41.9468 31.0359 41.4027 31.1231 40.8759 31.0262C40.5526 31.0093 40.2312 30.9662 39.9149 30.8971L39.7964 30.8703L39.9042 29.667L40.6687 29.8199C40.8925 29.8813 41.125 29.9054 41.3567 29.891C41.4102 29.868 41.4179 29.8145 41.3728 29.7679C41.3407 29.7342 41.398 29.7587 40.9699 29.5997C40.5357 29.473 40.1441 29.2307 39.8369 28.8987C39.742 28.7512 39.6775 28.5863 39.647 28.4135C39.6166 28.2408 39.6208 28.0637 39.6596 27.8926C39.7346 27.6117 39.902 27.3643 40.1349 27.1902C40.3678 27.0161 40.6525 26.9256 40.9431 26.9332C41.0892 26.9228 41.2357 26.9203 41.382 26.9256Z" fill="black"/>
<path fill-rule="evenodd" clip-rule="evenodd" d="M44.9867 29.4392H44.9798C44.7451 29.495 44.6396 29.6059 44.6542 29.7848C44.6649 29.914 44.7145 29.969 44.8261 29.9713C44.9859 29.9751 45.0555 29.927 45.0769 29.7955L45.0845 29.4247C45.0517 29.4275 45.019 29.4324 44.9867 29.4392ZM44.2872 26.9929C45.4699 26.84 46.1831 26.9425 46.4904 27.2987C46.5928 27.4394 46.6664 27.599 46.707 27.7682C46.7475 27.9374 46.7542 28.113 46.7267 28.2849L46.6815 29.6204C46.6747 29.7963 46.6907 29.8421 46.7657 29.875C46.8556 29.8996 46.9484 29.9122 47.0416 29.9125C47.086 29.9125 47.0951 29.8108 46.9774 30.6127L46.9185 31.0141C46.7804 31.0131 46.6424 31.0197 46.505 31.0339C46.3078 31.0742 46.1041 31.0691 45.9093 31.0189C45.7144 30.9687 45.5336 30.8748 45.3804 30.7442C45.3644 30.7266 45.3514 30.7136 45.3353 30.6976L45.0754 30.8673C44.8346 30.9875 44.5684 31.0482 44.2993 31.0442C44.0302 31.0402 43.766 30.9717 43.5288 30.8444C43.3477 30.707 43.2092 30.5212 43.1293 30.3083C43.0495 30.0955 43.0316 29.8644 43.0778 29.6418C43.1542 29.0387 43.5059 28.7634 44.408 28.6113L45.0418 28.5349L45.0181 28.3239C44.9875 28.2474 44.9248 28.2367 44.7061 28.2581C44.4311 28.2881 44.158 28.3335 43.8881 28.3942L43.6374 28.4531L43.5357 28.476L43.4142 28.5051C43.2658 27.7605 43.3033 27.9462 43.1565 27.2054C43.6412 27.0931 43.5388 27.1145 43.9027 27.0525C44.0418 27.0235 44.1488 27.0074 44.2872 26.9891V26.9929Z" fill="black"/>
<path fill-rule="evenodd" clip-rule="evenodd" d="M48.3303 25.6894H49.0987C49.0987 27.9064 49.0987 27.3506 49.0987 29.5661C49.0968 29.5917 49.1002 29.6175 49.1086 29.6418C49.1171 29.6661 49.1304 29.6885 49.1478 29.7075C49.1652 29.7265 49.1863 29.7417 49.2098 29.7522C49.2333 29.7627 49.2587 29.7683 49.2844 29.7687C49.3246 29.7751 49.3654 29.7769 49.406 29.774L49.273 31.0461L48.432 31.0385C47.7967 30.9834 47.4634 30.7006 47.3962 30.1601C47.3506 29.4523 47.3452 28.7425 47.3801 28.0341V25.6894H48.3303Z" fill="black"/>
<path fill-rule="evenodd" clip-rule="evenodd" d="M51.863 28.3101C51.8176 28.2779 51.7651 28.257 51.7099 28.2491C51.6547 28.2413 51.5984 28.2467 51.5458 28.2651C51.4418 28.2995 51.4028 28.3522 51.3707 28.4944C51.351 28.5556 51.3468 28.6207 51.3585 28.684H51.9487C51.9487 28.6251 51.9487 28.6397 51.9487 28.5816C51.9525 28.4317 51.9341 28.3744 51.863 28.3101ZM53.2536 27.4776C53.526 27.901 53.6248 28.4129 53.5296 28.9072L53.5013 29.2298C53.4912 29.2992 53.4858 29.3692 53.4853 29.4393H51.3715L51.4181 29.5792C51.4846 29.7757 51.665 29.8758 51.9425 29.8713C52.3272 29.8402 52.7099 29.7891 53.0893 29.7183L53.204 29.6954L53.3438 30.8177L52.6436 30.9629C52.2457 31.034 51.8408 31.0581 51.4373 31.0348C50.9854 31.0212 50.5526 30.8498 50.2141 30.5501C50.0104 30.3442 49.8534 30.097 49.7534 29.8252C49.6534 29.5533 49.6129 29.2633 49.6346 28.9745C49.6067 28.4874 49.7456 28.0053 50.0283 27.6076C50.235 27.3629 50.4987 27.1728 50.7961 27.0539C51.0934 26.935 51.4155 26.891 51.7339 26.9257C52.0129 26.8898 52.2964 26.9211 52.5607 27.0171C52.8251 27.1132 53.0627 27.2711 53.2536 27.4776Z" fill="black"/>
<path fill-rule="evenodd" clip-rule="evenodd" d="M68.1789 11.2415L64.9681 17.3382H61.0693L66.3258 6.98941C66.4022 6.84416 66.3977 6.84798 66.3816 6.8304C66.3655 6.81281 66.4535 6.73713 65.718 7.3319L63.0462 9.49614L60.5012 11.5602L59.6511 7.22871C59.5227 6.56973 59.5365 6.62552 59.4983 6.61711C59.4753 6.61711 59.486 6.59953 59.4218 6.71955L54.0322 17.3389H49.9805L52.8564 11.814C53.4596 10.6574 54.1018 9.42275 54.7049 8.26457L58.4945 0.982901H62.4399L63.1991 5.95202C63.206 5.99636 63.2128 6.02847 63.2205 6.06823L66.5177 3.47817L69.6245 1.03719C69.6355 1.02686 69.6453 1.01531 69.6536 1.00278C69.675 0.979079 69.3279 0.981384 72.0793 0.981384H73.5922L68.1789 11.2415Z" fill="black"/>
<path fill-rule="evenodd" clip-rule="evenodd" d="M57.76 27.2497C57.7312 27.2195 57.6959 27.1963 57.6568 27.1817C57.5849 27.1526 57.6331 27.1564 57.3166 27.1603V27.2031C57.3166 27.833 57.3166 27.6755 57.3166 28.3039H57.4397C57.7119 28.3078 57.7975 28.2504 57.8387 28.0341C57.9033 27.7713 57.8755 27.4944 57.76 27.2497ZM59.1361 26.2865C59.3231 26.5076 59.4588 26.7674 59.5334 27.0472C59.6079 27.3271 59.6195 27.62 59.5673 27.9049C59.5666 28.3028 59.4088 28.6844 59.1284 28.9668C58.7807 29.2348 58.3501 29.3727 57.9114 29.3566L57.5177 29.3742C57.4213 29.3742 57.4458 29.3742 57.3495 29.3742V30.9597H55.5996V25.853L57.7975 25.8599C58.2789 25.8409 58.7517 25.9919 59.133 26.2865H59.1361Z" fill="black"/>
<path fill-rule="evenodd" clip-rule="evenodd" d="M61.6425 29.4522C61.4368 29.5164 61.3504 29.6257 61.3688 29.7977C61.381 29.9162 61.4337 29.9674 61.5461 29.9697C61.699 29.9735 61.7716 29.9193 61.7946 29.7893L61.7984 29.4331H61.7915C61.741 29.4255 61.6894 29.4321 61.6425 29.4522ZM61.0102 26.9875C61.433 26.9246 61.8612 26.9072 62.2877 26.9355C62.9107 26.9928 63.2165 27.174 63.3648 27.5723C63.4468 27.8201 63.4729 28.0831 63.4413 28.3422L63.4053 29.5967V29.7794C63.4237 29.8604 63.5108 29.9032 63.676 29.9101C63.7164 29.9128 63.757 29.9128 63.7975 29.9101L63.6332 31.0148C63.4963 31.0099 63.3592 31.0163 63.2234 31.0339C63.0332 31.07 62.8375 31.0656 62.6491 31.021C62.4607 30.9763 62.2839 30.8924 62.1302 30.7747C62.1019 30.7495 62.0797 30.725 62.0537 30.6983L61.7839 30.8718C61.5314 30.9994 61.25 31.0589 60.9675 31.0444C60.685 31.03 60.4112 30.942 60.1731 30.7893C60.018 30.646 59.9021 30.4654 59.8365 30.2647C59.771 30.0639 59.7579 29.8498 59.7985 29.6425C59.8681 29.0432 60.2281 28.7641 61.1264 28.6135C61.4643 28.5723 61.3802 28.583 61.7174 28.5371C61.7479 28.5333 61.748 28.5371 61.7464 28.3773C61.7481 28.3552 61.7433 28.3331 61.7325 28.3137C61.7218 28.2942 61.7056 28.2784 61.686 28.268C61.6195 28.2359 61.5377 28.2374 61.2404 28.2749C60.9352 28.318 60.6328 28.3782 60.3344 28.4553L60.2381 28.4767C60.2033 28.4823 60.1691 28.4907 60.1357 28.5019L59.8956 27.2918C59.8887 27.2596 59.8849 27.236 59.8796 27.2C60.0667 27.1485 60.2566 27.1074 60.4483 27.0769C60.6112 27.0464 60.878 27.0058 61.0087 26.989L61.0102 26.9875Z" fill="black"/>
<path fill-rule="evenodd" clip-rule="evenodd" d="M66.6212 26.973C66.7053 26.9676 66.6678 26.9692 66.8895 26.9654L66.8414 28.2382C66.8414 28.2742 66.8414 28.2979 66.8414 28.333C66.07 28.333 66.1832 28.3277 66.0486 28.3636C65.8659 28.4118 65.8192 28.5165 65.8246 28.8597V30.9628H64.0977V27.0235H65.5777L65.6381 27.3079C65.7248 27.2237 65.8268 27.1568 65.9385 27.1106C66.1542 27.0182 66.3866 26.9713 66.6212 26.973Z" fill="black"/>
<path fill-rule="evenodd" clip-rule="evenodd" d="M69.1621 26.3873V26.3835L69.1568 27.0715H69.9151L69.9205 28.1815H69.156V29.8068L69.9205 29.7716L69.8654 30.8541C69.8654 30.8901 69.8654 30.9184 69.8654 30.9558L69.2623 31.0155C69.078 31.0246 69.1239 31.0208 68.945 31.0369C68.5298 31.0988 68.1058 31.0165 67.744 30.8037C67.6341 30.7063 67.5488 30.5843 67.4947 30.4478C67.4407 30.3113 67.4195 30.164 67.4329 30.0178L67.429 28.183H66.9902V27.0692H67.5177C67.5338 26.8972 67.5177 26.9928 67.614 26.4057C67.6179 26.3804 67.6209 26.3643 67.6263 26.3376H69.1705L69.1621 26.3873Z" fill="black"/>
<path fill-rule="evenodd" clip-rule="evenodd" d="M77.5005 8.1164C77.4898 8.10875 77.4822 8.10569 77.4455 8.10569C77.3171 8.10569 77.327 8.10186 77.3018 8.12174C77.2574 8.16073 77.2735 8.15615 77.1909 8.15615C76.2888 8.15233 76.405 8.14928 76.3745 8.17374C76.3332 8.20967 76.3408 8.2043 76.3194 8.20736C76.2277 8.20736 76.243 8.20736 76.2246 8.22036C76.1833 8.25935 76.1833 8.25937 76.1099 8.25937C75.967 8.25937 75.9876 8.25936 75.9723 8.26853C75.9188 8.31517 75.9326 8.30829 75.8753 8.31134C75.766 8.31134 75.7835 8.31133 75.7537 8.32891C75.704 8.36637 75.714 8.36103 75.6926 8.36255C75.6276 8.36255 75.6214 8.36255 75.5962 8.38243C75.5587 8.41301 75.5656 8.40918 75.5442 8.41148C75.4479 8.41683 75.4632 8.41149 75.4426 8.43289C75.4104 8.46347 75.4158 8.46119 75.3906 8.46348C75.3088 8.46348 75.3141 8.46348 75.2889 8.48336C75.2545 8.51394 75.2599 8.5101 75.2446 8.51392C75.1926 8.52462 75.2017 8.5208 75.1819 8.53762C75.1054 8.61407 75.1154 8.60567 75.0962 8.61408C75.0282 8.63548 75.0405 8.63014 75.0198 8.65154C74.9518 8.72111 74.9624 8.71194 74.9433 8.71729C74.8883 8.72952 74.8982 8.72492 74.873 8.74785C74.7905 8.8243 74.8034 8.8136 74.7797 8.8243L74.737 8.84035C74.5772 8.99325 74.5978 8.97109 74.5841 8.97644C74.5183 8.99631 74.5412 8.97645 74.425 9.09647C74.0061 9.51923 74.0596 9.46341 74.0512 9.48328C74.0481 9.49606 74.044 9.5086 74.039 9.52075C73.8777 9.70881 73.8991 9.68358 73.8922 9.70116C73.8853 9.71875 73.8853 9.71721 73.8792 9.74015C73.7263 9.89916 73.7454 9.87622 73.7393 9.90068C73.7271 9.95114 73.7301 9.94351 73.7202 9.95574C73.6881 9.99167 73.6919 9.98632 73.6896 9.99855C73.6736 10.0597 73.6774 10.049 73.659 10.0696C73.5879 10.1461 73.5979 10.1323 73.5925 10.1461L73.5673 10.2088C73.5382 10.2478 73.5421 10.2409 73.539 10.2531C73.5199 10.3212 73.5268 10.3082 73.4909 10.3441C73.4358 10.3991 73.4442 10.3892 73.4358 10.4083C73.4182 10.4633 73.4228 10.4534 73.4052 10.4779C73.3999 10.487 73.4121 10.4618 73.3181 10.6552C73.3121 10.67 73.3041 10.6839 73.2944 10.6965L73.1155 11.065C73.1117 11.1353 73.1155 11.1246 73.1032 11.1414C73.0658 11.1896 73.0658 11.1911 73.0635 11.2324C73.0635 11.2928 73.0635 11.2829 73.0543 11.2966C73.0115 11.3471 73.0184 11.3356 73.0131 11.3792C73.0077 11.4511 73.0092 11.4419 73 11.4557C72.9603 11.4985 72.9641 11.4916 72.9611 11.5413C72.9611 11.6491 72.9611 11.6322 72.945 11.6643C72.906 11.7255 72.9114 11.714 72.9106 11.7408C72.9106 11.8692 72.9106 11.8516 72.8961 11.87C72.8571 11.9143 72.8617 11.9044 72.8617 11.9464C72.8579 12.1345 72.8617 12.1055 72.8273 12.1536C72.8074 12.1819 72.8097 12.1307 72.8097 12.5076C72.8097 13.5327 72.8097 13.402 72.8227 13.4249C72.8624 13.4716 72.8625 13.4716 72.8617 13.5412C72.8569 13.5776 72.8587 13.6147 72.867 13.6505C72.8739 13.6795 72.8617 13.6543 72.9511 13.824C72.9657 13.863 72.9618 13.8523 72.9779 13.892C72.9891 13.9016 72.9983 13.9133 73.005 13.9264C73.0117 13.9395 73.0157 13.9538 73.0169 13.9685C73.0684 14.0425 73.1319 14.1074 73.2049 14.1604L73.2653 14.1818C73.3066 14.2154 73.2997 14.2101 73.312 14.2139C73.3639 14.2284 73.3563 14.2261 73.367 14.2338C73.4114 14.2712 73.4068 14.2697 73.4526 14.2697C73.5115 14.2659 73.5023 14.2659 73.5176 14.2773C73.5726 14.3278 73.5551 14.3217 73.643 14.3225C74.2545 14.3225 74.1712 14.3278 74.2072 14.301C74.25 14.262 74.2431 14.2674 74.2576 14.2674C74.3341 14.2674 74.3341 14.2674 74.3509 14.2567C74.4151 14.2047 74.4029 14.2101 74.4273 14.2124C74.4831 14.2192 74.4739 14.2192 74.4954 14.2055C74.5657 14.1636 74.6385 14.1258 74.7133 14.0923L74.9089 13.9975C75.1383 13.785 75.1077 13.8133 75.1253 13.8056L75.1681 13.7896C75.3325 13.6367 75.3095 13.6574 75.3256 13.6535C75.3844 13.6405 75.3753 13.6444 75.3967 13.6229C75.5985 13.4265 75.5702 13.4525 75.5916 13.4441C75.6558 13.4242 75.6413 13.4318 75.6849 13.3852C75.8439 13.2323 75.8187 13.2491 75.8661 13.2369C75.8944 13.23 75.8011 13.321 76.519 12.5962C76.7521 12.36 76.7269 12.3883 76.7353 12.3669L76.7529 12.3271C76.9012 12.1658 76.8813 12.188 76.889 12.1697L76.9066 12.12C77.0656 11.948 77.0457 11.9671 77.0495 11.9571C77.0655 11.8967 77.0617 11.9067 77.0763 11.8906C77.1856 11.7798 77.1978 11.7653 77.2055 11.7423C77.2246 11.685 77.2192 11.6942 77.236 11.6766C77.3071 11.6063 77.2964 11.6192 77.3079 11.5887C77.3308 11.5275 77.3255 11.5367 77.3415 11.5206C77.3935 11.4709 77.3859 11.4809 77.3973 11.4564C77.4998 11.2469 77.4852 11.2752 77.5028 11.2577C77.5586 11.2026 77.551 11.2125 77.5586 11.1934C77.5869 11.117 77.5801 11.1323 77.6015 11.1078L77.6573 11.0451C77.6703 11.0092 77.668 11.0184 77.681 10.9824C77.7131 10.9411 77.7077 10.948 77.7115 10.9396L77.7352 10.8754C77.7674 10.8311 77.762 10.8395 77.7673 10.8257C77.7888 10.763 77.7834 10.7737 77.8017 10.7493C77.8782 10.6728 77.8675 10.6812 77.8713 10.6652C77.8843 10.6116 77.882 10.6201 77.8904 10.6101C77.921 10.5765 77.9172 10.5818 77.921 10.5673C77.9355 10.5138 77.9348 10.5222 77.9371 10.5169L77.973 10.4664C77.989 10.4037 77.9837 10.416 78.0089 10.39C78.0854 10.3043 78.0785 10.3181 78.0808 10.2929C78.0846 10.2164 78.0808 10.2286 78.0953 10.2072C78.1089 10.1902 78.1202 10.1714 78.129 10.1514L78.1526 10.0903C78.187 10.0505 78.1832 10.0582 78.1848 10.0314C78.1848 9.89917 78.1848 9.91827 78.1955 9.89763C78.2383 9.83876 78.2314 9.85329 78.2352 9.79901C78.2352 9.54673 78.2352 9.55592 78.2513 9.53069C78.2887 9.48559 78.2849 9.49323 78.2849 9.45424C78.2849 9.03225 78.2849 9.08042 78.2757 9.0636C78.2344 9.01161 78.2398 9.02232 78.236 8.98103C78.2283 8.90994 78.2306 8.92064 78.2214 8.90458C78.1855 8.85795 78.1909 8.86483 78.1878 8.84878C78.1748 8.7471 78.1787 8.76314 78.1649 8.74174C78.1313 8.6974 78.1358 8.70581 78.1343 8.68288C78.1289 8.60643 78.1343 8.61101 78.1022 8.57738C78.0357 8.50552 78.0464 8.52004 78.0303 8.48105C77.999 8.41916 77.9521 8.36649 77.8943 8.32817C77.8392 8.31746 77.8423 8.31899 77.8178 8.29224C77.762 8.2349 77.7712 8.24254 77.7567 8.23489L77.6802 8.19896C77.6267 8.16303 77.6351 8.16838 77.6198 8.16838C77.5288 8.15385 77.5441 8.15921 77.5005 8.1164ZM79.8559 5.03783C79.9588 5.05626 80.0627 5.06825 80.167 5.07376C80.5014 5.10189 80.8274 5.19294 81.128 5.3421C81.4512 5.54618 81.7296 5.81364 81.9466 6.12833C82.1635 6.44301 82.3144 6.79839 82.3902 7.17302C82.4479 7.38451 82.4709 7.60398 82.4582 7.82284C82.4461 8.03429 82.4131 8.24402 82.3596 8.44895C82.1799 9.1033 81.8828 9.71954 81.4827 10.2676C80.8719 11.2586 80.1677 12.1889 79.3796 13.0458C78.1195 14.3822 76.6611 15.5167 75.0557 16.4095C74.2731 16.8676 73.4077 17.1669 72.5093 17.2902C72.416 17.3077 72.4381 17.3031 72.3449 17.3184C72.0735 17.3486 71.7995 17.3473 71.5284 17.3146C71.3709 17.2863 71.4099 17.2932 71.2524 17.2642C70.8872 17.2159 70.5409 17.0735 70.2472 16.8511C69.9536 16.6286 69.7228 16.3336 69.5775 15.9951C69.3722 15.5205 69.2452 15.0158 69.2013 14.5006L69.1624 14.1497C69.1431 13.8244 69.1516 13.4981 69.1876 13.1742L69.2166 12.8875C69.2403 12.6582 69.3168 12.2232 69.3779 11.9571C69.6472 10.8498 70.1314 9.80616 70.8029 8.88547C71.5845 7.67765 72.6703 6.69684 73.9511 6.04161C74.9061 5.56773 75.9385 5.26942 76.999 5.16092L77.8239 5.08447L78.1374 5.06613L78.3965 5.03401C78.8804 5.00697 79.3655 5.00927 79.849 5.04089L79.8559 5.03783Z" fill="black"/>
<path fill-rule="evenodd" clip-rule="evenodd" d="M71.835 26.9233C72.1935 26.9308 72.5511 26.9625 72.9053 27.0181C73.0582 27.0418 73.0016 27.0311 73.2876 27.0877C73.257 27.2406 73.2807 27.0716 73.1232 28.239C73.1193 28.2696 73.1163 28.291 73.114 28.3231L71.7517 28.1205C71.6875 28.1205 71.6653 28.1457 71.6706 28.2061C71.676 28.2665 71.6936 28.2688 71.9665 28.3636C72.4142 28.4707 72.8201 28.708 73.1331 29.0455C73.2272 29.1783 73.2934 29.3288 73.3279 29.4879C73.3623 29.647 73.3642 29.8114 73.3334 29.9713C73.3214 30.1393 73.2701 30.3022 73.1836 30.4468C73.0972 30.5914 72.9781 30.7136 72.8357 30.8038C72.3755 31.0324 71.8546 31.1089 71.348 31.0224C71.1363 31.0049 71.189 31.0095 70.9757 30.9903C70.6768 30.9506 70.4528 30.9139 70.3382 30.8864C70.2984 30.8757 70.2954 30.8741 70.2556 30.865L70.3634 29.6563L71.228 29.8406C71.4228 29.8982 71.6279 29.9128 71.8289 29.8834C71.8755 29.8543 71.8702 29.7954 71.8144 29.7526C71.7823 29.7289 71.832 29.7488 71.4688 29.615C71.0008 29.4908 70.5819 29.2268 70.2678 28.8582C70.1151 28.5956 70.0571 28.2885 70.1035 27.9882C70.161 27.6758 70.331 27.3952 70.5813 27.1996C70.8316 27.0039 71.1449 26.9067 71.462 26.9264C71.5862 26.9191 71.7107 26.9181 71.835 26.9233Z" fill="black"/>
<path fill-rule="evenodd" clip-rule="evenodd" d="M77.1726 25.7729H77.1764C77.6656 25.7869 78.1534 25.8334 78.6365 25.912L78.7894 25.9357L78.6014 27.3783L77.7605 27.2392C77.1489 27.1367 76.9195 27.1726 76.9088 27.3699C76.9088 27.4662 76.9409 27.4899 77.2215 27.5993C77.6808 27.7418 78.111 27.9649 78.492 28.2582C78.6834 28.4478 78.8216 28.6842 78.893 28.944C78.9644 29.2037 78.9664 29.4775 78.8988 29.7382C78.8665 29.9544 78.7856 30.1604 78.6622 30.3407C78.5387 30.5211 78.376 30.6711 78.1863 30.7795C77.6857 31.0256 77.1216 31.1124 76.5702 31.0279C76.3213 31.0156 76.0734 30.9883 75.8278 30.9461C75.6237 30.9117 75.7101 30.9285 75.2163 30.823L75.3347 29.4301L75.8286 29.5433C76.199 29.6605 76.5873 29.7107 76.9753 29.6916C76.9982 29.6874 77.0199 29.6781 77.0389 29.6645C77.0578 29.6509 77.0735 29.6332 77.0848 29.6129C77.0961 29.5925 77.1028 29.5699 77.1044 29.5466C77.1059 29.5234 77.1023 29.5 77.0938 29.4783C77.0594 29.3782 76.9967 29.3445 76.3905 29.0961C76.0856 28.9899 75.8028 28.8285 75.5565 28.6198C75.3436 28.4221 75.1897 28.1693 75.1119 27.8893C75.0342 27.6094 75.0357 27.3134 75.1161 27.0343C75.1957 26.6752 75.3971 26.3547 75.6861 26.1273C75.9751 25.8999 76.3339 25.7795 76.7016 25.7866C76.8581 25.7711 77.0155 25.7665 77.1726 25.7729Z" fill="black"/>
<path fill-rule="evenodd" clip-rule="evenodd" d="M81.2124 28.1397C81.186 28.1324 81.1585 28.1301 81.1313 28.1327C80.9287 28.161 80.8936 28.2581 80.8882 28.8208C80.8806 29.544 80.9043 29.7833 80.9907 29.862C81.0372 29.8983 81.0945 29.9181 81.1535 29.9181C81.2125 29.9181 81.2698 29.8983 81.3163 29.862C81.3928 29.7909 81.4043 29.7022 81.4188 29.1143L81.4081 28.6473C81.4004 28.2505 81.3699 28.1786 81.2124 28.1397ZM81.2934 26.9264C81.654 26.8796 82.0197 26.9567 82.3308 27.1449C82.6419 27.333 82.8799 27.6212 83.0059 27.9623C83.0995 28.2636 83.1477 28.5771 83.1488 28.8927C83.1626 29.283 83.1075 29.6727 82.986 30.0439C82.7391 30.7083 82.1932 31.0217 81.2476 31.0431C80.6975 31.0934 80.1478 30.9421 79.701 30.6173C79.4704 30.3652 79.3009 30.0634 79.2056 29.7353C79.1103 29.4072 79.0917 29.0616 79.1514 28.7252C79.1412 28.2448 79.3102 27.7777 79.6253 27.4149C79.8548 27.2231 80.1213 27.0806 80.4084 26.9966C80.6954 26.9125 80.9967 26.8886 81.2934 26.9264Z" fill="black"/>
<path fill-rule="evenodd" clip-rule="evenodd" d="M91.216 2.44164C90.5088 3.86969 90.6861 3.51192 89.979 4.93996C89.9645 5.00953 89.963 5.00799 90.1954 5.00799H92.4323L90.6372 8.36253H88.2635L87.5281 9.83874C86.8171 11.2683 86.9929 10.909 86.282 12.3378C85.6964 13.5694 85.6406 13.7322 85.6926 14.0701C85.7377 14.3713 86.0167 14.5533 86.4945 14.5946C86.9914 14.5985 87.4869 14.5433 87.9707 14.4302L88.0816 14.3996C88.0878 14.3972 88.0945 14.3963 88.1012 14.397C88.1079 14.3977 88.1143 14.3999 88.1199 14.4036C88.1255 14.4073 88.1302 14.4122 88.1335 14.418C88.1368 14.4239 88.1386 14.4304 88.1389 14.4371L86.8607 17.0111L86.6596 17.0539C86.0805 17.1714 85.4921 17.2374 84.9014 17.2511L84.672 17.2588C84.3651 17.2576 84.0587 17.2362 83.7546 17.1946C83.519 17.168 83.2863 17.1193 83.0597 17.0493C82.7125 16.9731 82.3937 16.8005 82.1402 16.5512C81.8866 16.302 81.7085 15.9863 81.6263 15.6404C81.534 15.0668 81.5865 14.4792 81.7792 13.931C81.9538 13.3905 82.1772 12.8669 82.4466 12.3669L84.4258 8.36253H83.1805L84.974 5.00648H86.107C86.8638 3.50886 86.6742 3.88269 87.4295 2.38583C87.4777 2.3522 87.4562 2.35756 87.5747 2.34151L91.5378 1.78802L91.216 2.44164Z" fill="black"/>
<path fill-rule="evenodd" clip-rule="evenodd" d="M85.7178 28.8307V27.0189H87.4616C87.4578 29.2619 87.4616 28.7008 87.4562 30.9437L85.8019 30.9384C85.7889 30.9277 85.7896 30.9475 85.7911 30.7969C85.7911 30.7595 85.7843 30.745 85.7682 30.7411C85.7522 30.7373 85.7843 30.7236 85.5466 30.8466C85.2022 31.0176 84.8139 31.0795 84.4335 31.024C84.1885 31.0162 83.9563 30.9124 83.7872 30.7348C83.6182 30.5573 83.5257 30.3204 83.5299 30.0753C83.5169 29.9224 83.5176 30.1472 83.5176 28.5104V27.0197H85.2759L85.2812 29.6594C85.2958 29.7252 85.3623 29.7489 85.4732 29.7274L85.7094 29.651H85.7147L85.7178 28.8307Z" fill="black"/>
<path fill-rule="evenodd" clip-rule="evenodd" d="M90.5679 26.9691C90.6559 26.9612 90.7442 26.9582 90.8325 26.96L90.7721 28.3292C90.029 28.3292 90.1383 28.3223 90.0076 28.3544C89.7943 28.4079 89.753 28.5073 89.7553 28.956C89.7622 30.1027 89.7622 29.8138 89.7622 30.9574H88.0391V27.0196H89.5375C89.5431 27.1177 89.5582 27.215 89.5825 27.3101C89.6476 27.2404 89.7255 27.1838 89.8119 27.1434C90.0451 27.0222 90.3052 26.9622 90.5679 26.9691Z" fill="black"/>
<path fill-rule="evenodd" clip-rule="evenodd" d="M98.0368 8.124C98.0078 8.09724 98.0078 8.09877 97.942 8.10107C97.845 8.10107 97.8595 8.10105 97.8434 8.11175C97.8297 8.12345 97.8149 8.1337 97.7991 8.14234C96.793 8.15457 96.9207 8.14999 96.9046 8.16604C96.871 8.19815 96.8779 8.19432 96.8618 8.19814L96.7525 8.21802C96.6921 8.2593 96.7043 8.25396 96.6699 8.25549C96.5002 8.25549 96.5247 8.25548 96.5002 8.26771C96.4345 8.309 96.4467 8.30364 96.4146 8.3067C96.2854 8.3067 96.3038 8.30671 96.2854 8.32123C96.2457 8.35716 96.2533 8.35179 96.2281 8.35485C96.1516 8.3602 96.1516 8.36021 96.1279 8.37627C96.0828 8.40991 96.0905 8.40456 96.0691 8.40685C95.9972 8.41068 96.0087 8.40685 95.9926 8.41985C95.9162 8.46419 95.9314 8.45884 95.9162 8.4596C95.8451 8.4596 95.8573 8.45959 95.8397 8.47029C95.8218 8.48567 95.8014 8.49785 95.7793 8.50624C95.7566 8.51288 95.7353 8.52377 95.7166 8.53834C95.6402 8.60791 95.6463 8.60256 95.618 8.6148C95.566 8.63238 95.5737 8.62778 95.5592 8.64307C95.4911 8.71264 95.5041 8.70194 95.4643 8.71952C95.4085 8.73787 95.4162 8.73405 95.404 8.74628C95.3275 8.82273 95.3375 8.8128 95.3176 8.82274C95.2572 8.84108 95.2671 8.83726 95.2519 8.85178C95.1494 8.9504 95.1249 8.9718 95.0989 8.98021C95.0508 8.99627 95.0599 8.99092 95.0362 9.01386C94.524 9.52071 94.5875 9.45418 94.5776 9.47941C94.5669 9.52069 94.5814 9.49929 94.4721 9.62237C94.4186 9.67207 94.4277 9.65983 94.4147 9.71028C94.3885 9.75354 94.3566 9.79312 94.3199 9.82801L94.2855 9.85859C94.2465 9.93504 94.2565 9.9144 94.219 9.99085C94.2099 10.0239 94.1934 10.0545 94.1709 10.0803C94.1174 10.1353 94.1265 10.1216 94.1066 10.1766L94.0187 10.3379C93.9652 10.3884 93.9736 10.3807 93.9667 10.3953L93.8857 10.5688C93.8513 10.6131 93.8551 10.6063 93.852 10.617C93.8398 10.6674 93.8429 10.6613 93.8345 10.672C93.8024 10.7117 93.8062 10.7056 93.8024 10.7202C93.7894 10.7706 93.7917 10.763 93.7825 10.7752C93.7488 10.8165 93.7542 10.8096 93.7489 10.8218C93.7344 10.8769 93.7366 10.8669 93.7275 10.8807C93.7007 10.9166 93.7045 10.9113 93.7007 10.9197L93.6778 10.9839C93.6418 11.0229 93.6472 11.0145 93.6441 11.0397C93.6403 11.1345 93.6441 11.1223 93.6265 11.1383C93.5868 11.1796 93.5868 11.1812 93.5868 11.2148C93.5906 11.2805 93.5921 11.2706 93.5692 11.3027C93.5302 11.3493 93.5341 11.3402 93.5341 11.3631C93.5341 11.4449 93.5379 11.4327 93.5287 11.4449C93.4737 11.5091 93.4806 11.4953 93.4821 11.5366C93.4913 11.6444 93.4912 11.6284 93.4767 11.6498C93.4263 11.714 93.4285 11.7071 93.4301 11.7484C93.4377 11.8554 93.4377 11.8401 93.4301 11.8554C93.3796 11.9196 93.3819 11.9112 93.3819 11.977C93.3819 12.1299 93.3819 12.1092 93.3689 12.1238C93.3299 12.165 93.3345 12.1558 93.3299 12.2239C93.3299 13.473 93.3261 13.3981 93.3498 13.4249C93.3888 13.4624 93.3834 13.4539 93.3834 13.4807C93.3796 13.6542 93.3796 13.6558 93.401 13.681C93.4347 13.7169 93.4293 13.71 93.4347 13.7276C93.4469 13.7743 93.4438 13.7666 93.4546 13.7811C93.4762 13.8059 93.4917 13.8356 93.4996 13.8675L93.5447 13.9593C93.5961 14.031 93.6577 14.0949 93.7275 14.1489C93.7649 14.1634 93.7558 14.1596 93.7932 14.1726C93.8376 14.2085 93.8291 14.2031 93.8452 14.2085C93.8918 14.2207 93.8849 14.2177 93.8949 14.2245C93.9453 14.2605 93.9361 14.2567 93.9575 14.2589C94.0439 14.2666 94.0294 14.2643 94.0524 14.2773C94.112 14.3186 94.0967 14.3132 94.1709 14.3117C94.7595 14.317 94.683 14.3186 94.7098 14.3025C94.7817 14.2559 94.7702 14.2628 94.7977 14.2597C94.8589 14.2597 94.8497 14.2597 94.8673 14.249C94.9208 14.2115 94.9101 14.2169 94.9438 14.2115C95.037 14.1993 95.0202 14.2024 95.0385 14.1917C95.0745 14.1596 95.0691 14.1634 95.0798 14.1611C95.1356 14.145 95.128 14.1481 95.1356 14.1427C95.1807 14.1083 95.1746 14.1137 95.1823 14.1106C95.2396 14.0961 95.2304 14.0984 95.2427 14.0892C95.2816 14.0571 95.2748 14.0625 95.2908 14.0556C95.3466 14.038 95.339 14.0411 95.3459 14.0372L95.3979 14.0028C95.4552 13.9868 95.446 13.9906 95.4628 13.9746C95.6509 13.785 95.6226 13.8102 95.6563 13.7995C95.6899 13.7888 95.6685 13.8071 95.8321 13.6619L95.9085 13.6275C96.1248 13.4203 96.0943 13.4471 96.1233 13.4409C96.1524 13.4348 96.131 13.4532 96.3099 13.2835C96.3619 13.2284 96.3527 13.2368 96.3741 13.2315C96.4291 13.2223 96.4024 13.2437 96.5622 13.0832C96.8136 12.862 97.0487 12.6229 97.2655 12.3676C97.2709 12.3389 97.2845 12.3124 97.3045 12.2912C97.3501 12.2486 97.3908 12.2012 97.426 12.1497C97.4301 12.135 97.4355 12.1207 97.4421 12.1069C97.585 11.954 97.5659 11.9762 97.5728 11.9617C97.5965 11.8906 97.5911 11.9028 97.6102 11.8852C97.7379 11.7568 97.7211 11.7744 97.728 11.7599C97.7532 11.6834 97.7463 11.6995 97.7723 11.6742C97.8366 11.6085 97.8274 11.6184 97.832 11.6024C97.8496 11.5412 97.8442 11.5504 97.884 11.5091C97.9398 11.4533 97.9321 11.4625 97.9374 11.4434C97.9504 11.3937 97.9497 11.4021 97.9535 11.3937C97.9696 11.3684 97.9657 11.3753 97.9825 11.3493C97.9911 11.3123 98.0102 11.2786 98.0376 11.2522C98.0934 11.1949 98.0858 11.2041 98.0911 11.188C98.1102 11.1231 98.1087 11.1253 98.1469 11.0909C98.1904 11.0387 98.2248 10.9795 98.2486 10.9159C98.2616 10.8731 98.2593 10.8799 98.2669 10.8677L98.3029 10.8157C98.3151 10.7599 98.3105 10.7691 98.3311 10.7492C98.4076 10.6728 98.3977 10.685 98.4076 10.6628C98.4206 10.6147 98.4168 10.6215 98.4275 10.6093C98.4558 10.5757 98.4512 10.5826 98.4565 10.565C98.4695 10.5115 98.4672 10.5206 98.4779 10.5061C98.5062 10.4717 98.5017 10.4771 98.507 10.4618C98.5284 10.3953 98.523 10.406 98.5414 10.3853C98.627 10.2974 98.6178 10.3142 98.6178 10.2668C98.6178 10.2003 98.6179 10.2095 98.6286 10.1973C98.6568 10.1651 98.6522 10.172 98.6591 10.1529C98.6736 10.1048 98.6713 10.1116 98.679 10.0994C98.7203 10.0405 98.7203 10.0405 98.7187 9.99696C98.7119 9.89834 98.7111 9.90369 98.7317 9.88381C98.7784 9.841 98.7745 9.86776 98.7715 9.62389C98.7677 9.53215 98.7677 9.54746 98.7791 9.53064C98.7972 9.51422 98.8108 9.49344 98.8186 9.47029C98.8263 9.44713 98.828 9.42238 98.8235 9.39838C98.8235 9.06354 98.8235 9.07653 98.8051 9.0513C98.7677 9.0062 98.7715 9.01386 98.7707 8.99398C98.7707 8.90071 98.7707 8.91752 98.7585 8.90071C98.7088 8.8449 98.7149 8.85561 98.7157 8.82885C98.721 8.76616 98.7195 8.7608 98.6973 8.73558C98.6614 8.69659 98.6667 8.70347 98.6637 8.68054C98.6637 8.58957 98.6637 8.60409 98.6454 8.58192C98.5689 8.50548 98.5789 8.51616 98.5689 8.49017C98.5423 8.41567 98.4873 8.3547 98.416 8.32046C98.348 8.29218 98.3587 8.29752 98.3395 8.283C98.2807 8.22413 98.2899 8.23332 98.2677 8.22262C98.2493 8.21552 98.2314 8.20707 98.2142 8.19737C98.1607 8.16679 98.1591 8.16528 98.1316 8.16299C98.0582 8.15075 98.0758 8.15611 98.0368 8.124ZM100.369 5.03627C100.48 5.0564 100.593 5.06942 100.706 5.07525C101.018 5.10389 101.322 5.18558 101.605 5.31681C102.006 5.53979 102.337 5.8692 102.563 6.26861C102.831 6.70573 102.975 7.2081 102.978 7.72111C102.959 8.42454 102.744 9.10874 102.356 9.69577C101.89 10.5014 101.369 11.2741 100.797 12.0083C99.9384 13.0992 98.9454 14.0776 97.8419 14.9202C97.1058 15.4877 96.3279 15.9988 95.5148 16.4492C94.7525 16.8853 93.9134 17.1708 93.0432 17.2901C92.9918 17.2967 92.9407 17.3061 92.8903 17.3184C92.6133 17.3518 92.3333 17.3518 92.0563 17.3184C91.9808 17.3002 91.9042 17.2869 91.827 17.2786C91.5033 17.2379 91.1928 17.1257 90.9179 16.9501C90.643 16.7745 90.4106 16.5399 90.2376 16.2634C89.9457 15.7114 89.7715 15.1049 89.7262 14.4822L89.6956 14.2697C89.6697 13.9311 89.672 13.591 89.7025 13.2529C89.724 13.1497 89.736 13.0448 89.7384 12.9394C89.7476 12.7965 89.8294 12.3095 89.8867 12.0557C90.0919 11.119 90.4629 10.2266 90.9822 9.42055C91.7354 8.14559 92.7785 7.06623 94.0271 6.27012C94.6791 5.9326 95.3609 5.65596 96.0637 5.44373C96.5432 5.2984 97.0372 5.2061 97.5368 5.1685L98.5093 5.07525C98.6375 5.07218 98.7652 5.05965 98.8915 5.03778C99.3836 5.00582 99.8771 5.00532 100.369 5.03627H100.369Z" fill="black"/>
<path fill-rule="evenodd" clip-rule="evenodd" d="M94.0053 27.074C94.0776 27.0934 94.1486 27.1174 94.2178 27.1458L94.055 28.3361C94.0496 28.3751 94.0458 28.4126 94.0428 28.4485C93.9347 28.4026 93.8233 28.3651 93.7095 28.3361C93.1881 28.1771 93.013 28.1771 92.9037 28.3361C92.7892 28.6473 92.7548 28.9822 92.8036 29.3101C92.8372 29.7412 92.9465 29.833 93.3723 29.7848L93.9579 29.6916H93.9725L94.1406 30.7473C94.1445 30.7769 94.1498 30.8062 94.1567 30.8352L93.6574 30.9568C93.3137 31.0405 92.958 31.0636 92.6063 31.0248C92.2781 31.0103 91.9627 30.8932 91.7046 30.6899C91.4465 30.4867 91.2586 30.2075 91.1676 29.8918C91.0629 29.5307 91.0258 29.1534 91.0582 28.7788C91.0668 28.4926 91.1345 28.2114 91.2571 27.9527C91.3797 27.694 91.5546 27.4635 91.7707 27.2758C92.0316 27.1032 92.3255 26.9869 92.6337 26.9343C92.942 26.8816 93.2578 26.8938 93.5611 26.97C93.7111 26.996 93.8594 27.0307 94.0053 27.074Z" fill="black"/>
<path fill-rule="evenodd" clip-rule="evenodd" d="M96.5793 28.3039C96.5314 28.2718 96.4765 28.2517 96.4192 28.2452C96.3618 28.2387 96.3038 28.246 96.2499 28.2665C96.2092 28.2813 96.1735 28.3071 96.1465 28.3409C96.1195 28.3748 96.1024 28.4154 96.097 28.4584C96.0747 28.5306 96.0646 28.606 96.0672 28.6816H96.665V28.5799C96.6711 28.424 96.6535 28.3704 96.5793 28.3039ZM97.9738 27.4729C98.2029 27.809 98.306 28.215 98.265 28.6197C98.2638 28.7561 98.2556 28.8923 98.2406 29.0279L98.2207 29.2534L98.197 29.4346H96.11C96.1088 29.4986 96.1249 29.5617 96.1566 29.6173C96.2052 29.7057 96.2796 29.7771 96.3699 29.822C96.4603 29.8668 96.5622 29.8829 96.6619 29.8681C96.8148 29.8681 97.4922 29.7763 97.8178 29.7151L97.9287 29.6938L98.0594 30.7227C98.0632 30.7533 98.067 30.7801 98.0724 30.8107L97.4608 30.9429C97.0259 31.0274 96.5821 31.0569 96.1398 31.0308C95.8615 31.0254 95.5881 30.9561 95.3408 30.8283C95.0935 30.7006 94.8788 30.5177 94.7133 30.2939C94.3701 29.7286 94.2604 29.0519 94.4075 28.4071C94.4535 28.0845 94.5922 27.7822 94.8067 27.537C95.0213 27.2918 95.3025 27.1141 95.6161 27.0257C96.0017 26.9227 96.4031 26.8932 96.7995 26.9386C97.0226 26.9371 97.2433 26.9844 97.4462 27.0772C97.649 27.1701 97.8291 27.3062 97.9738 27.476V27.4729Z" fill="black"/>
<path fill-rule="evenodd" clip-rule="evenodd" d="M114.271 5.02181C114.004 5.48233 113.769 5.96018 113.566 6.45215C113.482 6.62798 112.861 7.91306 112.777 8.08812C112.73 8.17001 112.691 8.2563 112.661 8.34576L112.381 8.23109C111.801 8.02135 111.171 7.99124 110.573 8.1447C109.766 8.36894 109.032 8.80009 108.443 9.3954C107.927 9.88987 107.483 10.4536 107.122 11.0704C106.657 11.8459 106.235 12.6468 105.859 13.4693L103.953 17.3391L99.7641 17.3353C99.7412 17.3261 99.7404 17.3009 99.7603 17.2688C100.238 16.3468 100.118 16.5807 100.596 15.6565L102.348 12.279C102.543 11.9044 104.057 8.90537 104.245 8.52237C104.525 7.95512 104.997 6.96663 105.103 6.72735C105.375 6.11577 105.309 6.26868 105.577 5.64945L105.849 5.02792C105.857 5.01186 105.855 5.0157 105.862 4.99964L109.834 4.98511L109.444 6.00568C109.433 6.03397 109.44 6.05614 109.458 6.06149C109.477 6.06684 109.351 6.12725 110.376 5.65557C111.075 5.33525 110.9 5.41551 111.599 5.09366C111.769 5.0111 111.655 5.02181 112.397 5.02181H114.271Z" fill="black"/>
<path fill-rule="evenodd" clip-rule="evenodd" d="M103.081 28.1611V29.4913H100.252V28.1611H103.081Z" fill="black"/>
<path fill-rule="evenodd" clip-rule="evenodd" d="M121.582 5.01336H121.588H121.6C121.476 5.32869 121.37 5.6508 121.283 5.97812C120.871 7.26016 120.977 6.94059 120.563 8.22416C120.263 8.17347 119.96 8.1441 119.656 8.13625C118.378 8.07738 117.634 8.37247 117.571 8.95959C117.566 9.48977 117.64 10.0177 117.791 10.526C117.925 10.9942 118.111 11.4458 118.346 11.8723C118.441 12.0412 118.49 12.2315 118.489 12.425C118.477 12.8699 118.388 13.3095 118.228 13.7246C118.063 14.2144 117.773 14.6527 117.387 14.9967L116.606 15.6786C116.078 16.1262 115.485 16.4923 114.848 16.7649C114.213 17.0276 113.544 17.1983 112.86 17.2718L112.685 17.2848L112.456 17.3153C111.607 17.3696 110.756 17.3757 109.907 17.3337H109.365L110.343 14.1833C110.574 14.171 110.806 14.171 111.037 14.1833L113.742 14.2177C113.858 14.1768 113.966 14.1132 114.058 14.0305C114.15 13.9478 114.224 13.8478 114.277 13.7361C114.371 13.4623 114.399 13.1702 114.359 12.8834C114.319 12.5967 114.213 12.3234 114.048 12.0856C113.903 11.8081 113.94 11.8776 113.795 11.5986C113.493 10.9415 113.375 10.2144 113.455 9.4955C113.515 8.85907 113.764 8.25526 114.172 7.76243C114.727 7.05159 115.402 6.44332 116.167 5.96513C116.919 5.51237 117.751 5.20918 118.618 5.07222L118.824 5.04012C118.956 5.00113 118.853 5.00647 119.54 5.00647L121.582 5.01336Z" fill="black"/>
<path fill-rule="evenodd" clip-rule="evenodd" d="M128.301 8.2701C128.288 8.25796 128.278 8.24339 128.272 8.22728C128.246 8.15084 128.252 8.16078 128.232 8.1562C128.214 8.15472 128.197 8.14977 128.181 8.14166L128.105 8.09734L127.952 8.02088C127.905 7.98725 128.043 7.99182 126.984 7.99258C125.572 7.99258 125.751 7.98878 125.734 8.0377C125.714 8.09886 125.719 8.08816 125.701 8.10727C125.56 8.24641 125.578 8.22499 125.574 8.25404C125.568 8.35266 125.571 8.33966 125.562 8.34883L125.526 8.39547C125.514 8.44363 125.517 8.43523 125.508 8.44899C125.476 8.49409 125.481 8.48645 125.477 8.49868C125.459 8.5629 125.464 8.5522 125.443 8.57514C125.367 8.65158 125.373 8.63935 125.367 8.68292C125.363 8.75478 125.367 8.74256 125.352 8.75937C125.324 8.7953 125.328 8.78842 125.323 8.80447C125.3 8.86869 125.303 8.86334 125.273 8.89392C125.213 8.95431 125.221 8.9436 125.216 8.96195C125.209 9.0017 125.211 8.9956 125.204 9.00707L125.168 9.05905C125.145 9.12479 125.144 9.12861 125.109 9.16072C125.057 9.20582 125.055 9.21118 125.075 9.23717C125.096 9.26317 125.09 9.25475 125.094 9.2731V9.25705C125.094 9.26928 125.088 9.27463 125.058 9.27998C125.027 9.28534 125.006 9.30368 125.02 9.33196C125.049 9.38165 125.049 9.37324 125.033 9.38777C124.957 9.46422 124.965 9.45428 124.957 9.47416C124.939 9.54067 124.944 9.53455 124.918 9.53685C124.867 9.54373 124.85 9.55672 124.848 9.59188C124.848 9.67751 124.848 9.66833 124.84 9.67751C124.809 9.71496 124.813 9.70656 124.806 9.7272C124.802 9.74511 124.795 9.76218 124.785 9.77766C124.754 9.82582 124.758 9.81741 124.753 9.83347C124.738 9.88163 124.74 9.87323 124.733 9.88699C124.71 9.92139 124.717 9.91373 124.694 9.94813C124.679 10.0032 124.683 9.99323 124.667 10.0093C124.591 10.0857 124.601 10.0704 124.595 10.0918C124.578 10.1507 124.581 10.1416 124.574 10.1507C124.542 10.1867 124.546 10.1798 124.543 10.1935C124.533 10.2486 124.535 10.2402 124.526 10.2493C124.497 10.2815 124.502 10.2746 124.495 10.2922C124.477 10.3495 124.481 10.3403 124.468 10.3586C124.432 10.4091 124.436 10.3999 124.436 10.4229C124.436 10.4894 124.436 10.4993 124.407 10.5307C124.331 10.6025 124.341 10.5911 124.338 10.6071C124.323 10.6629 124.325 10.6553 124.318 10.6622C124.286 10.6981 124.29 10.6912 124.288 10.705C124.285 10.7385 124.27 10.7698 124.245 10.7929C124.169 10.8693 124.18 10.8571 124.179 10.8915C124.179 10.9573 124.184 10.945 124.159 10.9779L124.077 11.1308C124.052 11.1988 124.057 11.1881 124.041 11.2072C123.965 11.2837 123.973 11.2714 123.971 11.2982C123.971 11.3861 123.971 11.3747 123.959 11.3892C123.929 11.4213 123.934 11.4159 123.927 11.432C123.911 11.487 123.914 11.4786 123.906 11.4893C123.874 11.5306 123.877 11.5237 123.874 11.539C123.868 11.5674 123.855 11.5939 123.836 11.6155L123.702 11.8914C123.666 11.9434 123.672 11.9358 123.666 11.9518C123.645 12.0145 123.649 12.0069 123.642 12.0145C123.61 12.0535 123.614 12.0466 123.61 12.0612C123.597 12.1185 123.601 12.1078 123.578 12.1322C123.508 12.2003 123.518 12.1896 123.513 12.2087C123.502 12.2569 123.505 12.25 123.494 12.2637C123.461 12.3027 123.465 12.2943 123.459 12.3241C123.361 12.526 123.383 12.477 123.286 12.6766L123.101 13.0328C123.078 13.1009 123.082 13.0902 123.067 13.1093C122.991 13.1903 123.001 13.1773 122.991 13.201C122.971 13.2614 122.973 13.253 122.968 13.2599C122.934 13.2988 122.939 13.2904 122.937 13.3103C122.93 13.4089 122.937 13.3921 122.904 13.4288L122.836 13.5649C122.816 13.6207 122.82 13.6115 122.806 13.6291C122.729 13.7109 122.736 13.6987 122.729 13.717C122.721 13.7614 122.722 13.7545 122.717 13.7636L122.682 13.8087C122.658 13.8852 122.666 13.8699 122.626 13.9058C122.571 13.9563 122.578 13.9448 122.575 13.9922C122.575 14.0687 122.575 14.0534 122.56 14.0733C122.51 14.1306 122.511 14.1291 122.521 14.1627C122.539 14.2124 122.399 14.207 123.51 14.1986C123.883 14.1986 123.834 14.1986 123.85 14.1879C123.886 14.1662 123.924 14.1477 123.963 14.1329C123.975 14.126 123.987 14.1184 123.999 14.11L124.064 14.0809C124.135 14.0396 124.123 14.045 124.152 14.0434C124.272 14.0434 124.254 14.0435 124.275 14.0289C124.316 13.9984 124.307 14.0037 124.335 13.9945C124.354 13.9892 124.373 13.9812 124.39 13.9708C124.444 13.94 124.501 13.9144 124.56 13.8944C124.625 13.8944 124.615 13.8944 124.636 13.8799C124.671 13.8516 124.664 13.8562 124.68 13.8508C124.734 13.8363 124.725 13.8401 124.739 13.8294C124.773 13.8011 124.767 13.8057 124.776 13.8011L124.841 13.7774C124.88 13.7507 124.873 13.7545 124.885 13.7491C124.957 13.7208 124.946 13.7262 124.961 13.7147C125.038 13.6429 125.023 13.6536 125.055 13.6383C125.112 13.6169 125.103 13.6207 125.119 13.6077C125.182 13.545 125.171 13.5542 125.195 13.545C125.212 13.5384 125.228 13.5307 125.244 13.5221C125.284 13.4938 125.278 13.4984 125.291 13.4938C125.354 13.4724 125.35 13.4754 125.376 13.4494C125.438 13.389 125.427 13.399 125.453 13.3891C125.503 13.3707 125.496 13.3745 125.51 13.3608C125.725 13.1589 125.691 13.1872 125.743 13.1689L126.536 12.3922C126.899 12.0359 126.863 12.0719 126.869 12.052C126.871 12.0318 126.877 12.0122 126.887 11.9947C126.897 11.9771 126.911 11.962 126.928 11.9503C127.092 11.7898 127.071 11.8127 127.076 11.7974C127.078 11.7815 127.081 11.7658 127.087 11.7508C127.355 11.4733 127.32 11.5123 127.331 11.484C127.334 11.4705 127.338 11.4575 127.344 11.445C127.538 11.2393 127.534 11.2432 127.543 11.221C127.552 11.1988 127.548 11.2026 127.557 11.1766C127.763 10.9565 127.736 10.9871 127.745 10.9618C127.758 10.9228 127.74 10.9488 127.879 10.7898L127.919 10.7134C127.932 10.6983 127.942 10.6813 127.95 10.6629C127.964 10.6216 127.962 10.6285 127.964 10.6216C128.124 10.4412 128.104 10.4688 128.11 10.4466C128.123 10.3969 128.12 10.4053 128.129 10.3915C128.16 10.3518 128.155 10.3579 128.16 10.3434C128.165 10.3118 128.179 10.2825 128.201 10.2593L128.287 10.0819C128.32 10.0322 128.317 10.0406 128.317 10.0261C128.317 9.93819 128.313 9.94967 128.333 9.9298C128.37 9.89387 128.376 9.88314 128.372 9.84798C128.365 9.80134 128.365 9.80364 128.379 9.78529C128.411 9.74783 128.409 9.74936 128.418 9.72948L128.443 9.6668C128.475 9.62781 128.47 9.63622 128.47 9.6171C128.47 9.52613 128.47 9.54067 128.483 9.52385C128.528 9.47416 128.528 9.47569 128.527 9.4474C128.522 9.38854 128.522 9.39159 128.543 9.36101C128.584 9.30902 128.579 9.32127 128.579 9.27693C128.579 9.16761 128.571 9.18749 128.616 9.13244C128.626 9.11173 128.631 9.08915 128.631 9.0663C128.631 9.04346 128.626 9.0209 128.616 9.00019C128.582 8.96426 128.582 8.96425 128.602 8.94284C128.636 8.91073 128.643 8.8748 128.622 8.84957C128.575 8.79376 128.58 8.80448 128.579 8.77314C128.579 8.64088 128.579 8.65998 128.563 8.63857C128.529 8.59958 128.535 8.60646 128.529 8.58888C128.513 8.53154 128.517 8.54226 128.497 8.51933C128.421 8.44288 128.432 8.45357 128.425 8.4314C128.406 8.37406 128.422 8.397 128.301 8.2701ZM131.841 5.95755C132.1 6.1354 132.317 6.36689 132.478 6.63627C132.639 6.90564 132.741 7.20658 132.775 7.51861C132.785 8.37488 132.515 9.21094 132.005 9.89921C131.548 10.5787 131.052 11.2313 130.52 11.854C129.928 12.5667 129.287 13.236 128.6 13.8569C127.85 14.5363 127.022 15.1233 126.133 15.6053C124.836 16.266 123.462 16.7657 122.043 17.093L121.118 17.3223C121.064 17.3491 121.135 17.229 120.621 18.1632L119.672 19.8871L118.813 21.4528L115.275 21.517C115.382 21.2614 115.508 21.0139 115.65 20.7762L117.642 16.9385C118.228 15.8125 118.081 16.0976 118.667 14.9662L119.711 12.9564L120.749 10.9549C121.267 9.96112 121.137 10.2081 121.655 9.20964C122.076 8.40235 121.97 8.60341 122.389 7.79535L123.594 5.4721C123.667 5.31495 123.749 5.16186 123.839 5.01343C126.989 5.01343 126.201 5.01342 129.35 5.01877L129.511 5.05624L129.674 5.08528C130.359 5.20505 131.016 5.44746 131.615 5.80084C131.701 5.85588 131.76 5.89792 131.842 5.95755H131.841Z" fill="black"/>
<path fill-rule="evenodd" clip-rule="evenodd" d="M120.737 20.2462L147.024 20.8333C147.56 20.8456 147.427 20.841 147.964 20.8654C149.357 20.9266 149.009 20.9105 150.402 20.9778C150.833 20.9992 150.725 20.9924 151.156 21.0222L165.235 21.951L165.319 21.9686L165.367 21.9739C165.37 21.9739 165.37 21.9739 165.354 21.9992L165.37 21.9739C165.271 21.9908 165.171 21.9969 165.071 21.9923L153.73 21.7209C147.371 21.568 148.96 21.6024 142.6 21.4915L133.594 21.3387C132.074 21.3134 132.454 21.3173 130.934 21.3066C128.782 21.2905 129.321 21.2943 127.169 21.2836L120.346 21.253L120.684 20.2416L120.737 20.2462Z" fill="black"/>
<path fill-rule="evenodd" clip-rule="evenodd" d="M134.592 28.4607L134.673 30.6356C134.671 30.744 134.677 30.8523 134.691 30.9598H133.107V28.5593C133.106 28.5566 133.104 28.5543 133.101 28.5525C133.099 28.5507 133.096 28.5494 133.093 28.5487C133.09 28.5479 133.087 28.5478 133.084 28.5483C133.081 28.5489 133.078 28.55 133.075 28.5516C133.066 28.5555 133.064 28.5624 133.059 28.5945L132.6 30.8673C132.594 30.9017 132.59 30.9246 132.586 30.9621H131.115C130.866 29.7022 130.928 30.0172 130.679 28.7565C130.652 28.6205 130.653 28.6281 130.648 28.5899C130.643 28.5516 130.634 28.5417 130.614 28.5433C130.594 28.5448 130.591 28.4767 130.591 29.034V30.9621H129.041C129.07 30.076 129.064 30.2977 129.097 29.4101L129.165 27.5807C129.202 26.5946 129.193 26.8415 129.233 25.8553H131.444L131.826 28.0784C131.847 28.1732 131.842 28.161 131.866 28.1656C131.926 28.1587 131.916 28.1732 131.932 28.0585C132.139 26.8002 132.085 27.1152 132.295 25.8553H134.499L134.592 28.4607Z" fill="black"/>
<path fill-rule="evenodd" clip-rule="evenodd" d="M140.16 8.11494C140.099 8.09486 140.032 8.09486 139.971 8.11494C139.921 8.15775 139.936 8.15088 139.864 8.1547C138.946 8.14935 139.063 8.14782 139.037 8.16769C138.995 8.20515 139.004 8.20132 138.977 8.20208C138.891 8.2059 138.901 8.20209 138.889 8.21662C138.845 8.2556 138.842 8.25637 138.776 8.2556C138.629 8.2556 138.649 8.2556 138.636 8.26248C138.579 8.31447 138.592 8.30759 138.549 8.30912C138.426 8.30912 138.443 8.30528 138.427 8.31675C138.375 8.36109 138.386 8.35422 138.351 8.35804C138.279 8.35804 138.29 8.35804 138.274 8.37027C138.228 8.40467 138.228 8.4062 138.19 8.41002C138.122 8.41002 138.132 8.41002 138.119 8.41919C138.067 8.462 138.075 8.45819 138.03 8.46049C137.969 8.46049 137.978 8.46048 137.962 8.47348C137.932 8.50024 137.938 8.4964 137.923 8.50176C137.846 8.52851 137.858 8.52316 137.83 8.54839C137.778 8.6042 137.787 8.59655 137.769 8.60343C137.687 8.63401 137.701 8.62713 137.674 8.65389C137.624 8.70741 137.632 8.70053 137.617 8.70741C137.536 8.73646 137.547 8.73034 137.525 8.75251C137.464 8.81367 137.475 8.80449 137.449 8.8152C137.402 8.83278 137.409 8.82973 137.402 8.83356C137.242 8.98187 137.263 8.96197 137.245 8.96962C137.174 8.99332 137.18 8.9895 137.138 9.03613C136.661 9.5124 136.723 9.44973 136.71 9.47954C136.693 9.52465 136.71 9.50475 136.609 9.61866C136.57 9.65459 136.566 9.65842 136.558 9.67906L136.541 9.72721L136.401 9.89388C136.376 9.9598 136.344 10.0224 136.304 10.0804C136.249 10.1355 136.257 10.1255 136.25 10.1446C136.232 10.1997 136.236 10.1913 136.227 10.202C136.195 10.2432 136.199 10.2364 136.194 10.2501C136.175 10.3128 136.181 10.3052 136.149 10.3358C136.087 10.4 136.094 10.3908 136.09 10.4023L136.076 10.4527L136.038 10.5116C136.026 10.5559 136.028 10.549 136.021 10.5597L135.985 10.6171C135.981 10.6344 135.975 10.6513 135.967 10.6675L135.931 10.7249C135.919 10.773 135.922 10.7646 135.911 10.7784C135.879 10.8128 135.885 10.8074 135.881 10.8212C135.87 10.8709 135.873 10.8625 135.863 10.8762C135.833 10.9122 135.836 10.9068 135.833 10.9191C135.815 10.9802 135.819 10.971 135.813 10.9794C135.777 11.0169 135.781 11.0085 135.778 11.0406C135.773 11.1247 135.775 11.1125 135.768 11.1232C135.725 11.1767 135.732 11.1645 135.728 11.1996C135.72 11.2814 135.721 11.2707 135.714 11.2761C135.678 11.3204 135.682 11.312 135.68 11.3311C135.665 11.4404 135.668 11.4259 135.658 11.4389C135.621 11.4886 135.626 11.4786 135.625 11.5031C135.625 11.6285 135.625 11.6101 135.607 11.6377C135.568 11.6965 135.574 11.6858 135.573 11.7141C135.573 11.8265 135.573 11.8089 135.56 11.8357C135.517 11.9121 135.522 11.8984 135.521 11.9373C135.521 12.1025 135.521 12.0803 135.505 12.1025C135.46 12.156 135.465 12.1438 135.465 12.2508C135.46 13.4556 135.458 13.3654 135.476 13.3929C135.529 13.4694 135.522 13.4541 135.524 13.5007C135.524 13.662 135.524 13.6391 135.538 13.6605C135.564 13.6964 135.56 13.6895 135.566 13.7056C135.582 13.7591 135.577 13.7499 135.591 13.7683C135.622 13.8214 135.65 13.8763 135.675 13.9326C135.725 14.021 135.798 14.094 135.887 14.1436C135.936 14.1629 135.984 14.1856 136.03 14.2116C136.101 14.2506 136.09 14.2461 136.106 14.2453C136.168 14.2453 136.158 14.2415 136.183 14.2583C136.238 14.3026 136.22 14.2957 136.297 14.2973C136.811 14.3026 136.849 14.2973 136.872 14.2721C136.896 14.2468 136.894 14.2438 136.918 14.243C137.003 14.243 136.994 14.243 137.007 14.2338C137.073 14.1834 137.06 14.1895 137.083 14.191C137.122 14.191 137.115 14.191 137.125 14.191L137.489 14.0068L137.573 13.9693C137.783 13.7667 137.754 13.7935 137.779 13.7851C137.794 13.7809 137.808 13.7756 137.822 13.769C138.001 13.61 137.975 13.6314 137.992 13.6261L138.04 13.6077C138.245 13.4113 138.222 13.4319 138.239 13.4265C138.285 13.4105 138.271 13.4189 138.335 13.3608C138.514 13.198 138.488 13.2209 138.535 13.2079C138.655 13.1091 138.767 13.0013 138.87 12.8853C139.465 12.2913 139.391 12.37 139.4 12.341C139.409 12.3119 139.409 12.3074 139.416 12.2966C139.561 12.1438 139.543 12.1659 139.55 12.1437C139.566 12.0918 139.566 12.0902 139.589 12.0673C139.712 11.9419 139.696 11.9595 139.701 11.9457C139.71 11.9167 139.708 11.9243 139.717 11.896C139.87 11.7317 139.849 11.7546 139.855 11.7432C139.873 11.6858 139.872 11.6874 139.9 11.6575C139.968 11.5857 139.959 11.5964 139.962 11.5811C139.982 11.5169 139.98 11.526 139.991 11.513L140.044 11.4572L140.121 11.3143C140.139 11.2554 140.135 11.2646 140.154 11.2447C140.23 11.1683 140.218 11.182 140.222 11.1683C140.238 11.1056 140.234 11.1163 140.252 11.0964C140.324 11.0245 140.313 11.0352 140.32 11.02C140.338 10.9641 140.335 10.9718 140.343 10.9611C140.372 10.9252 140.368 10.932 140.372 10.9183C140.388 10.8663 140.385 10.8739 140.391 10.8648C140.423 10.8166 140.419 10.825 140.423 10.8143C140.444 10.7486 140.44 10.7585 140.467 10.7287C140.527 10.6629 140.519 10.6737 140.526 10.6523C140.543 10.6041 140.54 10.611 140.547 10.6002C140.57 10.5761 140.585 10.5462 140.592 10.5139L140.668 10.3671C140.744 10.2906 140.735 10.2991 140.736 10.2761C140.738 10.2532 140.736 10.2524 140.736 10.2188L140.808 10.0705C140.848 10.0078 140.842 10.02 140.844 9.9879C140.844 9.86635 140.844 9.88241 140.855 9.86941C140.894 9.82813 140.891 9.83579 140.894 9.76928C140.894 9.49024 140.894 9.52769 140.905 9.5101C140.946 9.46347 140.941 9.47647 140.945 9.41149C140.945 9.04607 140.949 9.07283 140.932 9.04607C140.893 8.99256 140.898 9.00325 140.894 8.96962C140.887 8.89317 140.889 8.9054 140.881 8.89316C140.842 8.84347 140.848 8.85342 140.844 8.82131C140.835 8.73339 140.837 8.74485 140.829 8.73492C140.783 8.6814 140.79 8.69212 140.787 8.65849C140.787 8.58204 140.79 8.59732 140.757 8.56216C140.697 8.501 140.707 8.5117 140.695 8.4857C140.667 8.41076 140.613 8.34884 140.542 8.31218C140.479 8.28848 140.488 8.29382 140.474 8.27853C140.407 8.2105 140.42 8.22121 140.384 8.20745C140.326 8.18604 140.334 8.18986 140.327 8.18374C140.291 8.15011 140.298 8.15469 140.28 8.15316C140.187 8.15316 140.204 8.15315 140.179 8.13557C140.173 8.1283 140.167 8.12142 140.16 8.11494ZM142.521 5.03943C142.625 5.05828 142.73 5.07028 142.836 5.07536C143.179 5.10379 143.513 5.19993 143.818 5.35822C144.45 5.76846 144.893 6.41233 145.05 7.14864C145.12 7.40791 145.144 7.67776 145.118 7.94522C145.082 8.21575 145.023 8.48275 144.942 8.74334C144.742 9.296 144.468 9.81905 144.127 10.2983C143.672 11.0368 143.163 11.7414 142.606 12.4067C142.453 12.5825 142.494 12.539 142.343 12.7125L141.915 13.1819C141.536 13.5863 141.134 13.9692 140.712 14.3286C139.851 15.0612 138.925 15.7146 137.946 16.2811C137.165 16.7681 136.298 17.1015 135.392 17.2635C135.252 17.2818 135.288 17.278 135.149 17.2956L135.025 17.3185C134.751 17.352 134.473 17.352 134.199 17.3185C134.119 17.2966 134.038 17.2822 133.956 17.2757C133.43 17.1985 132.947 16.9442 132.585 16.5548C132.305 16.195 132.108 15.7771 132.01 15.3316C131.942 15.0661 131.894 14.7957 131.867 14.5228L131.839 14.2935C131.81 13.94 131.812 13.5848 131.843 13.2316C131.861 13.1286 131.873 13.0243 131.877 12.9197C131.887 12.7836 131.971 12.2737 132.018 12.0681C132.188 11.2763 132.48 10.5156 132.883 9.81284C133.281 9.11071 133.752 8.45267 134.289 7.84966C134.932 7.08526 135.731 6.46613 136.631 6.03325C137.584 5.56264 138.614 5.26843 139.672 5.16481L140.651 5.07308C140.776 5.06978 140.899 5.05777 141.022 5.03715C141.194 5.01421 141.944 5.00656 142.33 5.02261C142.393 5.02468 142.457 5.0303 142.52 5.03943H142.521Z" fill="black"/>
<path fill-rule="evenodd" clip-rule="evenodd" d="M137.595 27.1862C137.553 27.1829 137.511 27.1829 137.469 27.1862C137.104 27.2183 137.017 27.3636 136.989 27.992C136.946 28.4893 136.974 28.9903 137.073 29.4797C137.142 29.6532 137.313 29.7411 137.58 29.7388C137.825 29.7388 137.981 29.657 138.038 29.5095C138.089 29.3555 138.112 29.1937 138.106 29.0317C138.133 28.6046 138.129 28.1761 138.093 27.7496C138.057 27.3483 137.93 27.2053 137.595 27.1862ZM137.742 25.7742C138.15 25.7751 138.553 25.8668 138.921 26.0426C139.201 26.2055 139.435 26.4367 139.601 26.7147C139.767 26.9927 139.859 27.3083 139.87 27.6319C139.928 28.1105 139.928 28.5944 139.87 29.073C139.855 29.391 139.768 29.7014 139.617 29.9814C139.465 30.2614 139.252 30.5038 138.995 30.6906C138.512 30.9429 137.971 31.0639 137.427 31.0414C136.882 31.0188 136.354 30.8536 135.893 30.5622C135.467 30.1476 135.218 29.5835 135.199 28.9888C135.155 28.5731 135.155 28.1539 135.199 27.7382C135.226 27.2245 135.424 26.7346 135.761 26.3461C136.002 26.1382 136.282 25.98 136.585 25.8805C136.887 25.7811 137.206 25.7424 137.524 25.7666C137.603 25.7681 137.661 25.7696 137.742 25.775V25.7742Z" fill="black"/>
<path fill-rule="evenodd" clip-rule="evenodd" d="M142.973 25.8517H144.154C144.097 26.5894 144.111 26.4052 144.054 27.1421C144.052 27.1773 144.052 27.2125 144.054 27.2476H142.947V30.9584H141.171V27.2476H140.006C140.049 26.4495 140.04 26.6498 140.082 25.8517H142.973Z" fill="black"/>
<path fill-rule="evenodd" clip-rule="evenodd" d="M155.94 5.07375C155.744 5.39514 155.576 5.73304 155.439 6.08361L154.868 7.27163C154.558 7.91226 154.638 7.75171 154.329 8.39387V8.40075L154.109 8.30214C153.659 8.13072 153.176 8.06862 152.698 8.12096C152.141 8.17984 151.606 8.36551 151.132 8.66373C150.341 9.158 149.663 9.81434 149.144 10.5895C148.661 11.3004 148.235 12.0487 147.871 12.8271L146.782 15.0441C146.184 16.2596 146.333 15.9553 145.731 17.1701L145.622 17.3903H141.447C141.42 17.3796 141.415 17.3543 141.432 17.3238C141.477 17.2527 141.493 17.2221 141.978 16.2764L145.949 8.51542C146.408 7.54912 146.295 7.79069 146.758 6.82439C147.075 6.10807 146.996 6.28926 147.313 5.56988C147.404 5.35354 147.381 5.40705 147.471 5.18764C147.489 5.1395 147.512 5.09339 147.54 5.05004L151.451 5.03705C151.488 5.04775 151.496 5.06762 151.481 5.12113C151.274 5.65627 151.328 5.52173 151.121 6.05534C151.107 6.08744 151.116 6.11267 151.141 6.1142C151.166 6.11573 151.116 6.1356 151.465 5.97506L153.208 5.17465C153.463 5.05692 153.379 5.07221 153.791 5.07221L155.94 5.07375Z" fill="black"/>
<path fill-rule="evenodd" clip-rule="evenodd" d="M146.664 27.1878H146.672C146.585 27.1738 146.497 27.1803 146.413 27.2069C146.33 27.2334 146.254 27.2793 146.191 27.3407C146.097 27.4607 146.062 27.7007 146.05 28.323C146.057 28.6288 146.055 28.5524 146.064 28.8635C146.078 29.44 146.14 29.6097 146.357 29.6899C146.472 29.7378 146.598 29.7542 146.721 29.7375C146.844 29.7209 146.961 29.6717 147.059 29.5951C147.164 29.3574 147.208 29.0974 147.188 28.8383C147.213 28.4041 147.192 27.9685 147.126 27.5387C147.065 27.3009 146.939 27.2046 146.664 27.1878ZM146.817 25.7758C147.137 25.7828 147.454 25.8389 147.756 25.9424C148.087 26.0657 148.374 26.2837 148.582 26.5693C148.789 26.8548 148.908 27.1952 148.923 27.5479C148.958 27.7975 148.979 28.0489 148.986 28.3009C148.984 28.5489 148.969 28.7967 148.941 29.0432C148.928 29.3548 148.847 29.6598 148.705 29.9375C148.563 30.2151 148.363 30.459 148.118 30.6524C147.698 30.9146 147.212 31.0503 146.717 31.0431C146.225 31.0721 145.734 30.9814 145.285 30.7786C145.007 30.6216 144.772 30.3989 144.6 30.1299C144.428 29.861 144.325 29.5539 144.3 29.2358C144.24 28.8498 144.22 28.4586 144.24 28.0685C144.243 27.5467 144.38 27.0346 144.639 26.5815C144.833 26.3197 145.089 26.1097 145.384 25.9701C145.679 25.8306 146.003 25.7656 146.329 25.7811C146.491 25.766 146.655 25.7639 146.817 25.775L146.817 25.7758Z" fill="black"/>
<path fill-rule="evenodd" clip-rule="evenodd" d="M151.615 27.2833C151.582 27.2537 151.542 27.2326 151.499 27.2222C151.409 27.1985 151.458 27.2008 151.162 27.2038V28.1977C151.241 28.2021 151.319 28.2021 151.397 28.1977C151.608 28.1847 151.693 28.0922 151.714 27.8575C151.758 27.6606 151.722 27.4542 151.615 27.2833ZM153.45 28.2283C153.344 28.4384 153.186 28.6179 152.991 28.7496C152.966 28.7672 152.944 28.7817 152.915 28.7993L153.691 30.9582H151.846C151.552 29.9697 151.626 30.2174 151.334 29.2289C151.325 29.2052 151.273 29.1953 151.221 29.2076C151.192 29.2152 151.195 29.1257 151.195 29.8337V30.9582H149.484V25.8515L151.861 25.8583C152.156 25.8296 152.453 25.8817 152.721 26.0092C152.988 26.1366 153.216 26.3344 153.379 26.5815C153.539 26.8953 153.608 27.2475 153.578 27.5983C153.582 27.815 153.538 28.0299 153.451 28.2283H153.45Z" fill="black"/>
<path fill-rule="evenodd" clip-rule="evenodd" d="M163.372 2.42797L162.74 3.70082C162.378 4.42707 162.469 4.24514 162.11 4.97139C162.106 4.98439 162.103 4.99126 162.099 5.00578H164.567L164.471 5.2099L162.781 8.36032H160.411L158.402 12.4411C157.89 13.4778 157.82 13.6643 157.831 13.9533C157.843 14.3042 158.032 14.4846 158.473 14.5648C159.027 14.6138 159.585 14.5665 160.123 14.4249L160.254 14.3966C160.259 14.3965 160.265 14.3978 160.27 14.4004C160.275 14.403 160.279 14.4068 160.282 14.4115C160.285 14.4162 160.287 14.4215 160.287 14.4271C160.288 14.4327 160.287 14.4382 160.285 14.4433C159.921 15.1703 160.012 14.9891 159.651 15.7162L159.021 16.9905L158.791 17.0532C158.212 17.1689 157.624 17.2329 157.033 17.2443C156.912 17.2482 156.941 17.2443 156.821 17.252C156.517 17.2514 156.214 17.231 155.912 17.1908C155.531 17.1806 155.158 17.0811 154.822 16.9002C154.486 16.7194 154.197 16.4623 153.979 16.1496C153.828 15.8357 153.741 15.4949 153.722 15.147C153.704 14.7991 153.755 14.4511 153.872 14.123C154.021 13.6006 154.223 13.0945 154.473 12.6124C155.06 11.4114 154.912 11.7118 155.506 10.5146L156.576 8.35649H155.341C155.5 8.00204 155.681 7.65764 155.882 7.32521L157.078 5.0876C157.092 5.05454 157.112 5.02366 157.135 4.99584L158.252 5.00121C158.405 4.69542 158.37 4.77187 158.524 4.46072C158.841 3.82926 158.762 3.98674 159.08 3.35604C159.36 2.80256 159.29 2.94094 159.573 2.38822C159.609 2.34388 159.528 2.35993 160.132 2.27507L163.611 1.78656C163.648 1.77204 163.661 1.77358 163.672 1.79575C163.683 1.81792 163.685 1.80263 163.64 1.88749C163.611 1.94635 163.401 2.37064 163.372 2.42797Z" fill="black"/>
<path fill-rule="evenodd" clip-rule="evenodd" d="M155.193 29.7305C155.675 29.7557 155.866 29.9308 155.881 30.3604C155.889 30.4488 155.88 30.5378 155.854 30.6226C155.827 30.7073 155.785 30.786 155.728 30.8543C155.632 30.93 155.521 30.9858 155.403 31.0183C155.285 31.0509 155.162 31.0596 155.04 31.0439C154.471 31.0309 154.256 30.8382 154.262 30.3512C154.267 29.9468 154.47 29.7573 154.926 29.7336C155.015 29.725 155.104 29.724 155.193 29.7305Z" fill="black"/>
<path fill-rule="evenodd" clip-rule="evenodd" d="M160.231 26.1206L159.991 27.4111C159.984 27.4476 159.98 27.4847 159.978 27.5219L159.332 27.3522C158.833 27.2429 158.669 27.2535 158.509 27.4042C158.303 27.596 158.222 28.0716 158.266 28.8108C158.258 28.9479 158.279 29.0851 158.327 29.2137C158.375 29.3424 158.449 29.4597 158.545 29.5584C158.709 29.6869 158.951 29.6877 159.592 29.5638L159.834 29.5088L159.977 29.4797L160.247 30.7969L159.941 30.8734C159.582 30.9653 159.215 31.0221 158.844 31.0431C158.381 31.0771 157.916 30.9934 157.493 30.8C157.188 30.6202 156.935 30.3645 156.759 30.058C156.582 29.7515 156.488 29.4045 156.485 29.0508C156.421 28.5144 156.443 27.971 156.551 27.4416C156.639 26.9138 156.932 26.442 157.366 26.1282C157.704 25.9155 158.093 25.797 158.492 25.785C158.813 25.7561 159.137 25.7713 159.454 25.8301C159.725 25.8811 159.992 25.9558 160.25 26.0533C160.238 26.0755 160.231 26.0954 160.231 26.1206Z" fill="black"/>
<path fill-rule="evenodd" clip-rule="evenodd" d="M172.22 5.01423H172.246C172.106 5.37305 171.986 5.73927 171.887 6.11125L171.212 8.22351L170.795 8.17305C170.475 8.1395 170.154 8.12622 169.834 8.13329C169.484 8.12919 169.136 8.18796 168.806 8.30682C168.635 8.34945 168.484 8.44845 168.376 8.58786C168.268 8.72726 168.21 8.89893 168.212 9.07513C168.259 10.0697 168.532 11.0406 169.01 11.9137C169.112 12.1127 169.155 12.3371 169.132 12.5596C169.079 13.2981 168.827 14.0083 168.402 14.6145C168.233 14.8358 168.034 15.0326 167.811 15.1994C167.275 15.7174 166.673 16.1617 166.02 16.5204C165.302 16.899 164.521 17.1452 163.715 17.2474C163.59 17.268 163.465 17.2817 163.339 17.2887L163.109 17.3193C162.943 17.3407 163.237 17.3376 160.43 17.3376H160.021C160.088 17.0293 160.179 16.7264 160.291 16.4317L160.898 14.4739C160.922 14.3754 160.954 14.279 160.993 14.1857L164.365 14.2247C164.499 14.1853 164.622 14.1154 164.724 14.0204C164.825 13.9253 164.904 13.8079 164.952 13.6773C165.029 13.3882 165.039 13.0856 164.983 12.7919C164.927 12.4981 164.806 12.2207 164.628 11.9802C164.372 11.5418 164.201 11.0592 164.123 10.5575C164.075 10.258 164.062 9.95404 164.083 9.65154C164.103 9.34135 164.165 9.0353 164.267 8.74181C164.428 8.282 164.689 7.86402 165.032 7.51866L165.309 7.20522C165.808 6.66817 166.385 6.21053 167.022 5.84825C167.742 5.44742 168.53 5.18235 169.347 5.06621L169.529 5.02645C170.23 4.97654 170.933 4.97168 171.635 5.01192L172.22 5.01423Z" fill="black"/>
<path fill-rule="evenodd" clip-rule="evenodd" d="M162.769 27.1871H162.774C162.515 27.1711 162.336 27.2429 162.259 27.3951C162.169 27.7073 162.133 28.0325 162.152 28.3568C162.114 28.7553 162.156 29.1572 162.275 29.5394C162.337 29.6144 162.417 29.6717 162.508 29.7057C162.598 29.7397 162.696 29.749 162.792 29.7328C163.111 29.7114 163.219 29.609 163.257 29.2948C163.317 28.7146 163.309 28.1294 163.234 27.551C163.218 27.4421 163.161 27.3433 163.075 27.2754C162.988 27.2076 162.879 27.1759 162.769 27.1871ZM162.922 25.7751C163.354 25.7737 163.779 25.8787 164.16 26.0809C164.433 26.2585 164.657 26.5009 164.812 26.7865C164.968 27.072 165.05 27.3917 165.052 27.7169C165.089 28.0509 165.096 28.3876 165.075 28.723C165.086 29.0632 165.027 29.4021 164.901 29.7185C164.775 30.0349 164.586 30.3219 164.344 30.5615C163.914 30.885 163.388 31.0547 162.851 31.0432C162.346 31.0763 161.842 30.9841 161.382 30.7748C161.111 30.6211 160.882 30.4045 160.714 30.1434C160.545 29.8823 160.442 29.5844 160.413 29.2749C160.348 28.8897 160.325 28.4985 160.345 28.1083C160.355 27.8089 160.397 27.5113 160.47 27.2208C160.555 26.8365 160.762 26.4901 161.06 26.2331C161.528 25.9031 162.093 25.7399 162.665 25.7698C162.752 25.7682 162.834 25.7698 162.922 25.7751Z" fill="black"/>
<path fill-rule="evenodd" clip-rule="evenodd" d="M171.141 28.4629L171.239 30.9582H169.653V28.5439C169.651 28.5405 169.648 28.5379 169.644 28.5366C169.641 28.5353 169.637 28.5355 169.633 28.5371C169.61 28.5447 169.619 28.5172 169.574 28.7343L169.138 30.8787C169.128 30.9238 169.131 30.9131 169.122 30.9551H167.661L167.183 28.5623C167.181 28.5569 167.178 28.5522 167.173 28.5489C167.169 28.5456 167.163 28.5439 167.158 28.5439C167.14 28.5439 167.143 28.4782 167.143 29.0271V30.9551H165.568L165.774 25.8484H167.991L168.378 28.1059C168.385 28.1556 168.391 28.1594 168.447 28.1564C168.467 28.151 168.465 28.1617 168.53 27.7741L168.852 25.8484H171.045C171.1 27.3445 171.087 26.9707 171.141 28.4629Z" fill="black"/>
<path fill-rule="evenodd" clip-rule="evenodd" d="M15.3525 5.02094L11.9513 11.7224C10.0095 15.5448 10.4988 14.5884 8.55547 18.4116L3 18.4704L9.69914 5.02094H15.3525Z" fill="#FF0000"/>
<path fill-rule="evenodd" clip-rule="evenodd" d="M16.6528 0.0686656C18.0794 0.090071 17.7231 0.0847157 19.1496 0.10765L22.3712 0.159629C23.6165 0.181035 23.3053 0.174171 24.5499 0.20475L25.8633 0.238392C26.312 0.219642 26.755 0.343408 27.129 0.591982C27.5029 0.840557 27.7886 1.20117 27.945 1.6221C28.0824 2.0457 28.1252 2.49429 28.0704 2.93623C28.0192 3.63286 27.7899 4.30466 27.4045 4.88719C26.6052 6.00857 25.6905 7.04296 24.6753 7.97338C23.7022 8.72754 22.6194 9.32826 21.4645 9.75463C20.7956 10.052 20.963 9.97785 20.2941 10.2775C20.0563 10.4055 19.862 10.6013 19.7361 10.8402C19.6101 11.079 19.5582 11.3499 19.5869 11.6184C19.5959 12.1227 19.6589 12.6245 19.775 13.1153L19.9072 13.9279C20.2082 15.0861 20.6351 16.2079 21.1801 17.2733L22.3719 19.9138L16.5084 22.6912L15.8135 20.6202C15.0023 18.2006 15.1208 18.5691 14.9794 18.0446C14.6304 16.6015 14.3631 15.1398 14.179 13.6665L14.1308 13.3209C14.1201 13.194 14.1255 13.2445 14.0934 13.0006C14.072 12.8309 14.0414 12.2759 14.0345 11.9089C14.0222 11.4665 14.0334 11.0238 14.0681 10.5825C14.088 10.2102 14.0827 10.289 14.1079 10.0344L14.1262 9.86088C14.1316 9.80737 14.1301 9.82113 14.1354 9.76915C14.3201 9.65076 14.5118 9.54378 14.7095 9.44882C15.286 9.14685 15.2447 9.16598 16.2897 8.66295C17.413 8.09826 18.4652 7.40202 19.4241 6.58891C19.95 6.15927 20.6304 5.55611 20.7719 5.3948C21.1426 4.97434 21.1855 4.63033 20.9041 4.34059C20.4274 3.98182 19.8487 3.7842 19.2521 3.7764L18.1054 3.76723C14.9282 3.74353 15.7217 3.74887 12.5445 3.73282C10.7434 3.72364 11.1945 3.72518 9.39258 3.72059L12.7395 0.0174561L14.4397 0.0373333C15.4954 0.049565 15.2309 0.0449613 16.2851 0.0678957L16.6528 0.0686656Z" fill="#FF0000"/>
<path fill-rule="evenodd" clip-rule="evenodd" d="M44.7517 0.0167075L42.8512 3.71679L36.6329 3.72978C35.6918 3.72978 35.12 4.02487 34.977 4.57683C34.9052 4.90683 34.956 5.2517 35.12 5.54694L37.6183 10.1292C38.0001 10.8775 38.0868 11.7419 37.8614 12.5511C37.5125 13.627 36.8897 14.5937 36.0542 15.356C35.3975 15.9795 34.6078 16.4458 33.7447 16.7198C33.3482 16.8715 32.9346 16.9742 32.5131 17.0256L23.1605 17.0218L22.0352 14.1022L25.1267 14.0503C25.6978 14.0411 25.5548 14.0434 26.1274 14.0288L29.1242 13.9524C29.5001 13.9619 29.8762 13.947 30.2503 13.9081C30.5444 13.9145 30.8366 13.8585 31.1076 13.7437C31.3785 13.6289 31.622 13.458 31.822 13.2422C31.9469 13.0168 32.0003 12.7587 31.975 12.5023C31.9497 12.2459 31.8471 12.0032 31.6806 11.8065C31.5843 11.6536 31.6844 11.8424 30.9773 10.4564C30.2793 9.09109 29.6846 7.83962 29.563 7.48184C29.0546 5.99951 29.4521 4.2672 30.6799 2.61134C30.9724 2.19006 31.3446 1.83012 31.7754 1.55178C32.9247 0.848914 34.2091 0.395709 35.545 0.221592C35.8455 0.169608 35.7278 0.185643 36.3592 0.106902C36.6459 0.070971 36.5886 0.0763334 36.746 0.0656307L37.048 0.0281626C37.5884 -0.0047357 38.1302 -0.00881199 38.671 0.0159376L44.7517 0.0167075Z" fill="#FF0000"/>
<path fill-rule="evenodd" clip-rule="evenodd" d="M51.7755 0.0770214H51.8099L42.8968 17.1249H38.0684L46.6191 0.0724487H51.7556L51.7755 0.0770214Z" fill="#FF0000"/>
<path fill-rule="evenodd" clip-rule="evenodd" d="M111.476 25.2301C110.547 27.0572 110.779 26.5993 109.852 28.4264L108.438 31.2076L108.23 31.6173L105.594 31.631C106.511 29.7871 106.282 30.2474 107.205 28.4027L108.586 25.6337C108.701 25.4044 108.673 25.4602 108.786 25.2278L111.476 25.2301Z" fill="#FF0000"/>
<path fill-rule="evenodd" clip-rule="evenodd" d="M112.1 22.8639C112.764 22.8639 112.538 22.8586 113.687 22.8891C114.333 22.896 114.171 22.893 114.816 22.9052C115.81 22.9235 115.559 22.9182 116.55 22.9426C116.778 22.9376 117.001 23.0107 117.182 23.1498C117.363 23.2888 117.49 23.4855 117.544 23.7071C117.607 24.023 117.588 24.3499 117.487 24.6558C117.352 25.03 117.14 25.3721 116.866 25.6604C116.532 26.0694 116.158 26.4445 115.751 26.7803C115.261 27.0959 114.74 27.3605 114.196 27.57C113.784 27.7505 113.755 27.7673 113.65 27.8957C113.507 28.0708 113.48 28.3238 113.555 28.794C113.584 29.1311 113.648 29.4642 113.747 29.7878C113.892 30.2288 114.065 30.6599 114.266 31.0782L114.784 32.2074L114.842 32.3327L112.05 33.6553L111.404 31.7227C111.21 31.0269 111.067 30.3183 110.974 29.602C110.891 29.1225 110.856 28.636 110.869 28.1495L110.887 27.9064C110.892 27.8078 110.891 27.83 110.896 27.7344L110.925 27.4913C111.11 27.379 111.301 27.2769 111.497 27.1855L112.224 26.8239C112.862 26.452 113.455 26.0088 113.993 25.5029C114.24 25.2761 114.304 25.0847 114.187 24.9288C114.024 24.7638 113.806 24.6645 113.575 24.6497C113.363 24.6078 113.147 24.5964 112.932 24.6161C111.174 24.6016 111.613 24.6039 109.856 24.5909C109.186 24.5855 109.354 24.587 108.685 24.584C108.679 24.584 108.678 24.5786 108.678 24.5748L110.242 22.8425C110.426 22.8356 110.318 22.8356 111.017 22.8425L111.769 22.8517C111.937 22.8593 111.986 22.8639 112.1 22.8639Z" fill="#FF0000"/>
<path fill-rule="evenodd" clip-rule="evenodd" d="M125.151 22.8325C125.335 22.8325 125.28 22.8325 125.533 22.8325L124.627 24.5908C124.192 24.5648 123.757 24.5625 123.322 24.5839L121.548 24.5893C121.144 24.6107 120.892 24.7804 120.853 25.0564C120.83 25.2427 120.88 25.4306 120.993 25.5808C121.461 26.4325 122.123 27.6549 122.163 27.7428C122.245 27.9327 122.292 28.1361 122.301 28.3429C122.301 28.613 122.242 28.8798 122.129 29.1249C121.918 29.5926 121.596 30.0016 121.191 30.3163C120.786 30.6311 120.311 30.842 119.805 30.9307C119.159 30.9773 118.51 30.9813 117.864 30.9429H115.243H115.225L114.725 29.6616C114.712 29.6241 114.704 29.5989 114.693 29.563L115.527 29.5554C115.735 29.5431 115.622 29.5446 116.322 29.5408L118.072 29.5018C118.377 29.5173 118.684 29.4835 118.979 29.4017C119.383 29.2733 119.527 29.0149 119.394 28.6533C119.358 28.5547 119.31 28.461 119.25 28.3742C119.114 28.1342 118.519 26.9347 118.366 26.5915C118.208 26.2582 118.151 25.8864 118.201 25.5212C118.288 24.9366 118.539 24.3886 118.924 23.9403C119.586 23.3182 120.447 22.9521 121.354 22.9074C121.938 22.831 121.48 22.8363 124.557 22.8363L125.151 22.8325Z" fill="#FF0000"/>
<path fill-rule="evenodd" clip-rule="evenodd" d="M128.881 22.8624H128.928C128.707 23.2267 128.506 23.6032 128.327 23.99L125.145 30.076C124.87 30.6005 124.939 30.4697 124.667 30.9934H122.369L124.763 26.2253C125.244 25.2674 125.124 25.5075 125.604 24.5481C126.083 23.5886 125.967 23.8249 126.451 22.8616L128.881 22.8624Z" fill="#FF0000"/>
</svg>
