<svg width="673" height="418" viewBox="0 0 673 418" fill="none" xmlns="http://www.w3.org/2000/svg">
<path d="M524.031 23.3524C376.156 -24.6335 301.729 10.6214 254.723 55.6695C207.716 100.717 192.047 130.097 138.185 135.972C84.3236 141.848 34.379 151.641 8.91712 217.255C-16.5448 282.868 15.7723 334.771 64.7375 367.088C64.9138 367.206 65.09 367.314 65.2761 367.431L577.159 358.167C616.703 348.54 656.198 337.748 662.123 245.655C662.113 245.655 671.906 71.3383 524.031 23.3524Z" fill="#F8F9FB"/>
<path opacity="0.7" d="M524.031 23.3524C376.156 -24.6335 301.729 10.6214 254.723 55.6695C207.716 100.717 192.047 130.097 138.185 135.972C84.3236 141.848 34.379 151.641 8.91712 217.255C-16.5448 282.868 15.7723 334.771 64.7375 367.088C64.9138 367.206 65.09 367.314 65.2761 367.431L577.159 358.167C616.703 348.54 656.198 337.748 662.123 245.655C662.113 245.655 671.906 71.3383 524.031 23.3524Z" fill="#F8F9FB"/>
<path d="M585.787 389.247H657.56" stroke="#18313A" stroke-miterlimit="10" stroke-linecap="round" stroke-linejoin="round"/>
<path d="M35.4175 389.247H78.5852" stroke="#18313A" stroke-miterlimit="10" stroke-linecap="round" stroke-linejoin="round"/>
<path opacity="0.2" d="M199.147 172.014H149.849V191.972H199.147V172.014Z" fill="#18313A"/>
<path opacity="0.2" d="M369.527 117.171H320.229V137.129H369.527V117.171Z" fill="#18313A"/>
<path opacity="0.2" d="M522.299 117.171H473V137.129H522.299V117.171Z" fill="#18313A"/>
<path opacity="0.2" d="M610.436 154.387H561.138V174.345H610.436V154.387Z" fill="#18313A"/>
<path opacity="0.1" d="M342.528 144.759H293.229V164.717H342.528V144.759Z" fill="#18313A"/>
<path opacity="0.2" d="M256.976 117.171H207.678V137.129H256.976V117.171Z" fill="#18313A"/>
<path opacity="0.1" d="M229.976 144.759H180.678V164.717H229.976V144.759Z" fill="#18313A"/>
<path opacity="0.1" d="M286.326 144.759H237.027V164.717H286.326V144.759Z" fill="#18313A"/>
<path opacity="0.2" d="M141.75 190.441H92.4521V210.4H141.75V190.441Z" fill="#18313A"/>
<path opacity="0.1" d="M117.434 144.757H68.1362V164.715H117.434V144.757Z" fill="#18313A"/>
<path opacity="0.1" d="M173.784 144.757H124.485V164.715H173.784V144.757Z" fill="#18313A"/>
<path opacity="0.2" d="M369.527 4.55469H320.229V24.5129H369.527V4.55469Z" fill="#18313A"/>
<path opacity="0.1" d="M342.528 32.1426H293.229V52.1008H342.528V32.1426Z" fill="#18313A"/>
<path opacity="0.2" d="M617.291 4.55469H567.993V24.5129H617.291V4.55469Z" fill="#18313A"/>
<path opacity="0.1" d="M590.292 32.1426H540.994V52.1008H590.292V32.1426Z" fill="#18313A"/>
<path opacity="0.2" d="M270.686 4.55078H221.388V24.509H270.686V4.55078Z" fill="#18313A"/>
<path opacity="0.1" d="M286.325 87.6162H237.027V107.574H286.325V87.6162Z" fill="#18313A"/>
<path opacity="0.2" d="M426.728 219.021H377.43V238.979H426.728V219.021Z" fill="#18313A"/>
<path opacity="0.2" d="M426.728 272.882H377.43V292.84H426.728V272.882Z" fill="#18313A"/>
<path opacity="0.2" d="M199.147 273.861H149.849V293.82H199.147V273.861Z" fill="#18313A"/>
<path opacity="0.1" d="M511.409 246.608H462.11V266.567H511.409V246.608Z" fill="#18313A"/>
<path opacity="0.1" d="M484.507 272.706H435.209V292.664H484.507V272.706Z" fill="#18313A"/>
<path opacity="0.1" d="M653.956 246.608H604.658V266.567H653.956V246.608Z" fill="#18313A"/>
<path opacity="0.1" d="M627.045 272.706H577.747V292.664H627.045V272.706Z" fill="#18313A"/>
<path opacity="0.2" d="M369.527 219.02H320.229V238.978H369.527V219.02Z" fill="#18313A"/>
<path opacity="0.1" d="M398.867 246.608H349.569V266.567H398.867V246.608Z" fill="#18313A"/>
<path opacity="0.1" d="M375.364 303.406H326.065V323.364H375.364V303.406Z" fill="#18313A"/>
<path opacity="0.1" d="M445.873 329.848H396.575V349.806H445.873V329.848Z" fill="#18313A"/>
<path opacity="0.1" d="M259.806 329.848H210.507V349.806H259.806V329.848Z" fill="#18313A"/>
<path opacity="0.1" d="M119.226 329.848H69.9282V349.806H119.226V329.848Z" fill="#18313A"/>
<path opacity="0.1" d="M298.459 179.035H249.161V198.993H298.459V179.035Z" fill="#18313A"/>
<path opacity="0.1" d="M354.798 179.035H305.5V198.993H354.798V179.035Z" fill="#18313A"/>
<path opacity="0.1" d="M511.487 179.035H462.189V198.993H511.487V179.035Z" fill="#18313A"/>
<path opacity="0.2" d="M256.975 219.022H207.677V238.981H256.975V219.022Z" fill="#18313A"/>
<path opacity="0.1" d="M311.258 275.988H261.96V295.947H311.258V275.988Z" fill="#18313A"/>
<path opacity="0.2" d="M144.434 219.021H95.1357V238.979H144.434V219.021Z" fill="#18313A"/>
<path opacity="0.2" d="M141.75 292.293H92.4521V312.251H141.75V292.293Z" fill="#18313A"/>
<path opacity="0.1" d="M117.434 246.608H68.1362V266.567H117.434V246.608Z" fill="#18313A"/>
<path opacity="0.1" d="M173.784 246.608H124.485V266.567H173.784V246.608Z" fill="#18313A"/>
<path d="M618.868 222.041L632.764 355.197" stroke="#18313A" stroke-width="2" stroke-miterlimit="10"/>
<path d="M630.522 329.712L624.225 323.053" stroke="#18313A" stroke-width="2" stroke-miterlimit="10"/>
<path d="M626.134 325.052C626.134 325.052 626.31 322.104 623.627 319.705C622.011 318.265 613.501 314.681 612.688 317.678C611.817 320.939 620.523 327.343 626.134 325.052Z" fill="#FC3F37" stroke="#18313A" stroke-miterlimit="10"/>
<path d="M626.134 325.052L618.035 319.999" stroke="#18313A" stroke-width="0.5" stroke-miterlimit="10"/>
<path d="M632.098 344.854L625.801 338.204" stroke="#18313A" stroke-width="2" stroke-miterlimit="10"/>
<path d="M627.711 340.191C627.711 340.191 627.887 337.244 625.204 334.844C623.588 333.405 615.078 329.82 614.265 332.817C613.393 336.078 622.109 342.483 627.711 340.191Z" fill="#FC3F37" stroke="#18313A" stroke-miterlimit="10"/>
<path d="M627.711 340.191L619.612 335.147" stroke="#18313A" stroke-width="0.5" stroke-miterlimit="10"/>
<path d="M626.663 292.752L620.366 286.103" stroke="#18313A" stroke-width="2" stroke-miterlimit="10"/>
<path d="M622.276 288.092C622.276 288.092 622.452 285.144 619.769 282.745C618.153 281.305 609.643 277.721 608.83 280.718C607.958 283.988 616.664 290.383 622.276 288.092Z" fill="#FC3F37" stroke="#18313A" stroke-miterlimit="10"/>
<path d="M622.276 288.09L614.177 283.047" stroke="#18313A" stroke-width="0.5" stroke-miterlimit="10"/>
<path d="M628.239 307.901L621.942 301.242" stroke="#18313A" stroke-width="2" stroke-miterlimit="10"/>
<path d="M623.862 303.24C623.862 303.24 624.038 300.292 621.355 297.893C619.739 296.454 611.229 292.869 610.416 295.866C609.535 299.127 618.25 305.532 623.862 303.24Z" fill="#FC3F37" stroke="#18313A" stroke-miterlimit="10"/>
<path d="M623.862 303.241L615.753 298.188" stroke="#18313A" stroke-width="0.5" stroke-miterlimit="10"/>
<path d="M624.097 268.153L617.8 261.504" stroke="#18313A" stroke-width="2" stroke-miterlimit="10"/>
<path d="M619.71 263.501C619.71 263.501 619.886 260.553 617.203 258.154C615.587 256.714 607.077 253.13 606.264 256.127C605.392 259.388 614.098 265.792 619.71 263.501Z" fill="#FC3F37" stroke="#18313A" stroke-miterlimit="10"/>
<path d="M619.71 263.5L611.611 258.446" stroke="#18313A" stroke-width="0.5" stroke-miterlimit="10"/>
<path d="M621.521 243.458L615.214 236.799" stroke="#18313A" stroke-width="2" stroke-miterlimit="10"/>
<path d="M617.134 238.794C617.134 238.794 617.31 235.846 614.627 233.447C613.011 232.007 604.501 228.423 603.688 231.42C602.817 234.681 611.523 241.085 617.134 238.794Z" fill="#FC3F37" stroke="#18313A" stroke-miterlimit="10"/>
<path d="M617.134 238.792L609.035 233.739" stroke="#18313A" stroke-width="0.5" stroke-miterlimit="10"/>
<path d="M629.463 320.752L634.252 312.938" stroke="#18313A" stroke-width="2" stroke-miterlimit="10"/>
<path d="M632.793 315.287C632.793 315.287 632.009 312.448 634.144 309.539C635.427 307.796 643.017 302.537 644.427 305.299C645.955 308.305 638.747 316.365 632.793 315.287Z" fill="#FC3F37" stroke="#18313A" stroke-miterlimit="10"/>
<path d="M632.793 315.289L640.089 308.316" stroke="#18313A" stroke-width="0.5" stroke-miterlimit="10"/>
<path d="M625.301 280.905L630.09 273.09" stroke="#18313A" stroke-width="2" stroke-miterlimit="10"/>
<path d="M628.631 275.43C628.631 275.43 627.847 272.59 629.982 269.681C631.265 267.938 638.855 262.67 640.265 265.441C641.792 268.457 634.595 276.517 628.631 275.43Z" fill="#FC3F37" stroke="#18313A" stroke-miterlimit="10"/>
<path d="M628.631 275.43L635.927 268.457" stroke="#18313A" stroke-width="0.5" stroke-miterlimit="10"/>
<path d="M623.47 263.379L628.268 255.574" stroke="#18313A" stroke-width="2" stroke-miterlimit="10"/>
<path d="M626.799 257.915C626.799 257.915 626.016 255.075 628.151 252.167C629.433 250.424 637.023 245.165 638.433 247.926C639.961 250.943 632.763 259.002 626.799 257.915Z" fill="#FC3F37" stroke="#18313A" stroke-miterlimit="10"/>
<path d="M626.799 257.917L634.095 250.944" stroke="#18313A" stroke-width="0.5" stroke-miterlimit="10"/>
<path d="M620.796 237.717L625.585 229.902" stroke="#18313A" stroke-width="2" stroke-miterlimit="10"/>
<path d="M624.126 232.249C624.126 232.249 623.343 229.409 625.478 226.501C626.761 224.758 634.35 219.499 635.76 222.26C637.288 225.267 630.09 233.327 624.126 232.249Z" fill="#FC3F37" stroke="#18313A" stroke-miterlimit="10"/>
<path d="M624.126 232.252L631.422 225.279" stroke="#18313A" stroke-width="0.5" stroke-miterlimit="10"/>
<path d="M618.75 221.303C618.75 221.303 617.966 218.463 620.101 215.555C621.384 213.811 628.974 208.553 630.384 211.314C631.912 214.321 624.704 222.38 618.75 221.303Z" fill="#FC3F37" stroke="#18313A" stroke-miterlimit="10"/>
<path d="M618.75 221.303L626.045 214.33" stroke="#18313A" stroke-width="0.5" stroke-miterlimit="10"/>
<path d="M619.171 221.597C619.171 221.597 616.262 222.077 613.599 219.649C611.992 218.189 607.556 210.091 610.455 208.984C613.608 207.779 620.875 215.78 619.171 221.597Z" fill="#FC3F37" stroke="#18313A" stroke-miterlimit="10"/>
<path d="M619.171 221.599L613.001 213.617" stroke="#18313A" stroke-width="0.5" stroke-miterlimit="10"/>
<path d="M655.513 240.381L641.695 373.537" stroke="#18313A" stroke-width="2" stroke-miterlimit="10"/>
<path d="M644.751 348.143L639.962 340.328" stroke="#18313A" stroke-width="2" stroke-miterlimit="10"/>
<path d="M641.421 342.68C641.421 342.68 642.204 339.84 640.069 336.931C638.787 335.188 631.197 329.929 629.787 332.701C628.249 335.707 635.457 343.767 641.421 342.68Z" fill="#FC3F37" stroke="#18313A" stroke-miterlimit="10"/>
<path d="M641.421 342.678L634.527 336.067" stroke="#18313A" stroke-width="0.5" stroke-miterlimit="10"/>
<path d="M648.59 311.184L643.791 303.379" stroke="#18313A" stroke-width="2" stroke-miterlimit="10"/>
<path d="M645.25 305.721C645.25 305.721 646.033 302.881 643.899 299.972C642.616 298.229 635.026 292.97 633.616 295.742C632.088 298.748 639.296 306.808 645.25 305.721Z" fill="#FC3F37" stroke="#18313A" stroke-miterlimit="10"/>
<path d="M645.25 305.72L638.365 299.109" stroke="#18313A" stroke-width="0.5" stroke-miterlimit="10"/>
<path d="M647.013 326.326L642.224 318.521" stroke="#18313A" stroke-width="2" stroke-miterlimit="10"/>
<path d="M643.683 320.869C643.683 320.869 644.467 318.029 642.332 315.121C641.049 313.378 633.459 308.119 632.049 310.89C630.511 313.897 637.719 321.956 643.683 320.869Z" fill="#FC3F37" stroke="#18313A" stroke-miterlimit="10"/>
<path d="M643.683 320.87L636.799 314.26" stroke="#18313A" stroke-width="0.5" stroke-miterlimit="10"/>
<path d="M651.135 286.585L646.347 278.78" stroke="#18313A" stroke-width="2" stroke-miterlimit="10"/>
<path d="M647.806 281.12C647.806 281.12 648.589 278.28 646.454 275.372C645.172 273.629 637.582 268.37 636.172 271.141C634.644 274.148 641.842 282.207 647.806 281.12Z" fill="#FC3F37" stroke="#18313A" stroke-miterlimit="10"/>
<path d="M647.806 281.122L640.921 274.512" stroke="#18313A" stroke-width="0.5" stroke-miterlimit="10"/>
<path d="M653.701 261.88L648.913 254.075" stroke="#18313A" stroke-width="2" stroke-miterlimit="10"/>
<path d="M650.372 256.413C650.372 256.413 651.155 253.573 649.02 250.665C647.737 248.922 640.148 243.663 638.737 246.434C637.2 249.441 644.408 257.5 650.372 256.413Z" fill="#FC3F37" stroke="#18313A" stroke-miterlimit="10"/>
<path d="M650.372 256.417L643.487 249.807" stroke="#18313A" stroke-width="0.5" stroke-miterlimit="10"/>
<path d="M645.563 339.153L651.86 332.494" stroke="#18313A" stroke-width="2" stroke-miterlimit="10"/>
<path d="M649.941 334.493C649.941 334.493 649.755 331.545 652.448 329.146C654.064 327.697 662.574 324.112 663.377 327.109C664.259 330.37 655.553 336.784 649.941 334.493Z" fill="#FC3F37" stroke="#18313A" stroke-miterlimit="10"/>
<path d="M649.941 334.49L658.52 329.173" stroke="#18313A" stroke-width="0.5" stroke-miterlimit="10"/>
<path d="M649.696 299.307L655.993 292.647" stroke="#18313A" stroke-width="2" stroke-miterlimit="10"/>
<path d="M654.083 294.635C654.083 294.635 653.897 291.688 656.59 289.288C658.206 287.839 666.716 284.255 667.519 287.252C668.401 290.522 659.685 296.927 654.083 294.635Z" fill="#FC3F37" stroke="#18313A" stroke-miterlimit="10"/>
<path d="M654.083 294.633L662.652 289.315" stroke="#18313A" stroke-width="0.5" stroke-miterlimit="10"/>
<path d="M651.518 281.786L657.805 275.127" stroke="#18313A" stroke-width="2" stroke-miterlimit="10"/>
<path d="M655.895 277.126C655.895 277.126 655.709 274.178 658.402 271.779C660.018 270.329 668.528 266.745 669.331 269.742C670.212 273.013 661.506 279.417 655.895 277.126Z" fill="#FC3F37" stroke="#18313A" stroke-miterlimit="10"/>
<path d="M655.895 277.123L664.474 271.806" stroke="#18313A" stroke-width="0.5" stroke-miterlimit="10"/>
<path d="M654.182 256.119L660.469 249.46" stroke="#18313A" stroke-width="2" stroke-miterlimit="10"/>
<path d="M658.559 251.45C658.559 251.45 658.373 248.502 661.066 246.103C662.682 244.654 671.192 241.069 671.995 244.066C672.876 247.337 664.17 253.742 658.559 251.45Z" fill="#FC3F37" stroke="#18313A" stroke-miterlimit="10"/>
<path d="M658.559 251.449L667.138 246.132" stroke="#18313A" stroke-width="0.5" stroke-miterlimit="10"/>
<path d="M655.553 239.627C655.553 239.627 655.366 236.679 658.06 234.28C659.675 232.83 668.186 229.246 668.989 232.243C669.87 235.514 661.164 241.918 655.553 239.627Z" fill="#FC3F37" stroke="#18313A" stroke-miterlimit="10"/>
<path d="M655.552 239.629L664.131 234.312" stroke="#18313A" stroke-width="0.5" stroke-miterlimit="10"/>
<path d="M655.905 240.009C655.905 240.009 652.957 239.882 650.852 236.954C649.589 235.191 646.915 226.358 649.98 225.868C653.31 225.339 658.765 234.672 655.905 240.009Z" fill="#FC3F37" stroke="#18313A" stroke-miterlimit="10"/>
<path d="M655.905 240.007L651.508 230.919" stroke="#18313A" stroke-width="0.5" stroke-miterlimit="10"/>
<path d="M639.678 186.157V354.539" stroke="#18313A" stroke-width="2" stroke-miterlimit="10"/>
<path d="M639.815 329.228L634.243 321.962" stroke="#18313A" stroke-width="2" stroke-miterlimit="10"/>
<path d="M635.937 324.134C635.937 324.134 636.416 321.225 633.998 318.562C632.538 316.955 624.449 312.509 623.333 315.408C622.119 318.562 630.12 325.838 635.937 324.134Z" fill="#FC3F37" stroke="#18313A" stroke-miterlimit="10"/>
<path d="M635.937 324.136L628.406 318.279" stroke="#18313A" stroke-width="0.5" stroke-miterlimit="10"/>
<path d="M639.815 297.583L634.243 290.307" stroke="#18313A" stroke-width="2" stroke-miterlimit="10"/>
<path d="M635.937 292.491C635.937 292.491 636.416 289.583 633.998 286.919C632.538 285.313 624.449 280.867 623.333 283.766C622.119 286.919 630.12 294.185 635.937 292.491Z" fill="#FC3F37" stroke="#18313A" stroke-miterlimit="10"/>
<path d="M635.937 292.49L628.406 286.624" stroke="#18313A" stroke-width="0.5" stroke-miterlimit="10"/>
<path d="M639.815 260.432L634.243 253.155" stroke="#18313A" stroke-width="2" stroke-miterlimit="10"/>
<path d="M635.937 255.336C635.937 255.336 636.416 252.427 633.998 249.764C632.538 248.158 624.449 243.712 623.333 246.61C622.119 249.764 630.12 257.03 635.937 255.336Z" fill="#FC3F37" stroke="#18313A" stroke-miterlimit="10"/>
<path d="M635.937 255.336L628.406 249.479" stroke="#18313A" stroke-width="0.5" stroke-miterlimit="10"/>
<path d="M639.815 235.692L634.243 228.426" stroke="#18313A" stroke-width="2" stroke-miterlimit="10"/>
<path d="M635.937 230.61C635.937 230.61 636.416 227.702 633.998 225.038C632.538 223.432 624.449 218.986 623.333 221.885C622.119 225.028 630.12 232.305 635.937 230.61Z" fill="#FC3F37" stroke="#18313A" stroke-miterlimit="10"/>
<path d="M635.937 230.609L628.406 224.743" stroke="#18313A" stroke-width="0.5" stroke-miterlimit="10"/>
<path d="M639.815 210.854L634.243 203.578" stroke="#18313A" stroke-width="2" stroke-miterlimit="10"/>
<path d="M635.937 205.763C635.937 205.763 636.416 202.854 633.998 200.19C632.538 198.584 624.449 194.138 623.333 197.037C622.119 200.19 630.12 207.457 635.937 205.763Z" fill="#FC3F37" stroke="#18313A" stroke-miterlimit="10"/>
<path d="M635.937 205.763L628.406 199.896" stroke="#18313A" stroke-width="0.5" stroke-miterlimit="10"/>
<path d="M639.688 338.891L645.269 331.615" stroke="#18313A" stroke-width="2" stroke-miterlimit="10"/>
<path d="M643.566 333.798C643.566 333.798 643.086 330.889 645.505 328.226C646.964 326.62 655.053 322.173 656.169 325.072C657.384 328.226 649.383 335.492 643.566 333.798Z" fill="#FC3F37" stroke="#18313A" stroke-miterlimit="10"/>
<path d="M643.565 333.799L651.547 327.619" stroke="#18313A" stroke-width="0.5" stroke-miterlimit="10"/>
<path d="M639.688 288.564L645.269 281.288" stroke="#18313A" stroke-width="2" stroke-miterlimit="10"/>
<path d="M643.566 283.471C643.566 283.471 643.086 280.562 645.505 277.898C646.964 276.292 655.053 271.846 656.169 274.745C657.384 277.889 649.383 285.165 643.566 283.471Z" fill="#FC3F37" stroke="#18313A" stroke-miterlimit="10"/>
<path d="M643.565 283.471L651.547 277.292" stroke="#18313A" stroke-width="0.5" stroke-miterlimit="10"/>
<path d="M639.688 263.718L645.269 256.441" stroke="#18313A" stroke-width="2" stroke-miterlimit="10"/>
<path d="M643.566 258.624C643.566 258.624 643.086 255.715 645.505 253.052C646.964 251.446 655.053 247 656.169 249.898C657.384 253.052 649.383 260.318 643.566 258.624Z" fill="#FC3F37" stroke="#18313A" stroke-miterlimit="10"/>
<path d="M643.565 258.625L651.547 252.445" stroke="#18313A" stroke-width="0.5" stroke-miterlimit="10"/>
<path d="M639.688 230.882L645.269 223.615" stroke="#18313A" stroke-width="2" stroke-miterlimit="10"/>
<path d="M643.566 225.798C643.566 225.798 643.086 222.889 645.505 220.226C646.964 218.62 655.053 214.173 656.169 217.072C657.384 220.216 649.383 227.492 643.566 225.798Z" fill="#FC3F37" stroke="#18313A" stroke-miterlimit="10"/>
<path d="M643.565 225.799L651.547 219.619" stroke="#18313A" stroke-width="0.5" stroke-miterlimit="10"/>
<path d="M639.688 205.078L645.27 197.802" stroke="#18313A" stroke-width="2" stroke-miterlimit="10"/>
<path d="M643.566 199.983C643.566 199.983 643.086 197.075 645.505 194.411C646.964 192.805 655.053 188.359 656.169 191.258C657.384 194.401 649.383 201.678 643.566 199.983Z" fill="#FC3F37" stroke="#18313A" stroke-miterlimit="10"/>
<path d="M643.566 199.985L651.547 193.806" stroke="#18313A" stroke-width="0.5" stroke-miterlimit="10"/>
<path d="M639.355 188.534C639.355 188.534 638.875 185.626 641.294 182.962C642.753 181.356 650.842 176.91 651.958 179.809C653.173 182.952 645.172 190.228 639.355 188.534Z" fill="#FC3F37" stroke="#18313A" stroke-miterlimit="10"/>
<path d="M639.354 188.536L647.336 182.356" stroke="#18313A" stroke-width="0.5" stroke-miterlimit="10"/>
<path d="M639.746 188.88C639.746 188.88 636.799 189.056 634.409 186.363C632.97 184.747 629.395 176.227 632.392 175.424C635.653 174.552 642.048 183.268 639.746 188.88Z" fill="#FC3F37" stroke="#18313A" stroke-miterlimit="10"/>
<path d="M639.746 188.876L634.438 180.287" stroke="#18313A" stroke-width="0.5" stroke-miterlimit="10"/>
<path d="M646.611 398.218H628.778L626.545 353.18H648.834L646.611 398.218Z" fill="#18313A" stroke="#18313A" stroke-miterlimit="10"/>
<path d="M427.002 54.9131H177.573V207.616H427.002V54.9131Z" fill="#18313A" stroke="#18313A" stroke-miterlimit="10" stroke-linecap="round" stroke-linejoin="round"/>
<path d="M418.708 61.7607H185.878V200.763H418.708V61.7607Z" fill="white" stroke="#18313A" stroke-miterlimit="10" stroke-linecap="round" stroke-linejoin="round"/>
<path d="M299.644 149.073H285.493V165.193H299.644V149.073Z" fill="#18313A"/>
<path d="M221.828 138.465H207.677V165.19H221.828V138.465Z" fill="#18313A"/>
<path d="M241.277 127.428H227.126V165.18H241.277V127.428Z" fill="#FC3F37"/>
<path d="M260.736 115.13H246.585V165.192H260.736V115.13Z" fill="#18313A"/>
<path d="M280.185 144.403H266.034V165.194H280.185V144.403Z" fill="#FC3F37"/>
<path d="M319.093 119.799H304.942V165.19H319.093V119.799Z" fill="#FC3F37"/>
<path d="M338.542 111.74H324.391V165.191H338.542V111.74Z" fill="#18313A"/>
<path d="M358.001 104.523H343.85V165.191H358.001V104.523Z" fill="#FC3F37"/>
<path d="M377.45 126.586H363.299V165.19H377.45V126.586Z" fill="#18313A"/>
<path d="M396.908 138.465H382.757V165.19H396.908V138.465Z" fill="#FC3F37"/>
<path d="M268.345 82.8242H336.24" stroke="#18313A" stroke-miterlimit="10" stroke-linecap="round" stroke-linejoin="round"/>
<path d="M207.697 174.095H221.054" stroke="#18313A" stroke-miterlimit="10" stroke-linecap="round" stroke-linejoin="round"/>
<path d="M227.224 174.095H240.582" stroke="#18313A" stroke-miterlimit="10" stroke-linecap="round" stroke-linejoin="round"/>
<path d="M246.761 174.095H260.119" stroke="#18313A" stroke-miterlimit="10" stroke-linecap="round" stroke-linejoin="round"/>
<path d="M266.289 174.095H279.646" stroke="#18313A" stroke-miterlimit="10" stroke-linecap="round" stroke-linejoin="round"/>
<path d="M285.826 174.095H299.174" stroke="#18313A" stroke-miterlimit="10" stroke-linecap="round" stroke-linejoin="round"/>
<path d="M305.353 174.095H318.711" stroke="#18313A" stroke-miterlimit="10" stroke-linecap="round" stroke-linejoin="round"/>
<path d="M324.88 174.095H338.238" stroke="#18313A" stroke-miterlimit="10" stroke-linecap="round" stroke-linejoin="round"/>
<path d="M344.417 174.095H357.775" stroke="#18313A" stroke-miterlimit="10" stroke-linecap="round" stroke-linejoin="round"/>
<path d="M363.945 174.095H377.303" stroke="#18313A" stroke-miterlimit="10" stroke-linecap="round" stroke-linejoin="round"/>
<path d="M383.472 174.095H396.83" stroke="#18313A" stroke-miterlimit="10" stroke-linecap="round" stroke-linejoin="round"/>
<path d="M198.795 165.193H410.834" stroke="#18313A" stroke-miterlimit="10" stroke-linecap="round" stroke-linejoin="round"/>
<path d="M198.795 159.62H203.241" stroke="#18313A" stroke-miterlimit="10" stroke-linecap="round" stroke-linejoin="round"/>
<path d="M198.795 153.852H203.241" stroke="#18313A" stroke-miterlimit="10" stroke-linecap="round" stroke-linejoin="round"/>
<path d="M198.795 148.077H203.241" stroke="#18313A" stroke-miterlimit="10" stroke-linecap="round" stroke-linejoin="round"/>
<path d="M198.795 142.309H203.241" stroke="#18313A" stroke-miterlimit="10" stroke-linecap="round" stroke-linejoin="round"/>
<path d="M198.795 136.529H203.241" stroke="#18313A" stroke-miterlimit="10" stroke-linecap="round" stroke-linejoin="round"/>
<path d="M198.795 130.761H203.241" stroke="#18313A" stroke-miterlimit="10" stroke-linecap="round" stroke-linejoin="round"/>
<path d="M198.795 124.983H203.241" stroke="#18313A" stroke-miterlimit="10" stroke-linecap="round" stroke-linejoin="round"/>
<path d="M198.795 119.217H203.241" stroke="#18313A" stroke-miterlimit="10" stroke-linecap="round" stroke-linejoin="round"/>
<path d="M198.795 113.438H203.241" stroke="#18313A" stroke-miterlimit="10" stroke-linecap="round" stroke-linejoin="round"/>
<path d="M198.795 107.669H203.241" stroke="#18313A" stroke-miterlimit="10" stroke-linecap="round" stroke-linejoin="round"/>
<path d="M198.795 101.902H203.241" stroke="#18313A" stroke-miterlimit="10" stroke-linecap="round" stroke-linejoin="round"/>
<path d="M198.795 96.123H203.241" stroke="#18313A" stroke-miterlimit="10" stroke-linecap="round" stroke-linejoin="round"/>
<path d="M259.532 97.3174H249.386C248.456 97.3174 247.692 98.0714 247.692 99.0116V105.994C247.692 106.924 248.446 107.688 249.386 107.688H252.363L254.302 111.772L256.222 107.727L259.522 107.688C260.452 107.688 261.216 106.934 261.216 105.994V99.0116C261.226 98.0812 260.462 97.3174 259.532 97.3174Z" fill="#C7C7C7"/>
<path d="M239.093 110.734H228.948C228.017 110.734 227.253 111.488 227.253 112.429V119.411C227.253 120.341 228.007 121.105 228.948 121.105H231.925L233.864 125.189L235.783 121.144L239.083 121.105C240.014 121.105 240.778 120.351 240.778 119.411V112.429C240.778 111.498 240.024 110.734 239.093 110.734Z" fill="#C7C7C7"/>
<path d="M219.507 119.471H209.362C208.431 119.471 207.667 120.225 207.667 121.165V128.147C207.667 129.078 208.422 129.842 209.362 129.842H212.339L214.278 133.925L216.197 129.881L219.497 129.842C220.428 129.842 221.192 129.087 221.192 128.147V121.165C221.192 120.225 220.438 119.471 219.507 119.471Z" fill="#C7C7C7"/>
<path d="M278.481 127.98H268.335C267.405 127.98 266.641 128.735 266.641 129.675V136.657C266.641 137.587 267.395 138.351 268.335 138.351H271.312L273.251 142.435L275.171 138.39L278.471 138.351C279.401 138.351 280.165 137.597 280.165 136.657V129.675C280.175 128.744 279.411 127.98 278.481 127.98Z" fill="#C7C7C7"/>
<path d="M298.067 131.603H287.922C286.991 131.603 286.228 132.357 286.228 133.297V140.279C286.228 141.21 286.982 141.973 287.922 141.973H290.899L292.838 146.057L294.757 142.013L298.058 141.973C298.988 141.973 299.752 141.219 299.752 140.279V133.297C299.762 132.357 299.007 131.603 298.067 131.603Z" fill="#C7C7C7"/>
<path d="M317.663 103.281H307.517C306.587 103.281 305.823 104.035 305.823 104.975V111.958C305.823 112.888 306.577 113.652 307.517 113.652H310.495L312.434 117.736L314.353 113.691L317.653 113.652C318.584 113.652 319.347 112.898 319.347 111.958V104.975C319.347 104.045 318.593 103.281 317.663 103.281Z" fill="#C7C7C7"/>
<path d="M336.818 94.5547H326.673C325.742 94.5547 324.979 95.3087 324.979 96.2489V103.231C324.979 104.162 325.733 104.926 326.673 104.926H329.65L331.589 109.009L333.508 104.965L336.809 104.926C337.739 104.926 338.503 104.171 338.503 103.231V96.2489C338.513 95.3087 337.758 94.5547 336.818 94.5547Z" fill="#C7C7C7"/>
<path d="M356.199 87.7402H346.053C345.123 87.7402 344.359 88.4943 344.359 89.4344V96.4169C344.359 97.3472 345.113 98.1111 346.053 98.1111H349.03L350.969 102.195L352.889 98.1502L356.189 98.1111C357.119 98.1111 357.883 97.357 357.883 96.4169V89.4344C357.893 88.4943 357.129 87.7402 356.199 87.7402Z" fill="#C7C7C7"/>
<path d="M375.148 109.884H365.003C364.072 109.884 363.309 110.638 363.309 111.578V118.56C363.309 119.491 364.063 120.255 365.003 120.255H367.98L369.919 124.338L371.838 120.294L375.139 120.255C376.069 120.255 376.833 119.501 376.833 118.56V111.578C376.843 110.648 376.079 109.884 375.148 109.884Z" fill="#C7C7C7"/>
<path d="M395.381 121.378H385.235C384.305 121.378 383.541 122.132 383.541 123.072V130.055C383.541 130.985 384.295 131.749 385.235 131.749H388.212L390.151 135.832L392.071 131.788L395.371 131.749C396.301 131.749 397.065 130.995 397.065 130.055V123.072C397.065 122.142 396.311 121.378 395.381 121.378Z" fill="#C7C7C7"/>
<path d="M331.951 167.403L326.956 161.459C326.956 161.459 325.056 155.75 323.627 153.84C322.197 151.94 318.632 151.695 314.343 149.081C310.063 146.466 308.398 146.701 309.104 149.795C309.818 152.89 314.813 156.22 314.813 156.22C314.813 156.22 305.294 155.985 304.579 155.74C303.864 155.505 297.44 153.595 296.01 152.645C294.58 151.695 291.731 152.645 293.151 155.74C294.58 158.834 299.095 165.494 302.434 167.873C305.764 170.253 305.049 170.733 311.473 171.683C317.898 172.633 319.563 172.398 319.563 172.398L323.372 175.963L331.951 167.403Z" fill="white" stroke="#18313A" stroke-miterlimit="10" stroke-linecap="round" stroke-linejoin="round"/>
<path d="M300.78 166.218C300.78 166.218 296.735 152.419 299.115 154.319C301.494 156.219 306.254 164.318 306.254 164.318C306.254 164.318 317.437 162.653 320.532 165.983" fill="white"/>
<path d="M300.78 166.218C300.78 166.218 296.735 152.419 299.115 154.319C301.494 156.219 306.254 164.318 306.254 164.318C306.254 164.318 317.437 162.653 320.532 165.983" stroke="#18313A" stroke-miterlimit="10" stroke-linecap="round" stroke-linejoin="round"/>
<path d="M338.61 172.646L330.051 165.986L321.247 176.21L330.766 182.399L338.61 172.646Z" fill="white" stroke="#18313A" stroke-miterlimit="10" stroke-linecap="round" stroke-linejoin="round"/>
<path d="M387.047 233.123L385.333 243.895C385.333 243.895 379.457 260.778 379.702 263.961C379.947 267.144 386.919 360.932 386.919 360.932H464.01C464.01 360.932 460.955 260.533 460.71 258.085C460.465 255.637 458.311 238.078 458.311 238.078C458.311 238.078 413.478 238.264 412.009 238.019C410.54 237.774 386.312 231.164 386.312 231.164L387.047 233.123Z" fill="#18313A" stroke="#18313A" stroke-miterlimit="10" stroke-linecap="round" stroke-linejoin="round"/>
<path d="M408.092 279.131L425.465 284.027" stroke="#696969" stroke-miterlimit="10" stroke-linecap="round" stroke-linejoin="round"/>
<path d="M418.854 282.558L421.851 358.434" stroke="#696969" stroke-miterlimit="10" stroke-linecap="round" stroke-linejoin="round"/>
<path d="M423.506 249.282C441.525 248.626 449.477 247.764 458.712 241.399C458.467 239.421 458.31 238.079 458.31 238.079C458.31 238.079 413.478 238.265 412.009 238.02C410.54 237.775 386.312 231.165 386.312 231.165L387.046 233.124L385.803 240.929C391.571 243.622 406.877 249.889 423.506 249.282Z" fill="#878787" stroke="#18313A" stroke-miterlimit="10" stroke-linecap="round" stroke-linejoin="round"/>
<path d="M414.457 245.122V248.55L423.506 249.284L424.035 245.22L414.457 245.122Z" fill="white" stroke="#18313A" stroke-miterlimit="10" stroke-linecap="round" stroke-linejoin="round"/>
<path d="M413.811 131.718C413.811 131.718 380.26 141.002 379.31 141.952C378.36 142.901 373.836 170.028 373.836 170.028L365.032 184.071L339.805 170.743C339.805 170.743 334.81 173.123 333.616 174.553C332.431 175.982 325.762 183.357 327.906 185.736C330.051 188.116 360.272 209.533 364.787 212.383C369.311 215.243 371.211 215.948 373.356 213.568C375.501 211.188 385.969 196.675 385.969 196.675L385.489 227.367C385.489 227.367 382.395 228.551 383.11 231.411C383.825 234.271 385.254 235.935 385.254 235.935H388.114C388.114 235.935 399.778 246.169 424.045 245.219C448.312 244.269 456.411 240.46 458.311 238.08C460.21 235.7 460.455 235.7 459.975 233.801C459.496 231.901 459.26 229.276 459.26 229.276L465.92 187.636L484.957 200.72C484.957 200.72 503.28 203.579 506.375 201.435C509.469 199.29 510.419 197.87 508.04 193.58C505.66 189.301 485.907 165.974 485.907 165.974C485.907 165.974 478.288 147.171 477.103 145.506C475.918 143.842 444.502 131.708 444.502 131.708H413.811V131.718Z" fill="white" stroke="#18313A" stroke-miterlimit="10" stroke-linecap="round" stroke-linejoin="round"/>
<path d="M365.022 184.063C365.022 184.063 368.303 188.372 368.528 192.006" stroke="#18313A" stroke-miterlimit="10" stroke-linecap="round" stroke-linejoin="round"/>
<path d="M385.969 196.674V167.168L384.06 157.414" stroke="#18313A" stroke-miterlimit="10" stroke-linecap="round" stroke-linejoin="round"/>
<path d="M381.171 160.196L379.78 156.935" stroke="#18313A" stroke-miterlimit="10" stroke-linecap="round" stroke-linejoin="round"/>
<path d="M385.969 171.448L382.63 163.623" stroke="#18313A" stroke-miterlimit="10" stroke-linecap="round" stroke-linejoin="round"/>
<path d="M465.919 187.635L471.864 159.313" stroke="#18313A" stroke-miterlimit="10" stroke-linecap="round" stroke-linejoin="round"/>
<path d="M473.764 167.677C471.561 171.006 469.23 174.845 468.535 177.156" stroke="#18313A" stroke-miterlimit="10" stroke-linecap="round" stroke-linejoin="round"/>
<path d="M478.288 161.226C478.288 161.226 477.28 162.577 475.909 164.536" stroke="#18313A" stroke-miterlimit="10" stroke-linecap="round" stroke-linejoin="round"/>
<path d="M476.868 176.455C476.868 176.455 481.863 169.796 488.052 169.796" stroke="#18313A" stroke-miterlimit="10" stroke-linecap="round" stroke-linejoin="round"/>
<path d="M444.924 224.163C450.212 217.014 457.811 206.584 460.211 202.383" stroke="#18313A" stroke-miterlimit="10" stroke-linecap="round" stroke-linejoin="round"/>
<path d="M439.508 231.422C439.508 231.422 440.712 229.825 442.553 227.348" stroke="#18313A" stroke-miterlimit="10" stroke-linecap="round" stroke-linejoin="round"/>
<path d="M457.351 218.326L448.782 231.419" stroke="#18313A" stroke-miterlimit="10" stroke-linecap="round" stroke-linejoin="round"/>
<path d="M420.705 124.334C420.705 124.334 417.846 124.569 417.141 125.284C416.426 125.999 411.196 131.943 411.196 131.943C411.196 131.943 411.911 153.831 413.096 153.126C414.281 152.42 423.565 143.842 424.515 142.892C425.465 141.942 438.313 153.84 439.028 154.311C439.743 154.79 440.213 156.925 440.928 154.79C441.643 152.646 448.782 133.853 448.067 131.943C447.352 130.043 442.828 124.324 442.828 124.324C442.828 124.324 425.465 127.908 420.705 124.334Z" fill="white" stroke="#18313A" stroke-miterlimit="10" stroke-linecap="round" stroke-linejoin="round"/>
<path d="M415.475 78.1783C415.475 78.1783 409.051 86.9822 409.531 88.8821C410.011 90.7819 408.581 94.1214 408.581 94.1214C408.581 94.1214 400.012 100.781 400.962 102.69C401.912 104.59 404.527 106.97 404.527 106.97C404.527 106.97 404.292 123.628 406.427 123.628C408.562 123.628 417.131 124.108 417.131 124.108C417.131 124.108 424.27 150.284 426.649 148.855C429.029 147.425 442.592 126.252 442.592 126.252L445.207 116.254C445.207 116.254 454.961 111.974 457.821 97.9308C460.68 83.8876 452.826 75.5635 447.822 71.9989C442.818 68.4342 432.594 67.9543 432.594 67.9543C432.594 67.9543 436.403 65.5746 432.594 63.9098C428.784 62.245 423.555 64.6247 423.555 64.6247C423.555 64.6247 423.32 58.4355 417.845 61.7651C412.381 65.085 405.712 71.5092 415.475 78.1783Z" fill="white" stroke="#18313A" stroke-miterlimit="10" stroke-linecap="round" stroke-linejoin="round"/>
<path d="M447.832 71.991C442.837 68.4264 432.603 67.9465 432.603 67.9465C432.603 67.9465 436.413 65.5668 432.603 63.902C428.794 62.2372 423.564 64.6169 423.564 64.6169C423.564 64.6169 423.329 58.4277 417.855 61.7573C412.381 65.0869 405.722 71.5112 415.475 78.1802C415.475 78.1802 435.228 79.8451 429.989 83.1747C424.749 86.5043 422.37 86.7394 425.944 89.1191C429.509 91.4988 432.603 96.7381 432.603 96.7381C432.603 96.7381 429.989 101.977 431.174 102.927C432.359 103.877 433.788 104.112 434.738 102.692C435.688 101.262 438.548 96.268 442.592 97.453C446.637 98.6379 446.157 103.877 443.072 107.207C439.978 110.536 435.698 111.486 435.698 111.486C435.698 111.486 441.407 114.816 443.317 115.531C443.865 115.737 445.021 115.717 446.412 115.599C449.095 113.954 455.597 108.95 457.84 97.923C460.68 83.8896 452.826 75.5557 447.832 71.991Z" fill="#18313A" stroke="#18313A" stroke-miterlimit="10" stroke-linecap="round" stroke-linejoin="round"/>
<path d="M408.336 110.068C408.336 110.068 412.861 109.833 414.996 107.453C414.996 107.453 414.516 112.213 412.851 112.448C411.186 112.683 408.336 110.068 408.336 110.068Z" stroke="#18313A" stroke-miterlimit="10" stroke-linecap="round" stroke-linejoin="round"/>
<path d="M415.23 94.711C415.23 95.7001 414.8 96.4934 414.28 96.4934C413.761 96.4934 413.331 95.6903 413.331 94.711C413.331 93.7317 413.761 92.9287 414.28 92.9287C414.8 92.9287 415.23 93.7317 415.23 94.711Z" fill="#18313A"/>
<path d="M411.901 91.2635C411.901 91.2635 415.71 88.8838 417.61 91.9784" stroke="#18313A" stroke-miterlimit="10" stroke-linecap="round" stroke-linejoin="round"/>
<path d="M417.14 124.099L425.229 123.864L429.989 118.869L420.705 134.812L417.14 124.099Z" fill="#18313A" stroke="#18313A" stroke-miterlimit="10" stroke-linecap="round" stroke-linejoin="round"/>
<path d="M430.241 192.847C430.125 193.064 429.953 193.231 429.726 193.349C429.499 193.467 429.228 193.526 428.911 193.526H428V190.648H428.911C429.229 190.648 429.501 190.706 429.726 190.822C429.952 190.938 430.124 191.104 430.241 191.32C430.358 191.537 430.417 191.793 430.417 192.087C430.417 192.377 430.358 192.631 430.241 192.847ZM429.742 192.903C429.939 192.709 430.038 192.438 430.038 192.086C430.038 191.735 429.939 191.461 429.743 191.267C429.546 191.072 429.259 190.976 428.883 190.976H428.37V193.193H428.883C429.257 193.193 429.543 193.097 429.742 192.903Z" fill="#FC3F37"/>
<path d="M432.955 192.486H431.17C431.178 192.742 431.251 192.933 431.387 193.062C431.523 193.189 431.692 193.253 431.889 193.253C432.068 193.253 432.218 193.207 432.338 193.116C432.46 193.025 432.532 192.904 432.559 192.75H432.953C432.926 192.905 432.866 193.044 432.772 193.167C432.678 193.29 432.557 193.386 432.408 193.453C432.258 193.52 432.09 193.554 431.903 193.554C431.689 193.554 431.499 193.508 431.334 193.415C431.168 193.323 431.039 193.189 430.946 193.017C430.853 192.845 430.806 192.64 430.806 192.407C430.806 192.173 430.853 191.968 430.946 191.794C431.039 191.619 431.17 191.485 431.334 191.393C431.5 191.301 431.689 191.254 431.903 191.254C432.12 191.254 432.309 191.3 432.47 191.393C432.631 191.485 432.755 191.609 432.841 191.765C432.926 191.92 432.969 192.092 432.969 192.28C432.971 192.36 432.965 192.429 432.955 192.486ZM432.515 191.889C432.452 191.777 432.367 191.694 432.258 191.64C432.15 191.586 432.031 191.559 431.904 191.559C431.701 191.559 431.531 191.622 431.392 191.749C431.253 191.875 431.179 192.062 431.168 192.306H432.596C432.604 192.141 432.577 192.001 432.515 191.889Z" fill="#FC3F37"/>
<path d="M434.321 193.132L435.013 191.286H435.412L434.537 193.529H434.098L433.223 191.286H433.622L434.321 193.132Z" fill="#FC3F37"/>
<path d="M438.562 192.763C438.444 192.981 438.271 193.15 438.042 193.27C437.814 193.389 437.539 193.449 437.219 193.449H436.3V190.543H437.219C437.539 190.543 437.813 190.602 438.042 190.718C438.27 190.835 438.444 191.003 438.562 191.221C438.68 191.439 438.738 191.697 438.738 191.994C438.738 192.288 438.679 192.545 438.562 192.763ZM438.057 192.818C438.256 192.623 438.356 192.348 438.356 191.994C438.356 191.639 438.257 191.364 438.059 191.167C437.861 190.971 437.571 190.873 437.191 190.873H436.675V193.111H437.191C437.568 193.111 437.857 193.014 438.057 192.818Z" fill="#18313A"/>
<path d="M439.247 190.356C439.293 190.313 439.355 190.292 439.431 190.292C439.507 190.292 439.569 190.313 439.616 190.356C439.662 190.399 439.685 190.454 439.685 190.523C439.685 190.592 439.662 190.648 439.616 190.69C439.569 190.733 439.507 190.754 439.431 190.754C439.355 190.754 439.293 190.733 439.247 190.69C439.2 190.648 439.177 190.592 439.177 190.523C439.177 190.454 439.2 190.399 439.247 190.356ZM439.616 191.186V193.449H439.242V191.186H439.616Z" fill="#18313A"/>
<path d="M443.62 191.402C443.78 191.572 443.86 191.816 443.86 192.134V193.449H443.486V192.167C443.486 191.944 443.432 191.774 443.325 191.656C443.216 191.538 443.068 191.479 442.879 191.479C442.682 191.479 442.524 191.545 442.405 191.675C442.286 191.806 442.227 191.998 442.227 192.25V193.449H441.853V192.167C441.853 191.944 441.798 191.774 441.688 191.656C441.579 191.538 441.432 191.479 441.245 191.479C441.046 191.479 440.886 191.545 440.767 191.675C440.648 191.806 440.589 191.998 440.589 192.25V193.449H440.215V191.186H440.589V191.701C440.643 191.523 440.741 191.385 440.882 191.291C441.023 191.196 441.186 191.148 441.368 191.148C441.559 191.148 441.726 191.197 441.867 191.295C442.008 191.392 442.109 191.536 442.168 191.726C442.231 191.542 442.337 191.399 442.485 191.3C442.632 191.199 442.799 191.149 442.985 191.149C443.248 191.149 443.459 191.234 443.62 191.402Z" fill="#18313A"/>
<path d="M446.495 192.398H444.693C444.701 192.656 444.774 192.85 444.912 192.98C445.05 193.109 445.22 193.174 445.419 193.174C445.599 193.174 445.751 193.128 445.872 193.035C445.994 192.944 446.068 192.82 446.096 192.667H446.494C446.466 192.823 446.406 192.964 446.311 193.087C446.217 193.211 446.094 193.307 445.944 193.376C445.794 193.445 445.624 193.48 445.436 193.48C445.22 193.48 445.028 193.433 444.862 193.339C444.695 193.246 444.564 193.112 444.47 192.937C444.376 192.763 444.328 192.557 444.328 192.32C444.328 192.084 444.376 191.878 444.47 191.702C444.564 191.527 444.695 191.391 444.862 191.298C445.028 191.204 445.22 191.157 445.436 191.157C445.655 191.157 445.845 191.204 446.008 191.298C446.171 191.391 446.295 191.516 446.382 191.673C446.468 191.829 446.511 192.003 446.511 192.192C446.512 192.272 446.506 192.34 446.495 192.398ZM446.052 191.797C445.989 191.684 445.903 191.6 445.793 191.546C445.684 191.491 445.565 191.463 445.436 191.463C445.23 191.463 445.058 191.527 444.919 191.654C444.78 191.782 444.704 191.97 444.693 192.217H446.134C446.142 192.049 446.115 191.909 446.052 191.797Z" fill="#18313A"/>
<path d="M448.822 191.401C448.984 191.571 449.064 191.815 449.064 192.133V193.448H448.69V192.166C448.69 191.941 448.633 191.768 448.518 191.647C448.403 191.527 448.247 191.466 448.05 191.466C447.844 191.466 447.681 191.533 447.557 191.666C447.434 191.8 447.372 191.994 447.372 192.25V193.448H446.999V191.185H447.372V191.721C447.43 191.537 447.532 191.395 447.678 191.297C447.824 191.198 447.993 191.148 448.185 191.148C448.448 191.148 448.66 191.233 448.822 191.401Z" fill="#18313A"/>
<path d="M450.958 191.356C451.113 191.49 451.206 191.669 451.239 191.894H450.882C450.865 191.76 450.81 191.649 450.715 191.563C450.621 191.476 450.494 191.433 450.335 191.433C450.201 191.433 450.096 191.465 450.021 191.53C449.946 191.594 449.908 191.681 449.908 191.792C449.908 191.874 449.933 191.941 449.984 191.992C450.036 192.043 450.098 192.081 450.173 192.107C450.248 192.133 450.351 192.162 450.482 192.192C450.649 192.231 450.783 192.27 450.887 192.309C450.989 192.349 451.077 192.413 451.149 192.501C451.222 192.588 451.258 192.707 451.258 192.855C451.258 193.039 451.189 193.189 451.051 193.304C450.913 193.42 450.729 193.478 450.499 193.478C450.231 193.478 450.012 193.413 449.842 193.283C449.673 193.154 449.573 192.975 449.543 192.744H449.904C449.918 192.881 449.977 192.993 450.082 193.077C450.188 193.163 450.326 193.205 450.499 193.205C450.628 193.205 450.728 193.172 450.8 193.106C450.873 193.04 450.909 192.954 450.909 192.846C450.909 192.759 450.884 192.688 450.831 192.636C450.779 192.584 450.715 192.544 450.638 192.517C450.561 192.489 450.456 192.461 450.321 192.43C450.155 192.391 450.021 192.353 449.921 192.314C449.821 192.276 449.736 192.215 449.666 192.131C449.597 192.048 449.561 191.934 449.561 191.791C449.561 191.601 449.63 191.448 449.77 191.331C449.91 191.214 450.099 191.155 450.34 191.155C450.599 191.156 450.803 191.223 450.958 191.356Z" fill="#18313A"/>
<path d="M451.766 190.356C451.812 190.313 451.874 190.292 451.95 190.292C452.026 190.292 452.088 190.313 452.135 190.356C452.181 190.399 452.204 190.454 452.204 190.523C452.204 190.592 452.181 190.648 452.135 190.69C452.088 190.733 452.026 190.754 451.95 190.754C451.874 190.754 451.812 190.733 451.766 190.69C451.719 190.648 451.696 190.592 451.696 190.523C451.696 190.454 451.719 190.399 451.766 190.356ZM452.135 191.186V193.449H451.761V191.186H452.135Z" fill="#18313A"/>
<path d="M454.336 191.298C454.506 191.391 454.641 191.526 454.738 191.702C454.835 191.878 454.884 192.084 454.884 192.32C454.884 192.556 454.835 192.763 454.738 192.937C454.641 193.111 454.507 193.246 454.336 193.339C454.164 193.433 453.971 193.48 453.755 193.48C453.538 193.48 453.345 193.433 453.173 193.339C453.002 193.246 452.868 193.112 452.769 192.937C452.671 192.763 452.621 192.557 452.621 192.32C452.621 192.084 452.671 191.878 452.769 191.702C452.867 191.527 453.002 191.391 453.173 191.298C453.344 191.204 453.538 191.157 453.755 191.157C453.971 191.157 454.164 191.204 454.336 191.298ZM453.383 191.577C453.269 191.638 453.177 191.731 453.108 191.855C453.039 191.981 453.003 192.135 453.003 192.319C453.003 192.501 453.038 192.654 453.108 192.779C453.177 192.905 453.27 192.998 453.383 193.057C453.496 193.118 453.62 193.148 453.755 193.148C453.889 193.148 454.012 193.118 454.126 193.057C454.239 192.997 454.332 192.904 454.401 192.779C454.47 192.654 454.506 192.502 454.506 192.319C454.506 192.135 454.471 191.981 454.401 191.855C454.332 191.73 454.239 191.637 454.126 191.577C454.012 191.517 453.889 191.487 453.755 191.487C453.62 191.487 453.497 191.518 453.383 191.577Z" fill="#18313A"/>
<path d="M457.194 191.401C457.356 191.571 457.436 191.815 457.436 192.133V193.448H457.062V192.166C457.062 191.941 457.005 191.768 456.89 191.647C456.775 191.527 456.619 191.466 456.422 191.466C456.216 191.466 456.053 191.533 455.929 191.666C455.806 191.8 455.744 191.994 455.744 192.25V193.448H455.371V191.185H455.744V191.721C455.802 191.537 455.904 191.395 456.05 191.297C456.197 191.198 456.365 191.148 456.557 191.148C456.821 191.148 457.034 191.233 457.194 191.401Z" fill="#18313A"/>
<path d="M459.331 191.356C459.485 191.49 459.578 191.669 459.611 191.894H459.254C459.237 191.76 459.183 191.649 459.088 191.563C458.993 191.476 458.866 191.433 458.708 191.433C458.574 191.433 458.469 191.465 458.393 191.53C458.318 191.594 458.28 191.681 458.28 191.792C458.28 191.874 458.305 191.941 458.357 191.992C458.408 192.043 458.471 192.081 458.545 192.107C458.621 192.133 458.724 192.162 458.855 192.192C459.021 192.231 459.156 192.27 459.259 192.309C459.361 192.349 459.45 192.413 459.522 192.501C459.594 192.588 459.631 192.707 459.631 192.855C459.631 193.039 459.562 193.189 459.424 193.304C459.286 193.42 459.102 193.478 458.871 193.478C458.604 193.478 458.385 193.413 458.215 193.283C458.045 193.154 457.945 192.975 457.916 192.744H458.276C458.29 192.881 458.35 192.993 458.455 193.077C458.56 193.163 458.699 193.205 458.871 193.205C459 193.205 459.101 193.172 459.173 193.106C459.245 193.04 459.282 192.954 459.282 192.846C459.282 192.759 459.256 192.688 459.204 192.636C459.151 192.584 459.088 192.544 459.01 192.517C458.934 192.489 458.829 192.461 458.694 192.43C458.527 192.391 458.393 192.353 458.293 192.314C458.193 192.276 458.109 192.215 458.038 192.131C457.969 192.048 457.933 191.934 457.933 191.791C457.933 191.601 458.003 191.448 458.143 191.331C458.282 191.214 458.472 191.155 458.713 191.155C458.972 191.156 459.176 191.223 459.331 191.356Z" fill="#18313A"/>
<path d="M442.068 168V171.421H438.682V183.45H442.068V186.871H435.297V168H442.068Z" fill="#18313A"/>
<path d="M444.035 168.135V171.526C446.661 172.283 448.469 174.694 448.471 177.436C448.471 180.244 446.597 182.612 444.035 183.346V186.74C448.478 185.991 451.863 182.111 451.863 177.436C451.863 172.763 448.478 168.883 444.035 168.135Z" fill="#18313A"/>
<path d="M440.959 173.464H442.254C444.44 173.464 446.213 175.244 446.213 177.439C446.213 179.634 444.442 181.414 442.256 181.414H440.959V173.464Z" fill="#FC3F37"/>
<path d="M470.914 185.728L463.775 184.543L462.345 199.771L470.434 201.436C470.434 201.436 471.394 188.588 470.914 185.728Z" fill="white" stroke="#18313A" stroke-miterlimit="10" stroke-linecap="round" stroke-linejoin="round"/>
<path d="M503.751 187.64C503.751 187.64 472.099 182.88 470.914 185.74C469.729 188.599 467.585 202.868 470.679 204.063C473.774 205.248 503.045 216.676 505.425 214.766C507.805 212.867 512.564 207.862 512.564 202.398C512.555 196.914 503.751 187.64 503.751 187.64Z" fill="white" stroke="#18313A" stroke-miterlimit="10" stroke-linecap="round" stroke-linejoin="round"/>
<path d="M463.775 184.541L456.401 180.732C456.401 180.732 454.501 178.117 452.591 177.167C450.692 176.217 449.027 177.167 443.308 175.502C437.598 173.837 435.454 174.072 436.404 176.687C437.353 179.302 443.308 179.547 443.308 179.547L445.687 180.976L429.744 184.071L421.606 187.587C421.215 187.753 420.979 188.174 421.038 188.595C421.117 189.114 421.596 189.477 422.115 189.398L429.264 188.351L437.471 187.753L424.25 193.796C423.702 194.089 423.398 194.706 423.516 195.323C423.673 196.165 424.525 196.694 425.347 196.449L438.372 193.374L429.95 199.887C429.431 200.23 429.225 200.895 429.48 201.473C429.764 202.11 430.508 202.404 431.145 202.129L439.4 198.565L435.346 203.833C435.121 204.127 435.13 204.539 435.356 204.823C435.62 205.146 436.09 205.214 436.433 204.979C438.303 203.667 443.915 199.74 444.502 199.544C445.217 199.309 450.927 196.929 451.877 196.684C452.826 196.449 456.401 195.255 456.401 195.255L464.02 197.869L463.775 184.541Z" fill="white" stroke="#18313A" stroke-miterlimit="10" stroke-linecap="round" stroke-linejoin="round"/>
<path d="M34.0562 416.999L217.881 323.045H464.01L644.751 416.999" fill="white"/>
<path d="M34.0562 416.999L217.881 323.045H464.01L644.751 416.999" stroke="#18313A" stroke-miterlimit="10" stroke-linecap="round" stroke-linejoin="round"/>
<path d="M334.478 347.245L303.894 366.802L348.521 371.316L374.091 351.25L334.478 347.245Z" fill="white" stroke="#18313A" stroke-miterlimit="10" stroke-linecap="round" stroke-linejoin="round"/>
<path d="M359.048 354.267L325.958 377.329L369.576 381.844L398.162 359.281L359.048 354.267Z" fill="white" stroke="#18313A" stroke-miterlimit="10" stroke-linecap="round" stroke-linejoin="round"/>
<path d="M290.35 347.743L278.314 376.329L321.443 377.827L328.465 348.742L290.35 347.743Z" fill="white" stroke="#18313A" stroke-miterlimit="10" stroke-linecap="round" stroke-linejoin="round"/>
<path d="M403.058 339.185L450.388 337.814L479.268 365.832L424.26 367.478L403.058 339.185Z" fill="#C7C7C7" stroke="#18313A" stroke-miterlimit="10" stroke-linecap="round" stroke-linejoin="round"/>
<path d="M452.376 343.916L437.393 344.846L451.083 359.644L467.183 358.537L452.376 343.916Z" fill="#C7C7C7" stroke="#18313A" stroke-miterlimit="10" stroke-linecap="round" stroke-linejoin="round"/>
<path d="M413.468 342.859L431.81 342.35L449.575 362.709L428.872 363.424L413.468 342.859Z" fill="#18313A" stroke="#18313A" stroke-miterlimit="10" stroke-linecap="round" stroke-linejoin="round"/>
<path d="M424.26 367.476L411.745 316.866L391.365 296.78L403.058 339.184L424.26 367.476Z" fill="#878787" stroke="#18313A" stroke-miterlimit="10" stroke-linecap="round" stroke-linejoin="round"/>
<path d="M571.773 290.032L596.804 296.74C599.066 297.348 601.093 298.621 602.631 300.383C605.284 303.439 606.166 307.65 604.971 311.518L583.142 384.202L551.295 367.965L571.773 290.032Z" fill="#18313A" stroke="#18313A" stroke-miterlimit="10" stroke-linecap="round" stroke-linejoin="round"/>
<path d="M515.991 265.108C515.991 265.108 501.958 270.21 499.921 272.502C497.884 274.793 492.018 313.828 492.018 313.828C492.018 313.828 486.152 315.865 486.152 317.403C486.152 318.93 486.152 318.93 486.152 318.93C486.152 318.93 479.777 321.741 477.475 323.523C475.184 325.306 474.41 325.56 477.475 328.626C480.54 331.691 485.124 337.302 490.48 339.085C495.837 340.867 496.973 341.112 496.973 341.112L560.971 373.115C560.971 373.115 581.037 280.679 581.291 278.632C581.546 276.595 551.187 261.543 548.387 260.016C545.576 258.478 515.991 265.108 515.991 265.108Z" fill="#FC3F37" stroke="#18313A" stroke-miterlimit="10" stroke-linecap="round" stroke-linejoin="round"/>
<path d="M517.774 263.582C517.774 263.582 514.963 266.647 515.228 267.92C515.492 269.193 516.246 276.342 516.246 278.124C516.246 279.907 516.246 288.838 516.246 288.838L525.177 265.628L523.65 261.29L517.774 263.582Z" fill="#FC3F37" stroke="#18313A" stroke-miterlimit="10" stroke-linecap="round" stroke-linejoin="round"/>
<path d="M550.169 253.123L543.471 250.136L521.603 268.175C521.603 268.175 518.792 273.531 517.519 281.699C516.246 289.866 514.199 314.858 514.199 314.858C514.199 314.858 524.149 293.685 525.422 291.394C526.695 289.102 526.95 279.407 526.95 279.407C526.95 279.407 539.191 275.323 543.02 268.184C546.859 261.035 550.169 253.123 550.169 253.123Z" fill="white" stroke="#18313A" stroke-miterlimit="10" stroke-linecap="round" stroke-linejoin="round"/>
<path d="M495.583 228.382C495.583 228.382 496.601 234.503 497.365 235.776C498.129 237.049 499.147 242.151 499.147 242.151C499.147 242.151 498.638 249.29 499.911 251.592C501.184 253.883 508.078 266.644 511.389 267.153C514.708 267.662 520.065 265.371 520.065 265.371L520.574 271.491C520.574 271.491 524.149 273.783 532.561 270.218C540.983 266.644 545.057 260.778 545.566 258.486C546.075 256.195 541.483 244.962 541.483 244.962V238.332C541.483 238.332 545.566 233.739 544.548 226.855C543.529 219.97 545.057 217.923 531.543 214.359C518.018 210.784 501.693 216.396 497.874 218.952C494.055 221.488 495.583 228.382 495.583 228.382Z" fill="white" stroke="#18313A" stroke-miterlimit="10" stroke-linecap="round" stroke-linejoin="round"/>
<path d="M526.705 227.62L528.742 229.402L529.506 235.013C529.506 235.013 532.052 236.796 532.826 234.25C533.59 231.703 532.316 227.365 535.372 225.828C538.437 224.3 541.238 223.791 541.238 229.147C541.238 234.504 538.427 243.181 538.427 243.181C538.427 243.181 540.974 246.246 541.493 244.963C542.002 243.69 545.576 222.772 545.576 222.772C545.576 222.772 540.474 219.707 537.154 218.688C533.844 217.67 526.705 227.62 526.705 227.62Z" fill="#18313A" stroke="#18313A" stroke-miterlimit="10" stroke-linecap="round" stroke-linejoin="round"/>
<path d="M516.755 219.454C516.755 219.454 510.38 222.264 509.871 225.32C509.362 228.385 505.787 233.223 500.43 233.223C495.073 233.223 495.583 227.357 492.527 227.102C489.462 226.847 483.851 227.866 483.851 218.68C483.851 209.494 490.226 208.985 492.782 207.202C495.328 205.42 492.018 205.166 496.102 200.063C500.185 194.961 503.75 196.743 507.325 196.743C510.899 196.743 509.871 191.896 516.256 191.387C522.631 190.877 524.932 192.914 525.951 194.197C526.969 195.47 532.326 193.943 536.155 196.489C539.984 199.035 540.239 201.336 542.276 203.628C544.313 205.92 548.142 204.392 547.633 209.494C547.123 214.596 545.596 216.888 546.36 218.171C547.123 219.444 548.651 219.444 547.887 221.745C547.123 224.037 544.313 226.083 544.568 226.847C544.822 227.611 538.701 228.12 535.382 225.829C532.062 223.537 532.835 227.611 526.705 227.611C520.575 227.611 515.991 222.773 516.755 219.454Z" fill="#18313A" stroke="#18313A" stroke-miterlimit="10" stroke-linecap="round" stroke-linejoin="round"/>
<path d="M532.826 234.249C532.826 234.249 533.08 228.382 535.372 225.827C537.663 223.28 541.747 226.336 540.983 231.947C540.219 237.559 536.9 243.679 534.353 243.425" fill="white"/>
<path d="M532.826 234.249C532.826 234.249 533.08 228.382 535.372 225.827C537.663 223.28 541.747 226.336 540.983 231.947C540.219 237.559 536.9 243.679 534.353 243.425" stroke="#18313A" stroke-miterlimit="10" stroke-linecap="round" stroke-linejoin="round"/>
<path d="M520.584 271.495C520.584 271.495 524.159 273.787 532.571 270.222C540.993 266.648 545.067 260.782 545.576 258.49C545.851 257.256 544.646 253.417 543.471 250.146C536.518 260.801 520.065 265.384 520.065 265.384L520.584 271.495Z" fill="white" stroke="#18313A" stroke-miterlimit="10" stroke-linecap="round" stroke-linejoin="round"/>
<path d="M520.075 265.372L531.807 255.932L527.214 262.307L520.075 265.372Z" fill="#18313A" stroke="#18313A" stroke-miterlimit="10" stroke-linecap="round" stroke-linejoin="round"/>
<path d="M505.278 253.123C505.278 253.123 511.144 256.698 518.028 249.549" stroke="#18313A" stroke-miterlimit="10" stroke-linecap="round" stroke-linejoin="round"/>
<path d="M515.805 239.765C516.217 241.038 516.06 242.233 515.463 242.428C514.855 242.624 514.033 241.753 513.621 240.48C513.21 239.207 513.367 238.012 513.964 237.816C514.571 237.61 515.394 238.492 515.805 239.765Z" fill="#18313A"/>
<path d="M504.073 239.765C504.485 241.038 504.328 242.233 503.731 242.428C503.123 242.624 502.301 241.753 501.89 240.48C501.478 239.207 501.635 238.012 502.232 237.816C502.839 237.61 503.662 238.492 504.073 239.765Z" fill="#18313A"/>
<path d="M511.398 235.524C511.398 235.524 516.246 232.978 518.792 236.033" stroke="#18313A" stroke-miterlimit="10" stroke-linecap="round" stroke-linejoin="round"/>
<path d="M499.157 235.269C499.157 235.269 502.732 233.996 503.241 235.523L505.278 239.862L504.005 251.085L510.635 249.811" stroke="#18313A" stroke-miterlimit="10" stroke-linecap="round" stroke-linejoin="round"/>
<path d="M550.169 253.122C550.169 253.122 534.353 275.059 526.959 279.397L532.571 289.092C532.571 289.092 547.877 275.313 550.678 269.192C553.489 263.072 553.489 263.072 553.489 263.072L550.169 253.122Z" fill="#FC3F37" stroke="#18313A" stroke-miterlimit="10" stroke-linecap="round" stroke-linejoin="round"/>
<path d="M552.98 287.053L547.878 331.435C547.878 331.435 544.812 331.435 544.812 333.472C544.812 335.509 544.303 337.811 544.303 337.811L492.772 348.015C492.772 348.015 474.156 345.469 472.618 345.978C471.09 346.487 466.801 350.463 465.273 351.736C463.745 353.009 457.507 358.787 458.526 360.325C459.544 361.852 463.892 358.18 463.892 358.18C463.892 358.18 460.122 363.586 462.159 363.077C464.196 362.567 466.801 359.718 466.801 359.718L470.787 357.269C470.787 357.269 465.978 363.596 467.516 363.341C469.044 363.086 471.854 361.049 471.854 361.049L473.636 360.031C473.636 360.031 470.317 363.351 472.109 363.86C473.891 364.369 477.72 360.286 477.72 360.286L481.04 358.249C481.04 358.249 483.851 360.031 488.179 358.758C492.517 357.485 495.573 356.212 495.573 356.212C495.573 356.212 557.298 361.823 561.382 360.55C565.466 359.277 569.55 359.022 570.568 356.721C571.587 354.429 580.263 280.198 581.282 278.67C582.3 277.143 565.211 270.503 565.211 270.503" fill="#FC3F37"/>
<path d="M552.98 287.053L547.878 331.435C547.878 331.435 544.812 331.435 544.812 333.472C544.812 335.509 544.303 337.811 544.303 337.811L492.772 348.015C492.772 348.015 474.156 345.469 472.618 345.978C471.09 346.487 466.801 350.463 465.273 351.736C463.745 353.009 457.507 358.787 458.526 360.325C459.544 361.852 463.892 358.18 463.892 358.18C463.892 358.18 460.122 363.586 462.159 363.077C464.196 362.567 466.801 359.718 466.801 359.718L470.787 357.269C470.787 357.269 465.978 363.596 467.516 363.341C469.044 363.086 471.854 361.049 471.854 361.049L473.636 360.031C473.636 360.031 470.317 363.351 472.109 363.86C473.891 364.369 477.72 360.286 477.72 360.286L481.04 358.249C481.04 358.249 483.851 360.031 488.179 358.758C492.517 357.485 495.573 356.212 495.573 356.212C495.573 356.212 557.298 361.823 561.382 360.55C565.466 359.277 569.55 359.022 570.568 356.721C571.587 354.429 580.263 280.198 581.282 278.67C582.3 277.143 565.211 270.503 565.211 270.503" stroke="#18313A" stroke-miterlimit="10" stroke-linecap="round" stroke-linejoin="round"/>
<path d="M517.274 343.159L492.772 348.007L504.2 345.745C506.032 347.546 508.147 350.974 508.421 357.3C512.143 357.614 516.412 357.976 520.878 358.338C523.64 349.025 518.067 343.845 517.274 343.159Z" fill="#FC3F37" stroke="#18313A" stroke-miterlimit="10" stroke-linecap="round" stroke-linejoin="round"/>
<path d="M546.076 338.705C546.076 338.705 559.414 343.308 563.703 347.294C567.993 351.279 559.257 340.243 553.43 337.324" stroke="#18313A" stroke-miterlimit="10" stroke-linecap="round" stroke-linejoin="round"/>
<path d="M504.21 345.755L492.782 348.017C492.782 348.017 474.165 345.471 472.628 345.98C471.1 346.489 466.811 350.465 465.283 351.738C463.755 353.012 457.517 358.789 458.536 360.327C459.554 361.855 463.902 358.182 463.902 358.182C463.902 358.182 460.132 363.588 462.169 363.079C464.206 362.57 466.811 359.72 466.811 359.72L470.796 357.272C470.796 357.272 465.988 363.598 467.526 363.343C469.053 363.089 471.864 361.052 471.864 361.052L473.646 360.033C473.646 360.033 470.326 363.353 472.119 363.862C473.901 364.371 477.73 360.288 477.73 360.288L481.05 358.251C481.05 358.251 483.86 360.033 488.189 358.76C492.527 357.487 495.583 356.214 495.583 356.214C495.583 356.214 500.861 356.694 508.421 357.34C508.157 350.984 506.042 347.547 504.21 345.755Z" fill="white" stroke="#18313A" stroke-miterlimit="10" stroke-linecap="round" stroke-linejoin="round"/>
<path d="M473.646 360.003C473.646 360.003 478.161 355.41 479.992 354.793" stroke="#18313A" stroke-miterlimit="10" stroke-linecap="round" stroke-linejoin="round"/>
<path d="M470.796 357.249C470.796 357.249 475.399 352.186 477.23 351.579" stroke="#18313A" stroke-miterlimit="10" stroke-linecap="round" stroke-linejoin="round"/>
<path d="M463.902 358.171C463.902 358.171 471.11 349.896 473.715 348.818" stroke="#18313A" stroke-miterlimit="10" stroke-linecap="round" stroke-linejoin="round"/>
<path d="M476.574 326.167L470.757 333.473C470.757 333.473 453.012 334.07 450.026 334.815C447.039 335.559 443.17 344.363 443.17 346.145C443.17 347.937 444.963 347.791 445.854 346.596C446.745 345.401 449.428 339.888 449.428 339.888C449.428 339.888 446.441 348.535 446.441 349.436C446.441 350.337 448.38 349.436 448.38 349.436C448.38 349.436 448.233 351.228 449.271 351.669C450.319 352.119 452.699 350.621 452.699 350.621C452.699 350.621 453.296 351.815 455.089 350.768C456.881 349.72 461.199 342.718 462.394 341.973C463.589 341.229 467.016 341.827 467.016 341.827C467.016 341.827 463.589 343.472 462.247 346.302C460.906 349.132 461.199 350.033 462.1 349.73C463.001 349.426 465.978 346.449 467.771 345.558C469.563 344.667 474.038 344.96 475.38 344.363C476.721 343.766 488.806 337.204 488.806 337.204C488.806 337.204 488.659 330.496 484.634 327.813C480.599 325.12 476.574 326.167 476.574 326.167Z" fill="white" stroke="#18313A" stroke-miterlimit="10" stroke-linecap="round" stroke-linejoin="round"/>
<path d="M484.624 327.813C480.599 325.13 476.574 326.168 476.574 326.168L472.882 330.81C474.146 330.928 481.618 331.985 482.47 340.633C485.701 338.889 488.806 337.205 488.806 337.205C488.806 337.205 488.649 330.497 484.624 327.813Z" fill="#FC3F37" stroke="#18313A" stroke-miterlimit="10" stroke-linecap="round" stroke-linejoin="round"/>
<path d="M470.757 333.472C470.757 333.472 475.233 333.178 476.574 336.458" stroke="#18313A" stroke-miterlimit="10" stroke-linecap="round" stroke-linejoin="round"/>
<path d="M448.39 349.435L453.904 337.497" stroke="#18313A" stroke-miterlimit="10" stroke-linecap="round" stroke-linejoin="round"/>
<path d="M452.709 350.63L457.782 338.252" stroke="#18313A" stroke-miterlimit="10" stroke-linecap="round" stroke-linejoin="round"/>
<path d="M449.428 339.885L450.927 337.055" stroke="#18313A" stroke-miterlimit="10" stroke-linecap="round" stroke-linejoin="round"/>
<path d="M496.973 341.114L497.903 329.01C497.903 329.01 497.306 323.193 497.306 317.973C497.306 312.754 503.574 279.35 503.574 279.35" stroke="#18313A" stroke-miterlimit="10" stroke-linecap="round" stroke-linejoin="round"/>
<path d="M512.662 319.156C512.662 319.156 512.515 327.51 512.064 331.985C511.614 336.461 509.675 342.278 509.675 342.278" stroke="#18313A" stroke-miterlimit="10" stroke-linecap="round" stroke-linejoin="round"/>
<path d="M287.344 338.559L235.862 337.119L207.168 366.596L265.035 368.32L287.344 338.559Z" fill="#C7C7C7" stroke="#18313A" stroke-miterlimit="10" stroke-linecap="round" stroke-linejoin="round"/>
<path d="M236.488 341.837L249.778 342.248L236.694 358.652L221.946 357.829L236.488 341.837Z" fill="#C7C7C7" stroke="#18313A" stroke-miterlimit="10" stroke-linecap="round" stroke-linejoin="round"/>
<path d="M276.395 342.425L255.184 341.837L240.024 362.814L260.178 364.057L276.395 342.425Z" fill="#18313A" stroke="#18313A" stroke-miterlimit="10" stroke-linecap="round" stroke-linejoin="round"/>
<path d="M265.035 368.318L278.197 315.083L299.644 293.959L287.344 338.557L265.035 368.318Z" fill="#878787" stroke="#18313A" stroke-miterlimit="10" stroke-linecap="round" stroke-linejoin="round"/>
<path d="M253.117 311.707C253.117 311.707 257.69 315.654 256.965 316.8C256.24 317.945 255.3 317.426 253.949 317.005C252.597 316.594 247.603 313.264 247.603 313.264C247.603 313.264 251.971 310.875 253.117 311.707Z" stroke="#18313A" stroke-miterlimit="10" stroke-linecap="round" stroke-linejoin="round"/>
<path d="M247.603 313.268C247.603 313.268 255.506 319.192 254.674 320.025C253.842 320.857 253.009 320.436 250.62 319.819C248.23 319.192 244.489 315.873 244.489 315.873L247.603 313.268Z" fill="white" stroke="#18313A" stroke-miterlimit="10" stroke-linecap="round" stroke-linejoin="round"/>
<path d="M244.597 317.223C244.597 317.223 249.072 321.071 248.965 321.483C248.857 321.894 248.338 322.726 246.673 322.423C245.008 322.109 241.581 319.514 241.581 319.514L244.597 317.223Z" fill="white" stroke="#18313A" stroke-miterlimit="10" stroke-linecap="round" stroke-linejoin="round"/>
<path d="M225.314 319.592C225.314 319.592 238.359 307.341 238.77 307.136C239.181 306.93 248.436 305.471 250.933 305.471C253.43 305.471 259.874 310.563 259.042 311.082C258.209 311.601 253.528 310.357 253.528 310.357H250.825C250.825 310.357 244.998 317.007 239.7 320.131C234.402 323.245 226.499 326.056 226.499 326.056L225.314 319.592Z" fill="white" stroke="#18313A" stroke-miterlimit="10" stroke-linecap="round" stroke-linejoin="round"/>
<path d="M237.036 312.041C236.517 312.041 236.077 311.649 236.018 311.13C235.959 310.562 236.361 310.053 236.929 309.994L265.133 307.39C265.417 307.36 265.671 307.566 265.701 307.84C265.73 308.114 265.524 308.379 265.25 308.408L237.154 312.041C237.115 312.041 237.076 312.041 237.036 312.041Z" fill="#18313A"/>
<path d="M236.899 314.1C236.899 314.1 247.084 309.625 248.651 309.106C250.208 308.587 259.463 310.565 259.051 311.084C258.64 311.603 258.944 312.435 256.975 312.954C254.997 313.473 250.424 313.16 250.424 313.16C250.424 313.16 244.704 318.458 241.688 320.857C238.672 323.247 236.282 324.804 233.266 325.117C230.25 325.431 227.655 325.225 227.655 325.225" fill="white"/>
<path d="M236.899 314.1C236.899 314.1 247.084 309.625 248.651 309.106C250.208 308.587 259.463 310.565 259.051 311.084C258.64 311.603 258.944 312.435 256.975 312.954C254.997 313.473 250.424 313.16 250.424 313.16C250.424 313.16 244.704 318.458 241.688 320.857C238.672 323.247 236.282 324.804 233.266 325.117C230.25 325.431 227.655 325.225 227.655 325.225" stroke="#18313A" stroke-miterlimit="10" stroke-linecap="round" stroke-linejoin="round"/>
<path d="M217.725 320.807L225.314 319.593L226.832 329.611L218.939 331.129L217.725 320.807Z" fill="#FC3F37" stroke="#18313A" stroke-miterlimit="10" stroke-linecap="round" stroke-linejoin="round"/>
<path d="M132.663 270.303C132.663 270.303 144.248 272.526 149.105 275.865C153.962 279.205 164.96 303.129 166.782 307.076C168.603 311.022 172.579 319.895 172.579 319.895C172.579 319.895 175.918 318.073 177.436 319.591C178.954 321.109 179.258 322.931 179.258 322.931C179.258 322.931 215.296 318.073 217.725 320.805C220.154 323.538 219.546 328.091 218.939 331.127C218.332 334.163 218.636 334.163 214.993 335.681C211.35 337.199 175.546 347.139 165.224 348.657C154.903 350.175 155.48 340.842 155.48 340.842C155.48 340.842 158.213 317.77 146.069 302.581C133.926 287.401 130.518 281.183 128.882 276.247C127.237 271.311 132.663 270.303 132.663 270.303Z" fill="#FC3F37" stroke="#18313A" stroke-miterlimit="10" stroke-linecap="round" stroke-linejoin="round"/>
<path d="M179.248 322.934C179.248 322.934 172.236 333.588 169.896 336.184" stroke="#18313A" stroke-miterlimit="10" stroke-linecap="round" stroke-linejoin="round"/>
<path d="M172.236 321.641L167.291 326.057" stroke="#18313A" stroke-miterlimit="10" stroke-linecap="round" stroke-linejoin="round"/>
<path d="M79.8582 301.229L53.5247 308.28C51.145 308.917 49.0101 310.249 47.3942 312.119C44.6032 315.341 43.6729 319.768 44.9362 323.832L68.0772 398.67L99.9927 382.042L79.8582 301.229Z" fill="#18313A" stroke="#18313A" stroke-miterlimit="10" stroke-linecap="round" stroke-linejoin="round"/>
<path d="M143.748 280.314C143.748 280.314 145.374 283.556 154.559 292.751C163.079 301.271 166.272 311.573 164.304 323.59C162.746 333.118 162.893 343.136 160.896 352.626L99.9828 382.054L78.5752 287.61C78.5752 287.61 96.6923 276.524 108.317 272.734C119.941 268.944 128.863 269.493 132.652 270.306C136.442 271.118 139.145 271.931 139.145 271.931" fill="#FC3F37"/>
<path d="M143.748 280.314C143.748 280.314 145.374 283.556 154.559 292.751C163.079 301.271 166.272 311.573 164.304 323.59C162.746 333.118 162.893 343.136 160.896 352.626L99.9828 382.054L78.5752 287.61C78.5752 287.61 96.6923 276.524 108.317 272.734C119.941 268.944 128.863 269.493 132.652 270.306C136.442 271.118 139.145 271.931 139.145 271.931" stroke="#18313A" stroke-miterlimit="10" stroke-linecap="round" stroke-linejoin="round"/>
<path d="M139.38 298.343C139.38 298.343 152.434 311.093 153.345 318.379C154.256 325.665 153.042 343.88 153.042 343.88" stroke="#18313A" stroke-miterlimit="10" stroke-linecap="round" stroke-linejoin="round"/>
<path d="M136.178 294.637L137.804 277.872L128.882 276.246C128.882 276.246 126.179 280.036 127.805 285.442C129.421 290.848 136.178 294.637 136.178 294.637Z" fill="white" stroke="#18313A" stroke-miterlimit="10" stroke-linecap="round" stroke-linejoin="round"/>
<path d="M137.794 277.869L145.374 288.955L136.991 287.878L137.794 277.869Z" fill="white" stroke="#18313A" stroke-miterlimit="10" stroke-linecap="round" stroke-linejoin="round"/>
<path d="M143.474 210.546C143.474 210.546 145.903 215.413 146.177 219.203C146.451 222.993 145.1 224.883 147.254 227.311C149.418 229.74 157.263 229.201 155.637 232.717C154.011 236.233 151.308 238.661 151.308 238.661C151.308 238.661 149.683 247.319 148.88 252.989C148.067 258.669 148.605 259.207 145.638 259.746C142.661 260.284 137.53 259.472 137.53 259.472C137.53 259.472 133.475 265.416 131.85 273.26C130.224 281.104 131.575 286.784 131.575 286.784L116.7 278.676C116.7 278.676 111.02 280.566 108.043 268.942C105.066 257.317 113.723 222.973 119.128 215.942C124.554 208.93 143.474 210.546 143.474 210.546Z" fill="white" stroke="#18313A" stroke-miterlimit="10" stroke-linecap="round" stroke-linejoin="round"/>
<path d="M120.764 225.959C120.764 225.959 122.654 234.068 121.577 235.694C120.499 237.319 116.171 231.639 116.171 231.639C116.171 231.639 118.874 222.444 120.764 225.959Z" fill="#18313A" stroke="#18313A" stroke-miterlimit="10" stroke-linecap="round" stroke-linejoin="round"/>
<path d="M116.71 278.687L129.96 281.389L136.178 294.639L129.421 290.85L126.17 302.484L105.35 279.764L116.71 278.687Z" fill="white" stroke="#18313A" stroke-miterlimit="10" stroke-linecap="round" stroke-linejoin="round"/>
<path d="M129.421 290.852L129.96 281.392L136.178 294.642L129.421 290.852Z" fill="white" stroke="#18313A" stroke-miterlimit="10" stroke-linecap="round" stroke-linejoin="round"/>
<path d="M112.988 247.808C114.897 251.47 119.069 249.022 119.069 249.022L129.959 255.701L121.302 252.459L109.139 261.919C109.139 261.919 109.345 240.825 112.988 247.808Z" fill="#18313A" stroke="#18313A" stroke-miterlimit="10" stroke-linecap="round" stroke-linejoin="round"/>
<path d="M148.077 244.078C148.077 244.078 142.397 245.704 140.781 243.001" stroke="#18313A" stroke-miterlimit="10" stroke-linecap="round" stroke-linejoin="round"/>
<path d="M143.689 226.783C144.189 228.428 144.013 229.936 143.298 230.152C142.583 230.367 141.603 229.212 141.104 227.567C140.605 225.921 140.781 224.413 141.496 224.198C142.211 223.982 143.19 225.138 143.689 226.783Z" fill="#18313A"/>
<path d="M138.068 222.172C138.068 222.172 140.506 218.382 144.012 220.547" stroke="#18313A" stroke-miterlimit="10" stroke-linecap="round" stroke-linejoin="round"/>
<path d="M146.989 202.976C146.989 202.976 147.264 205.141 143.474 210.546C139.684 215.952 124.818 222.709 120.764 225.961C116.709 229.202 111.568 256.789 112.381 264.085C113.194 271.381 114.006 274.094 118.061 274.094C122.115 274.094 124.818 270.852 124.818 270.852C124.818 270.852 123.467 283.015 117.248 285.453C111.029 287.882 103.185 283.025 96.428 283.563C89.6708 284.102 83.178 290.056 79.9365 292.485C76.695 294.914 75.3435 297.078 68.8507 293.298C62.3579 289.508 65.0608 283.838 65.0608 283.838C65.0608 283.838 70.7408 286.815 73.9823 279.783C77.2238 272.752 79.6623 277.893 76.6852 261.128C73.7081 244.362 72.8953 234.628 82.9038 216.246C92.9123 197.855 105.075 195.965 105.075 195.965C105.075 195.965 119.412 194.055 146.989 202.976Z" fill="#18313A" stroke="#18313A" stroke-miterlimit="10" stroke-linecap="round" stroke-linejoin="round"/>
<path d="M181.334 358.174C181.334 358.174 206.482 347.627 208.372 347.627C210.263 347.627 227.028 355.736 227.028 355.736L228.105 357.626C228.105 357.626 229.183 358.164 228.38 359.79C227.567 361.416 222.161 361.141 222.161 361.141C222.161 361.141 226.49 361.954 224.59 363.031C222.7 364.109 208.363 363.031 208.363 363.031C208.363 363.031 202.144 366.547 195.926 367.624C189.707 368.702 179.973 367.086 179.973 367.086L181.334 358.174Z" fill="white" stroke="#18313A" stroke-miterlimit="10" stroke-linecap="round" stroke-linejoin="round"/>
<path d="M228.105 357.636L211.536 350.429" stroke="#18313A" stroke-miterlimit="10" stroke-linecap="round" stroke-linejoin="round"/>
<path d="M228.38 359.8L210.89 353.855" stroke="#18313A" stroke-miterlimit="10" stroke-linecap="round" stroke-linejoin="round"/>
<path d="M222.161 361.153C222.161 361.153 215.326 359.4 214.121 359.126C212.917 358.852 211.164 358.852 210.419 358.94" stroke="#18313A" stroke-miterlimit="10" stroke-linecap="round" stroke-linejoin="round"/>
<path d="M172.138 357.37L181.334 358.173L180.521 368.994L171.6 369.533L172.138 357.37Z" fill="white" stroke="#18313A" stroke-miterlimit="10" stroke-linecap="round" stroke-linejoin="round"/>
<path d="M114.545 287.88C114.545 287.88 103.734 276.794 97.2409 276.255C90.7481 275.717 76.4209 279.497 76.4209 296.537C76.4209 313.567 84.8037 340.88 85.881 358.458C86.9582 376.037 94.8025 386.036 97.2409 385.771C99.6696 385.497 129.685 383.881 147.538 378.475C165.381 373.07 170.248 372.795 171.6 369.554C172.951 366.312 173.49 360.358 172.138 357.391C170.787 354.414 119.138 355.227 118.061 355.227C116.984 355.227 109.678 304.91 109.678 304.91" fill="#FC3F37"/>
<path d="M114.545 287.88C114.545 287.88 103.734 276.794 97.2409 276.255C90.7481 275.717 76.4209 279.497 76.4209 296.537C76.4209 313.567 84.8037 340.88 85.881 358.458C86.9582 376.037 94.8025 386.036 97.2409 385.771C99.6696 385.497 129.685 383.881 147.538 378.475C165.381 373.07 170.248 372.795 171.6 369.554C172.951 366.312 173.49 360.358 172.138 357.391C170.787 354.414 119.138 355.227 118.061 355.227C116.984 355.227 109.678 304.91 109.678 304.91" stroke="#18313A" stroke-miterlimit="10" stroke-linecap="round" stroke-linejoin="round"/>
<path d="M115.358 355.474C115.358 355.474 103.734 358.989 98.0537 366.021" stroke="#18313A" stroke-miterlimit="10" stroke-linecap="round" stroke-linejoin="round"/>
<path d="M114.007 353.041C114.007 353.041 102.382 354.931 97.5151 358.447" stroke="#18313A" stroke-miterlimit="10" stroke-linecap="round" stroke-linejoin="round"/>
<path d="M519.39 369.222C519.39 369.222 526.666 367.488 526.646 372.688C526.627 377.889 524.795 385.155 522.092 386.546C519.39 387.926 514.757 385.165 514.757 385.165L514.699 382.051C514.699 382.051 520.712 384.822 521.906 380.67C523.101 376.518 523.532 372.698 517.431 373.746" fill="#18313A"/>
<path d="M519.39 369.222C519.39 369.222 526.666 367.488 526.646 372.688C526.627 377.889 524.795 385.155 522.092 386.546C519.39 387.926 514.757 385.165 514.757 385.165L514.699 382.051C514.699 382.051 520.712 384.822 521.906 380.67C523.101 376.518 523.532 372.698 517.431 373.746" stroke="#101E23" stroke-miterlimit="10" stroke-linecap="round" stroke-linejoin="round"/>
<path d="M520.389 364.54L518.048 392.254C518.048 394.419 512.583 396.181 505.846 396.181C499.108 396.181 493.644 394.428 493.644 392.254L491.303 364.54H520.389Z" fill="#18313A" stroke="#18313A" stroke-miterlimit="10" stroke-linecap="round" stroke-linejoin="round"/>
<path d="M505.836 369.212C513.873 369.212 520.389 367.12 520.389 364.54C520.389 361.961 513.873 359.869 505.836 359.869C497.799 359.869 491.284 361.961 491.284 364.54C491.284 367.12 497.799 369.212 505.836 369.212Z" fill="white" stroke="#18313A" stroke-miterlimit="10" stroke-linecap="round" stroke-linejoin="round"/>
<path d="M500.939 367.665C502.448 367.851 504.103 367.959 505.836 367.959C510.635 367.959 514.806 367.156 516.902 365.971" fill="white"/>
<path d="M500.939 367.665C502.448 367.851 504.103 367.959 505.836 367.959C510.635 367.959 514.806 367.156 516.902 365.971" stroke="#18313A" stroke-miterlimit="10" stroke-linecap="round" stroke-linejoin="round"/>
<path d="M494.329 365.688C495.015 366.167 496.023 366.598 497.277 366.951Z" fill="white"/>
<path d="M494.329 365.688C495.015 366.167 496.023 366.598 497.277 366.951" stroke="#18313A" stroke-miterlimit="10" stroke-linecap="round" stroke-linejoin="round"/>
<path d="M173.881 375.148C173.881 375.148 166.82 373.405 166.409 378.654C165.998 383.903 167.202 391.257 169.768 392.658C172.334 394.058 177.142 391.248 177.142 391.248L177.456 388.094C177.456 388.094 171.276 390.905 170.434 386.704C169.602 382.502 169.494 378.654 175.438 379.692" fill="#18313A"/>
<path d="M173.881 375.148C173.881 375.148 166.82 373.405 166.409 378.654C165.998 383.903 167.202 391.257 169.768 392.658C172.334 394.058 177.142 391.248 177.142 391.248L177.456 388.094C177.456 388.094 171.276 390.905 170.434 386.704C169.602 382.502 169.494 378.654 175.438 379.692" stroke="#101E23" stroke-miterlimit="10" stroke-linecap="round" stroke-linejoin="round"/>
<path d="M172.177 370.564L174.518 398.279C174.518 400.443 179.982 402.206 186.72 402.206C193.458 402.206 198.922 400.453 198.922 398.279L201.263 370.564H172.177Z" fill="#18313A" stroke="#18313A" stroke-miterlimit="10" stroke-linecap="round" stroke-linejoin="round"/>
<path d="M201.272 370.563C201.272 373.148 194.76 375.234 186.72 375.234C178.69 375.234 172.167 373.138 172.167 370.563C172.167 367.978 178.68 365.892 186.72 365.892C194.76 365.892 201.272 367.987 201.272 370.563Z" fill="white" stroke="#18313A" stroke-miterlimit="10" stroke-linecap="round" stroke-linejoin="round"/>
<path d="M191.626 373.687C190.118 373.873 188.463 373.981 186.73 373.981C181.931 373.981 177.759 373.178 175.664 371.993" fill="white"/>
<path d="M191.626 373.687C190.118 373.873 188.463 373.981 186.73 373.981C181.931 373.981 177.759 373.178 175.664 371.993" stroke="#18313A" stroke-miterlimit="10" stroke-linecap="round" stroke-linejoin="round"/>
<path d="M198.236 371.707C197.551 372.187 196.542 372.618 195.289 372.97Z" fill="white"/>
<path d="M198.236 371.707C197.551 372.187 196.542 372.618 195.289 372.97" stroke="#18313A" stroke-miterlimit="10" stroke-linecap="round" stroke-linejoin="round"/>
<path d="M497.346 388.732C497.276 388.862 497.173 388.963 497.037 389.033C496.901 389.104 496.737 389.14 496.547 389.14H496V387.411H496.547C496.738 387.411 496.901 387.446 497.037 387.515C497.173 387.585 497.276 387.685 497.346 387.815C497.416 387.945 497.452 388.099 497.452 388.275C497.452 388.45 497.416 388.602 497.346 388.732ZM497.046 388.765C497.165 388.649 497.224 388.486 497.224 388.274C497.224 388.064 497.165 387.899 497.047 387.783C496.929 387.666 496.757 387.608 496.53 387.608H496.223V388.94H496.53C496.755 388.94 496.927 388.882 497.046 388.765Z" fill="#FC3F37"/>
<path d="M498.976 388.514H497.904C497.909 388.668 497.953 388.783 498.034 388.86C498.116 388.937 498.217 388.975 498.336 388.975C498.443 388.975 498.534 388.948 498.606 388.893C498.679 388.838 498.722 388.765 498.739 388.673H498.975C498.959 388.766 498.923 388.85 498.867 388.924C498.81 388.997 498.737 389.055 498.648 389.095C498.558 389.136 498.457 389.156 498.345 389.156C498.216 389.156 498.102 389.129 498.003 389.073C497.903 389.017 497.825 388.937 497.77 388.833C497.714 388.73 497.686 388.607 497.686 388.467C497.686 388.326 497.714 388.204 497.77 388.099C497.825 387.994 497.904 387.913 498.003 387.858C498.102 387.803 498.216 387.774 498.345 387.774C498.475 387.774 498.588 387.802 498.685 387.858C498.782 387.913 498.856 387.988 498.908 388.082C498.959 388.174 498.985 388.278 498.985 388.391C498.986 388.439 498.982 388.48 498.976 388.514ZM498.712 388.156C498.674 388.089 498.623 388.039 498.558 388.006C498.493 387.974 498.422 387.957 498.345 387.957C498.223 387.957 498.121 387.996 498.037 388.072C497.954 388.148 497.909 388.26 497.903 388.406H498.761C498.766 388.307 498.749 388.223 498.712 388.156Z" fill="#FC3F37"/>
<path d="M499.797 388.903L500.212 387.794H500.452L499.926 389.141H499.663L499.137 387.794H499.377L499.797 388.903Z" fill="#FC3F37"/>
<path d="M502.344 388.681C502.273 388.812 502.169 388.914 502.032 388.985C501.895 389.057 501.73 389.093 501.538 389.093H500.985V387.348H501.538C501.73 387.348 501.894 387.383 502.032 387.453C502.169 387.523 502.273 387.624 502.344 387.755C502.415 387.886 502.45 388.041 502.45 388.219C502.45 388.396 502.414 388.55 502.344 388.681ZM502.041 388.714C502.161 388.597 502.221 388.432 502.221 388.219C502.221 388.006 502.161 387.841 502.042 387.723C501.923 387.605 501.749 387.546 501.521 387.546H501.21V388.89H501.521C501.747 388.89 501.92 388.832 502.041 388.714Z" fill="white"/>
<path d="M502.756 387.236C502.784 387.21 502.82 387.197 502.866 387.197C502.912 387.197 502.949 387.21 502.977 387.236C503.005 387.261 503.019 387.295 503.019 387.336C503.019 387.377 503.005 387.411 502.977 387.437C502.949 387.462 502.912 387.475 502.866 387.475C502.82 387.475 502.784 387.462 502.756 387.437C502.728 387.411 502.714 387.377 502.714 387.336C502.714 387.295 502.728 387.261 502.756 387.236ZM502.977 387.734V389.093H502.753V387.734H502.977Z" fill="white"/>
<path d="M505.382 387.864C505.478 387.966 505.526 388.113 505.526 388.304V389.094H505.302V388.324C505.302 388.19 505.269 388.088 505.205 388.017C505.14 387.946 505.051 387.911 504.937 387.911C504.819 387.911 504.724 387.95 504.653 388.028C504.581 388.107 504.545 388.222 504.545 388.373V389.094H504.321V388.324C504.321 388.19 504.288 388.088 504.222 388.017C504.157 387.946 504.068 387.911 503.956 387.911C503.836 387.911 503.74 387.95 503.669 388.028C503.597 388.107 503.561 388.222 503.561 388.373V389.094H503.337V387.735H503.561V388.044C503.594 387.937 503.653 387.854 503.738 387.797C503.822 387.741 503.92 387.712 504.03 387.712C504.145 387.712 504.245 387.741 504.329 387.8C504.414 387.858 504.475 387.945 504.51 388.059C504.548 387.948 504.612 387.863 504.7 387.803C504.789 387.742 504.889 387.713 505.001 387.713C505.159 387.713 505.286 387.763 505.382 387.864Z" fill="white"/>
<path d="M507.109 388.462H506.027C506.032 388.617 506.076 388.734 506.158 388.811C506.241 388.889 506.343 388.928 506.463 388.928C506.571 388.928 506.662 388.901 506.735 388.845C506.808 388.79 506.853 388.716 506.87 388.624H507.108C507.092 388.718 507.055 388.802 506.999 388.876C506.942 388.95 506.868 389.008 506.778 389.05C506.688 389.091 506.586 389.112 506.473 389.112C506.343 389.112 506.228 389.084 506.128 389.027C506.028 388.971 505.949 388.891 505.893 388.786C505.836 388.681 505.808 388.558 505.808 388.415C505.808 388.274 505.836 388.15 505.893 388.044C505.949 387.939 506.028 387.857 506.128 387.801C506.228 387.745 506.343 387.717 506.473 387.717C506.605 387.717 506.719 387.745 506.817 387.801C506.914 387.857 506.989 387.932 507.041 388.027C507.093 388.121 507.119 388.225 507.119 388.338C507.119 388.386 507.116 388.427 507.109 388.462ZM506.843 388.101C506.805 388.033 506.753 387.983 506.687 387.95C506.622 387.917 506.55 387.9 506.473 387.9C506.35 387.9 506.246 387.939 506.163 388.015C506.079 388.092 506.033 388.205 506.027 388.353H506.892C506.897 388.252 506.881 388.168 506.843 388.101Z" fill="white"/>
<path d="M508.507 387.864C508.604 387.966 508.652 388.112 508.652 388.304V389.093H508.428V388.323C508.428 388.188 508.393 388.084 508.324 388.012C508.255 387.939 508.162 387.903 508.043 387.903C507.92 387.903 507.821 387.943 507.747 388.023C507.673 388.103 507.636 388.22 507.636 388.373V389.093H507.412V387.734H507.636V388.056C507.671 387.945 507.732 387.86 507.82 387.801C507.907 387.742 508.009 387.712 508.124 387.712C508.282 387.712 508.41 387.763 508.507 387.864Z" fill="white"/>
<path d="M509.79 387.837C509.883 387.917 509.939 388.024 509.958 388.16H509.744C509.734 388.079 509.701 388.013 509.644 387.96C509.587 387.908 509.511 387.883 509.416 387.883C509.335 387.883 509.272 387.902 509.227 387.941C509.182 387.98 509.159 388.032 509.159 388.098C509.159 388.148 509.174 388.188 509.205 388.218C509.236 388.249 509.273 388.272 509.318 388.288C509.363 388.303 509.425 388.321 509.504 388.339C509.604 388.362 509.685 388.385 509.747 388.409C509.808 388.433 509.861 388.471 509.905 388.524C509.948 388.577 509.97 388.648 509.97 388.737C509.97 388.848 509.929 388.937 509.846 389.007C509.763 389.076 509.652 389.111 509.514 389.111C509.353 389.111 509.222 389.072 509.12 388.994C509.018 388.916 508.958 388.809 508.94 388.67H509.157C509.165 388.752 509.201 388.819 509.264 388.87C509.327 388.922 509.41 388.947 509.514 388.947C509.592 388.947 509.652 388.927 509.695 388.888C509.739 388.848 509.761 388.796 509.761 388.732C509.761 388.679 509.745 388.636 509.714 388.605C509.682 388.574 509.644 388.55 509.598 388.534C509.552 388.517 509.489 388.5 509.408 388.481C509.307 388.458 509.227 388.435 509.167 388.412C509.107 388.389 509.056 388.352 509.014 388.302C508.972 388.252 508.951 388.184 508.951 388.097C508.951 387.984 508.992 387.892 509.076 387.821C509.16 387.751 509.274 387.716 509.419 387.716C509.574 387.716 509.697 387.756 509.79 387.837Z" fill="white"/>
<path d="M510.275 387.236C510.303 387.21 510.34 387.197 510.386 387.197C510.432 387.197 510.469 387.21 510.497 387.236C510.525 387.261 510.538 387.295 510.538 387.336C510.538 387.377 510.525 387.411 510.497 387.437C510.469 387.462 510.432 387.475 510.386 387.475C510.34 387.475 510.303 387.462 510.275 387.437C510.247 387.411 510.233 387.377 510.233 387.336C510.233 387.295 510.247 387.261 510.275 387.236ZM510.497 387.734V389.093H510.272V387.734H510.497Z" fill="white"/>
<path d="M511.819 387.801C511.921 387.857 512.002 387.938 512.061 388.044C512.119 388.15 512.148 388.274 512.148 388.415C512.148 388.557 512.119 388.681 512.061 388.786C512.002 388.89 511.922 388.971 511.819 389.027C511.716 389.084 511.6 389.112 511.47 389.112C511.34 389.112 511.224 389.084 511.121 389.027C511.018 388.971 510.937 388.891 510.878 388.786C510.819 388.681 510.789 388.558 510.789 388.415C510.789 388.274 510.819 388.15 510.878 388.044C510.937 387.939 511.018 387.857 511.121 387.801C511.223 387.745 511.34 387.717 511.47 387.717C511.6 387.717 511.716 387.745 511.819 387.801ZM511.247 387.969C511.178 388.006 511.123 388.061 511.082 388.136C511.04 388.211 511.018 388.304 511.018 388.415C511.018 388.524 511.039 388.616 511.082 388.691C511.123 388.767 511.179 388.822 511.247 388.858C511.314 388.895 511.389 388.913 511.47 388.913C511.551 388.913 511.625 388.895 511.693 388.858C511.761 388.822 511.817 388.766 511.858 388.691C511.9 388.616 511.921 388.524 511.921 388.415C511.921 388.304 511.901 388.211 511.858 388.136C511.817 388.061 511.761 388.005 511.693 387.969C511.625 387.933 511.551 387.915 511.47 387.915C511.389 387.915 511.315 387.933 511.247 387.969Z" fill="white"/>
<path d="M513.536 387.864C513.633 387.966 513.681 388.112 513.681 388.304V389.093H513.457V388.323C513.457 388.188 513.422 388.084 513.353 388.012C513.284 387.939 513.19 387.903 513.072 387.903C512.949 387.903 512.85 387.943 512.776 388.023C512.702 388.103 512.665 388.22 512.665 388.373V389.093H512.44V387.734H512.665V388.056C512.7 387.945 512.761 387.86 512.848 387.801C512.937 387.742 513.038 387.712 513.153 387.712C513.312 387.712 513.439 387.763 513.536 387.864Z" fill="white"/>
<path d="M514.819 387.837C514.912 387.917 514.968 388.024 514.988 388.16H514.773C514.763 388.079 514.73 388.013 514.673 387.96C514.617 387.908 514.54 387.883 514.445 387.883C514.365 387.883 514.302 387.902 514.256 387.941C514.211 387.98 514.188 388.032 514.188 388.098C514.188 388.148 514.203 388.188 514.234 388.218C514.265 388.249 514.303 388.272 514.347 388.288C514.393 388.303 514.455 388.321 514.533 388.339C514.633 388.362 514.714 388.385 514.776 388.409C514.838 388.433 514.891 388.471 514.934 388.524C514.978 388.577 515 388.648 515 388.737C515 388.848 514.958 388.937 514.875 389.007C514.792 389.076 514.682 389.111 514.543 389.111C514.383 389.111 514.251 389.072 514.149 388.994C514.047 388.916 513.987 388.809 513.969 388.67H514.186C514.194 388.752 514.23 388.819 514.293 388.87C514.356 388.922 514.44 388.947 514.543 388.947C514.621 388.947 514.681 388.927 514.724 388.888C514.768 388.848 514.79 388.796 514.79 388.732C514.79 388.679 514.775 388.636 514.743 388.605C514.711 388.574 514.673 388.55 514.627 388.534C514.581 388.517 514.518 388.5 514.437 388.481C514.337 388.458 514.256 388.435 514.196 388.412C514.136 388.389 514.085 388.352 514.043 388.302C514.001 388.252 513.98 388.184 513.98 388.097C513.98 387.984 514.022 387.892 514.106 387.821C514.19 387.751 514.303 387.716 514.448 387.716C514.604 387.716 514.726 387.756 514.819 387.837Z" fill="white"/>
<path d="M504.45 373.808V375.863H502.416V383.088H504.45V385.143H500.383V373.808H504.45Z" fill="white"/>
<path d="M505.632 373.889V375.926C507.209 376.381 508.295 377.828 508.296 379.476C508.296 381.162 507.171 382.585 505.632 383.025V385.064C508.3 384.614 510.334 382.284 510.334 379.476C510.334 376.669 508.3 374.338 505.632 373.889Z" fill="white"/>
<path d="M503.784 377.09H504.562C505.875 377.09 506.94 378.159 506.94 379.478C506.94 380.796 505.876 381.865 504.563 381.865H503.784V377.09Z" fill="#FC3F37"/>
<path d="M178.346 395.924C178.276 396.054 178.173 396.155 178.037 396.226C177.901 396.297 177.737 396.332 177.547 396.332H177V394.604H177.547C177.738 394.604 177.901 394.638 178.037 394.708C178.173 394.777 178.276 394.877 178.346 395.007C178.416 395.137 178.452 395.291 178.452 395.468C178.452 395.642 178.416 395.795 178.346 395.924ZM178.046 395.958C178.165 395.841 178.224 395.678 178.224 395.467C178.224 395.256 178.165 395.092 178.047 394.975C177.929 394.858 177.757 394.8 177.53 394.8H177.223V396.132H177.53C177.755 396.132 177.927 396.074 178.046 395.958Z" fill="#FC3F37"/>
<path d="M179.976 395.707H178.904C178.909 395.861 178.953 395.976 179.034 396.053C179.116 396.129 179.217 396.168 179.336 396.168C179.443 396.168 179.534 396.14 179.606 396.085C179.679 396.031 179.722 395.958 179.739 395.866H179.975C179.959 395.958 179.923 396.042 179.867 396.116C179.81 396.19 179.737 396.247 179.648 396.288C179.558 396.328 179.457 396.349 179.345 396.349C179.216 396.349 179.102 396.321 179.003 396.265C178.903 396.21 178.825 396.129 178.77 396.026C178.714 395.922 178.686 395.8 178.686 395.659C178.686 395.519 178.714 395.396 178.77 395.291C178.825 395.186 178.904 395.106 179.003 395.051C179.102 394.995 179.216 394.967 179.345 394.967C179.475 394.967 179.588 394.994 179.685 395.051C179.782 395.106 179.856 395.18 179.908 395.274C179.959 395.367 179.985 395.47 179.985 395.583C179.986 395.631 179.982 395.673 179.976 395.707ZM179.712 395.348C179.674 395.281 179.623 395.231 179.558 395.199C179.493 395.166 179.422 395.15 179.345 395.15C179.223 395.15 179.121 395.188 179.037 395.264C178.954 395.34 178.909 395.452 178.903 395.599H179.761C179.766 395.5 179.749 395.416 179.712 395.348Z" fill="#FC3F37"/>
<path d="M180.797 396.095L181.212 394.986H181.452L180.926 396.333H180.663L180.137 394.986H180.377L180.797 396.095Z" fill="#FC3F37"/>
<path d="M183.344 395.873C183.273 396.004 183.169 396.106 183.032 396.178C182.895 396.25 182.73 396.285 182.538 396.285H181.985V394.54H182.538C182.73 394.54 182.894 394.575 183.032 394.645C183.169 394.715 183.273 394.816 183.344 394.947C183.415 395.078 183.45 395.233 183.45 395.412C183.45 395.588 183.414 395.742 183.344 395.873ZM183.041 395.907C183.161 395.79 183.221 395.625 183.221 395.412C183.221 395.199 183.161 395.033 183.042 394.915C182.923 394.797 182.749 394.738 182.521 394.738H182.21V396.083H182.521C182.747 396.083 182.92 396.024 183.041 395.907Z" fill="white"/>
<path d="M183.756 394.428C183.784 394.402 183.82 394.39 183.866 394.39C183.912 394.39 183.949 394.402 183.977 394.428C184.005 394.454 184.019 394.487 184.019 394.528C184.019 394.57 184.005 394.603 183.977 394.629C183.949 394.655 183.912 394.667 183.866 394.667C183.82 394.667 183.784 394.655 183.756 394.629C183.728 394.603 183.714 394.57 183.714 394.528C183.714 394.487 183.728 394.454 183.756 394.428ZM183.977 394.927V396.286H183.753V394.927H183.977Z" fill="white"/>
<path d="M186.382 395.057C186.478 395.159 186.526 395.305 186.526 395.496V396.286H186.302V395.516C186.302 395.382 186.269 395.28 186.205 395.209C186.14 395.138 186.051 395.103 185.937 395.103C185.819 395.103 185.724 395.142 185.653 395.221C185.581 395.299 185.545 395.415 185.545 395.566V396.286H185.321V395.516C185.321 395.382 185.288 395.28 185.222 395.209C185.157 395.138 185.068 395.103 184.956 395.103C184.836 395.103 184.74 395.142 184.669 395.221C184.597 395.299 184.561 395.415 184.561 395.566V396.286H184.337V394.927H184.561V395.236C184.594 395.129 184.653 395.047 184.738 394.99C184.822 394.933 184.92 394.904 185.03 394.904C185.145 394.904 185.245 394.934 185.329 394.992C185.414 395.051 185.475 395.137 185.51 395.251C185.548 395.141 185.612 395.055 185.7 394.995C185.789 394.935 185.889 394.905 186.001 394.905C186.159 394.905 186.286 394.956 186.382 395.057Z" fill="white"/>
<path d="M188.109 395.654H187.027C187.032 395.809 187.076 395.926 187.158 396.004C187.241 396.082 187.343 396.12 187.463 396.12C187.571 396.12 187.662 396.093 187.735 396.037C187.808 395.982 187.853 395.908 187.87 395.816H188.108C188.092 395.91 188.055 395.994 187.999 396.068C187.942 396.143 187.868 396.201 187.778 396.242C187.688 396.283 187.586 396.304 187.473 396.304C187.343 396.304 187.228 396.276 187.128 396.22C187.028 396.164 186.949 396.083 186.893 395.978C186.836 395.873 186.808 395.75 186.808 395.608C186.808 395.466 186.836 395.342 186.893 395.236C186.949 395.131 187.028 395.05 187.128 394.994C187.228 394.937 187.343 394.909 187.473 394.909C187.605 394.909 187.719 394.937 187.817 394.994C187.914 395.05 187.989 395.125 188.041 395.219C188.093 395.313 188.119 395.417 188.119 395.531C188.119 395.579 188.116 395.62 188.109 395.654ZM187.843 395.293C187.805 395.226 187.753 395.175 187.687 395.142C187.622 395.11 187.55 395.093 187.473 395.093C187.35 395.093 187.246 395.131 187.163 395.208C187.079 395.284 187.033 395.397 187.027 395.546H187.892C187.897 395.445 187.881 395.361 187.843 395.293Z" fill="white"/>
<path d="M189.507 395.056C189.604 395.158 189.652 395.304 189.652 395.496V396.285H189.428V395.516C189.428 395.38 189.393 395.276 189.324 395.204C189.255 395.132 189.162 395.095 189.043 395.095C188.92 395.095 188.821 395.135 188.747 395.215C188.673 395.295 188.636 395.412 188.636 395.566V396.285H188.412V394.926H188.636V395.248C188.671 395.138 188.732 395.053 188.82 394.993C188.907 394.934 189.009 394.904 189.124 394.904C189.282 394.904 189.41 394.955 189.507 395.056Z" fill="white"/>
<path d="M190.79 395.029C190.883 395.109 190.939 395.217 190.958 395.352H190.744C190.734 395.271 190.701 395.205 190.644 395.153C190.587 395.101 190.511 395.075 190.416 395.075C190.335 395.075 190.272 395.094 190.227 395.133C190.182 395.172 190.159 395.224 190.159 395.29C190.159 395.34 190.174 395.38 190.205 395.411C190.236 395.441 190.273 395.464 190.318 395.48C190.363 395.496 190.425 395.513 190.504 395.531C190.604 395.554 190.685 395.578 190.747 395.601C190.808 395.625 190.861 395.664 190.905 395.716C190.948 395.769 190.97 395.84 190.97 395.929C190.97 396.04 190.929 396.13 190.846 396.199C190.763 396.268 190.652 396.303 190.514 396.303C190.353 396.303 190.222 396.264 190.12 396.186C190.018 396.109 189.958 396.001 189.94 395.862H190.157C190.165 395.945 190.201 396.012 190.264 396.063C190.327 396.114 190.41 396.139 190.514 396.139C190.592 396.139 190.652 396.119 190.695 396.08C190.739 396.041 190.761 395.988 190.761 395.924C190.761 395.871 190.745 395.829 190.714 395.798C190.682 395.767 190.644 395.743 190.598 395.726C190.552 395.709 190.489 395.692 190.408 395.674C190.307 395.651 190.227 395.628 190.167 395.604C190.107 395.581 190.056 395.545 190.014 395.494C189.972 395.444 189.951 395.376 189.951 395.29C189.951 395.176 189.992 395.084 190.076 395.013C190.16 394.943 190.274 394.908 190.419 394.908C190.574 394.909 190.697 394.949 190.79 395.029Z" fill="white"/>
<path d="M191.275 394.428C191.303 394.402 191.34 394.39 191.386 394.39C191.432 394.39 191.469 394.402 191.497 394.428C191.525 394.454 191.538 394.487 191.538 394.528C191.538 394.57 191.525 394.603 191.497 394.629C191.469 394.655 191.432 394.667 191.386 394.667C191.34 394.667 191.303 394.655 191.275 394.629C191.247 394.603 191.233 394.57 191.233 394.528C191.233 394.487 191.247 394.454 191.275 394.428ZM191.497 394.927V396.286H191.272V394.927H191.497Z" fill="white"/>
<path d="M192.819 394.994C192.921 395.05 193.002 395.131 193.061 395.236C193.119 395.342 193.148 395.466 193.148 395.608C193.148 395.75 193.119 395.873 193.061 395.978C193.002 396.083 192.922 396.164 192.819 396.22C192.716 396.276 192.6 396.304 192.47 396.304C192.34 396.304 192.224 396.276 192.121 396.22C192.018 396.164 191.937 396.083 191.878 395.978C191.819 395.873 191.789 395.75 191.789 395.608C191.789 395.466 191.819 395.342 191.878 395.236C191.937 395.131 192.018 395.05 192.121 394.994C192.223 394.937 192.34 394.909 192.47 394.909C192.6 394.909 192.716 394.937 192.819 394.994ZM192.247 395.162C192.178 395.198 192.123 395.254 192.082 395.328C192.04 395.404 192.018 395.497 192.018 395.607C192.018 395.716 192.039 395.808 192.082 395.884C192.123 395.959 192.179 396.015 192.247 396.05C192.314 396.087 192.389 396.105 192.47 396.105C192.551 396.105 192.625 396.087 192.693 396.05C192.761 396.014 192.817 395.958 192.858 395.884C192.9 395.808 192.921 395.717 192.921 395.607C192.921 395.497 192.901 395.404 192.858 395.328C192.817 395.253 192.761 395.197 192.693 395.162C192.625 395.125 192.551 395.107 192.47 395.107C192.389 395.107 192.315 395.126 192.247 395.162Z" fill="white"/>
<path d="M194.536 395.056C194.633 395.158 194.681 395.304 194.681 395.496V396.285H194.457V395.516C194.457 395.38 194.422 395.276 194.353 395.204C194.284 395.132 194.19 395.095 194.072 395.095C193.949 395.095 193.85 395.135 193.776 395.215C193.702 395.295 193.665 395.412 193.665 395.566V396.285H193.44V394.926H193.665V395.248C193.7 395.138 193.761 395.053 193.848 394.993C193.937 394.934 194.038 394.904 194.153 394.904C194.312 394.904 194.439 394.955 194.536 395.056Z" fill="white"/>
<path d="M195.819 395.029C195.912 395.109 195.968 395.217 195.988 395.352H195.773C195.763 395.271 195.73 395.205 195.673 395.153C195.617 395.101 195.54 395.075 195.445 395.075C195.365 395.075 195.302 395.094 195.256 395.133C195.211 395.172 195.188 395.224 195.188 395.29C195.188 395.34 195.203 395.38 195.234 395.411C195.265 395.441 195.303 395.464 195.347 395.48C195.393 395.496 195.455 395.513 195.533 395.531C195.633 395.554 195.714 395.578 195.776 395.601C195.838 395.625 195.891 395.664 195.934 395.716C195.978 395.769 196 395.84 196 395.929C196 396.04 195.958 396.13 195.875 396.199C195.792 396.268 195.682 396.303 195.543 396.303C195.383 396.303 195.251 396.264 195.149 396.186C195.047 396.109 194.987 396.001 194.969 395.862H195.186C195.194 395.945 195.23 396.012 195.293 396.063C195.356 396.114 195.44 396.139 195.543 396.139C195.621 396.139 195.681 396.119 195.724 396.08C195.768 396.041 195.79 395.988 195.79 395.924C195.79 395.871 195.775 395.829 195.743 395.798C195.711 395.767 195.673 395.743 195.627 395.726C195.581 395.709 195.518 395.692 195.437 395.674C195.337 395.651 195.256 395.628 195.196 395.604C195.136 395.581 195.085 395.545 195.043 395.494C195.001 395.444 194.98 395.376 194.98 395.29C194.98 395.176 195.022 395.084 195.106 395.013C195.19 394.943 195.303 394.908 195.448 394.908C195.604 394.909 195.726 394.949 195.819 395.029Z" fill="white"/>
<path d="M185.45 381V383.055H183.416V390.28H185.45V392.335H181.383V381H185.45Z" fill="white"/>
<path d="M186.632 381.081V383.118C188.209 383.573 189.295 385.021 189.296 386.668C189.296 388.355 188.171 389.777 186.632 390.218V392.256C189.3 391.807 191.334 389.476 191.334 386.668C191.334 383.861 189.3 381.531 186.632 381.081Z" fill="white"/>
<path d="M184.784 384.282H185.562C186.875 384.282 187.94 385.352 187.94 386.67C187.94 387.988 186.876 389.058 185.563 389.058H184.784V384.282Z" fill="#FC3F37"/>
</svg>
